<svg width="189" height="204" viewBox="0 0 189 204" fill="none" xmlns="http://www.w3.org/2000/svg">
<mask id="mask0" mask-type="alpha" maskUnits="userSpaceOnUse" x="0" y="0" width="189" height="204">
<rect width="189" height="204" fill="#C4C4C4"/>
</mask>
<g mask="url(#mask0)">
<mask id="mask1" mask-type="alpha" maskUnits="userSpaceOnUse" x="-138" y="-125" width="361" height="371">
<rect x="-48.2764" y="-125" width="282.967" height="300.27" transform="rotate(17.2242 -48.2764 -125)" fill="#C4C4C4"/>
</mask>
<g mask="url(#mask1)">
<path d="M-6.56136 112.588C-6.73343 112.334 -7.47384 111.001 -11.408 104.114C-16.2861 95.5788 -25.5149 80.5287 -17.8935 76.1699C-12.7127 73.2115 -9.50672 82.9333 -7.9884 89.5236C-7.45256 92.6492 -7.03066 94.6861 -6.90115 95.0773C-6.91534 95.1231 -6.91534 95.1231 -6.91534 95.1231C-6.91534 95.1231 -5.63048 107.159 -6.56136 112.588Z" fill="#263C29"/>
<path d="M202.041 -9.03818C202.013 -8.94666 201.999 -8.9009 201.97 -8.80937L201.914 -8.62632C201.885 -8.5348 201.871 -8.48904 201.797 -8.41171C201.768 -8.32018 201.694 -8.24284 201.666 -8.15131C201.418 -7.6763 201.111 -7.16971 200.726 -6.73727C200.638 -6.61417 200.564 -6.53682 200.475 -6.41372C200.387 -6.29062 200.253 -6.18171 200.179 -6.10438C200.119 -6.07279 200.09 -5.98128 200.03 -5.94971C199.822 -5.76345 199.6 -5.53143 199.392 -5.34518C199.317 -5.26785 199.198 -5.2047 199.123 -5.12736C199.049 -5.05002 198.929 -4.98687 198.855 -4.90953C198.721 -4.80062 198.587 -4.6917 198.393 -4.55121C198.259 -4.4423 198.065 -4.30181 197.885 -4.20709C197.751 -4.09818 197.571 -4.00344 197.437 -3.89453C196.735 -3.40991 195.956 -2.99944 195.116 -2.55739C194.937 -2.46266 194.711 -2.38212 194.517 -2.24163C191.802 -0.926449 188.552 0.172732 185.01 1.08107C185.01 1.08107 184.964 1.06688 184.95 1.11264C178.394 2.84238 170.78 3.94289 163.43 4.67408C159.438 5.09184 155.535 5.38651 151.963 5.58324C142.095 6.18581 134.744 6.11388 134.744 6.11388C134.744 6.11388 131.556 5.87815 126.108 5.49322C123.558 5.30464 120.522 5.06573 117.077 4.8506C115.271 4.69178 113.344 4.59611 111.34 4.42631C110.657 4.36498 109.96 4.34941 109.231 4.27389C106.772 4.1137 104.177 3.91094 101.444 3.66561C92.9592 3.04176 83.4113 2.28885 73.5289 1.48238C61.1108 0.441588 48.1609 -0.663738 36.0283 -1.81665C34.6619 -1.93931 33.3412 -2.04779 31.9889 -2.21621C29.4532 -2.45055 26.9774 -2.71646 24.5474 -2.96818C22.1174 -3.21991 19.7332 -3.45744 17.4547 -3.71237C12.063 -4.28036 7.07988 -4.87212 2.62857 -5.39937C-2.91785 -6.11562 -7.61537 -6.81951 -11.0379 -7.42911C-11.3725 -7.48266 -11.6612 -7.52202 -11.9816 -7.62133C-13.5343 -7.95221 -14.7982 -8.24373 -15.7135 -8.52747C-17.2694 -9.00983 -18.797 -9.58371 -20.2787 -10.1434C-35.4833 -16.111 -46.6497 -26.0435 -28.8238 -23.6773C-9.26539 -21.075 -22.6724 -25.8835 -45.5873 -40.3109C-49.0735 -42.4952 -51.7913 -44.8927 -53.7376 -47.352C-53.8465 -47.4861 -53.987 -47.6801 -54.0959 -47.8142C-54.2048 -47.9483 -54.3453 -48.1423 -54.4542 -48.2764C-54.8125 -48.7386 -55.1109 -49.2324 -55.4093 -49.7262L-55.4408 -49.7861C-55.5987 -50.0859 -55.7566 -50.3856 -55.9286 -50.6396C-56.0234 -50.8195 -56.0865 -50.9393 -56.1812 -51.1192C-56.3391 -51.4189 -56.4828 -51.7645 -56.6407 -52.0642C-56.6897 -52.2299 -56.7986 -52.3639 -56.8475 -52.5296C-56.9281 -52.7552 -57.0228 -52.9351 -57.0576 -53.1465C-57.1697 -53.432 -57.236 -53.7034 -57.3482 -53.989C-57.4461 -54.3203 -57.544 -54.6516 -57.5962 -54.9688C-57.5994 -55.1202 -57.6625 -55.2401 -57.6657 -55.3916C-57.6689 -55.5431 -57.7321 -55.663 -57.7353 -55.8145C-57.7353 -55.8145 -57.7211 -55.8602 -57.7669 -55.8744C-57.7701 -56.0259 -57.819 -56.1915 -57.8222 -56.343C-57.8744 -56.6602 -57.8808 -56.9631 -57.933 -57.2802C-57.9362 -57.4317 -57.9394 -57.5832 -57.9426 -57.7347C-57.9284 -57.7804 -57.96 -57.8404 -57.9316 -57.9319C-57.9522 -58.1891 -57.9412 -58.3863 -57.916 -58.6293C-57.9256 -59.0837 -57.8753 -59.5697 -57.7934 -59.9958C-57.765 -60.0873 -57.7824 -60.193 -57.754 -60.2845C-57.7256 -60.3761 -57.743 -60.4818 -57.7146 -60.5733C-57.6721 -60.7106 -57.6753 -60.8621 -57.6327 -60.9994C-57.576 -61.1824 -57.565 -61.3796 -57.5082 -61.5627C-57.4657 -61.7 -57.4373 -61.7915 -57.3947 -61.9288C-55.0873 -70.3427 -45.1677 -77.0989 -30.9781 -77.5655C-4.93095 -78.4191 -30.9808 -81.2782 -12.0116 -91.4991C6.95754 -101.72 96.5281 -60.4084 85.8953 -69.4732C76.4651 -77.5633 112.307 -71.0165 163.545 -42.9428C170.061 -39.3677 176.827 -35.4646 183.768 -31.1559C199.535 -21.5026 204.036 -14.3388 202.041 -9.03818Z" fill="#6B7A59"/>
<path d="M202.042 -9.03894C202.013 -8.94742 201.999 -8.90166 201.971 -8.81013L201.914 -8.62708C201.886 -8.53556 201.871 -8.4898 201.797 -8.41247C201.769 -8.32094 201.695 -8.24359 201.666 -8.15207C201.419 -7.67706 201.111 -7.17047 200.726 -6.73802C200.638 -6.61492 200.564 -6.53757 200.476 -6.41448C200.387 -6.29138 200.253 -6.18247 200.179 -6.10513C200.119 -6.07355 200.091 -5.98204 200.031 -5.95046C199.822 -5.7642 199.6 -5.53219 199.392 -5.34594C199.318 -5.2686 199.198 -5.20545 199.124 -5.12811C199.05 -5.05078 198.93 -4.98763 198.856 -4.91029C198.721 -4.80138 198.587 -4.69246 198.393 -4.55197C198.259 -4.44306 198.065 -4.30257 197.885 -4.20785C197.751 -4.09893 197.571 -4.0042 197.437 -3.89528C196.735 -3.41066 195.956 -3.0002 195.117 -2.55814C194.937 -2.46342 194.711 -2.38287 194.517 -2.24238C191.802 -0.927203 188.552 0.171978 185.01 1.08032C185.01 1.08032 184.964 1.06613 184.95 1.11189C182.594 -0.671965 179.871 -2.5693 176.631 -4.57695C169.307 -9.10479 162.158 -13.2272 155.336 -16.9473C147.655 -21.1342 140.319 -24.8132 133.492 -28.0331C128.716 -30.2659 124.142 -32.3363 119.83 -34.1243C108.868 -38.7267 99.5714 -41.9097 92.4988 -43.8514C79.9553 -47.2385 74.3288 -46.7256 78.759 -42.8943C84.8559 -37.6434 57.6832 -49.1773 29.9338 -57.8803C9.52053 -64.3591 -11.1321 -69.2569 -19.1936 -64.9343C-21.2319 -63.8607 -22.7416 -62.8741 -23.8427 -61.9113C-33.2255 -54.1359 -14.8853 -51.8109 -38.1601 -51.0007C-39.1289 -50.95 -40.0977 -50.8992 -41.0349 -50.7884C-45.9041 -50.2915 -50.1971 -49.0642 -53.7657 -47.2612C-53.8746 -47.3953 -54.0151 -47.5893 -54.124 -47.7234C-54.2329 -47.8575 -54.3734 -48.0515 -54.4823 -48.1856C-54.8406 -48.6478 -55.139 -49.1416 -55.4373 -49.6354L-55.4689 -49.6954C-55.6268 -49.9951 -55.7847 -50.2948 -55.9567 -50.5488C-56.0515 -50.7287 -56.1146 -50.8486 -56.2093 -51.0284C-56.3672 -51.3282 -56.5109 -51.6737 -56.6688 -51.9734C-56.7177 -52.1391 -56.8266 -52.2732 -56.8756 -52.4388C-56.9562 -52.6644 -57.0509 -52.8443 -57.0857 -53.0557C-57.1978 -53.3413 -57.2641 -53.6127 -57.3762 -53.8982C-57.4742 -54.2295 -57.5721 -54.5609 -57.6243 -54.878C-57.6275 -55.0295 -57.6906 -55.1494 -57.6938 -55.3008C-57.697 -55.4523 -57.7602 -55.5722 -57.7634 -55.7237C-57.7634 -55.7237 -57.7492 -55.7694 -57.7949 -55.7836C-57.7981 -55.9351 -57.8471 -56.1008 -57.8503 -56.2522C-57.9025 -56.5694 -57.9089 -56.8723 -57.961 -57.1895C-57.9642 -57.3409 -57.9674 -57.4924 -57.9706 -57.6439C-57.9565 -57.6896 -57.988 -57.7496 -57.9597 -57.8411C-57.9802 -58.0983 -57.9693 -58.2955 -57.9441 -58.5385C-57.9537 -58.993 -57.9034 -59.479 -57.8214 -59.905C-57.7931 -59.9965 -57.8104 -60.1022 -57.7821 -60.1938C-57.7537 -60.2853 -57.7711 -60.391 -57.7427 -60.4825C-57.7002 -60.6198 -57.7034 -60.7713 -57.6608 -60.9086C-57.604 -61.0916 -57.5931 -61.2889 -57.5363 -61.4719C-57.4937 -61.6092 -57.4654 -61.7007 -57.4228 -61.838C-55.1154 -70.2519 -45.1958 -77.0082 -31.0062 -77.4748C-4.95903 -78.3284 -31.0089 -81.1875 -12.0397 -91.4083C6.92947 -101.629 96.5 -60.3177 85.8672 -69.3825C76.437 -77.4725 112.279 -70.9257 163.517 -42.852C170.033 -39.277 176.799 -35.3738 183.74 -31.0652C199.535 -21.5033 204.036 -14.3396 202.042 -9.03894Z" fill="#CDC945"/>
<path opacity="0.55" d="M-44.0368 -53.7247C-36.1497 -45.5112 -11.9246 -29.3233 -19.7619 -29.4456C-27.5992 -29.5678 -6.44424 -17.3915 -21.2686 -18.2754C-33.6203 -19.0448 -23.9192 -12.4759 -20.3099 -10.2033C-18.8281 -9.64362 -17.3006 -9.06974 -15.7447 -8.58738C-2.41043 -4.35326 80.2243 2.05317 117.046 4.79069C117.632 4.5207 117.917 4.40859 117.917 4.40859C117.917 4.40859 180.947 5.28894 167.703 -1.82639C154.46 -8.94172 125.335 -11.751 137.938 -13.4116C150.541 -15.0721 191.521 -24.2882 157.136 -30.0323C122.751 -35.7764 111.429 -35.825 123.144 -30.0867C134.872 -24.3942 121.39 -27.0188 103.926 -37.3486C86.4482 -47.6325 85.5824 -46.2958 93.5849 -47.6773C101.556 -49.1187 117.661 -49.2924 81.3678 -57.1329C45.0603 -64.9277 39.6315 -62.949 45.9027 -60.2022C52.174 -57.4555 60.3545 -54.7187 42.2211 -56.5783C24.0877 -58.4379 1.59589 -61.448 9.56124 -55.2667C17.4808 -49.0996 24.7685 -45.5864 12.5316 -47.3735C0.308885 -49.2065 -20.233 -48.151 -11.1084 -53.7994C-1.98369 -59.4477 4.95167 -62.5645 -15.4658 -62.0724C-35.8232 -61.6118 -51.9239 -61.9383 -44.0368 -53.7247Z" fill="#82942F"/>
<path d="M45.2488 75.2293C42.2074 77.5971 38.934 79.7424 36.1511 81.4378C35.2835 81.9714 34.4899 82.4277 33.6964 82.8839C30.628 84.6915 28.4982 85.7367 28.4982 85.7367L28.1976 82.985L27.9935 81.2162L27.9285 80.2932L27.7766 78.8416L27.3209 74.4868C27.3209 74.4868 28.4183 71.9177 30.2397 68.4696C30.9399 67.1818 31.7284 65.771 32.6368 64.297C34.5845 61.0886 36.9518 57.6591 39.5782 55.0123C44.1778 50.3688 49.4488 48.0904 54.3513 53.4726C60.6348 60.3864 53.5685 68.7797 45.2488 75.2293Z" fill="#4F5839"/>
<path d="M-0.763191 90.8104L-6.54419 112.694C-6.54419 112.694 -6.54419 112.694 -6.57577 112.634C-5.64489 107.204 -6.88399 95.183 -6.88399 95.183C-6.88399 95.183 -6.88399 95.183 -6.8698 95.1372C-6.95354 94.7601 -7.42121 92.709 -7.95706 89.5835C-8.13094 88.5263 -8.35379 87.3035 -8.5025 86.0034C-9.65516 78.0718 -10.6764 66.3186 -9.07964 55.8285C-6.30483 37.9789 7.26331 38.2225 12.4658 54.9337C17.6052 71.5249 -0.763191 90.8104 -0.763191 90.8104Z" fill="#82942F"/>
<path d="M-0.806157 57.9419C4.13329 70.8095 2.05001 84.8105 -3.0664 97.2693C-3.32497 97.9416 -4.39169 97.6611 -4.13313 96.9888C0.940723 84.6673 3.03042 70.9692 -1.86007 58.2673C-2.10169 57.5905 -1.06196 57.3109 -0.806157 57.9419Z" fill="#5D6528"/>
<path d="M48.2769 64.3301C37.1267 71.6579 25.7432 79.415 20.0525 91.9465C19.7481 92.6046 18.8265 92.0179 19.1166 91.4056C24.8957 78.751 36.4874 70.8076 47.7717 63.3709C48.2938 62.981 48.859 63.9086 48.2769 64.3301Z" fill="#263C29"/>
<path opacity="0.72" d="M89.1832 -8.56228C89.1832 -8.56228 133.921 -7.73479 113.474 -20.0928C93.0275 -32.4507 40.047 -49.7282 30.4497 -47.0855C20.8523 -44.4428 29.63 -39.2638 17.0965 -40.7416C4.5631 -42.2194 -38.4618 -51.6452 -22.187 -38.7748C-5.91216 -25.9043 14.4787 -25.5018 -0.814703 -22.769C-16.1081 -20.0363 -23.2773 -17.945 -8.58257 -12.4364C6.11218 -6.92777 89.1832 -8.56228 89.1832 -8.56228Z" fill="#031625"/>
<path d="M142.375 25.1833C133.255 25.3155 124.665 24.709 120.933 23.8029C119.029 23.3127 117.476 22.9818 116.244 22.7503C115.909 22.6967 115.575 22.6432 115.286 22.6038C114.997 22.5644 114.708 22.5251 114.465 22.4999C114.222 22.4747 113.965 22.4953 113.768 22.4843C113.662 22.5017 113.511 22.5049 113.405 22.5223C113.299 22.5397 113.194 22.5571 113.134 22.5887C113.028 22.6061 112.968 22.6376 112.908 22.6692C112.848 22.7008 112.848 22.7008 112.788 22.7324C112.774 22.7781 112.728 22.7639 112.714 22.8097C112.446 23.0275 112.392 23.3621 112.493 23.8449C112.511 23.9506 112.56 24.1162 112.623 24.2361C112.672 24.4018 112.767 24.5816 112.861 24.7615C112.956 24.9413 113.019 25.0612 113.114 25.2411C113.272 25.5408 113.507 25.9147 113.742 26.2886C113.805 26.4085 113.914 26.5426 113.977 26.6625C114.041 26.7824 114.149 26.9165 114.213 27.0364C114.322 27.1704 114.385 27.2903 114.494 27.4244C114.775 27.8125 115.041 28.2463 115.385 28.7543C115.666 29.1424 115.933 29.5762 116.26 29.9785C117.12 31.2484 118.167 32.7265 119.262 34.3703C119.389 34.6101 119.575 34.8183 119.701 35.0581C119.905 35.3721 120.109 35.686 120.312 35.9999C120.407 36.1798 120.516 36.3139 120.656 36.5079C120.765 36.642 120.828 36.7619 120.892 36.8818L120.986 37.0616C121.761 38.6061 121.421 39.7044 120.194 40.4275C119.52 40.8206 118.632 41.097 117.515 41.3024C117.138 41.3862 116.775 41.4241 116.366 41.4479C116.215 41.4511 116.109 41.4685 115.943 41.5175C115.535 41.5413 115.066 41.5966 114.611 41.6062C114.309 41.6127 113.96 41.6049 113.643 41.657C113.143 41.6524 112.628 41.6936 112.082 41.6749C111.431 41.6735 110.733 41.6579 110.036 41.6423C109.944 41.614 109.838 41.6314 109.793 41.6172C108.701 41.5796 107.623 41.4963 106.454 41.3847C106.362 41.3563 106.302 41.3879 106.211 41.3595C105.862 41.3517 105.528 41.2981 105.133 41.2762C104.844 41.2368 104.556 41.1975 104.253 41.2039C103.904 41.1961 103.524 41.1283 103.129 41.1064C102.886 41.0812 102.597 41.0418 102.354 41.0167C101.914 40.9805 101.534 40.9128 101.094 40.8766C100.805 40.8373 100.516 40.7979 100.227 40.7585C99.7872 40.7224 99.3611 40.6405 98.9209 40.6043C98.6779 40.5791 98.4349 40.554 98.2061 40.483C97.294 40.3508 96.382 40.2185 95.4699 40.0862C91.8359 39.5114 88.1104 38.9082 84.519 38.1961C83.8499 38.089 83.1951 37.9362 82.526 37.8291C82.4803 37.8149 82.4345 37.8007 82.3887 37.7865C81.7197 37.6794 81.0191 37.5124 80.35 37.4053C79.681 37.2982 79.0261 37.1453 78.3712 36.9925C78.3255 36.9783 78.2797 36.9641 78.234 36.9499C77.6249 36.8112 76.9558 36.7041 76.3467 36.5655C76.301 36.5513 76.2552 36.5371 76.2094 36.5229C75.3573 36.3591 74.5194 36.1495 73.7131 35.9998C73.287 35.9179 72.861 35.836 72.3892 35.7399C71.597 35.5445 70.8365 35.409 70.0901 35.2278C70.0443 35.2136 70.0443 35.2136 69.9985 35.1994C69.4352 35.0749 68.8719 34.9504 68.3543 34.8401C67.6537 34.6731 66.9389 34.5518 66.284 34.399C65.9495 34.3454 65.5834 34.2319 65.2489 34.1784C64.9743 34.0932 64.6398 34.0397 64.3652 33.9546C64.1821 33.8978 64.0307 33.901 63.8476 33.8443C63.573 33.7591 63.3301 33.734 63.0555 33.6489C62.7809 33.5637 62.4921 33.5244 62.2633 33.4534C62.0345 33.3825 61.7915 33.3573 61.5627 33.2864C61.0909 33.1903 60.679 33.0626 60.2987 32.9949C60.1157 32.9381 59.9326 32.8814 59.7812 32.8846C58.806 32.6324 58.2884 32.5221 58.2884 32.5221C57.3132 32.27 56.3238 32.0636 55.3944 31.8256C54.1904 31.5025 52.9722 31.2251 51.8139 30.9162C50.6099 30.5931 49.3917 30.3158 48.1877 29.9927C45.8255 29.3607 43.5547 28.7571 41.3298 28.1676C40.5834 27.9864 39.8512 27.7594 39.1048 27.5781C38.7845 27.4788 38.4641 27.3795 38.1754 27.3402C37.4889 27.1274 36.7883 26.9603 36.1019 26.7475C36.0561 26.7333 35.9646 26.705 35.9188 26.6908C35.69 26.6198 35.4154 26.5347 35.1866 26.4638C34.8205 26.3503 34.4544 26.2368 34.0741 26.1691C33.6623 26.0414 33.2504 25.9137 32.8843 25.8002C31.9691 25.5165 30.9939 25.2643 30.1244 24.9947C27.5933 24.2602 25.1679 23.5083 22.8797 22.799C21.7814 22.4585 20.7431 22.0864 19.6906 21.7601C19.0041 21.5473 18.2719 21.3203 17.5997 21.0617C16.3783 20.6329 15.1884 20.2641 14.0128 19.8495C13.2033 19.5483 12.3338 19.2788 11.5243 18.9776C10.8978 18.7333 10.2571 18.5346 9.67638 18.3045C9.04989 18.0601 8.45498 17.8756 7.87426 17.6455C7.64544 17.5745 7.47657 17.472 7.24776 17.4011C7.15624 17.3727 7.06472 17.3443 6.97319 17.3159C6.88167 17.2876 6.79014 17.2592 6.69862 17.2308C4.45306 16.3842 2.34479 15.5801 0.387992 14.7728C-1.17113 14.139 -2.59297 13.5477 -3.95485 12.9249C-5.10212 12.4187 -6.24938 11.9126 -7.29093 11.3891C-7.29093 11.3891 -7.29092 11.3891 -7.33669 11.3749C-7.73436 11.2014 -8.11786 10.9822 -8.51553 10.8088C-9.74013 10.2285 -10.8274 9.69076 -11.9006 9.10728C-12.2383 8.90226 -12.5902 8.743 -12.9279 8.53798C-13.2657 8.33296 -13.5718 8.18789 -13.9095 7.98287C-14.0784 7.88035 -14.2015 7.79203 -14.3845 7.73529C-14.6765 7.54445 -14.9827 7.39938 -15.2746 7.20855C-15.5666 7.01771 -15.8727 6.87264 -16.1189 6.69599C-16.3651 6.51935 -16.6713 6.37428 -16.9175 6.19763C-17.1637 6.02099 -17.4241 5.8901 -17.6703 5.71345C-17.9165 5.53681 -18.1311 5.42011 -18.3773 5.24346C-18.5777 5.081 -18.8381 4.95012 -19.0386 4.78766C-19.9776 4.09526 -20.7935 3.49118 -21.4122 2.89809C-21.5669 2.74982 -21.69 2.66149 -21.7989 2.52741C-24.9698 -0.512181 -23.8673 -2.12667 -20.0535 -1.64657C-19.9162 -1.60401 -19.7647 -1.60721 -19.6133 -1.61041C-19.4618 -1.61361 -19.3245 -1.57106 -19.2188 -1.58845C-19.0673 -1.59165 -18.93 -1.54908 -18.7785 -1.55229C-18.6271 -1.55549 -18.4756 -1.55869 -18.3383 -1.51613C-18.1868 -1.51933 -18.0354 -1.52253 -17.8981 -1.47997C-17.7466 -1.48317 -17.5951 -1.48637 -17.5036 -1.45799C-17.3521 -1.4612 -17.2464 -1.47858 -17.0949 -1.48179C-16.7462 -1.474 -16.3833 -1.51198 -16.0804 -1.51838C-16.0346 -1.5042 -15.9747 -1.53577 -15.9289 -1.52159C-15.8232 -1.53898 -15.7317 -1.5106 -15.6717 -1.54218C-15.4145 -1.56277 -15.1432 -1.62912 -14.886 -1.64971C-14.7345 -1.65291 -14.5688 -1.70187 -14.4032 -1.75084L-14.3432 -1.78241C-14.0719 -1.84877 -13.8462 -1.9293 -13.6206 -2.00984C-13.5607 -2.04142 -13.455 -2.05881 -13.395 -2.09038C-12.5983 -2.39515 -12.0162 -2.81662 -11.6629 -3.30902C-11.5888 -3.38635 -11.5462 -3.52364 -11.4721 -3.60098C-11.4579 -3.64674 -11.3837 -3.72408 -11.3696 -3.76985C-11.327 -3.90713 -11.2529 -3.98447 -11.2103 -4.12176C-11.1961 -4.16752 -11.1677 -4.25905 -11.1535 -4.30481C-11.1 -4.63933 -11.0465 -4.97385 -11.0986 -5.29099C-11.0844 -5.33675 -11.1302 -5.35094 -11.116 -5.3967C-11.1508 -5.60812 -11.2313 -5.83374 -11.2977 -6.10511C-11.3293 -6.16506 -11.3608 -6.225 -11.3782 -6.33071C-11.4098 -6.39067 -11.4414 -6.45062 -11.4729 -6.51056C-11.5045 -6.57051 -11.5361 -6.63047 -11.5677 -6.69042C-11.5992 -6.75036 -11.6308 -6.81031 -11.6624 -6.87027C-11.694 -6.93021 -11.7255 -6.99016 -11.7571 -7.05011C-11.8203 -7.17001 -11.8518 -7.22996 -11.915 -7.34986C-11.9466 -7.40981 -12.0239 -7.48394 -12.0555 -7.54389C-12.1328 -7.61803 -12.196 -7.73793 -12.2733 -7.81207C-12.4138 -8.0061 -12.5227 -8.14018 -12.6774 -8.28846C-13.1272 -8.77904 -13.6228 -9.28381 -14.2241 -9.77118C-14.3015 -9.84532 -14.4246 -9.93365 -14.5019 -10.0078C-14.625 -10.0961 -14.7024 -10.1702 -14.8255 -10.2586C-15.0259 -10.421 -15.2721 -10.5977 -15.4867 -10.7144C-15.6098 -10.8027 -15.7329 -10.891 -15.8245 -10.9194C-15.916 -10.9478 -15.9476 -11.0077 -15.9933 -11.0219C-16.1164 -11.1102 -16.1938 -11.1844 -16.3169 -11.2727C-16.3942 -11.3468 -16.5173 -11.4351 -16.5946 -11.5093C-17.0445 -11.9999 -17.1172 -12.5742 -16.9012 -13.1091C-16.887 -13.1549 -16.8728 -13.2007 -16.8587 -13.2464C-16.8303 -13.338 -16.7703 -13.3695 -16.742 -13.4611C-16.7278 -13.5068 -16.6536 -13.5842 -16.6395 -13.6299C-16.6253 -13.6757 -16.5653 -13.7073 -16.4912 -13.7846C-16.2688 -14.0166 -16.0464 -14.2486 -15.7324 -14.4523C-15.6583 -14.5296 -15.5983 -14.5612 -15.5242 -14.6385C-15.3302 -14.779 -15.0904 -14.9053 -14.8364 -15.0774C-14.7165 -15.1405 -14.5966 -15.2037 -14.4625 -15.3126C-14.2827 -15.4073 -14.0429 -15.5336 -13.863 -15.6283C-13.7573 -15.6457 -13.6832 -15.7231 -13.5774 -15.7404C-11.536 -16.6625 -8.68816 -17.435 -5.37952 -17.9141C-5.00243 -17.9978 -4.59377 -18.0216 -4.23087 -18.0596C-4.01945 -18.0943 -3.82221 -18.0834 -3.61079 -18.1181C-3.39937 -18.1529 -3.20213 -18.1419 -2.99071 -18.1767C-2.77928 -18.2115 -2.58205 -18.2005 -2.32486 -18.2211C-2.12762 -18.2101 -1.9162 -18.2449 -1.70478 -18.2797C-1.49335 -18.3144 -1.29612 -18.3035 -1.08469 -18.3382C-0.887458 -18.3272 -0.676033 -18.362 -0.418848 -18.3826L-0.373082 -18.3684C-0.175845 -18.3574 0.0355788 -18.3922 0.232814 -18.3812C0.430051 -18.3702 0.687238 -18.3908 0.884475 -18.3798C1.08171 -18.3689 1.33889 -18.3894 1.53613 -18.3785C1.73336 -18.3675 1.99055 -18.3881 2.18779 -18.3771C2.64221 -18.3867 3.08245 -18.3505 3.53687 -18.3601C3.99129 -18.3697 4.43153 -18.3336 4.91753 -18.2832C5.16052 -18.2581 5.35777 -18.2471 5.60076 -18.2219C6.43547 -18.1638 7.25599 -18.0599 8.12228 -17.9418C8.2138 -17.9134 8.31951 -17.9308 8.41103 -17.9024C8.4568 -17.8883 8.54833 -17.8599 8.60828 -17.8915C8.74556 -17.8489 8.89703 -17.8521 9.03432 -17.8095C9.36884 -17.756 9.6576 -17.7166 9.99213 -17.6631C10.3267 -17.6095 10.7069 -17.5418 11.0415 -17.4883C11.6048 -17.3638 12.1224 -17.2535 12.6857 -17.129C12.8688 -17.0723 13.066 -17.0613 13.249 -17.0045C13.6151 -16.891 13.9954 -16.8233 14.3158 -16.724C14.453 -16.6814 14.6361 -16.6247 14.7734 -16.5821C16.5723 -16.0746 18.3287 -15.4298 20.0283 -14.6019C20.901 -14.1809 21.6506 -13.8482 22.3228 -13.5896C24.9834 -12.4638 26.3673 -12.2354 27.0125 -12.537C27.0725 -12.5686 27.1466 -12.6459 27.2066 -12.6775C27.3548 -12.8322 27.4258 -13.061 27.451 -13.304C27.4651 -13.3497 27.4651 -13.3497 27.4336 -13.4097C27.4491 -14.1071 27.0638 -15.1295 26.7211 -16.2891C26.6721 -16.4548 26.6232 -16.6204 26.5884 -16.8318C26.522 -17.1032 26.4099 -17.3888 26.3577 -17.7059C26.3719 -17.7517 26.3262 -17.7659 26.3404 -17.8116C26.2076 -18.3544 26.0891 -18.9429 26.048 -19.4572C26.0306 -19.5629 26.0132 -19.6687 26.01 -19.8201C25.9926 -19.9258 26.021 -20.0174 26.0036 -20.1231C26.0036 -20.1231 26.0178 -20.1688 26.0319 -20.2146C26.0429 -20.4118 26.0081 -20.6233 26.0191 -20.8205C26.0475 -20.912 26.0443 -21.0635 26.0727 -21.155C26.1152 -21.2923 26.0979 -21.398 26.1404 -21.5353C26.1546 -21.5811 26.183 -21.6726 26.1972 -21.7184C26.2114 -21.7641 26.2255 -21.8099 26.2539 -21.9014C26.2823 -21.9929 26.3107 -22.0845 26.339 -22.176C26.3674 -22.2675 26.3958 -22.359 26.4242 -22.4506C26.626 -22.9398 26.8736 -23.4148 27.2127 -23.8614C27.3609 -24.0161 27.5234 -24.2165 27.6717 -24.3712C27.7458 -24.4485 27.8799 -24.5575 27.954 -24.6348C28.1481 -24.7753 28.2963 -24.93 28.5361 -25.0563C28.5961 -25.0878 28.6103 -25.1336 28.656 -25.1194C28.7759 -25.1826 28.8501 -25.2599 28.97 -25.323C29.1041 -25.432 29.2697 -25.4809 29.4038 -25.5898C29.5237 -25.653 29.6436 -25.7161 29.7635 -25.7793C29.8234 -25.8109 29.8834 -25.8424 29.9292 -25.8283C30.3946 -26.0351 30.9515 -26.2136 31.5084 -26.392C32.1111 -26.5563 32.8195 -26.738 33.5595 -26.8597C33.8309 -26.926 34.1338 -26.9325 34.4052 -26.9988C34.9795 -27.0716 35.5996 -27.1301 36.2197 -27.1887C38.1257 -27.3502 40.0491 -27.406 42.0499 -27.3877C43.096 -27.3643 44.1879 -27.3268 45.2656 -27.2435C58.4379 -26.3702 74.6282 -21.8024 96.3813 -14.3062C97.0677 -14.0934 97.74 -13.8349 98.4264 -13.6221C101.953 -12.3782 105.663 -11.0776 109.556 -9.7202C119.711 -6.07051 131.027 -1.96043 143.61 2.59265C144.923 3.04983 146.222 3.55278 147.581 4.02415C148.344 4.31109 149.154 4.61222 149.932 4.8534C150.344 4.98108 150.741 5.15453 151.153 5.28221C151.336 5.33896 151.565 5.40989 151.734 5.51241C151.78 5.52659 151.871 5.55496 151.917 5.56915C152.237 5.66846 152.589 5.82772 152.91 5.92703C153.353 6.11466 153.765 6.24234 154.163 6.41579C154.437 6.50091 154.652 6.61761 154.926 6.70273C155.201 6.78785 155.461 6.91873 155.736 7.00385C156.042 7.14893 156.362 7.24823 156.669 7.39331C156.897 7.46424 157.158 7.59513 157.372 7.71183C157.601 7.78276 157.816 7.89946 158.045 7.9704C158.488 8.15803 158.886 8.33147 159.283 8.50491C159.467 8.56166 159.681 8.67836 159.864 8.73511C159.91 8.74929 159.956 8.76348 160.002 8.77767C160.353 8.93693 160.705 9.09618 161.057 9.25544C161.24 9.31219 161.409 9.4147 161.624 9.53139C161.793 9.63391 161.93 9.67647 162.067 9.71903C162.204 9.76159 162.328 9.84992 162.465 9.89247C162.863 10.0659 163.246 10.2851 163.598 10.4444C163.813 10.5611 163.996 10.6178 164.165 10.7203C164.471 10.8654 164.763 11.0562 165.069 11.2013C165.375 11.3464 165.621 11.523 165.927 11.6681C166.05 11.7564 166.188 11.799 166.357 11.9015C166.863 12.209 167.37 12.5166 167.831 12.8099C167.954 12.8982 168.045 12.9266 168.168 13.0149C169.167 13.6758 169.969 14.3256 170.633 14.9329C170.665 14.9928 170.757 15.0212 170.788 15.0811C170.865 15.1553 170.897 15.2152 170.974 15.2894C171.052 15.3635 171.083 15.4234 171.161 15.4976C171.238 15.5717 171.27 15.6317 171.347 15.7058C171.456 15.8399 171.565 15.974 171.628 16.0939C171.659 16.1538 171.659 16.1538 171.691 16.2138C176.359 22.6769 158.526 25.0238 142.375 25.1833Z" fill="#858233"/>
<path d="M120.116 40.3534C119.443 40.7465 118.554 41.0228 117.437 41.2283C117.06 41.312 116.697 41.35 116.289 41.3738C116.137 41.377 116.031 41.3944 115.866 41.4434C115.457 41.4672 114.988 41.5225 114.534 41.5321C114.231 41.5385 113.882 41.5307 113.565 41.5829C113.065 41.5783 112.551 41.6195 112.005 41.6007C111.353 41.5994 110.656 41.5838 109.958 41.5682C109.867 41.5399 109.761 41.5572 109.715 41.5431C108.638 41.4598 107.5 41.408 106.376 41.3105C106.285 41.2822 106.225 41.3137 106.133 41.2854C105.785 41.2776 105.45 41.224 105.056 41.2021C104.767 41.1627 104.478 41.1233 104.175 41.1297C103.826 41.122 103.446 41.0542 103.052 41.0323C102.809 41.0071 102.52 40.9677 102.277 40.9426C101.837 40.9064 101.456 40.8387 101.016 40.8025C100.727 40.7631 100.439 40.7238 100.15 40.6844C99.7097 40.6483 99.2836 40.5663 98.8434 40.5302C98.6004 40.505 98.3574 40.4798 98.1286 40.4089C97.2166 40.2766 96.3045 40.1444 95.3925 40.0121C91.7585 39.4373 88.0329 38.8341 84.4415 38.122C83.7725 38.0149 83.1176 37.862 82.4485 37.7549C82.4028 37.7408 82.357 37.7266 82.3113 37.7124C81.6422 37.6053 80.9416 37.4382 80.2725 37.3312C79.6035 37.2241 78.9486 37.0712 78.2938 36.9184C78.248 36.9042 78.2022 36.89 78.1565 36.8758C77.5474 36.7371 76.8783 36.63 76.2692 36.4914C76.2235 36.4772 76.1777 36.463 76.132 36.4488C75.2799 36.285 74.442 36.0754 73.6356 35.9257C73.2096 35.8438 72.7835 35.7619 72.3117 35.6658C71.5196 35.4703 70.759 35.3349 70.0126 35.1536C69.9668 35.1395 69.9668 35.1395 69.9211 35.1253C69.3577 35.0008 68.7944 34.8763 68.2768 34.766C67.5762 34.599 66.8756 34.4319 66.2065 34.3248C65.872 34.2713 65.5059 34.1578 65.1714 34.1042C64.8968 34.0191 64.5623 33.9656 64.2877 33.8805C64.1047 33.8237 63.9532 33.8269 63.7701 33.7702C63.4956 33.685 63.2526 33.6599 62.978 33.5747C62.7034 33.4896 62.4147 33.4503 62.1858 33.3793C61.957 33.3084 61.714 33.2832 61.4852 33.2123C61.0134 33.1162 60.6016 32.9885 60.2213 32.9208C60.0382 32.864 59.8552 32.8073 59.7037 32.8105C58.7285 32.5583 58.2109 32.448 58.2109 32.448C57.2357 32.1958 56.2463 31.9894 55.3169 31.7515C54.1129 31.4284 52.8947 31.151 51.7365 30.8421C50.5324 30.519 49.3143 30.2417 48.1102 29.9186C45.748 29.2866 43.4773 28.6829 41.2523 28.0935C40.5059 27.9123 39.7737 27.6853 39.0273 27.504C38.707 27.4047 38.3866 27.3054 38.0979 27.2661C37.4114 27.0533 36.7108 26.8862 36.0244 26.6734C35.9786 26.6592 35.8871 26.6309 35.8413 26.6167C35.6125 26.5457 35.3379 26.4606 35.1091 26.3897C34.743 26.2762 34.3769 26.1627 33.9967 26.0949C33.5848 25.9673 33.1729 25.8396 32.8068 25.7261C31.8916 25.4423 30.9164 25.1902 30.0469 24.9206C27.5158 24.1861 25.0904 23.4342 22.8023 22.7248C21.704 22.3844 20.6656 22.0123 19.6131 21.686C18.9266 21.4732 18.1944 21.2462 17.5222 20.9876C16.3008 20.5588 15.111 20.19 13.9353 19.7753C13.1258 19.4742 12.2563 19.2047 11.4468 18.9035C10.8203 18.6592 10.1796 18.4605 9.5989 18.2303C8.97241 17.986 8.3775 17.8015 7.79678 17.5713C7.56797 17.5004 7.3991 17.3979 7.21606 17.3411C7.12453 17.3128 7.033 17.2844 6.94148 17.256C6.84995 17.2276 6.75843 17.1993 6.66691 17.1709C4.42135 16.3243 2.31307 15.5202 0.356277 14.7129C-1.20285 14.0791 -2.62468 13.4878 -3.98657 12.865C-5.17959 12.3446 -6.28109 11.8527 -7.32264 11.3291C-7.72031 11.1557 -8.1038 10.9365 -8.50148 10.763C-9.72608 10.1827 -10.8134 9.64503 -11.8865 9.06154C-12.2242 8.85652 -12.5762 8.69726 -12.9139 8.49224C-13.2516 8.28722 -13.5578 8.14215 -13.8955 7.93713C-14.0643 7.83462 -14.1874 7.74629 -14.3705 7.68954C-14.6624 7.49871 -14.9686 7.35364 -15.2606 7.1628C-15.5525 6.97197 -15.8587 6.8269 -16.1049 6.65025C-16.3511 6.47361 -16.6572 6.32854 -16.9034 6.15189C-17.1496 5.97524 -17.41 5.84436 -17.6562 5.66771C-17.9024 5.49106 -18.117 5.37437 -18.3632 5.19772C-18.5637 5.03526 -18.8241 4.90438 -19.0245 4.74192C-19.9635 4.04952 -20.7795 3.44545 -21.3982 2.85236C-21.5529 2.70408 -21.676 2.61576 -21.7849 2.48167C-24.9557 -0.557915 -23.8533 -2.17241 -20.0394 -1.69231C-19.9022 -1.64975 -19.7507 -1.65295 -19.5992 -1.65615C-19.4477 -1.65935 -19.3104 -1.61679 -19.2047 -1.63418C-17.9705 -0.599473 -16.3103 0.517153 -14.1924 1.77565C-12.5353 2.7408 -10.5721 3.85103 -8.306 4.95485C-6.56063 5.7969 -4.58644 6.70989 -2.47496 7.66544C-0.395067 8.56104 1.91364 9.52757 4.37382 10.4909C6.92553 11.4826 9.66029 12.5311 12.6381 13.6047C14.7147 14.3488 16.9429 15.0897 19.2626 15.859C20.6671 16.3446 22.1315 16.7986 23.6416 17.2668C27.0596 18.3765 30.689 19.4515 34.5473 20.5975C36.9868 21.3036 39.4722 22.024 42.109 22.7411C42.3378 22.812 42.6124 22.8972 42.8554 22.9223C43.4046 23.0926 43.9221 23.2029 44.4713 23.3731C47.2454 24.1328 50.1252 24.8751 53.0966 25.6458C54.8182 26.0792 56.5398 26.5126 58.3529 26.9743C58.8247 27.0705 59.328 27.2265 59.7999 27.3226C59.7999 27.3226 60.5463 27.5039 61.856 27.8096C66.5773 28.9221 78.7908 31.7554 91.0199 33.8913C102.974 35.9421 114.976 37.3554 120.143 35.8975C120.238 36.0773 120.347 36.2114 120.487 36.4054C120.596 36.5395 120.659 36.6594 120.723 36.7793L120.817 36.9592C121.684 38.532 121.344 39.6303 120.116 40.3534Z" fill="#858233"/>
<path d="M120.235 35.9257C120.031 35.6118 119.827 35.2978 119.624 34.9839C119.452 34.7299 119.311 34.5359 119.185 34.2961C118.089 32.6523 117.089 31.1883 116.183 29.9042C115.87 29.4562 115.589 29.0681 115.308 28.6801C114.995 28.232 114.683 27.784 114.416 27.3502C114.307 27.2161 114.244 27.0962 114.135 26.9621C114.026 26.828 113.963 26.7081 113.9 26.5882C113.837 26.4683 113.728 26.3342 113.665 26.2144C113.43 25.8405 113.24 25.4808 113.036 25.1668C112.942 24.987 112.847 24.8071 112.784 24.6872C112.689 24.5074 112.594 24.3275 112.545 24.1619C112.496 23.9962 112.433 23.8763 112.416 23.7706C112.315 23.2878 112.368 22.9533 112.637 22.7355C112.651 22.6897 112.696 22.7039 112.711 22.6581C112.725 22.6124 112.771 22.6266 112.831 22.595C112.89 22.5634 112.996 22.546 113.056 22.5144C113.162 22.4971 113.222 22.4655 113.328 22.4481C113.433 22.4307 113.539 22.4133 113.69 22.4101C113.888 22.4211 114.099 22.3863 114.388 22.4257C114.631 22.4508 114.92 22.4902 115.208 22.5296C115.497 22.5689 115.832 22.6225 116.166 22.676C117.606 24.8278 119.636 27.6642 122.016 31.3115C123.66 33.7772 122.765 35.2054 120.235 35.9257Z" fill="#CDC945"/>
<path d="M171.673 16.1079C171.628 16.0937 171.642 16.048 171.61 15.988C171.501 15.854 171.438 15.7341 171.329 15.6C171.298 15.54 171.22 15.4659 171.143 15.3917C171.111 15.3318 171.034 15.2577 170.957 15.1835C170.879 15.1094 170.848 15.0494 170.771 14.9753C170.739 14.9153 170.647 14.887 170.616 14.827C169.997 14.2339 169.15 13.5699 168.151 12.9091C168.028 12.8208 167.95 12.7466 167.813 12.7041C167.352 12.4107 166.846 12.1032 166.339 11.7957C166.216 11.7073 166.093 11.619 165.91 11.5623C165.649 11.4314 165.357 11.2406 165.051 11.0955C164.745 10.9504 164.453 10.7596 164.147 10.6145C163.978 10.512 163.763 10.3953 163.58 10.3385C163.228 10.1793 162.845 9.96008 162.447 9.78664C162.31 9.74407 162.187 9.65575 162.05 9.61319C161.912 9.57063 161.743 9.46812 161.606 9.42556C161.437 9.32305 161.254 9.2663 161.04 9.1496C160.688 8.99035 160.336 8.83109 159.984 8.67183C159.938 8.65764 159.892 8.64345 159.847 8.62927C159.664 8.57252 159.449 8.45582 159.266 8.39907C158.868 8.22563 158.471 8.05218 158.027 7.86455C157.798 7.79362 157.584 7.67692 157.355 7.60599C157.14 7.48929 156.866 7.40417 156.651 7.28747C156.345 7.1424 156.025 7.04309 155.718 6.89801C155.444 6.81289 155.183 6.68201 154.909 6.59689C154.634 6.51177 154.42 6.39507 154.145 6.30995C153.747 6.1365 153.29 5.99463 152.892 5.82119C152.572 5.72188 152.266 5.57681 151.9 5.46331C151.854 5.44912 151.762 5.42075 151.716 5.40656C151.533 5.34982 151.305 5.27888 151.136 5.17637C150.724 5.04869 150.326 4.87524 149.914 4.74756C149.151 4.46062 148.341 4.15949 147.563 3.91831C146.204 3.44694 144.906 2.94399 143.593 2.48681C131.009 -2.06627 119.753 -6.20792 109.539 -9.82604C105.706 -11.215 101.996 -12.5156 98.4088 -13.7279C97.7224 -13.9407 97.0501 -14.1993 96.3637 -14.4121C74.5648 -21.9224 58.3745 -26.4902 45.248 -27.3493C44.1703 -27.4326 43.0784 -27.4702 42.0322 -27.4935C40.0315 -27.5119 38.0623 -27.4702 36.2021 -27.2945C35.5362 -27.2502 34.9619 -27.1774 34.3876 -27.1046C34.0705 -27.0525 33.8133 -27.0319 33.5419 -26.9655C32.8019 -26.8438 32.0935 -26.6621 31.4908 -26.4979C30.8881 -26.3336 30.377 -26.1409 29.9116 -25.9341C29.8516 -25.9025 29.7917 -25.8709 29.7459 -25.8851C29.626 -25.822 29.5061 -25.7588 29.3862 -25.6957C29.2063 -25.6009 29.0864 -25.5378 28.9524 -25.4289C28.8325 -25.3657 28.7126 -25.3026 28.6384 -25.2252C28.5785 -25.1937 28.5643 -25.1479 28.5185 -25.1621C28.3245 -25.0216 28.1305 -24.8811 27.9364 -24.7406C27.8165 -24.6775 27.7282 -24.5544 27.6541 -24.477C27.4738 -25.8371 27.6106 -27.2493 28.3881 -28.4629C29.3991 -30.1058 31.5682 -31.4398 35.7368 -32.1037C36.4168 -32.1939 37.0968 -32.284 37.8684 -32.3458C40.3487 -32.5801 42.9553 -32.5745 45.6851 -32.4807C46.534 -32.4683 47.4144 -32.396 48.2492 -32.3379C61.6992 -31.228 78.2904 -26.3353 100.67 -18.5947C106.013 -16.7376 111.663 -14.7354 117.664 -12.574C119.832 -11.8015 122 -11.029 124.246 -10.1823C125.65 -9.69679 127.041 -9.16547 128.445 -8.67991C135.653 -6.04389 143.32 -3.26601 151.489 -0.332063C154.65 0.798313 157.416 1.90671 159.816 2.90162C161.101 3.45033 162.294 3.97067 163.396 4.46263C174.924 9.99272 175.941 13.6688 171.673 16.1079Z" fill="#CDC945"/>
<path d="M-3.98992 12.7134C6.25809 17.1946 20.978 22.4602 41.372 28.0302C53.781 30.0714 69.0505 31.946 87.5153 33.7077C125.78 37.2937 85.906 13.4957 85.906 13.4957C85.906 13.4957 53.1608 3.59501 39.0257 1.62064C24.8905 -0.353735 32.0628 7.73855 43.9537 13.2307C55.8903 18.737 14.4836 7.00384 -1.45686 4.21899C-11.2528 2.48629 -9.79804 7.50189 -3.98992 12.7134Z" fill="#031625"/>
<path d="M84.2589 12.985C84.2589 12.985 83.885 13.2202 83.1798 13.5533C79.1632 15.6689 64.9726 23.258 59.3122 26.4691C59.0125 26.6269 58.6985 26.8306 58.3988 26.9884C56.3321 28.1535 54.7277 28.9603 53.3662 29.7923C52.8125 30.1222 52.3187 30.4206 51.8108 30.7647C50.0187 32.0149 48.3987 33.5191 46.17 36.3394C46.17 36.3394 45.9856 36.9343 45.5993 38.0184C44.4973 41.0877 42.0379 48.05 39.5644 55.0581C37.1018 61.8689 34.6393 68.6797 33.3148 71.981L33.2581 72.164C32.8828 73.0509 32.5675 73.9062 32.249 74.61C31.8596 75.5427 31.4985 76.3838 31.1941 77.0418C30.9324 77.5626 30.7447 78.0061 30.5255 78.3895L30.5113 78.4353C29.4926 80.4269 29.0336 80.9367 29.0053 81.0282C29.051 81.0424 29.1252 80.965 29.2908 80.9161C31.4096 80.0681 43.4883 75.0847 44.7916 75.0875C44.9888 75.0985 45.1719 75.1552 45.295 75.2435C45.8331 75.611 45.9439 76.5482 45.9741 77.2598C45.9837 77.7143 45.9759 78.063 45.9759 78.063C45.9759 78.063 35.2559 83.5178 31.9322 86.1491C28.5626 88.7662 23.7204 99.8553 22.7772 101.118C22.099 102.011 14.7153 125.505 9.69403 144.614C9.67985 144.66 9.67985 144.66 9.66566 144.706C9.55216 145.072 9.49862 145.406 9.38513 145.772C9.3 146.047 9.24646 146.381 9.16134 146.656C9.13296 146.748 9.10459 146.839 9.07621 146.931C8.9769 147.251 8.93755 147.54 8.85243 147.814C8.75632 148.286 8.61444 148.744 8.51834 149.216C8.26617 150.191 8.07395 151.134 7.83597 152.064C7.75405 152.49 7.64056 152.856 7.55864 153.282C7.45934 153.602 7.40579 153.937 7.30648 154.257C7.182 154.821 7.05752 155.384 6.93304 155.947C6.90467 156.039 6.87629 156.13 6.87949 156.282C6.75501 156.845 6.64471 157.363 6.52023 157.926C6.50604 157.972 6.49186 158.017 6.47767 158.063C6.43511 158.201 6.43831 158.352 6.39575 158.489C6.35639 158.778 6.27128 159.053 6.23191 159.341C6.21773 159.387 6.18935 159.479 6.17516 159.524C6.13581 159.813 6.06486 160.042 6.03969 160.285C6.01132 160.377 5.98295 160.468 6.00034 160.574C5.70103 162.186 5.45848 163.616 5.33261 164.831C5.18158 166.289 4.88546 168.053 4.54679 169.955C4.53261 170 4.50424 170.092 4.49005 170.138C4.4365 170.472 4.36878 170.852 4.31523 171.187C4.28686 171.279 4.25848 171.37 4.27587 171.476C4.17976 171.948 4.08365 172.419 3.97336 172.937C3.80952 173.789 3.58573 174.673 3.4077 175.571C3.36514 175.708 3.32258 175.845 3.32579 175.997C3.14455 176.743 2.9949 177.549 2.79948 178.341C2.675 178.905 2.56471 179.422 2.39447 179.972C2.31255 180.398 2.18486 180.809 2.08875 181.281C1.78304 182.591 1.43157 183.887 1.11167 185.242C0.426108 187.939 -0.273643 190.681 -0.973387 193.424C-1.21136 194.353 -1.43514 195.237 -1.67311 196.166C-1.79759 196.73 -1.98203 197.325 -2.10651 197.888C-2.82365 200.525 -3.48082 203.13 -4.1412 205.584C-4.19795 205.767 -4.24051 205.904 -4.28307 206.041C-4.52105 206.971 -4.74484 207.855 -5.0144 208.724C-5.61803 210.995 -6.16492 213.082 -6.59512 214.956C-6.75118 215.459 -6.84728 215.931 -6.9292 216.357C-7.0253 216.829 -7.16718 217.286 -7.24911 217.712C-7.52644 218.93 -7.76121 220.011 -7.92505 220.863C-7.9786 221.198 -8.01795 221.487 -8.05731 221.776C-8.1644 222.445 -8.21475 222.931 -8.13421 223.156C-7.48946 226.416 -5.94365 230.005 -5.94365 230.005C-5.94365 230.005 -7.13623 230.939 -8.34482 231.117C-9.40193 231.29 -10.5176 230.844 -10.897 228.67C-10.9002 228.519 -10.9633 228.399 -10.9665 228.247C-11.409 225.953 -11.6236 225.836 -12.0653 226.452C-12.316 226.775 -12.6378 227.328 -13.111 227.883C-13.2876 228.13 -13.51 228.362 -13.764 228.534C-13.9722 228.72 -14.2861 228.924 -14.6001 229.127C-15.3936 229.583 -16.3844 230.029 -17.4982 230.386C-18.2808 230.645 -19.1233 230.935 -19.8916 231.148C-20.163 231.215 -20.4344 231.281 -20.7058 231.348C-22.1226 231.711 -23.2854 231.902 -23.7256 231.866C-24.1659 231.83 -24.7356 231.402 -25.2312 230.898C-25.3401 230.764 -25.4948 230.615 -25.6179 230.527C-25.7584 230.333 -25.9131 230.185 -26.0536 229.991C-26.3171 229.708 -26.4892 229.454 -26.6755 229.246C-26.707 229.186 -26.7386 229.126 -26.7702 229.066C-26.8791 228.932 -26.9422 228.812 -26.9422 228.812C-26.9422 228.812 -26.7908 228.809 -26.5793 228.774C-26.1565 228.705 -25.3424 228.506 -24.3832 228C-24.1434 227.874 -23.8295 227.67 -23.5755 227.498C-23.2473 227.249 -22.905 226.954 -22.5486 226.613C-22.4145 226.504 -22.3261 226.381 -22.1779 226.226C-21.7047 225.671 -21.7536 225.505 -22.1765 225.575C-22.4936 225.627 -22.9307 225.742 -23.5475 225.952C-23.8931 226.096 -24.3301 226.211 -24.7813 226.372C-24.9012 226.435 -25.0069 226.453 -25.1268 226.516C-25.3524 226.596 -25.638 226.708 -25.9094 226.775C-26.632 227.002 -27.3545 227.23 -28.1828 227.475C-29.1169 227.737 -30.1424 227.971 -31.1538 228.159C-31.1538 228.159 -31.1995 228.144 -31.2137 228.19C-31.5309 228.242 -31.8937 228.28 -32.2109 228.333C-32.4223 228.367 -32.5738 228.37 -32.7852 228.405C-32.831 228.391 -32.8909 228.423 -32.9367 228.409C-33.2396 228.415 -33.5568 228.467 -33.8597 228.473C-34.7228 228.507 -35.5717 228.494 -36.438 228.376C-36.681 228.351 -36.924 228.326 -37.107 228.269C-39.4029 227.909 -40.3703 227.308 -40.9575 226.775C-41.1579 226.612 -41.2984 226.418 -41.4531 226.27C-42.1349 225.557 -42.6905 225.084 -46.13 225.823C-46.2357 225.841 -46.3414 225.858 -46.4471 225.875C-46.5528 225.893 -46.7185 225.942 -46.8242 225.959C-46.9299 225.976 -47.0956 226.025 -47.2013 226.043C-47.2471 226.029 -47.2612 226.074 -47.307 226.06C-48.2268 226.277 -49.041 226.476 -49.7036 226.672C-52.2343 227.392 -53.042 227.894 -53.2644 228.126C-53.3385 228.203 -53.3527 228.249 -53.3527 228.249L-53.4648 227.963L-54.5654 225.365L-54.7407 224.96C-54.7407 224.96 -51.3858 220.933 -46.4869 219.693C-46.3212 219.644 -46.1697 219.641 -46.0498 219.578C-46.0041 219.592 -45.9899 219.546 -45.9441 219.561C-45.4471 219.414 -44.9502 219.267 -44.4989 219.106C-43.8363 218.91 -43.2052 218.654 -42.6199 218.384C-42.5 218.321 -42.3344 218.272 -42.2145 218.209C-40.6384 217.494 -39.2312 216.676 -38.0244 215.696C-37.6221 215.369 -37.2057 214.996 -36.8492 214.655C-36.4044 214.191 -36.0053 213.713 -35.652 213.221C-35.2104 212.605 -34.496 211.272 -33.6398 209.481C-33.4805 209.129 -33.3071 208.731 -33.1021 208.393C-32.9145 207.95 -32.6669 207.475 -32.4792 207.031C-31.7255 205.409 -30.9008 203.558 -30.1078 201.647C-27.2933 194.995 -24.4097 187.312 -23.7214 183.312C-22.526 176.058 -21.6084 173.584 -21.6084 173.584C-21.6084 173.584 -25.9933 168.312 -28.9687 164.48C-30.121 163.019 -31.0413 161.781 -31.4344 161.107C-32.8315 158.818 -31.4631 154.728 -31.4631 154.728L-25.58 162.772L-22.584 166.861C-22.584 166.861 -22.3821 166.372 -22.0842 165.411C-20.7946 161.898 -17.4808 152.341 -15.0443 142.864C-14.6644 141.477 -14.3303 140.076 -14.042 138.66C-13.5693 136.65 -13.2164 134.703 -12.8919 132.847C-11.4036 123.677 -9.96841 116.297 -9.25034 111.554C-9.02196 110.17 -8.89611 108.955 -8.82379 108.075C-8.76246 107.392 -8.75788 106.891 -8.82742 106.468C-8.86221 106.257 -8.91437 105.94 -8.98392 105.517C-10.1009 100.707 -15.5625 83.2128 -14.1443 82.1978C-12.6062 81.1196 -10.8503 80.3097 -10.8503 80.3097L-9.55805 90.5417L-8.34576 86.9549L-8.21807 86.543L-7.13346 83.368L-5.00002 83.9291C-5.00002 83.9291 -5.92858 86.6007 -6.47364 89.4915C-6.65167 90.3894 -6.78394 91.3014 -6.85625 92.1819C-6.92857 93.0624 -6.89517 93.9255 -6.75927 94.6197C-6.72769 94.6796 -6.71031 94.7853 -6.72449 94.8311C-6.72449 94.8311 -6.72449 94.8311 -6.73868 94.8769C-6.7039 95.0883 -6.65493 95.2539 -6.62016 95.4654C-6.29938 97.0195 -6.30993 98.6715 -6.32368 100.172C-6.33786 100.218 -6.30628 100.278 -6.32047 100.324C-6.35161 101.718 -6.40013 103.007 -6.1695 103.882L-6.18369 103.927C-6.15212 103.987 -6.07798 103.91 -5.91552 103.71C-5.91552 103.71 -5.90133 103.664 -5.88714 103.618C-5.43454 102.805 -4.46801 100.497 -3.21774 97.2726C-2.95917 96.6003 -2.67223 95.8366 -2.38529 95.0728C-1.79722 93.4995 -1.16658 91.7889 -0.493396 89.941C0.0521131 88.505 0.566049 87.009 1.13993 85.4814C1.19668 85.2984 1.26761 85.0696 1.32436 84.8865C5.81748 72.3348 10.8195 57.3326 11.8264 52.6286C11.9083 52.2026 11.9618 51.8681 12.0012 51.5793C12.3911 47.0854 8.56154 25.7838 6.78057 16.8047L6.79476 16.759C6.42182 14.8877 6.13582 13.545 6.04888 13.0165C5.88139 12.2623 5.28466 11.2747 4.55065 10.2446C2.35179 7.30572 -1.35723 3.89865 -1.35723 3.89865C-0.948567 3.87486 6.02245 3.87907 7.72526 4.85841C9.47384 5.85194 11.5345 5.83869 11.5345 5.83869C11.5345 5.83869 11.5867 6.15583 11.6137 6.71596C11.7972 8.2275 12.1957 11.3105 12.7691 13.3442C12.7691 13.3442 12.7691 13.3442 12.7549 13.39C12.9192 13.9927 13.2889 15.7125 13.7456 17.9608C13.8467 18.4436 13.9479 18.9264 14.049 19.4091C15.8519 27.9938 18.8053 42.2521 19.2419 40.682C19.5508 39.5237 21.3928 31.3167 22.8702 22.3445C23.1521 20.6261 23.4482 18.862 23.6985 17.0836C24.0702 14.5905 24.3676 12.1747 24.5768 9.88198C24.6052 9.79045 24.5878 9.68474 24.6162 9.59322C24.904 6.723 25.0011 4.14473 24.9105 2.00991C24.8867 1.60125 24.8945 1.25254 24.8565 0.889639C24.7929 -0.685051 24.6584 -2.03093 24.5587 -3.16539C24.307 -5.75143 23.9373 -7.4712 23.5533 -9.1452C23.2042 -10.6078 22.8408 -12.0246 22.4821 -13.9416C22.2309 -15.0728 22.0048 -16.4471 21.8039 -18.0643C21.6996 -18.6986 21.5637 -19.3928 21.442 -20.1328C19.8367 -27.2517 15.0354 -37.1671 12.7904 -41.575C12.0783 -42.9996 11.5905 -43.8531 11.5905 -43.8531L20.3389 -41.492L20.8409 -40.6843L28.4909 -28.6317L30.0743 -26.1345L30.6078 -25.2668L31.6535 -26.6982L35.7937 -32.2867L45.3281 -45.0813L45.7697 -45.6968L45.8438 -45.7742L47.7485 -45.284L54.7295 -43.3706C54.7295 -43.3706 51.6716 -38.199 48.3661 -32.5524C47.4009 -30.8954 46.4358 -29.2383 45.4848 -27.627C43.6854 -24.5733 42.0626 -21.7658 41.0549 -19.9715C39.0679 -16.4743 37.5068 -12.8953 36.6986 -8.83202C36.289 -6.70178 36.0625 -4.51478 36.1137 -2.0912C36.1471 -1.22812 36.1805 -0.365028 36.2597 0.512241C36.2487 0.70948 36.2976 0.875135 36.3324 1.08656C36.644 3.64103 37.3313 6.76342 38.1843 9.83684C38.4813 10.9823 38.824 12.1419 39.1668 13.3015C40.3245 17.1717 41.55 20.6616 42.2259 22.5264C42.5796 23.4888 42.7723 24 42.7723 24C42.878 23.9826 43.5374 23.6352 44.5881 23.1584C48.3856 21.4263 57.0452 17.4396 61.33 15.1062C66.9337 12.0782 73.2902 9.53434 73.2902 9.53434L84.2589 12.985Z" fill="white"/>
<path opacity="0.39" d="M22.7313 101.104C22.0531 101.997 14.6695 125.491 9.64818 144.6C9.634 144.646 9.634 144.646 9.61981 144.692C9.50631 145.058 9.45277 145.392 9.33928 145.758C9.25416 146.033 9.20061 146.367 9.11549 146.642C9.08711 146.733 9.05874 146.825 9.03037 146.916C8.93106 147.237 8.8917 147.526 8.80658 147.8C8.71047 148.272 8.5686 148.73 8.47249 149.201C8.22033 150.177 8.02812 151.12 7.79014 152.05C7.70822 152.476 7.59472 152.842 7.5128 153.268C7.41349 153.588 7.35994 153.923 7.26063 154.243C7.13616 154.806 7.01167 155.37 6.88719 155.933C6.85881 156.025 6.83044 156.116 6.83364 156.268C6.70916 156.831 6.59888 157.348 6.4744 157.912C6.46021 157.958 6.44602 158.003 6.43184 158.049C6.38928 158.186 6.39246 158.338 6.3499 158.475C6.31054 158.764 6.22543 159.038 6.18607 159.327C6.17188 159.373 6.1435 159.465 6.12932 159.51C6.08995 159.799 6.01903 160.028 5.99386 160.271C5.96549 160.362 5.9371 160.454 5.95449 160.56C5.65518 162.172 5.41263 163.602 5.28677 164.817C5.13573 166.275 4.83963 168.039 4.50096 169.941C4.48677 169.986 4.4584 170.078 4.44422 170.124C4.39067 170.458 4.32293 170.838 4.26938 171.173C4.24101 171.264 4.21263 171.356 4.23002 171.462C4.13391 171.933 4.0378 172.405 3.92751 172.923C3.76367 173.775 3.53988 174.659 3.36186 175.556C3.3193 175.694 3.27673 175.831 3.27993 175.983C3.09871 176.729 2.94905 177.535 2.75363 178.327C2.62915 178.891 2.51886 179.408 2.34862 179.957C2.2667 180.383 2.13901 180.795 2.0429 181.267C1.73719 182.577 1.38572 183.872 1.06582 185.228C0.380263 187.925 -0.319474 190.667 -1.01922 193.41C-1.2572 194.339 -1.48099 195.223 -1.71896 196.152C-1.84344 196.716 -2.02787 197.311 -2.15235 197.874C-2.86948 200.511 -3.52668 203.116 -4.18705 205.57C-4.2438 205.753 -4.28637 205.89 -4.32892 206.027C-4.5669 206.957 -4.7907 207.84 -5.06025 208.71C-5.66389 210.981 -6.21078 213.068 -6.64097 214.941C-6.79703 215.445 -6.89313 215.917 -6.97505 216.343C-7.07116 216.814 -7.21302 217.272 -7.29495 217.698C-7.57228 218.916 -7.80707 219.997 -7.97091 220.849C-8.02445 221.184 -8.0638 221.473 -8.10316 221.761C-8.21025 222.43 -8.2606 222.916 -8.18007 223.142C-7.53531 226.402 -5.9895 229.991 -5.9895 229.991C-5.9895 229.991 -7.18208 230.925 -8.39067 231.102C-9.44779 231.276 -10.5635 230.83 -10.9428 228.656C-10.946 228.504 -11.0092 228.385 -11.0124 228.233C-11.4549 225.939 -11.6695 225.822 -12.1111 226.438C-12.3619 226.761 -12.6836 227.314 -13.1568 227.869C-13.3334 228.115 -13.5559 228.347 -13.8098 228.52C-14.0181 228.706 -14.332 228.909 -14.6459 229.113C-15.4395 229.569 -16.4302 230.015 -17.5441 230.372C-18.3266 230.631 -19.1691 230.921 -19.9375 231.134C-20.2089 231.201 -20.4802 231.267 -20.7516 231.333C-22.1684 231.697 -23.3312 231.888 -23.7715 231.852C-24.2117 231.816 -24.7814 231.388 -25.2771 230.883C-25.386 230.749 -25.5406 230.601 -25.6637 230.513C-25.8042 230.319 -25.9589 230.171 -26.0994 229.976C-26.363 229.694 -26.535 229.44 -26.7213 229.232C-26.7529 229.172 -26.7845 229.112 -26.816 229.052C-26.9249 228.918 -26.9881 228.798 -26.9881 228.798C-26.9881 228.798 -26.8366 228.795 -26.6252 228.76C-26.2023 228.691 -25.3882 228.491 -24.429 227.986C-24.1892 227.86 -23.8753 227.656 -23.6213 227.484C-23.2932 227.235 -22.9509 226.94 -22.5944 226.599C-22.4603 226.49 -22.372 226.367 -22.2237 226.212C-21.7505 225.657 -21.7995 225.491 -22.2223 225.56C-22.5395 225.613 -22.9765 225.728 -23.5934 225.938C-23.9389 226.082 -24.3759 226.197 -24.8271 226.358C-24.947 226.421 -25.0528 226.439 -25.1727 226.502C-25.3983 226.582 -25.6838 226.694 -25.9552 226.761C-26.6778 226.988 -27.4004 227.216 -28.2287 227.46C-27.5569 226.264 -27.0192 225.177 -26.5981 224.304C-25.8018 222.545 -25.6238 221.647 -26.4457 222.195C-27.0736 222.602 -27.5989 222.84 -28.0502 223.001C-29.9781 223.557 -30.411 221.718 -29.4271 219.515C-29.2537 219.117 -29.4084 218.969 -29.8628 218.978C-30.3314 219.034 -31.1455 219.233 -32.1678 219.618C-32.8589 219.905 -33.7014 220.196 -34.5864 220.624C-35.1575 220.848 -35.8028 221.15 -36.4338 221.405C-38.1756 222.17 -40.0972 223.029 -42.1244 223.905C-43.6406 224.589 -45.2482 225.244 -46.7959 225.868C-46.9158 225.931 -46.9758 225.962 -47.0815 225.98C-47.1414 226.011 -47.2014 226.043 -47.2613 226.074C-47.3213 226.106 -47.427 226.123 -47.4869 226.155C-48.3436 226.491 -49.2003 226.828 -50.0428 227.118C-51.1708 227.521 -52.2389 227.892 -53.2329 228.186C-53.2929 228.217 -53.3386 228.203 -53.3986 228.235C-53.3986 228.235 -53.3986 228.235 -53.4443 228.221C-54.047 228.385 -54.4983 228.546 -54.8753 228.63C-56.2006 229.022 -56.0949 229.004 -54.9984 228.541C-54.6529 228.398 -54.1418 228.205 -53.5565 227.935L-53.4965 227.904C-52.2202 227.346 -50.57 226.554 -48.6058 225.557C-47.1071 224.768 -45.4143 223.838 -43.679 222.771C-43.5449 222.662 -43.3792 222.613 -43.2452 222.504C-41.33 221.342 -39.3439 219.952 -37.4209 218.441C-36.3025 217.584 -35.2156 216.667 -34.1145 215.704C-33.9063 215.518 -33.6981 215.331 -33.5498 215.177C-33.2075 214.882 -32.851 214.541 -32.5545 214.231C-31.6333 213.363 -30.7894 212.421 -29.9313 211.433C-29.4439 210.832 -28.9566 210.23 -28.4692 209.629C-17.7693 195.34 -17.7301 173.532 -14.4241 164.324C-10.9904 154.705 -5.877 127.046 -3.62372 132.56C-1.32468 138.088 2.06551 130.712 2.06551 130.712C2.06551 130.712 7.97733 113.584 10.8778 114.584C11.3811 114.74 11.7742 115.414 12.0744 116.71C13.3511 122.624 18.6607 107.115 22.3319 95.1111C24.2046 89.0705 25.6105 83.8884 25.951 82.7901C25.9935 82.6528 26.0219 82.5613 26.0219 82.5613C26.3308 81.403 26.9413 80.89 27.593 80.8914C27.8501 80.8708 28.1247 80.9559 28.3393 81.0726C28.6455 81.2177 28.8775 81.4401 29.0811 81.7541C29.7062 82.6501 29.8897 84.1616 28.7983 85.5789C26.4387 88.6596 30.2924 85.2897 33.9965 82.7261C34.2505 82.554 34.4903 82.4277 34.6985 82.2415C35.2065 81.8974 35.806 81.5816 36.4054 81.2659C39.2546 79.8418 43.0475 78.6099 46.1822 77.0737C46.1918 77.5281 46.184 77.8768 46.184 77.8768C46.184 77.8768 35.4641 83.3316 32.1403 85.9629C28.5168 88.7521 23.6745 99.8412 22.7313 101.104Z" fill="#7F7F7F"/>
<path opacity="0.39" d="M83.1794 13.5533C79.1628 15.6689 64.9722 23.258 59.3118 26.4691C59.012 26.6269 58.6981 26.8306 58.3984 26.9884C56.3317 28.1535 54.7273 28.9603 53.3658 29.7923C52.8121 30.1222 52.3183 30.4206 51.8103 30.7647C50.0183 32.0149 48.3982 33.5191 46.1696 36.3394C46.1696 36.3394 45.9851 36.9343 45.5989 38.0184C44.4969 41.0877 42.0375 48.05 39.564 55.0581C37.1014 61.8689 34.6388 68.6797 33.3144 71.981L33.2577 72.164C32.8083 73.1282 32.433 74.0151 32.1003 74.7647C31.6509 75.7289 31.2898 76.57 31.0454 77.1965C30.7553 77.8088 30.6276 78.2207 30.5109 78.4353L30.4967 78.481C30.4825 78.5268 30.4684 78.5726 30.4684 78.5726L29.2762 80.9618L28.7811 81.9119L28.2433 82.9992L22.0776 95.2831L21.3206 96.7539C21.3206 96.7539 23.094 91.0336 23.602 85.6735C23.6634 84.9902 23.6789 84.2928 23.7403 83.6096C23.7838 81.3658 23.5133 79.3257 22.6215 77.9959C19.447 73.35 21.8193 75.8912 28.4352 70.5687C29.0915 70.0699 29.7129 69.3596 30.2996 68.438C31.1087 67.2843 31.8972 65.8735 32.6967 64.2654C35.8489 57.8189 39.008 48.114 42.5085 40.2205C44.3597 36.0291 46.2662 32.3064 48.304 29.778C48.4807 29.5318 48.7031 29.2998 48.9113 29.1135C49.1479 28.8358 49.3703 28.6038 49.6385 28.3859C50.6796 27.4547 51.8722 26.5202 53.2478 25.6425C61.0536 20.6888 73.8584 17.0843 83.1794 13.5533Z" fill="#7F7F7F"/>
<path opacity="0.39" d="M32.3419 -9.17945C33.4173 -6.33804 29.5191 6.3981 31.8781 11.8947C34.1913 17.3771 36.9699 27.6686 33.788 29.8423C30.6061 32.016 42.6871 24.2745 42.6871 24.2745C42.6871 24.2745 36.9248 9.0451 36.1429 0.726827C35.3609 -7.59145 37.5475 -13.8357 40.9381 -19.7569C44.3287 -25.6781 54.6127 -43.156 54.6127 -43.156L45.6813 -45.5738L45.1797 -44.9267C47.5964 -41.7196 49.6236 -37.5799 47.3208 -34.6823C43.0117 -29.1963 31.2666 -12.0209 32.3419 -9.17945Z" fill="#7F7F7F"/>
<g opacity="0.61">
<path opacity="0.65" d="M43.0039 45.5546C42.7453 46.2268 42.5183 46.959 42.2314 47.7228C37.5608 47.5791 32.9736 46.3576 28.6527 44.1152C27.4108 43.4292 28.5384 41.5717 29.7945 42.2119C33.9324 44.3976 38.4564 45.4992 43.0039 45.5546Z" fill="#7F7F7F"/>
<path opacity="0.65" d="M33.6576 54.3445C31.3919 54.6955 29.2475 54.3317 27.2385 53.2073C25.9966 52.5213 27.1384 50.618 28.3803 51.304C29.837 52.1067 31.4354 52.4518 33.0669 52.2051C34.4411 51.9791 35.0319 54.1185 33.6576 54.3445Z" fill="#7F7F7F"/>
<path opacity="0.65" d="M15.6409 58.7411C13.9902 58.0789 12.3996 57.3851 10.7773 56.6314C11.0185 55.8535 11.1997 55.1071 11.3525 54.4522C12.9149 55.2375 14.5513 55.9455 16.202 56.6077C17.5465 57.1248 16.9854 59.2583 15.6409 58.7411Z" fill="#7F7F7F"/>
<path opacity="0.65" d="M23.4175 66.0175C21.4547 66.3621 19.4998 66.3579 17.5068 65.9909C16.1371 65.7167 16.684 63.6291 18.0679 63.8574C19.6348 64.1426 21.2411 64.1389 22.8267 63.8781C24.201 63.652 24.7918 65.7915 23.4175 66.0175Z" fill="#7F7F7F"/>
<path opacity="0.65" d="M18.1617 81.1919C13.1233 80.1315 8.64773 77.7409 5.09019 74.3306C5.33136 73.5526 5.6183 72.7889 5.85948 72.0109C9.26875 75.5758 13.6844 77.9981 18.7228 79.0585C20.1382 79.3468 19.5772 81.4803 18.1617 81.1919Z" fill="#7F7F7F"/>
<path opacity="0.65" d="M26.0581 94.8759C25.6197 95.6428 25.227 96.424 24.8486 97.1594C22.3367 97.3337 19.8673 97.3708 17.3806 97.3021C15.9857 97.2709 15.9693 95.0588 17.3641 95.0899C20.2911 95.1948 23.1691 95.1339 26.0581 94.8759Z" fill="#7F7F7F"/>
<path opacity="0.65" d="M6.63295 100.742C7.28002 101.244 7.88134 101.731 8.51423 102.278C8.99244 102.677 8.90274 103.452 8.48629 103.825C8.04147 104.289 7.37243 104.181 6.93998 103.797C6.2929 103.295 5.69159 102.808 5.0587 102.26C4.58048 101.861 4.67019 101.087 5.08663 100.714C5.53145 100.25 6.15473 100.343 6.63295 100.742Z" fill="#7F7F7F"/>
<path opacity="0.65" d="M19.4831 110.745C19.2703 111.431 19.0433 112.163 18.8163 112.896C14.1773 112.812 9.36587 111.019 4.97726 109.157C3.69271 108.608 4.83451 106.705 6.11906 107.254C10.2015 108.971 14.9846 110.855 19.4831 110.745Z" fill="#7F7F7F"/>
<path opacity="0.65" d="M14.7368 126.378C14.1799 126.557 13.5914 126.675 13.0344 126.854C11.6634 127.231 11.0726 125.092 12.4436 124.714C13.4376 124.421 14.4632 124.187 15.4571 123.893C15.2475 124.731 14.9922 125.555 14.7368 126.378Z" fill="#7F7F7F"/>
<path opacity="0.65" d="M11.9611 41.6493C11.6614 41.8071 11.3301 41.9051 10.9987 42.003C10.9228 41.2772 10.8011 40.5372 10.6793 39.7972C10.7393 39.7657 10.7992 39.7341 10.9049 39.7167C12.1671 39.2051 13.2374 41.0919 11.9611 41.6493Z" fill="#7F7F7F"/>
<path opacity="0.65" d="M16.4706 31.3097C15.4295 32.2409 14.1848 32.8583 12.7995 33.2816C11.4285 33.6591 10.8835 31.5339 12.2087 31.1421C13.6397 30.733 14.9412 29.9327 15.9018 28.7758C16.0867 29.6357 16.2857 30.4498 16.4706 31.3097Z" fill="#7F7F7F"/>
<path opacity="0.65" d="M11.2713 24.7821C11.1514 24.8452 11.0773 24.9226 10.9716 24.94C10.4778 25.2383 9.77717 25.0713 9.49299 24.5317C9.19462 24.038 9.36167 23.3373 9.90121 23.0532C10.0211 22.99 10.0952 22.9127 10.201 22.8953C10.6947 22.5969 11.3954 22.764 11.6795 23.3035C11.9321 23.7831 11.7651 24.4837 11.2713 24.7821Z" fill="#7F7F7F"/>
<path opacity="0.65" d="M29.0524 31.4983C26.7098 33.2299 23.6694 33.4912 21.0403 32.4254C21.2074 31.7247 21.3428 30.9642 21.4783 30.2036C23.6387 31.3248 26.0417 31.0164 27.9821 29.6115C29.1005 28.7544 30.2167 30.6554 29.0524 31.4983Z" fill="#7F7F7F"/>
<path opacity="0.65" d="M28.529 22.5078C26.5869 23.1096 24.6557 23.5141 22.6298 23.7388C22.6833 23.4043 22.7369 23.0697 22.7904 22.7352C22.8723 22.3092 22.9401 21.9289 22.9762 21.4886C24.6534 21.2562 26.2675 20.9038 27.9241 20.4142C29.3235 19.9451 29.9143 22.0846 28.529 22.5078Z" fill="#7F7F7F"/>
<path opacity="0.65" d="M28.4538 13.2048C27.8859 13.5805 27.3321 13.9104 26.7184 14.272C26.4045 14.4756 26.0558 14.4678 25.7812 14.3827C25.1675 14.7442 24.5681 15.06 23.937 15.3158C24.0551 14.4495 24.1731 13.5832 24.2455 12.7027C25.3387 12.0886 26.3405 11.4461 27.5775 11.1775C28.8602 10.9231 29.5155 12.5307 28.4538 13.2048Z" fill="#7F7F7F"/>
<path opacity="0.65" d="M66.4106 17.2973C65.6468 17.0104 64.8831 16.7234 64.1193 16.4365C63.5843 16.2205 63.1944 15.6983 63.3331 15.0892C63.4892 14.5858 64.1454 14.087 64.6804 14.303C65.4441 14.59 66.2079 14.8769 66.9717 15.1639C67.5067 15.3799 67.8965 15.902 67.7579 16.5111C67.5876 17.0603 66.9456 17.5133 66.4106 17.2973Z" fill="#7F7F7F"/>
<path opacity="0.65" d="M58.2097 20.7743C57.0011 20.9514 55.8035 20.9312 54.702 20.4393C54.1671 20.2233 53.7772 19.7011 53.9159 19.092C54.0719 18.5886 54.7281 18.0898 55.2631 18.3058C56.0269 18.5928 56.8332 18.7424 57.6647 18.6491C58.2532 18.5306 58.8655 18.8207 59.0298 19.4234C59.1168 19.952 58.7982 20.6558 58.2097 20.7743Z" fill="#7F7F7F"/>
</g>
<path opacity="0.39" d="M1.36812 95.5844C0.0620385 96.8849 -2.98458 113.346 -5.07189 119.27C-7.15919 125.194 -17.6827 154.285 -15.3161 142.93C-12.9496 131.575 -1.66143 100.664 -7.36265 109.832C-13.0497 118.954 -6.96158 95.1088 -6.96158 95.1088L1.36812 95.5844Z" fill="#7F7F7F"/>
<path d="M-5.32473 95.8169C-5.32473 95.8169 -1.64754 82.6611 6.85146 84.694C15.3505 86.7269 10.1398 95.4446 5.68756 97.0238C1.2353 98.603 -6.34626 104.128 -6.34626 104.128L-5.32473 95.8169Z" fill="#82942F"/>
<path d="M-6.3006 104.142C-6.3006 104.142 3.82676 95.7446 2.58898 88.0876C1.3512 80.4306 -7.62337 86.7274 -7.03311 92.4281C-6.44284 98.1287 -6.3006 104.142 -6.3006 104.142Z" fill="#CDC945"/>
<path d="M142.375 25.1832C133.255 25.3154 124.665 24.7089 120.933 23.8028C119.029 23.3126 117.476 22.9817 116.243 22.7502C115.909 22.6966 115.574 22.6431 115.286 22.6037C114.093 22.0834 113.343 21.7507 113.251 21.7223C113.283 21.7822 113.487 22.0962 113.768 22.4842C113.662 22.5016 113.511 22.5048 113.405 22.5222C113.299 22.5396 113.193 22.557 113.133 22.5886C113.028 22.606 112.968 22.6375 112.908 22.6691C112.848 22.7007 112.848 22.7007 112.788 22.7323C112.774 22.778 112.728 22.7638 112.714 22.8096C110.356 20.2226 106.082 17.3427 100.639 14.3512C94.1686 10.7903 86.0573 7.02164 77.643 3.25939C76.1438 2.59399 74.7819 1.97115 73.5431 1.43663C61.8559 -3.74156 60.6834 -4.00472 69.5925 -2.64729C79.4451 -1.09764 64.0658 -6.01594 57.1209 -8.36959C50.2075 -10.6633 50.9315 -11.5424 65.3522 -9.68013C67.4335 -9.43619 69.5495 -8.98082 71.7146 -8.3598C81.667 -5.6757 92.6064 -0.0270836 101.458 3.61985C104.256 4.7882 106.822 5.73414 109.092 6.33778L109.138 6.35197C120.203 9.33079 113.075 8.37518 109.684 9.93198C106.292 11.4888 111.377 11.9117 128.614 16.5028C143.305 20.4052 146.147 22.2394 142.375 25.1832Z" fill="#263C29"/>
<path d="M7.58697 -3.10984C7.58697 -3.10984 46.1446 5.03135 31.8891 6.68137C17.6335 8.33139 31.4726 7.05387 26.1701 9.27237C20.8675 11.4909 9.86945 10.2382 16.6047 13.4298C23.34 16.6213 16.4994 19.918 6.93827 17.1044C-2.62287 14.2908 -11.6481 9.58674 -7.77613 9.23213C-3.90416 8.87752 2.45958 9.54619 -5.77765 6.99254C-14.0149 4.43888 -18.2442 2.22483 -15.7355 1.89904C-13.2268 1.57324 -4.75205 1.74267 -11.9148 -0.87916C-19.0775 -3.50099 -16.4557 -5.64768 -9.92175 -5.52815C-3.43354 -5.42282 6.87034 -4.03425 2.33208 -5.09005C-2.20618 -6.14585 9.51772 -4.96915 14.1947 -4.52245C18.8574 -4.02999 20.147 -2.52667 7.58697 -3.10984Z" fill="#CDC945"/>
<path d="M119.102 -9.77053C119.102 -9.77053 155.042 3.57841 141.366 2.54904C127.691 1.51966 140.933 2.81583 135.724 3.75939C130.516 4.70295 120.18 1.79963 126.308 5.65566C132.436 9.51169 125.68 11.079 116.822 7.1291C107.965 3.17922 99.7866 -2.31559 103.492 -1.96958C107.196 -1.62357 113.157 0.023501 105.566 -3.48338C97.9296 -7.00445 94.1167 -9.591 96.5151 -9.39922C98.9277 -9.25321 106.977 -7.71091 100.344 -11.0713C93.7113 -14.4318 96.4548 -15.8385 102.603 -14.6348C108.75 -13.4312 118.434 -10.5293 114.186 -12.1974C109.938 -13.8655 121.003 -10.8867 125.407 -9.72194C129.84 -8.64875 130.978 -7.14224 119.102 -9.77053Z" fill="#CDC945"/>
</g>
</g>
</svg>
