<svg width="33" height="34" viewBox="0 0 33 34" fill="none" xmlns="http://www.w3.org/2000/svg">
<path fill-rule="evenodd" clip-rule="evenodd" d="M32.6987 25.2147V30.1377C32.7024 31.0618 32.3164 31.9446 31.6355 32.5694C30.9545 33.1941 30.0417 33.5028 29.1214 33.4196C24.0718 32.8709 19.2213 31.1455 14.9597 28.3818C10.9949 25.8624 7.63332 22.5008 5.11387 18.536C2.34059 14.255 0.614714 9.38094 0.0760751 4.30869C-0.00683818 3.39118 0.299694 2.48106 0.920794 1.80066C1.54189 1.12026 2.42036 0.73223 3.34162 0.731363H8.26455C9.91187 0.715149 11.3159 1.92266 11.5465 3.55384C11.7543 5.12929 12.1396 6.67617 12.6952 8.16499C13.146 9.36433 12.8577 10.7164 11.9567 11.6274L9.87271 13.7115C12.2087 17.8197 15.6103 21.2213 19.7186 23.5573L21.8026 21.4733C22.7137 20.5724 24.0657 20.284 25.2651 20.7349C26.7539 21.2904 28.3008 21.6758 29.8762 21.8835C31.5263 22.1163 32.74 23.5488 32.6987 25.2147Z" fill="#F3602A"/>
</svg>
