<svg width="413" height="401" viewBox="0 0 413 401" fill="none" xmlns="http://www.w3.org/2000/svg">
<style>
    #frame-1 {
        animation: frame1 2s ease-in-out infinite;
    }
    #frame-2 {
        animation: frame2 3s ease-in-out infinite;
    }
    #frame-3 {
        animation: frame3 4s ease-in-out infinite;
    }
    #frame-4 {
        animation: frame4 5s ease-in-out infinite;
    }
    #frame-5 {
        animation: frame5 3s ease-in-out infinite;
    }
    @keyframes frame1 {
        0% {
            transform:translateY(0);
        } 25% {
            transform:translateY(10px);
        } 50% {
            transform:translateY(-10px);
        } 75% {
            transform:translateY(10px);
        } 100% {
            transform:translateY(0);
        }
    }
    @keyframes frame2 {
        0% {
            transform:scale(.9);
        } 25% {
            transform:scale(.95);
        } 50% {
            transform:scale(.9);
        } 75% {
            transform:scale(.95);
        } 100% {
            transform:scale(.9);
        }
    }
    @keyframes frame3 {
        0% {
            transform:translateX(0);
        } 25% {
            transform:translateX(10px);
        } 50% {
            transform:translateX(-10px);
        } 75% {
            transform:translateX(10px);
        } 100% {
            transform:translateX(0);
        }
    }
    @keyframes frame4 {
        0% {
            transform:rotate(0deg);
        } 25% {
            transform:rotate(5deg);
        } 50% {
            transform:rotate(0deg);
        } 75% {
            transform:rotate(5deg);
        } 100% {
            transform:rotate(0deg);
        }
    }
    @keyframes frame5 {
        0% {
            transform:translateX(0);
        } 25% {
            transform:translateX(-10px);
        } 50% {
            transform:translateX(10px);
        } 75% {
            transform:translateX(-10px);
        } 100% {
            transform:translateX(0);
        }
    }
</style>
<rect width="412.621" height="400" fill="none"/>
<!--frame 1-->
<g id="frame-1">
<path d="M43.8015 89.8058L40.7068 112.454C40.5423 113.655 40.6255 114.876 40.9513 116.044C41.2771 117.211 41.8385 118.299 42.601 119.241C43.3635 120.183 44.3109 120.958 45.3848 121.52C46.4586 122.081 47.6361 122.417 48.8446 122.506L144.504 129.601C146.798 129.772 149.069 129.045 150.837 127.574C152.606 126.103 153.734 124.002 153.983 121.715L156.275 100.305C156.403 99.1325 156.296 97.9464 155.961 96.8159C155.625 95.6854 155.068 94.6332 154.321 93.7207C153.574 92.8083 152.652 92.0539 151.61 91.5017C150.568 90.9496 149.426 90.6107 148.252 90.505L53.372 82.1265C51.0946 81.9267 48.828 82.6139 47.0449 84.0446C45.2619 85.4754 44.0999 87.5392 43.8015 89.8058Z" fill="#82942F"/>
<path d="M67.4059 106.487L68.6549 93.6799L72.8418 94.0882C74.2316 94.2237 75.2474 94.6129 75.8892 95.2556C76.5368 95.8989 76.8058 96.7835 76.696 97.9094C76.6376 98.5076 76.4158 99.0217 76.0305 99.4518C75.6458 99.876 75.1479 100.186 74.5369 100.381C75.21 100.642 75.7194 101.064 76.0649 101.648C76.4169 102.227 76.5563 102.892 76.4831 103.643C76.3711 104.792 75.9106 105.659 75.1018 106.243C74.293 106.827 73.2084 107.053 71.8479 106.92L67.4059 106.487ZM69.6789 100.662L69.2294 105.271L72.0178 105.543C72.8036 105.619 73.442 105.477 73.933 105.117C74.4304 104.751 74.714 104.21 74.7838 103.495C74.9342 101.953 74.1708 101.1 72.4937 100.936L69.6789 100.662ZM69.811 99.307L72.3619 99.5557C73.1008 99.6278 73.7081 99.5006 74.184 99.174C74.6657 98.848 74.9374 98.3684 74.9992 97.7351C75.0678 97.0314 74.9123 96.5012 74.5327 96.1445C74.1537 95.7819 73.5449 95.5598 72.7063 95.478L70.2082 95.2344L69.811 99.307ZM84.3423 107.189C83.6364 107.872 82.6706 108.153 81.445 108.034C80.4305 107.935 79.685 107.566 79.2086 106.928C78.7386 106.284 78.557 105.384 78.6638 104.228L79.2677 98.0359L80.8949 98.1946L80.2953 104.343C80.1546 105.786 80.6707 106.564 81.8435 106.679C83.0867 106.8 83.9587 106.417 84.4596 105.531L85.1347 98.6081L86.762 98.7668L85.8338 108.284L84.2857 108.133L84.3423 107.189ZM91.6751 96.9194L91.4503 99.224L93.2272 99.3973L93.1045 100.655L91.3277 100.482L90.7521 106.384C90.7149 106.765 90.766 107.06 90.9055 107.269C91.0455 107.472 91.3061 107.592 91.6873 107.63C91.875 107.648 92.1364 107.638 92.4717 107.6L92.343 108.919C91.9035 108.995 91.4814 109.013 91.0768 108.973C90.3496 108.902 89.8228 108.629 89.4962 108.153C89.1697 107.677 89.0459 107.035 89.1248 106.225L89.7004 100.323L87.9675 100.154L88.0902 98.8963L89.8231 99.0653L90.0478 96.7607L91.6751 96.9194ZM97.5685 97.4941L97.3438 99.7987L99.1206 99.972L98.9979 101.23L97.2211 101.057L96.6455 106.959C96.6083 107.34 96.6595 107.635 96.7989 107.844C96.939 108.047 97.1996 108.167 97.5807 108.204C97.7684 108.223 98.0298 108.213 98.3651 108.174L98.2364 109.494C97.7969 109.569 97.3748 109.587 96.9702 109.548C96.2431 109.477 95.7162 109.204 95.3897 108.728C95.0631 108.252 94.9393 107.609 95.0182 106.8L95.5938 100.898L93.861 100.729L93.9836 99.471L95.7165 99.64L95.9412 97.3354L97.5685 97.4941ZM99.9669 104.77C100.058 103.837 100.321 103.016 100.758 102.307C101.2 101.598 101.766 101.074 102.456 100.732C103.153 100.392 103.92 100.262 104.758 100.344C106.054 100.471 107.057 101.021 107.767 101.996C108.483 102.972 108.769 104.204 108.623 105.694L108.612 105.808C108.522 106.735 108.262 107.55 107.832 108.254C107.409 108.953 106.846 109.475 106.143 109.821C105.446 110.167 104.67 110.299 103.814 110.215C102.524 110.089 101.521 109.539 100.805 108.563C100.095 107.588 99.8117 106.362 99.9558 104.884L99.9669 104.77ZM101.584 105.123C101.481 106.178 101.642 107.049 102.066 107.736C102.497 108.423 103.122 108.807 103.943 108.887C104.77 108.968 105.458 108.709 106.008 108.112C106.558 107.508 106.89 106.623 107.004 105.456C107.106 104.412 106.939 103.543 106.503 102.85C106.074 102.151 105.449 101.761 104.628 101.681C103.825 101.603 103.146 101.859 102.591 102.45C102.036 103.042 101.7 103.932 101.584 105.123ZM112.667 101.293L112.603 102.494C113.419 101.651 114.414 101.286 115.587 101.4C117.598 101.596 118.502 102.83 118.298 105.101L117.685 111.39L116.057 111.232L116.672 104.934C116.733 104.247 116.624 103.724 116.345 103.366C116.072 103.007 115.61 102.797 114.959 102.733C114.432 102.682 113.955 102.777 113.528 103.02C113.102 103.262 112.755 103.602 112.488 104.037L111.826 110.819L110.199 110.66L111.127 101.143L112.667 101.293Z" fill="#EDEDED"/>
<path d="M84.6739 90.1381L76.3527 75.7079L83.0692 73.1978L84.6739 90.1381Z" fill="#CDC945"/>
<path d="M56.5355 100.419L61.5786 104.465L53.2345 106.815L56.5355 100.419Z" fill="#CDC945"/>
<path d="M111.655 139.217L106.967 124.019L116.778 130.781L111.655 139.217Z" fill="#CDC945"/>
</g>
<!--frame 2-->
<g id="frame-2">
<path d="M82.2784 190.325L95.4479 113.383L31.0905 165.304L54.0712 176.537L35.1135 203.059L46.5294 209.248L62.037 180.433L82.2784 190.325Z" fill="#CCCCCC"/>
<path d="M95.4479 113.383L89.8202 107.262L29.4858 196.938L35.1135 203.059L46.5294 209.248L40.8902 203.128L95.4479 113.383Z" fill="#CCCCCC"/>
<path d="M76.6507 184.205L89.8202 107.262L25.4513 159.184L48.4435 170.416L29.4858 196.938L40.8902 203.128L56.4093 174.313L76.6507 184.205Z" fill="#EDEDED"/>
<path d="M82.2784 190.325L76.6507 184.204L25.4513 159.183L31.0904 165.304L82.2784 190.325Z" fill="#A8A8A8"/>
</g>
<!--frame 3-->
<g id="frame-3">
<path d="M321.713 213.455H258.021C256.729 213.455 255.49 213.968 254.576 214.882C253.663 215.795 253.149 217.034 253.149 218.326V268.425C253.149 269.717 253.663 270.956 254.576 271.87C255.49 272.783 256.729 273.296 258.021 273.296H321.725C323.017 273.296 324.256 272.783 325.169 271.87C326.083 270.956 326.596 269.717 326.596 268.425V218.326C326.596 217.685 326.469 217.051 326.224 216.459C325.978 215.868 325.619 215.33 325.165 214.878C324.711 214.425 324.173 214.066 323.581 213.822C322.988 213.578 322.354 213.453 321.713 213.455ZM324.005 218.326V268.425C324.006 268.658 323.971 268.89 323.902 269.113L292.039 243.244L323.834 217.432C323.958 217.714 324.024 218.018 324.028 218.326H324.005ZM255.889 269.296C255.774 269.016 255.715 268.716 255.717 268.414V218.326C255.717 217.955 255.807 217.589 255.98 217.26L287.993 243.244L255.889 269.296ZM258.525 216.011H321.564L289.976 241.593L258.525 216.011ZM258.192 270.717L289.976 244.883L321.793 270.717H258.192Z" fill="#ACBF40"/>
<path d="M377.085 263.141H343.101C342.411 263.141 341.749 263.415 341.261 263.903C340.773 264.391 340.499 265.053 340.499 265.743V292.46C340.499 292.802 340.566 293.14 340.697 293.456C340.828 293.771 341.019 294.058 341.261 294.3C341.503 294.541 341.789 294.733 342.105 294.864C342.421 294.995 342.759 295.062 343.101 295.062H377.085C377.775 295.062 378.436 294.788 378.924 294.3C379.412 293.812 379.686 293.15 379.686 292.46V265.743C379.686 265.053 379.412 264.391 378.924 263.903C378.436 263.415 377.775 263.141 377.085 263.141ZM378.311 265.743V292.46C378.329 292.582 378.329 292.705 378.311 292.827L361.313 279.073L378.265 265.319C378.301 265.457 378.313 265.601 378.3 265.743H378.311ZM341.966 292.93C341.905 292.781 341.874 292.621 341.874 292.46V265.743C341.873 265.544 341.92 265.347 342.012 265.17L359.09 279.027L341.966 292.93ZM343.376 264.517H376.97L360.167 278.122L343.376 264.517ZM343.204 293.698L360.179 279.944L377.153 293.698H343.192H343.204Z" fill="#ACBF40"/>
<path d="M375.778 83.6853H259.683C257.331 83.6883 255.076 84.624 253.413 86.287C251.75 87.9501 250.814 90.2048 250.811 92.5567V183.849C250.814 186.201 251.75 188.456 253.413 190.119C255.076 191.782 257.331 192.717 259.683 192.72H375.778C378.13 192.717 380.385 191.782 382.048 190.119C383.711 188.456 384.646 186.201 384.649 183.849V92.5567C384.646 90.2048 383.711 87.9501 382.048 86.287C380.385 84.624 378.13 83.6883 375.778 83.6853ZM379.984 92.5567V183.849C379.983 184.273 379.917 184.694 379.79 185.098L321.713 137.968L379.652 90.9749C379.861 91.4764 379.97 92.0136 379.973 92.5567H379.984ZM255.808 185.396C255.597 184.888 255.488 184.343 255.488 183.792V92.5567C255.487 91.8777 255.652 91.2088 255.969 90.6082L314.309 137.968L255.808 185.396ZM260.611 88.2929H375.423L318.011 134.965L260.611 88.2929ZM260.015 188.01L318.023 140.925L376.019 187.998H260.003L260.015 188.01Z" fill="#ACBF40"/>
<path d="M384.649 216.572H336.247V227.564H384.649V216.572Z" fill="#ACBF40"/>
<path d="M384.649 240.63H336.247V246.121H384.649V240.63Z" fill="#ACBF40"/>
</g>
<!--frame 4-->
<g id="frame-4">
<path d="M179.244 69.5186L170.935 59.0426C173.886 54.9007 175.173 49.8007 174.541 44.7542C173.908 39.7076 171.402 35.0831 167.52 31.7977C163.637 28.5124 158.662 26.8062 153.58 27.0175C148.498 27.2289 143.682 29.3423 140.085 32.9386C136.489 36.535 134.376 41.3516 134.164 46.4333C133.953 51.5149 135.659 56.4904 138.945 60.373C142.23 64.2555 146.854 66.7616 151.901 67.3941C156.948 68.0266 162.048 66.7394 166.189 63.7878L173.983 73.6104C174.255 73.9534 174.591 74.2394 174.973 74.4522C175.355 74.6649 175.775 74.8002 176.21 74.8502C176.644 74.9003 177.084 74.8641 177.505 74.7438C177.925 74.6235 178.318 74.4214 178.66 74.1491C179.346 73.6089 179.792 72.8202 179.901 71.9537C180.011 71.0872 179.775 70.2124 179.244 69.5186ZM154.315 61.7705C151.479 61.7705 148.707 60.9296 146.349 59.354C143.991 57.7785 142.153 55.5391 141.068 52.9191C139.983 50.299 139.699 47.416 140.252 44.6346C140.805 41.8532 142.171 39.2983 144.176 37.293C146.182 35.2877 148.736 33.9221 151.518 33.3689C154.299 32.8156 157.182 33.0995 159.802 34.1848C162.422 35.2701 164.662 37.1079 166.237 39.4658C167.813 41.8238 168.654 44.596 168.654 47.4319C168.639 51.2228 167.123 54.8535 164.438 57.5298C161.753 60.2061 158.118 61.7102 154.327 61.7132L154.315 61.7705Z" fill="#CCCCCC"/>
<path d="M175.485 69.5188L167.175 59.0428C170.087 54.8725 171.324 49.7604 170.643 44.7202C169.962 39.68 167.411 35.0799 163.497 31.8323C159.583 28.5846 154.591 26.9266 149.512 27.187C144.433 27.4474 139.637 29.6073 136.075 33.2382C132.514 36.8692 130.447 41.706 130.285 46.7894C130.123 51.8728 131.877 56.8316 135.199 60.6822C138.522 64.5329 143.171 66.9941 148.223 67.5779C153.275 68.1617 158.363 66.8253 162.476 63.8338L170.27 73.6565C170.541 73.9994 170.877 74.2855 171.259 74.4982C171.642 74.7109 172.062 74.8462 172.496 74.8963C172.931 74.9463 173.371 74.9101 173.791 74.7898C174.211 74.6695 174.604 74.4674 174.946 74.1952C175.289 73.9239 175.575 73.5876 175.788 73.2055C176.001 72.8235 176.136 72.4032 176.186 71.9688C176.236 71.5344 176.2 71.0943 176.08 70.6739C175.959 70.2535 175.757 69.861 175.485 69.5188ZM150.556 61.7707C147.72 61.7707 144.948 60.9298 142.59 59.3542C140.232 57.7787 138.394 55.5393 137.309 52.9193C136.223 50.2992 135.939 47.4162 136.493 44.6348C137.046 41.8534 138.412 39.2985 140.417 37.2932C142.422 35.2879 144.977 33.9223 147.758 33.3691C150.54 32.8158 153.423 33.0997 156.043 34.185C158.663 35.2703 160.902 37.1081 162.478 39.466C164.053 41.824 164.894 44.5962 164.894 47.4321C164.879 51.225 163.362 54.8574 160.674 57.534C157.987 60.2106 154.349 61.7134 150.556 61.7134V61.7707Z" fill="#EDEDED"/>
</g>
<!--frame 5-->
<g id="frame-5">
<path d="M37.6236 318.937C37.6236 318.937 7.08965 255.886 11.9953 252.826C16.1673 250.224 44.6152 240.355 53.0625 237.455C53.7129 237.231 54.4233 237.254 55.0576 237.521C55.692 237.787 56.2059 238.278 56.501 238.9C61.7505 249.972 84.1122 298.283 78.5304 305.377C72.2035 313.504 40.8443 325.699 37.6236 318.937Z" fill="#1F1327"/>
<path d="M38.8844 312.999C38.8844 312.999 13.2904 259.347 17.3937 256.734C20.8322 254.522 44.7299 246.12 51.7788 243.656C52.3301 243.445 52.9418 243.454 53.4863 243.683C54.0308 243.911 54.4661 244.341 54.7015 244.882C59.1028 254.304 77.8427 295.429 73.1778 301.503C67.8939 308.38 41.5893 318.753 38.8844 312.999Z" fill="#EDEDED"/>
<path d="M24.7292 261.949L47.4578 252.126L55.2747 266.133L30.0246 275.669L24.7292 261.949Z" fill="#A8A8A8"/>
<path d="M35.0791 283.062L60.4094 272.471L64.1689 277.766L37.6236 286.798L35.0791 283.062Z" fill="#CCCCCC"/>
<path opacity="0.61" d="M37.6237 291.463L64.1689 281.503V285.239L39.0564 293.331L37.6237 291.463Z" fill="#CCCCCC"/>
<path d="M47.4577 300.804L64.1689 293.331L66.7592 299.555L50.8962 307.028L47.4577 300.804Z" fill="#CCCCCC"/>
</g>
<!--not frame-->
<path d="M246.341 163.401C246.341 163.401 234.581 179.94 228.495 183.643C222.409 187.345 205.194 186.909 199.967 185.603C194.741 184.296 192.356 183.207 182.981 170.358C173.605 157.51 181.468 158.175 181.468 158.175C182.68 158.164 183.889 158.076 185.09 157.911L185.491 157.842C187.348 157.521 187.118 149.682 187.118 149.682C187.118 149.682 230.673 145.544 231.922 146.805C233.172 148.065 230.65 149.246 231.097 154.186C231.357 156.269 232.018 158.281 233.046 160.112C234.215 162.358 246.341 163.401 246.341 163.401Z" fill="#FA8977"/>
<path d="M233.057 160.066C227.739 166.508 215.257 177.958 208.025 175.322C202.512 173.304 192.173 164.387 185.101 157.854L185.502 157.785C187.359 157.464 187.13 149.624 187.13 149.624C187.13 149.624 230.684 145.487 231.934 146.748C233.183 148.008 230.661 149.189 231.108 154.129C231.367 156.216 232.028 158.232 233.057 160.066Z" fill="#F3602A"/>
<path d="M195.99 80.8311C195.99 80.8311 187.096 79.5589 180.127 83.6966C173.158 87.8342 169.674 96.7629 167.932 95.674L166.189 94.5852C166.189 94.5852 167.932 98.9406 169.238 99.1699L170.545 99.3876C170.545 99.3876 170.763 104.832 169.456 106.574C168.633 107.636 167.486 108.4 166.189 108.752C166.189 108.752 171.416 109.841 171.634 108.752L171.852 107.663C171.852 107.663 178.385 129.658 176.436 133.681C175.884 134.844 175.095 135.879 174.12 136.72C173.146 137.561 172.006 138.189 170.774 138.564C170.774 138.564 173.823 141.739 175.359 140.696L176.883 139.653C176.883 139.653 175.233 139.813 178.133 143.309L181.032 146.747C181.032 146.747 192.998 123.824 202.133 124.626C211.268 125.429 230.558 135.022 231.934 138.071C233.309 141.12 237.665 140.638 237.665 140.638L240.633 139.595C240.304 138.415 240.324 137.165 240.69 135.996C241.229 133.394 242.215 133.704 242.215 133.704C242.215 133.704 244.908 135.675 244.393 133.704C243.877 131.733 242.605 124.833 243.132 121.188C243.659 117.543 245.183 119.4 245.183 119.4C245.183 119.4 242.891 114.001 244.163 111.606C245.436 109.21 245.183 108.339 245.183 108.339C245.183 108.339 244.725 114.437 246.628 116.362C247.727 117.509 248.949 118.532 250.272 119.411C250.272 119.411 245.39 111.136 246.628 107.652C247.865 104.167 244.828 92.6252 242.043 89.1409C240.197 86.9146 238.214 84.8054 236.106 82.8255L241.55 85.3241C241.55 85.3241 240.461 80.2122 230.879 77.3812C221.297 74.5501 202.145 70.6646 195.99 80.8311Z" fill="#132332"/>
<path d="M178.144 138.369C182.202 138.369 185.491 134.346 185.491 129.383C185.491 124.42 182.202 120.397 178.144 120.397C174.086 120.397 170.797 124.42 170.797 129.383C170.797 134.346 174.086 138.369 178.144 138.369Z" fill="#FA8977"/>
<path d="M239.269 138.369C243.327 138.369 246.616 134.346 246.616 129.383C246.616 124.42 243.327 120.397 239.269 120.397C235.212 120.397 231.922 124.42 231.922 129.383C231.922 134.346 235.212 138.369 239.269 138.369Z" fill="#FA8977"/>
<path d="M238.811 113.933C238.811 86.0233 208.403 85.2783 208.403 85.2783C208.403 85.2783 177.995 85.966 177.995 113.933C177.995 113.933 175.588 136.673 181.789 148.386C187.99 160.1 200.907 166.645 208.403 166.645C215.899 166.645 228.816 160.1 235.017 148.386C241.218 136.673 238.811 113.933 238.811 113.933Z" fill="#FFB4A3"/>
<path d="M192.998 82.3901C192.998 82.3901 209.652 72.5904 221.08 77.8055C232.507 83.0205 239.418 90.5394 242.307 100.672C245.195 110.804 239.269 127.125 239.269 127.125C239.269 127.125 227.945 98.7116 222.719 94.4708C217.492 90.2299 208.54 100.018 202.89 94.7917C197.239 89.5652 197.239 91.2042 197.239 91.2042C197.239 91.2042 196.265 100.775 191.038 101.703C185.812 102.631 177.491 111.125 177.537 116.03C177.582 120.936 177.537 125.99 177.537 125.99C177.537 125.99 168.172 101.99 175.359 92.8432C182.545 83.6968 190.053 85.3358 190.053 85.3358L192.998 82.3901Z" fill="#132332"/>
<path d="M195.99 87.9604C197.228 91.2156 200.93 99.4221 208.38 104.603C215.83 109.784 220.059 113.073 217.767 110.15C215.475 107.228 206.993 99.3763 214.5 104.27C222.008 109.165 230.833 117.337 228.873 113.084C226.913 108.832 224.082 103.663 229.149 109.497C234.215 115.331 238.226 124.684 238.226 124.684C238.226 124.684 236.828 107.285 230.501 101.76C224.174 96.2358 215.475 84.3156 208.403 85.3357C204.21 85.9275 200.063 86.8045 195.99 87.9604Z" fill="#192D3D"/>
<path d="M239.315 120.89L239.246 119.916L233.137 120.374C229.422 119.273 225.545 118.815 221.676 119.022C214.478 119.675 213.171 120.294 212.254 121.394C210.91 120.741 209.439 120.393 207.944 120.374C206.463 120.437 205.008 120.783 203.658 121.394C202.741 120.248 201.457 119.663 194.236 119.01C190.366 118.804 186.49 119.261 182.775 120.363L176.941 119.904L176.86 120.878L182.362 121.314V121.486C182.499 123.778 183.21 131.182 186.477 131.538C187.474 131.652 190.397 131.824 193.354 131.824C196.792 131.824 200.403 131.584 201.125 130.678C201.847 129.773 204.38 124.386 204.013 122.242C205.232 121.7 206.542 121.389 207.876 121.325C209.21 121.339 210.526 121.649 211.727 122.231C211.371 124.328 213.927 129.692 214.73 130.678C215.532 131.664 219.016 131.824 222.501 131.824C225.481 131.824 228.392 131.641 229.378 131.538C232.644 131.171 233.355 123.755 233.493 121.486V121.325L239.315 120.89ZM200.277 130.059C199.543 130.953 190.786 131.022 186.523 130.541C184.666 130.334 183.542 125.658 183.279 121.371C183.279 121.302 183.279 121.234 183.279 121.176C186.787 120.18 190.434 119.766 194.076 119.95C201.87 120.661 202.363 121.325 203.05 122.242C203.589 123.022 201.446 128.638 200.265 130.082L200.277 130.059ZM232.553 121.406C232.289 125.669 231.166 130.346 229.309 130.575C225.011 131.056 216.243 130.988 215.555 130.094C214.409 128.649 212.243 123.033 212.77 122.311C213.457 121.383 213.916 120.706 221.744 120.019C222.375 120.019 223.005 119.939 223.635 119.939C226.667 119.997 229.679 120.44 232.599 121.257L232.553 121.406Z" fill="black"/>
<path d="M199.623 150.897C201.767 153.12 204.69 154.423 207.777 154.53C210.863 154.637 213.87 153.54 216.162 151.47C217.607 150.243 215.521 148.169 214.088 149.395C212.353 150.929 210.09 151.727 207.777 151.62C205.464 151.513 203.283 150.51 201.698 148.822C201.421 148.554 201.05 148.405 200.665 148.408C200.28 148.41 199.911 148.565 199.638 148.837C199.366 149.11 199.211 149.478 199.209 149.864C199.206 150.249 199.355 150.62 199.623 150.897Z" fill="#D66154"/>
<path d="M209.068 132.799C209.068 132.799 214.283 139.676 212.804 140.306C211.326 140.936 208.575 141.613 208.403 141.12C208.231 140.627 208.22 131.641 209.068 132.799Z" fill="#FA8977"/>
<path d="M194.603 125.383C194.104 125.383 193.626 125.185 193.274 124.832C192.921 124.48 192.723 124.002 192.723 123.503C192.725 123.194 192.804 122.891 192.952 122.621H192.723C192.159 122.621 191.607 122.788 191.138 123.102C190.668 123.415 190.303 123.861 190.087 124.382C189.87 124.904 189.814 125.478 189.924 126.031C190.034 126.585 190.306 127.093 190.705 127.493C191.104 127.892 191.613 128.164 192.166 128.274C192.72 128.384 193.294 128.327 193.815 128.111C194.337 127.895 194.783 127.529 195.096 127.06C195.41 126.591 195.577 126.039 195.577 125.475C195.584 125.364 195.584 125.253 195.577 125.142C195.281 125.31 194.944 125.394 194.603 125.383Z" fill="#132332"/>
<path d="M224.644 125.383C224.146 125.383 223.667 125.185 223.315 124.832C222.962 124.48 222.764 124.002 222.764 123.503C222.766 123.194 222.845 122.891 222.994 122.621H222.764C222.2 122.621 221.648 122.788 221.179 123.102C220.709 123.415 220.344 123.861 220.128 124.382C219.912 124.904 219.855 125.478 219.965 126.031C220.075 126.585 220.347 127.093 220.746 127.493C221.145 127.892 221.654 128.164 222.208 128.274C222.761 128.384 223.335 128.327 223.857 128.111C224.378 127.895 224.824 127.529 225.137 127.06C225.451 126.591 225.618 126.039 225.618 125.475C225.625 125.364 225.625 125.253 225.618 125.142C225.322 125.31 224.985 125.394 224.644 125.383Z" fill="#132332"/>
<path d="M185.491 119.079C186.759 118.085 188.127 117.225 189.571 116.512C191.451 115.698 195.451 115.858 195.451 116.512C195.451 117.165 196.024 117.268 195.451 117.497C194.878 117.726 188.345 116.512 185.491 119.079Z" fill="#192D3D"/>
<path d="M228.793 119.079C227.525 118.085 226.157 117.225 224.713 116.512C222.833 115.698 218.833 115.858 218.833 116.512C218.833 117.165 218.26 117.268 218.833 117.497C219.406 117.726 225.939 116.512 228.793 119.079Z" fill="#192D3D"/>
<path d="M179.153 158.335C179.153 158.335 142.406 163.94 124.045 184.479C105.683 205.019 107.849 252.665 107.849 252.665C107.849 252.665 129.329 304.965 154.842 312.438C180.356 319.911 292.131 279.439 292.131 279.439C292.131 279.439 297.254 201.924 280.222 185.74C269.387 175.687 256.826 167.672 243.143 162.083C243.143 162.083 217.733 180.422 213.687 181.694C209.641 182.966 196.872 179.516 190.339 173.293C185.94 168.845 182.176 163.812 179.153 158.335Z" fill="#F3602A"/>
<path d="M76.7882 221.787L92.3532 297.435C92.5388 298.338 92.901 299.196 93.4189 299.959C93.9368 300.721 94.6004 301.375 95.3714 301.88C96.1424 302.386 97.0058 302.735 97.9119 302.906C98.818 303.078 99.749 303.068 100.651 302.879L339.421 253.02C341.195 252.651 342.757 251.609 343.778 250.113C344.8 248.617 345.202 246.784 344.9 244.997L332.51 171.322C332.357 170.396 332.02 169.511 331.519 168.718C331.018 167.925 330.362 167.241 329.591 166.707C328.82 166.172 327.95 165.798 327.032 165.606C326.114 165.415 325.166 165.409 324.246 165.591L82.2669 213.501C81.3617 213.682 80.5014 214.041 79.7354 214.557C78.9695 215.072 78.3131 215.734 77.8039 216.504C77.2947 217.275 76.9428 218.138 76.7685 219.044C76.5942 219.951 76.6009 220.883 76.7882 221.787Z" fill="#EDEDED"/>
<path d="M167.542 276.448L154.407 210.383C154.31 209.896 154.117 209.434 153.84 209.022C153.562 208.611 153.206 208.259 152.79 207.987C152.375 207.714 151.91 207.528 151.422 207.437C150.934 207.347 150.433 207.355 149.948 207.46L91.5509 220.068C91.0691 220.173 90.6128 220.371 90.2082 220.653C89.8035 220.935 89.4587 221.294 89.1934 221.709C88.9281 222.125 88.7476 222.588 88.6624 223.074C88.5772 223.56 88.589 224.057 88.6969 224.538L103.46 290.603C103.676 291.57 104.267 292.411 105.103 292.942C105.939 293.473 106.952 293.65 107.918 293.434L164.688 280.827C165.639 280.609 166.468 280.031 167 279.214C167.533 278.398 167.727 277.406 167.542 276.448ZM131.919 250.866L151.713 216.034L162.969 272.62L131.919 250.866ZM163.186 277.331L110.188 289.102L130.074 254.121L163.186 277.331ZM150.143 211.231L128.847 248.699L92.9951 223.587L150.143 211.231ZM93.3962 228.424L126.99 251.966L106.657 287.761L93.3962 228.424ZM107.15 289.778L107.047 289.308L107.677 289.664L107.15 289.778Z" fill="#CCCCCC"/>
<path d="M172.172 217.191C171.264 217.158 170.4 216.795 169.74 216.171C169.08 215.546 168.67 214.703 168.587 213.798C168.504 212.893 168.754 211.989 169.289 211.255C169.825 210.521 170.609 210.007 171.496 209.81L313.186 178.405C313.673 178.275 314.18 178.246 314.679 178.318C315.178 178.39 315.656 178.562 316.087 178.824C316.517 179.086 316.89 179.432 317.183 179.841C317.476 180.251 317.684 180.716 317.793 181.207C317.902 181.699 317.91 182.208 317.817 182.703C317.725 183.198 317.533 183.669 317.254 184.088C316.974 184.508 316.613 184.866 316.192 185.142C315.77 185.418 315.298 185.606 314.802 185.694L173.067 217.111C172.773 217.173 172.473 217.2 172.172 217.191Z" fill="#CCCCCC"/>
<path d="M175.359 235.473C174.451 235.44 173.586 235.077 172.926 234.452C172.266 233.828 171.856 232.984 171.773 232.079C171.691 231.175 171.94 230.271 172.476 229.537C173.011 228.802 173.796 228.289 174.683 228.091L316.338 196.744C317.287 196.574 318.265 196.778 319.067 197.313C319.87 197.847 320.434 198.672 320.643 199.613C320.851 200.554 320.688 201.54 320.187 202.364C319.686 203.188 318.886 203.786 317.954 204.033L176.31 235.381C175.998 235.452 175.679 235.483 175.359 235.473Z" fill="#CCCCCC"/>
<path d="M182.752 259.565C181.844 259.532 180.979 259.169 180.319 258.545C179.659 257.92 179.249 257.077 179.166 256.172C179.083 255.267 179.333 254.363 179.868 253.629C180.404 252.895 181.188 252.381 182.075 252.184L277.826 230.98C278.776 230.81 279.754 231.014 280.556 231.549C281.358 232.084 281.923 232.908 282.131 233.849C282.34 234.791 282.177 235.776 281.676 236.6C281.175 237.424 280.374 238.022 279.442 238.269L183.691 259.473C183.383 259.543 183.067 259.574 182.752 259.565Z" fill="#CCCCCC"/>
<path d="M126.245 209.913C126.245 209.913 121.546 199.964 130.887 198.451C140.229 196.938 151.117 195.334 152.665 198.451C154.212 201.569 131.3 216.664 126.245 209.913Z" fill="#FFB4A3"/>
<path d="M306.469 263.004C306.469 263.004 305.541 256.402 297.758 257.651C289.976 258.9 278.411 258.705 279.053 264.092C279.695 269.479 287.993 272.597 292.876 271.038C297.758 269.479 307.684 265.846 306.469 263.004Z" fill="#FFB4A3"/>
<!---->

<path d="M402.071 371.729C402.071 381.288 370.276 389.747 321.438 394.939L317.759 395.317C302.79 396.83 286.297 398.045 268.691 398.893L264.863 399.065C246.903 399.879 227.819 400.315 208.059 400.315C175.405 400.315 144.642 399.168 117.638 397.025L115.059 396.819C54.8506 391.959 14.024 382.538 14.024 371.706C14.024 368.268 18.0127 365.07 25.3367 362.067L26.5975 361.563C54.3807 350.777 125.168 343.109 208.071 343.109C231.315 343.109 253.608 343.717 274.273 344.817L277.093 344.978C307.168 346.662 333.668 349.425 354.436 352.943L356.373 353.276C384.867 358.262 402.071 364.703 402.071 371.729Z" fill="#ACBF40"/>
<path d="M156.516 382.95C156.653 384.669 154.223 387.111 135.231 392.119C128.549 393.884 122.704 395.558 117.603 397.048L115.024 396.842C120.878 395.054 127.533 393.178 134.991 391.214C152.183 386.629 155.622 384.257 155.622 383.019C155.553 382.182 153.604 380.887 144.676 379.512C137.673 378.434 127.804 377.494 116.365 376.394C91.7343 374.033 61.0742 371.099 34.0934 364.749C31.1039 364.095 28.1718 363.202 25.3252 362.078L26.586 361.574C29.1038 362.507 31.6807 363.273 34.2997 363.866C61.2118 370.205 91.8374 373.139 116.446 375.5C143.266 378.056 156.229 379.454 156.516 382.95Z" fill="#82942F"/>
<path d="M320.796 361.918C320.109 368.588 284.784 370.652 234.948 372.852C222.065 373.425 209.893 373.998 200.357 374.617C186.408 375.592 184.815 377.185 184.769 377.827C184.712 378.812 187.543 381.185 207.28 385.976C221.206 389.3 239.544 393.036 258.949 396.956L268.668 398.916L264.84 399.088L258.766 397.862C212.116 388.463 183.542 382.469 183.84 377.769C183.932 376.405 185.881 374.698 200.299 373.689C209.847 373.024 222.077 372.485 234.914 371.924C253.975 371.087 275.568 370.136 291.947 368.566C314.676 366.399 319.684 363.706 319.868 361.826C320.051 359.946 315.799 356.6 294.434 351.19C284.119 348.588 277.952 346.513 274.239 344.84L277.058 345C282.816 347.112 288.69 348.892 294.652 350.33C318.538 356.336 321.003 359.82 320.796 361.918Z" fill="#82942F"/>
<path d="M367.056 375.122C367.056 379.26 358.723 384.005 342.298 389.208C334.172 391.787 325.977 393.85 321.427 394.939C319.226 395.467 317.885 395.765 317.839 395.776L317.736 395.318L317.633 394.859C331.123 391.879 366.127 382.538 366.127 375.111C366.127 373.3 363.835 370.629 352.763 368.234C344.075 366.319 339.972 364.279 339.846 361.815C339.685 358.652 346.195 355.832 354.402 352.978L356.339 353.31C348.407 356.027 340.625 359.041 340.774 361.781C340.843 363.11 343.066 365.139 352.969 367.328C362.437 369.391 367.056 371.947 367.056 375.122Z" fill="#82942F"/>
<path opacity="0.28" d="M215.372 388.99C284.11 388.99 339.834 382.33 339.834 374.113C339.834 365.897 284.11 359.236 215.372 359.236C146.633 359.236 90.9091 365.897 90.9091 374.113C90.9091 382.33 146.633 388.99 215.372 388.99Z" fill="#263C29"/>
<path d="M324.842 376.36C315.925 380.532 283.58 381.116 275.947 379.535C268.313 377.953 263.728 373.701 259.545 367.775L259.442 367.637C255.19 361.632 241.103 360.703 240.266 360.703L251.992 338.135C251.992 338.135 271.729 347.213 276.543 348.622C279.351 349.448 288.13 348.141 296.91 346.754C303.203 345.791 309.518 344.748 313.552 344.462C323.387 343.774 331.891 349.047 334.481 357.712C337.072 366.377 333.771 372.188 324.842 376.36Z" fill="#FFBF9F"/>
<path d="M193.503 300.346C193.503 300.346 272.027 260.803 287.832 263.107C303.638 265.41 323.249 270.293 328.223 285.824C333.198 301.354 319.73 316.587 305.392 326.364C291.053 336.141 209.687 365.517 205.297 367.626C200.907 369.735 195.061 374.136 188.907 370.033C182.752 365.93 172.516 347.247 175.153 344.989C177.789 342.731 222.042 315.063 222.042 315.063L193.503 300.346Z" fill="#192D3D"/>
<path d="M254.445 334.112C254.445 334.112 254.147 352.221 245.951 361.138C237.756 370.056 231.613 367.752 225.171 366.021C218.73 364.29 179.508 368.314 147.61 363.431C115.712 358.548 102.531 351.064 92.594 328.072C82.6567 305.079 78.0376 275.588 106.589 267.416C135.14 259.244 154.991 278.878 177.239 291.566C199.486 304.254 254.697 330.478 254.445 334.112Z" fill="#2D4C51"/>
<path d="M174.797 347.167L119.197 320.598C119.197 320.598 149.925 339.774 148.997 344.989C148.069 350.204 126.658 349.917 126.658 349.917C126.658 349.917 149.868 353.081 162.189 352.794C174.511 352.508 175.943 351.236 175.943 351.236L174.797 347.167Z" fill="#192D3D"/>
<path opacity="0.33" d="M226.466 317.366L273.482 287.829L217.962 312.965L226.466 317.366Z" fill="#091216"/>
<path d="M175.072 377.838L174.728 378.067C174.834 377.979 174.95 377.902 175.072 377.838Z" fill="#5679DB"/>
<path d="M197.572 363.099C192.907 363.832 186.053 365.54 183.176 369.357L183.05 369.529C183.02 369.56 182.993 369.595 182.969 369.632L182.522 370.262C178.453 375.855 173.823 379.856 166.568 381.391C158.946 382.985 126.601 382.389 117.672 378.216C108.743 374.044 105.385 368.176 108.01 359.557C110.635 350.938 119.105 345.619 128.939 346.307C133.008 346.617 139.254 347.648 145.581 348.599C153.937 349.918 162.304 351.167 165.513 350.571L165.96 350.468C167.519 350.009 170.671 348.737 174.201 347.236C176.597 349.39 187.485 358.64 197.572 363.099Z" fill="#FFBF9F"/>
<path d="M183.187 369.357L183.061 369.529L183.004 369.609C182.84 369.808 182.69 370.019 182.557 370.239C180.538 373.162 178.029 375.714 175.141 377.781L174.797 378.01C174.465 378.228 174.121 378.434 173.777 378.641C171.552 379.929 169.133 380.846 166.614 381.357C158.992 382.95 126.647 382.354 117.718 378.182C108.789 374.01 105.431 368.142 108.056 359.522C110.451 351.683 117.672 346.571 126.394 346.238C127.273 346.192 128.153 346.192 129.031 346.238C133.1 346.548 139.346 347.579 145.673 348.531C154.029 349.849 162.396 351.098 165.605 350.502C164.619 352.794 163.84 356.073 165.857 359.11C169.112 364.313 186.649 364.359 183.187 369.357Z" fill="#1F1327"/>
<path d="M173.697 378.721C171.472 380.009 169.053 380.926 166.533 381.437C158.911 383.03 126.566 382.434 117.638 378.262C108.709 374.09 105.351 368.222 107.976 359.603C110.371 351.763 117.592 346.651 126.314 346.319C129.646 348.732 131.952 352.306 132.779 356.336C135.885 369.104 125.661 376.004 135.266 379.065C144.275 381.93 167.336 381.827 173.697 378.721Z" fill="white"/>
<path d="M135.117 347.831C135.361 347.991 135.591 348.172 135.805 348.37C137.707 350.044 139.174 353.413 140.309 356.393L140.928 358.09C141.346 359.33 141.848 360.54 142.429 361.712C142.581 361.991 142.783 362.239 143.025 362.445C143.074 362.49 143.128 362.529 143.186 362.56C143.362 362.694 143.577 362.768 143.799 362.768C144.021 362.768 144.236 362.694 144.412 362.56C144.565 362.45 144.678 362.293 144.733 362.113C145.192 361.07 144.733 358.903 144.252 357.115C143.816 355.568 143.335 354.307 143.323 354.284C142.512 352.462 141.297 350.847 139.77 349.562C138.547 348.47 137.223 347.495 135.816 346.651L135.117 347.831ZM139.553 351.27C140.616 352.267 141.463 353.473 142.04 354.812C142.321 355.513 142.566 356.228 142.773 356.955C143.202 358.242 143.464 359.579 143.553 360.932C143.047 359.851 142.595 358.746 142.2 357.62L141.891 356.783C141.227 354.887 140.446 353.035 139.553 351.236V351.27Z" fill="#FEF9F3"/>
<path d="M143.507 349.379C143.767 349.544 144.009 349.736 144.229 349.952C145.891 351.465 147.232 354.25 148.298 356.909C148.676 357.861 149.008 358.766 149.318 359.626C149.501 360.084 149.662 360.52 149.799 360.898C150.095 362.032 150.648 363.084 151.415 363.97C151.464 364.015 151.518 364.053 151.576 364.084C151.753 364.216 151.968 364.286 152.189 364.286C152.41 364.286 152.625 364.216 152.802 364.084C153.799 363.339 153.169 360.382 152.527 358.216C152.137 356.875 151.725 355.832 151.713 355.809C150.638 353.534 149.011 351.564 146.98 350.078C146.097 349.393 145.175 348.762 144.217 348.187L143.507 349.379ZM147.965 352.818C149.023 353.82 149.869 355.024 150.452 356.359C150.85 357.365 151.183 358.395 151.45 359.442C151.732 360.437 151.909 361.459 151.977 362.491C151.576 361.668 151.224 360.823 150.922 359.958C150.831 359.695 150.728 359.431 150.624 359.179C150.326 358.365 150.005 357.505 149.65 356.6C149.157 355.316 148.584 354.021 147.954 352.795L147.965 352.818Z" fill="#FEF9F3"/>
<path d="M151.874 347.786C152.334 348.724 152.946 349.579 153.685 350.319C153.971 350.633 154.277 350.928 154.602 351.201C154.178 350.869 153.788 350.559 153.455 350.319C152.504 349.642 151.805 349.241 151.736 349.172L151.083 350.238L151.014 350.342C152.392 351.38 153.488 352.747 154.201 354.319C154.418 354.72 154.613 355.11 154.797 355.465C155.599 357.173 156.264 358.984 156.848 360.554C157.788 363.075 158.304 364.405 158.923 364.898C158.978 364.947 159.04 364.99 159.106 365.024C159.284 365.155 159.499 365.226 159.719 365.226C159.94 365.226 160.155 365.155 160.333 365.024C161.204 364.394 160.814 362.044 160.333 360.027C160.585 360.176 160.734 360.359 160.997 360.52C161.261 360.68 161.479 360.806 161.731 360.944C163.008 361.726 164.474 362.146 165.972 362.159C166.38 362.148 166.785 362.083 167.175 361.964C168.181 361.699 169.041 361.048 169.571 360.153C169.844 359.649 170.016 359.096 170.075 358.525C170.134 357.955 170.08 357.379 169.916 356.829C169.752 356.28 169.482 355.768 169.119 355.323C168.757 354.879 168.311 354.51 167.806 354.239C167.324 353.941 163.221 352.852 160 352.003L158.59 351.648C158.315 351.556 158.029 351.488 157.777 351.43C157.777 351.43 157.777 351.43 157.777 351.362C157.777 351.293 157.857 351.018 157.891 350.823C157.926 350.628 157.96 350.513 157.971 350.342C158.43 347.591 158.877 342.559 156.206 340.897C156.119 340.832 156.027 340.775 155.931 340.725C155.405 340.384 154.778 340.23 154.154 340.291C153.529 340.351 152.944 340.621 152.493 341.058C150.865 342.582 150.9 345.814 151.874 347.786ZM159.576 357.837C159.144 356.384 158.405 355.039 157.41 353.895C157.373 353.536 157.373 353.175 157.41 352.817L158.957 353.218L160.608 353.643C163.611 354.445 166.602 355.247 167.015 355.465C167.37 355.641 167.686 355.886 167.945 356.186C168.203 356.486 168.399 356.835 168.521 357.212C168.643 357.589 168.688 357.987 168.654 358.382C168.619 358.777 168.506 359.161 168.321 359.511C168.058 359.948 167.679 360.304 167.225 360.538C166.772 360.773 166.263 360.878 165.754 360.84C165.458 360.852 165.162 360.829 164.871 360.772C163.979 360.588 163.124 360.259 162.338 359.797C161.332 359.267 160.4 358.609 159.565 357.837H159.576ZM155.415 353.769C155.541 353.885 155.652 354.016 155.748 354.158C155.885 354.284 156 354.433 156.126 354.571C156.472 356.051 157.231 357.402 158.315 358.468C158.909 360.07 159.295 361.742 159.461 363.442C158.955 362.361 158.504 361.256 158.109 360.13C157.407 358.134 156.596 356.179 155.679 354.273C155.599 354.112 155.496 353.929 155.415 353.769ZM155.129 351.648C155.496 351.935 155.817 352.164 156.057 352.313C156.065 352.355 156.065 352.397 156.057 352.439C155.736 352.175 155.427 351.9 155.129 351.648ZM153.352 342.078C153.513 341.917 154.006 341.424 155.209 342.078L155.37 342.158C157.272 343.304 156.951 347.705 156.516 350.445C156.516 350.605 156.447 350.766 156.413 350.915C156.229 350.789 156.011 350.617 155.805 350.433C154.708 349.574 153.806 348.492 153.157 347.258C152.298 345.528 152.435 342.995 153.341 342.078H153.352Z" fill="#FEF9F3"/>
<path d="M174.213 347.293L168.665 346.147C168.665 346.147 164.654 348.049 165.525 350.64C166.396 353.23 190.339 369.334 192.551 367.637C194.764 365.941 197.606 363.053 197.606 363.053L174.213 347.293Z" fill="#4C767A"/>
<path d="M248.152 326.616C248.152 326.616 227.223 362.938 229.32 368.669C231.418 374.4 246.891 379.615 248.164 375.672C249.436 371.729 266.284 342.926 266.502 339.109C266.72 335.293 251.235 321.137 248.152 326.616Z" fill="#4C767A"/>
<path d="M286.755 348.313C286.755 348.313 273.001 345.55 273.849 347.671C274.697 349.791 278.319 357.436 272.462 361.425C266.605 365.413 257.425 363.075 259.992 368.302C262.559 373.528 268.795 376.726 268.795 376.726C268.795 376.726 296.429 368.416 297.552 367.694C298.675 366.972 286.755 348.313 286.755 348.313Z" fill="#1F1327"/>
<path d="M259.316 367.305L259.442 367.477L259.499 367.557C259.663 367.756 259.812 367.967 259.946 368.187C261.965 371.11 264.473 373.662 267.362 375.729L267.706 375.958C268.038 376.176 268.382 376.383 268.726 376.589C270.951 377.877 273.37 378.794 275.889 379.305C283.511 380.898 315.856 380.302 324.785 376.13C333.714 371.958 337.072 366.09 334.447 357.471C332.052 349.631 324.831 344.519 316.108 344.187C315.23 344.14 314.35 344.14 313.472 344.187C309.403 344.496 303.157 345.528 296.83 346.479C288.474 347.797 280.107 349.046 276.898 348.45C277.884 350.743 278.663 354.021 276.646 357.058C273.391 362.262 255.854 362.296 259.316 367.305Z" fill="#1F1327"/>
<path d="M268.806 376.692C271.031 377.98 273.45 378.897 275.97 379.408C283.592 381.002 315.937 380.406 324.865 376.234C333.794 372.061 337.152 366.193 334.527 357.574C332.132 349.734 324.911 344.622 316.189 344.29C312.857 346.703 310.55 350.277 309.724 354.307C306.618 367.076 316.842 373.976 307.237 377.036C298.228 379.867 275.202 379.764 268.806 376.692Z" fill="white"/>
<path d="M306.675 344.599C305.269 345.443 303.945 346.418 302.721 347.511C301.195 348.796 299.98 350.41 299.168 352.233C299.168 352.233 298.675 353.517 298.24 355.064C297.735 356.852 297.288 359.018 297.758 360.061C297.813 360.241 297.926 360.398 298.079 360.508C298.255 360.643 298.471 360.716 298.692 360.716C298.914 360.716 299.13 360.643 299.306 360.508C299.364 360.477 299.418 360.439 299.466 360.394C299.708 360.188 299.91 359.939 300.062 359.66C300.644 358.488 301.146 357.278 301.564 356.038L302.182 354.342C303.329 351.362 304.784 348.003 306.687 346.319C306.901 346.12 307.131 345.94 307.375 345.78L306.675 344.599ZM300.578 354.72L300.268 355.557C299.873 356.683 299.422 357.788 298.916 358.869C299.004 357.516 299.266 356.179 299.695 354.892C299.902 354.165 300.147 353.45 300.429 352.749C301.006 351.41 301.852 350.204 302.916 349.207C302.025 350.991 301.244 352.829 300.578 354.709V354.72Z" fill="#FEF9F3"/>
<path d="M298.274 346.147C297.316 346.721 296.394 347.353 295.512 348.038C293.481 349.523 291.853 351.494 290.778 353.769C290.778 353.769 290.354 354.835 289.964 356.176C289.322 358.342 288.681 361.299 289.689 362.044C289.867 362.175 290.082 362.246 290.302 362.246C290.523 362.246 290.738 362.175 290.916 362.044C290.974 362.013 291.028 361.974 291.076 361.929C291.844 361.043 292.396 359.992 292.692 358.858C292.83 358.48 292.99 358.044 293.174 357.585C293.494 356.726 293.827 355.809 294.194 354.869C295.26 352.21 296.601 349.425 298.263 347.912C298.482 347.696 298.724 347.504 298.985 347.339L298.274 346.147ZM292.841 354.525C292.486 355.431 292.165 356.29 291.867 357.104C291.764 357.356 291.672 357.62 291.569 357.883C291.268 358.748 290.916 359.594 290.514 360.417C290.583 359.385 290.759 358.363 291.042 357.368C291.308 356.32 291.641 355.29 292.039 354.285C292.623 352.949 293.468 351.745 294.526 350.743C293.919 351.958 293.345 353.264 292.841 354.525Z" fill="#FEF9F3"/>
<path d="M290.136 339.052C289.685 338.616 289.1 338.345 288.475 338.285C287.85 338.224 287.224 338.378 286.698 338.719C286.601 338.769 286.509 338.827 286.423 338.891C283.752 340.542 284.199 345.585 284.658 348.336C284.658 348.508 284.657 348.668 284.738 348.817C284.818 348.966 284.818 349.195 284.852 349.356C284.887 349.516 284.852 349.356 284.852 349.425C284.6 349.425 284.314 349.551 284.039 349.642L282.629 349.998C279.362 350.834 275.293 351.923 274.823 352.233C274.318 352.504 273.872 352.873 273.51 353.317C273.147 353.762 272.876 354.274 272.712 354.823C272.548 355.373 272.495 355.949 272.554 356.519C272.613 357.09 272.785 357.643 273.058 358.147C273.588 359.042 274.448 359.693 275.454 359.958C275.844 360.077 276.249 360.142 276.657 360.153C278.155 360.141 279.621 359.721 280.898 358.938C281.15 358.8 281.402 358.663 281.632 358.514C281.861 358.365 282.056 358.181 282.296 358.021C281.758 360.038 281.379 362.388 282.296 363.018C282.474 363.149 282.689 363.22 282.91 363.22C283.13 363.22 283.345 363.149 283.523 363.018C283.589 362.984 283.65 362.941 283.706 362.892C284.337 362.399 284.852 361.07 285.781 358.548C286.365 356.989 287.03 355.11 287.832 353.459C288.027 353.058 288.222 352.668 288.428 352.313C289.141 350.742 290.237 349.374 291.615 348.336L291.546 348.233L290.893 347.167C290.824 347.167 290.125 347.625 289.173 348.313C288.807 348.565 288.417 348.863 288.027 349.195C288.352 348.922 288.658 348.627 288.944 348.313C289.683 347.574 290.295 346.718 290.755 345.78C291.603 343.751 291.638 340.519 290.136 339.052ZM280.187 357.757C279.402 358.219 278.546 358.548 277.654 358.731C277.364 358.789 277.068 358.812 276.772 358.8C276.263 358.837 275.753 358.733 275.3 358.498C274.847 358.263 274.468 357.908 274.204 357.471C274.019 357.12 273.906 356.736 273.872 356.342C273.838 355.947 273.883 355.549 274.005 355.172C274.126 354.795 274.322 354.446 274.581 354.146C274.84 353.846 275.156 353.601 275.511 353.425C275.924 353.207 278.95 352.405 281.918 351.602L283.569 351.178L285.116 350.777C285.152 351.135 285.152 351.496 285.116 351.854C284.12 352.999 283.382 354.343 282.95 355.797C282.118 356.568 281.189 357.226 280.187 357.757ZM286.824 352.233C285.907 354.139 285.096 356.094 284.394 358.09C283.999 359.216 283.547 360.321 283.041 361.402C283.208 359.702 283.593 358.03 284.188 356.428C285.272 355.362 286.031 354.011 286.377 352.531C286.514 352.393 286.617 352.244 286.755 352.118C286.85 351.976 286.962 351.845 287.087 351.728C286.996 351.866 286.904 352.049 286.824 352.233ZM286.468 350.387C286.46 350.346 286.46 350.303 286.468 350.261C286.698 350.112 287.03 349.883 287.397 349.596C287.076 349.849 286.766 350.112 286.468 350.387ZM289.403 345.138C288.754 346.371 287.852 347.453 286.755 348.313C286.537 348.496 286.319 348.668 286.148 348.794C286.148 348.645 286.079 348.485 286.044 348.324C285.563 345.585 285.254 341.218 287.191 340.037L287.351 339.957C288.497 339.361 289.047 339.843 289.208 339.957C290.079 340.943 290.194 343.453 289.403 345.138Z" fill="#FEF9F3"/>
</svg>
