<svg width="413" height="401" viewBox="0 0 413 401" fill="none" xmlns="http://www.w3.org/2000/svg">
<style>
    #frame-1 {
        animation: frame1 3s ease-in-out infinite;
    }
    #frame-2 {
        animation: frame2 5s ease-in-out infinite;
    }
    @keyframes frame1 {
        0% {
            transform:translateY(0);
        } 25% {
            transform:translateY(5px);
        } 50% {
            transform:translateY(-5px);
        } 75% {
            transform:translateY(5px);
        } 100% {
            transform:translateY(0);
        }
    }
        @keyframes frame2 {
        0% {
            transform:translateY(0);
        } 25% {
            transform:translateY(5px);
        } 50% {
            transform:translateY(-5px);
        } 75% {
            transform:translateY(5px);
        } 100% {
            transform:translateY(0);
        }
    }
</style>
<rect y="0.314697" width="412.621" height="400" fill="none"/>
<g id="frame-1">
<path d="M111.522 267.363C111.522 267.363 69.4464 200.461 66.3288 162.305C63.2113 124.149 67.7615 114.922 67.7615 114.922L70.3519 116.068C70.3519 116.068 62.9591 134.648 68.965 169.766C75.0283 205.183 105.459 251.144 105.459 251.144L111.522 267.363Z" fill="#031625"/>
<path d="M117.184 286.847C117.184 286.847 66.5122 261.425 66.2027 231.831C65.8933 202.237 109.367 259.752 114.342 271.947C119.316 284.142 117.184 286.847 117.184 286.847Z" fill="#4F5839"/>
<path d="M75.8993 239.797C91.4872 247.259 100.106 262.973 111.522 275.156C112.302 275.993 113.482 274.652 112.668 273.815C101.127 261.505 92.4271 245.757 76.6558 238.204C76.447 238.116 76.2127 238.111 76.0002 238.189C75.7878 238.268 75.6129 238.424 75.5111 238.626C75.4092 238.828 75.3879 239.062 75.4515 239.279C75.515 239.496 75.6587 239.681 75.8535 239.797H75.8993Z" fill="#263C29"/>
<path d="M76.6902 199.968C76.6902 199.968 59.108 178.408 56.7698 189.148C54.4316 199.888 76.6902 199.968 76.6902 199.968Z" fill="#4F5839"/>
<path d="M72.2889 183.452C72.2889 183.452 72.3691 160.757 78.7189 167.405C85.0687 174.053 72.2889 183.452 72.2889 183.452Z" fill="#ACBF40"/>
<path d="M66.3174 162.35C66.3174 162.35 61.1367 142.934 57.148 150.052C53.1593 157.17 66.3174 162.35 66.3174 162.35Z" fill="#ACBF40"/>
<path d="M66.2715 128.745C66.2715 128.745 67.4177 96.0676 77.0799 108.836C86.7421 121.604 66.2715 128.745 66.2715 128.745Z" fill="#CDC945"/>
<path d="M84.1174 214.18C84.1174 214.18 78.0542 182.901 84.9082 192.116C91.7623 201.331 84.1174 214.18 84.1174 214.18Z" fill="#82942F"/>
<path d="M68.965 169.732C68.965 169.732 57.1251 158.981 56.2769 162.797C55.4288 166.614 68.965 169.732 68.965 169.732Z" fill="#82942F"/>
<path d="M66.283 141.914C66.283 141.914 57.6638 137.078 58.7526 128.814C59.8415 120.55 66.283 141.914 66.283 141.914Z" fill="#4F5839"/>
</g>
<g id="frame-2">
<path d="M270.886 347.663C278.084 334.677 360.722 266.147 380.735 286.607C400.747 307.066 395.875 328.109 356.459 350.597C317.042 373.085 270.897 347.663 270.897 347.663" fill="#82942F"/>
<path d="M293.969 360.202C293.53 360.196 293.106 360.043 292.764 359.767C292.422 359.49 292.183 359.107 292.086 358.679C291.988 358.251 292.037 357.802 292.224 357.405C292.412 357.007 292.728 356.685 293.121 356.489C295.414 355.4 299.196 352.179 304.021 348.087C313.878 339.743 328.767 327.147 346.991 318.952L374.007 306.802C374.243 306.674 374.504 306.595 374.773 306.572C375.042 306.549 375.312 306.582 375.568 306.668C375.823 306.754 376.058 306.892 376.258 307.073C376.458 307.254 376.618 307.474 376.729 307.72C376.839 307.966 376.898 308.232 376.901 308.502C376.904 308.771 376.852 309.039 376.747 309.287C376.642 309.536 376.487 309.76 376.292 309.945C376.096 310.131 375.865 310.275 375.611 310.367L348.596 322.516C330.876 330.539 316.24 342.872 306.554 351.067C301.316 355.503 297.534 358.701 294.818 360.007C294.553 360.135 294.263 360.202 293.969 360.202Z" fill="#263C29"/>
</g>
<path d="M409.584 371.882C409.584 381.441 376.345 389.899 325.191 395.092L321.34 395.47C305.672 396.983 288.411 398.198 269.992 399.046L265.98 399.218C247.183 400.032 227.217 400.467 206.528 400.467C172.361 400.467 140.154 399.321 111.901 397.178L109.196 396.971C46.1677 392.146 3.43851 382.713 3.43851 371.882C3.43851 368.443 7.61057 365.245 15.2784 362.242L16.5965 361.738C45.6634 350.953 119.752 343.285 206.517 343.285C230.85 343.285 254.175 343.892 275.803 344.992L278.76 345.153C310.234 346.838 337.96 349.6 359.702 353.119L361.731 353.451C391.577 358.414 409.584 364.856 409.584 371.882Z" fill="#ACBF40"/>
<path d="M152.601 383.126C152.75 384.845 150.217 387.286 130.331 392.295C123.339 394.06 117.219 395.733 111.889 397.223L109.184 397.017C115.297 395.229 122.266 393.353 130.09 391.389C148.085 386.805 151.741 384.432 151.638 383.194C151.569 382.358 149.518 381.062 140.177 379.687C132.841 378.61 122.514 377.67 110.548 376.569C84.8165 374.208 52.7238 371.263 24.4478 364.913C21.3272 364.26 18.2616 363.367 15.2784 362.242L16.5965 361.738C19.2199 362.671 21.8996 363.436 24.6197 364.03C52.7926 370.369 84.8395 373.303 110.582 375.664C138.767 378.208 152.303 379.607 152.601 383.126Z" fill="#82942F"/>
<path d="M324.526 362.07C323.804 368.741 286.84 370.804 234.69 373.005C221.199 373.578 208.465 374.151 198.482 374.77C183.891 375.744 182.218 377.337 182.172 377.979C182.103 378.965 185.083 381.337 205.726 386.128C220.271 389.498 239.481 393.189 259.802 397.109L269.98 399.068L265.969 399.24L259.607 398.025C210.792 388.627 180.877 382.632 181.198 377.933C181.29 376.569 183.33 374.861 198.39 373.853C208.385 373.188 221.119 372.649 234.621 372.088C254.564 371.251 277.167 370.3 294.313 368.729C318.108 366.563 323.334 363.87 323.541 361.99C323.747 360.11 319.288 356.763 296.927 351.353C286.187 348.752 279.677 346.677 275.791 345.004L278.748 345.164C284.786 347.267 290.935 349.035 297.167 350.459C322.165 356.488 324.756 359.984 324.526 362.07Z" fill="#82942F"/>
<path d="M372.941 375.274C372.941 379.412 364.218 384.157 347.037 389.361C338.533 391.939 329.948 394.003 325.203 395.091C322.91 395.619 321.489 395.917 321.455 395.928L321.352 395.47L321.248 395.011C335.369 392.031 372.001 382.69 372.001 375.263C372.001 373.452 369.571 370.781 358.006 368.386C348.917 366.472 344.619 364.431 344.481 361.967C344.309 358.804 351.118 355.984 359.714 353.13L361.743 353.463C353.444 356.179 345.306 359.193 345.444 361.933C345.513 363.262 347.736 365.291 358.201 367.48C368.115 369.543 372.941 372.099 372.941 375.274Z" fill="#82942F"/>
<path opacity="0.28" d="M200.797 389.143C297.503 389.143 375.898 382.482 375.898 374.266C375.898 366.049 297.503 359.388 200.797 359.388C104.092 359.388 25.6971 366.049 25.6971 374.266C25.6971 382.482 104.092 389.143 200.797 389.143Z" fill="#263C29"/>
<path opacity="0.4" d="M188.682 311.719C188.682 311.719 75.4409 260.405 96.2324 218.88C117.024 177.354 120.302 159.279 112.966 121.799C105.631 84.3193 194.986 30.1055 220.752 87.0701C246.518 144.035 308.893 100.503 318.796 149.307C328.698 198.111 392.918 186.202 388.036 233.436C383.153 280.67 357.937 298.985 354.911 319.628C351.885 340.27 211.846 328.625 188.682 311.719Z" fill="#ACBF40"/>
<path d="M271.929 215.785C271.929 215.785 266.198 237.299 276.639 252.6C287.081 267.901 298.073 270.939 309.878 272.085C321.684 273.231 324.137 249.849 320.286 243.935C316.434 238.021 271.929 215.785 271.929 215.785Z" fill="#CCCCCC"/>
<path d="M338.246 226.547C338.246 226.547 316.572 260.153 342.2 254.617C367.829 249.081 371.416 263.408 368.482 269.93C365.548 276.451 366.854 266.067 354.797 263.603C342.739 261.139 313.535 272.302 319.621 246.284C325.707 220.266 338.246 226.547 338.246 226.547Z" fill="#EDEDED"/>
<path d="M343.736 212.736C343.736 212.736 335.942 235.74 327.3 245.024C318.658 254.308 278.519 210.054 281.545 201.309C284.571 192.564 304.652 165.778 304.652 165.778L343.736 212.736Z" fill="#CCCCCC"/>
<path d="M253.303 178.706C253.303 178.706 242.048 194.546 236.214 198.077C230.38 201.607 213.898 201.206 208.901 199.956C203.904 198.707 201.611 197.664 192.637 185.354C183.662 173.044 191.181 173.686 191.181 173.686C192.331 173.675 193.48 173.591 194.62 173.434L195.009 173.377C196.786 173.067 196.568 165.56 196.568 165.56C196.568 165.56 238.254 161.594 239.469 162.809C240.684 164.024 238.254 165.101 238.678 169.881C238.921 171.895 239.555 173.842 240.547 175.612C241.67 177.675 253.303 178.706 253.303 178.706Z" fill="#FA8977"/>
<path d="M240.558 175.554C235.469 181.721 223.514 192.747 216.592 190.168C211.308 188.242 201.416 179.703 194.631 173.445L195.021 173.388C196.797 173.078 196.579 165.571 196.579 165.571C196.579 165.571 238.266 161.605 239.481 162.82C240.696 164.035 238.266 165.113 238.69 169.892C238.941 171.882 239.575 173.805 240.558 175.554Z" fill="#F3602A"/>
<path d="M205.096 99.6552C205.096 99.6552 196.58 98.4402 189.909 102.395C183.238 106.349 179.949 114.922 178.229 113.868L176.51 112.825C176.51 112.825 178.229 116.985 179.49 117.214L180.739 117.421C180.739 117.421 180.946 122.636 179.696 124.298C178.893 125.325 177.773 126.059 176.51 126.384C176.51 126.384 181.519 127.427 181.725 126.384L181.931 125.341C181.931 125.341 188.19 146.396 186.31 150.259C185.783 151.374 185.028 152.368 184.094 153.175C183.161 153.982 182.069 154.586 180.888 154.946C180.888 154.946 183.811 157.984 185.267 156.987L186.722 155.989C186.722 155.989 185.141 156.138 187.869 159.485L190.642 162.832C190.642 162.832 202.104 140.871 210.849 141.651C219.595 142.43 238.185 151.6 239.481 154.511C240.776 157.422 245.017 156.964 245.017 156.964L247.859 155.966C247.507 154.812 247.507 153.579 247.859 152.425C248.375 149.938 249.315 150.236 249.315 150.236C249.315 150.236 251.894 152.127 251.401 150.236C250.908 148.344 249.682 141.743 250.255 138.247C250.828 134.751 252.157 136.55 252.157 136.55C252.157 136.55 249.934 131.381 251.183 129.089C252.432 126.796 252.157 125.96 252.157 125.96C252.157 125.96 251.722 131.794 253.533 133.673C254.569 134.77 255.722 135.75 256.971 136.596C256.971 136.596 252.295 128.676 253.533 125.341C254.771 122.005 251.802 110.956 249.097 107.621C247.348 105.493 245.468 103.476 243.469 101.581L248.719 103.965C248.719 103.965 247.676 99.0706 238.506 96.3542C229.337 93.6378 210.964 89.9013 205.096 99.6552Z" fill="#132332"/>
<path d="M187.983 154.729C191.87 154.729 195.021 150.88 195.021 146.132C195.021 141.385 191.87 137.536 187.983 137.536C184.097 137.536 180.946 141.385 180.946 146.132C180.946 150.88 184.097 154.729 187.983 154.729Z" fill="#FA8977"/>
<path d="M246.518 154.729C250.405 154.729 253.556 150.88 253.556 146.132C253.556 141.385 250.405 137.536 246.518 137.536C242.631 137.536 239.481 141.385 239.481 146.132C239.481 150.88 242.631 154.729 246.518 154.729Z" fill="#FA8977"/>
<path d="M246.071 131.347C246.071 104.618 216.958 103.965 216.958 103.965C216.958 103.965 187.846 104.629 187.846 131.347C187.846 131.347 185.553 153.124 191.479 164.345C197.405 175.566 209.818 181.835 216.958 181.835C224.099 181.835 236.501 175.566 242.438 164.345C248.375 153.124 246.071 131.347 246.071 131.347Z" fill="#FFB4A3"/>
<path d="M202.207 101.168C202.207 101.168 218.15 91.7922 229.096 96.7895C240.042 101.787 246.61 108.985 249.418 118.681C252.226 128.378 246.507 144.012 246.507 144.012C246.507 144.012 235.664 116.802 230.655 112.744C225.646 108.687 217.073 118.062 211.675 113.054C206.276 108.045 206.265 109.615 206.265 109.615C206.265 109.615 205.325 118.784 200.327 119.667C195.33 120.55 187.353 128.676 187.399 133.421C187.445 138.166 187.399 142.957 187.399 142.957C187.399 142.957 178.436 119.976 185.313 111.22C192.19 102.463 199.433 103.964 199.433 103.964L202.207 101.168Z" fill="#132332"/>
<path d="M205.096 106.475C206.242 109.592 209.829 117.409 216.958 122.406C224.088 127.404 228.156 130.533 225.967 127.725C223.778 124.916 215.652 117.409 222.838 122.097C230.025 126.785 238.472 134.602 236.592 130.544C234.713 126.487 232.008 121.524 236.856 127.106C241.704 132.687 245.544 141.65 245.544 141.65C245.544 141.65 244.203 124.997 238.151 119.655C232.099 114.314 223.709 103.002 216.947 103.976C212.944 104.539 208.985 105.374 205.096 106.475Z" fill="#192D3D"/>
<path d="M246.553 138.006L246.484 137.066L240.627 137.501C237.053 136.441 233.323 136.003 229.601 136.206C222.724 136.837 221.463 137.421 220.58 138.498C219.293 137.874 217.884 137.541 216.454 137.524C215.036 137.588 213.643 137.922 212.351 138.51C211.48 137.444 210.242 136.859 203.33 136.218C199.608 136.014 195.878 136.452 192.304 137.513L186.711 137.077L186.642 138.017L191.915 138.43V138.59C192.052 140.756 192.728 147.874 195.857 148.218C196.82 148.321 199.605 148.493 202.459 148.493C205.783 148.493 209.21 148.264 209.898 147.416C210.586 146.567 213.107 141.364 212.775 139.392C213.944 138.871 215.199 138.572 216.477 138.51C217.753 138.526 219.009 138.823 220.156 139.381C219.812 141.398 222.265 146.522 223.033 147.462C223.801 148.401 227.136 148.539 230.472 148.539C233.326 148.539 236.111 148.367 237.074 148.264C240.203 147.92 240.879 140.802 241.017 138.636V138.418L246.553 138.006ZM209.176 146.808C208.477 147.668 200.087 147.725 195.972 147.267C194.195 147.072 193.118 142.59 192.866 138.51C192.866 138.441 192.866 138.372 192.866 138.315C196.245 137.364 199.757 136.977 203.262 137.169C210.723 137.845 211.193 138.487 211.858 139.381C212.339 140.046 210.299 145.421 209.164 146.808H209.176ZM240.122 138.521C239.87 142.602 238.793 147.072 237.016 147.278C232.902 147.737 224.512 147.668 223.801 146.82C222.655 145.433 220.626 140.057 221.142 139.37C221.795 138.476 222.288 137.834 229.738 137.157C230.334 137.157 230.953 137.077 231.549 137.077C234.453 137.132 237.337 137.556 240.134 138.338L240.122 138.521Z" fill="black"/>
<path d="M208.546 166.752C210.599 168.88 213.4 170.126 216.357 170.227C219.313 170.328 222.192 169.274 224.386 167.291C225.761 166.144 223.767 164.127 222.391 165.296C220.732 166.766 218.565 167.532 216.351 167.431C214.136 167.331 212.048 166.372 210.528 164.758C210.397 164.627 210.242 164.523 210.071 164.452C209.9 164.381 209.716 164.344 209.531 164.344C209.346 164.344 209.163 164.381 208.992 164.452C208.82 164.523 208.665 164.627 208.534 164.758C208.403 164.888 208.299 165.044 208.228 165.215C208.158 165.386 208.121 165.569 208.121 165.755C208.121 165.94 208.158 166.123 208.228 166.294C208.299 166.465 208.403 166.621 208.534 166.752H208.546Z" fill="#D66154"/>
<path d="M217.589 149.41C217.589 149.41 222.575 155.978 221.165 156.608C219.755 157.239 217.119 157.858 216.947 157.388C216.775 156.918 216.786 148.299 217.589 149.41Z" fill="#FA8977"/>
<path d="M203.743 142.304C203.266 142.304 202.808 142.114 202.471 141.777C202.133 141.439 201.944 140.982 201.944 140.504C201.944 140.208 202.019 139.916 202.161 139.656H201.944C201.403 139.656 200.875 139.816 200.425 140.116C199.976 140.415 199.625 140.841 199.416 141.34C199.208 141.838 199.152 142.387 199.255 142.917C199.358 143.448 199.615 143.936 199.995 144.32C200.374 144.705 200.859 144.968 201.388 145.078C201.917 145.188 202.467 145.138 202.968 144.936C203.469 144.734 203.9 144.388 204.205 143.942C204.51 143.496 204.676 142.97 204.683 142.43C204.689 142.323 204.689 142.216 204.683 142.109C204.393 142.259 204.068 142.326 203.743 142.304Z" fill="#132332"/>
<path d="M232.512 142.304C232.035 142.304 231.577 142.114 231.24 141.777C230.902 141.439 230.712 140.982 230.712 140.504C230.713 140.208 230.788 139.916 230.93 139.656H230.712C230.172 139.656 229.644 139.816 229.194 140.116C228.744 140.415 228.393 140.841 228.185 141.34C227.977 141.838 227.921 142.387 228.023 142.917C228.126 143.448 228.384 143.936 228.764 144.32C229.143 144.705 229.628 144.968 230.157 145.078C230.686 145.188 231.236 145.138 231.737 144.936C232.238 144.734 232.668 144.388 232.973 143.942C233.279 143.496 233.445 142.97 233.452 142.43C233.458 142.323 233.458 142.216 233.452 142.109C233.162 142.259 232.837 142.326 232.512 142.304Z" fill="#132332"/>
<path d="M195.021 136.264C196.237 135.326 197.547 134.516 198.929 133.845C200.729 133.066 204.557 133.215 204.557 133.845C204.557 134.476 205.107 134.567 204.557 134.797C204.007 135.026 197.749 133.845 195.021 136.264Z" fill="#192D3D"/>
<path d="M236.489 136.264C235.272 135.326 233.963 134.516 232.581 133.845C230.781 133.066 226.953 133.215 226.953 133.845C226.953 134.476 226.403 134.567 226.953 134.797C227.503 135.026 233.75 133.845 236.489 136.264Z" fill="#192D3D"/>
<path d="M323.506 223.361C310.577 191.543 253.59 165.686 253.59 165.686C253.59 165.686 248.421 164.196 244.73 165.193C241.039 166.19 238.999 171.657 234.151 179.612C229.303 187.566 217.084 195.028 217.084 195.028L216.454 195.44V195.028C216.454 195.028 204.202 187.566 199.388 179.612C194.574 171.657 192.511 166.19 188.808 165.193C185.106 164.196 179.949 165.686 179.949 165.686C179.949 165.686 122.972 191.543 110.032 223.361C97.092 255.179 119.981 273.575 137.873 283.019C150.859 289.896 159.249 294.572 165.45 294.813C165.69 305.312 166.286 317.324 166.286 317.324H216.42V314.837C216.63 314.848 216.84 314.848 217.05 314.837V317.289H267.184C267.184 317.289 267.791 305.278 268.02 294.779C274.221 294.527 282.611 289.839 295.597 282.985C313.569 273.575 336.435 255.179 323.506 223.361ZM141.403 246.284C141.403 242.846 165.266 220.931 165.266 220.931C165.266 220.931 165.897 245.711 166.011 263.408C154.309 256.222 141.414 248.198 141.414 246.238L141.403 246.284ZM267.573 263.351C267.688 245.654 268.318 220.874 268.318 220.874C268.318 220.874 292.181 242.754 292.181 246.227C292.193 248.198 279.299 256.222 267.573 263.351Z" fill="#F3602A"/>
<path d="M197.817 260.164C198.23 259.626 196.224 254.812 193.531 248.932C192.958 247.671 192.385 246.353 191.708 245.023H197.691L199.021 248.932L202.861 260.164H197.817Z" fill="#1F1327"/>
<path d="M152.968 248.921H281.557L266.416 284.108H170.688L152.968 248.921Z" fill="#1F1327"/>
<path d="M281.557 245.012H152.968V248.921H281.557V245.012Z" fill="#473456"/>
<path d="M345.57 382.22C336.24 386.587 302.394 387.206 294.417 385.544C286.439 383.882 281.625 379.446 277.224 373.234C277.224 373.234 277.155 373.131 277.109 373.085C272.662 366.804 257.968 365.83 257.04 365.83L269.35 342.219C269.35 342.219 289.981 351.709 295.036 353.188C297.981 354.059 307.162 352.683 316.354 351.239C322.933 350.23 329.512 349.142 333.776 348.821C344.092 348.099 352.917 353.658 355.679 362.678C358.442 371.698 354.9 377.853 345.57 382.22Z" fill="#FFBF9F"/>
<path d="M208.133 302.676C208.133 302.676 290.29 261.299 306.83 263.706C323.369 266.113 343.885 271.225 349.089 287.466C354.292 303.708 340.206 319.651 325.203 329.875C310.199 340.098 225.062 370.839 220.466 373.074C215.87 375.309 209.749 379.894 203.273 375.595C196.797 371.297 186.081 351.755 188.877 349.394C191.674 347.033 237.933 318.081 237.933 318.081L208.133 302.676Z" fill="#192D3D"/>
<path d="M271.929 338.012C271.929 338.012 271.619 356.959 263.046 366.288C254.472 375.618 248.042 373.165 241.269 371.4C234.495 369.635 193.496 373.807 160.108 368.695C126.72 363.583 112.944 355.755 102.536 331.697C92.1291 307.639 87.3381 276.773 117.161 268.222C146.985 259.672 167.811 280.257 191.078 293.438C214.345 306.619 272.169 334.207 271.929 338.012Z" fill="#2D4C51"/>
<path d="M188.568 351.663L130.446 323.869C130.446 323.869 162.596 343.927 161.679 349.394C160.762 354.861 138.308 354.552 138.308 354.552C138.308 354.552 162.596 357.864 175.456 357.555C188.316 357.245 189.863 355.916 189.863 355.916L188.568 351.663Z" fill="#192D3D"/>
<path opacity="0.33" d="M242.633 320.487L291.826 289.575L233.738 315.88L242.633 320.487Z" fill="#091216"/>
<path d="M188.854 383.767L188.499 384.008C188.609 383.915 188.728 383.834 188.854 383.767Z" fill="#5679DB"/>
<path d="M212.408 368.34C207.537 369.096 200.35 370.896 197.347 374.885L197.21 375.068C197.176 375.103 197.145 375.142 197.118 375.183L196.648 375.836C192.385 381.693 187.536 385.876 179.96 387.481C171.937 389.143 138.136 388.524 128.807 384.157C119.477 379.79 115.947 373.647 118.697 364.672C121.448 355.698 130.308 350.093 140.601 350.815C144.864 351.147 151.443 352.225 158.022 353.233C166.768 354.609 175.524 355.916 178.871 355.285L179.33 355.182C180.969 354.701 184.258 353.371 187.949 351.743C190.448 354.001 201.84 363.641 212.408 368.34Z" fill="#FFBF9F"/>
<path d="M197.347 374.884L197.21 375.068L197.141 375.148C196.969 375.354 196.812 375.573 196.671 375.801C194.559 378.858 191.933 381.526 188.912 383.687L188.556 383.928C188.212 384.157 187.857 384.375 187.49 384.593C185.166 385.939 182.638 386.899 180.006 387.435C171.983 389.097 138.182 388.478 128.852 384.111C119.523 379.744 115.992 373.601 118.743 364.626C121.253 356.42 128.807 351.079 137.884 350.723C138.804 350.675 139.726 350.675 140.646 350.723C144.91 351.056 151.489 352.133 158.068 353.142C166.814 354.517 175.57 355.824 178.917 355.193C177.886 357.486 177.072 361.027 179.181 364.202C182.619 369.612 200.969 369.646 197.347 374.884Z" fill="#1F1327"/>
<path d="M187.422 384.684C185.097 386.031 182.569 386.991 179.937 387.527C171.914 389.189 138.113 388.57 128.784 384.203C119.454 379.836 115.924 373.692 118.674 364.718C121.184 356.511 128.738 351.17 137.815 350.815C141.301 353.338 143.714 357.076 144.578 361.291C147.833 374.644 137.128 381.922 147.18 385.074C156.636 388.043 180.728 387.928 187.422 384.684Z" fill="white"/>
<path d="M147.054 352.362C147.31 352.529 147.551 352.717 147.776 352.924C149.77 354.678 151.294 358.196 152.498 361.314L153.151 363.09C153.589 364.385 154.113 365.649 154.721 366.873C154.879 367.164 155.089 367.425 155.34 367.641C155.392 367.69 155.45 367.733 155.512 367.767C155.696 367.908 155.922 367.985 156.154 367.985C156.386 367.985 156.612 367.908 156.796 367.767C156.959 367.652 157.08 367.487 157.14 367.297C157.621 366.208 157.14 363.939 156.636 362.07C156.188 360.443 155.673 359.125 155.661 359.102C154.816 357.191 153.546 355.497 151.948 354.15C150.667 353.006 149.282 351.985 147.81 351.102L147.054 352.362ZM151.696 355.927C152.808 356.969 153.694 358.229 154.297 359.629C154.594 360.379 154.85 361.144 155.065 361.921C155.513 363.268 155.787 364.666 155.879 366.082C155.352 364.96 154.882 363.812 154.469 362.643L154.148 361.772C153.453 359.775 152.634 357.823 151.696 355.927Z" fill="#FEF9F3"/>
<path d="M155.879 353.978C156.152 354.154 156.406 354.357 156.636 354.586C158.378 356.168 159.776 359.079 160.888 361.864C161.277 362.861 161.633 363.813 161.954 364.707C162.149 365.188 162.309 365.646 162.458 366.048C162.766 367.236 163.342 368.338 164.143 369.268C164.194 369.318 164.252 369.36 164.315 369.394C164.501 369.532 164.726 369.606 164.957 369.606C165.188 369.606 165.413 369.532 165.599 369.394C166.653 368.615 165.988 365.52 165.312 363.251C164.899 361.853 164.475 360.764 164.464 360.741C163.334 358.374 161.632 356.325 159.512 354.781C158.59 354.063 157.626 353.401 156.624 352.798L155.879 353.978ZM160.544 357.554C161.65 358.602 162.535 359.861 163.146 361.257C163.562 362.311 163.91 363.39 164.189 364.489C164.487 365.528 164.676 366.596 164.75 367.675C164.316 366.816 163.933 365.932 163.604 365.027C163.501 364.752 163.398 364.477 163.295 364.214C162.985 363.366 162.653 362.46 162.275 361.52C161.736 360.202 161.14 358.838 160.464 357.554H160.544Z" fill="#FEF9F3"/>
<path d="M164.578 352.317C165.059 353.297 165.698 354.191 166.47 354.964C166.77 355.295 167.091 355.605 167.432 355.893C166.997 355.537 166.573 355.228 166.195 354.964C165.197 354.254 164.475 353.818 164.395 353.818L163.707 354.964L163.639 355.079C165.077 356.166 166.219 357.597 166.962 359.239C167.18 359.652 167.387 360.065 167.593 360.489C168.43 362.265 169.129 364.179 169.736 365.807C170.722 368.443 171.261 369.841 171.914 370.392C171.974 370.441 172.039 370.484 172.109 370.518C172.294 370.655 172.519 370.73 172.751 370.73C172.982 370.73 173.207 370.655 173.392 370.518C174.298 369.853 173.897 367.4 173.392 365.291C173.656 365.452 173.817 365.635 174.092 365.807C174.367 365.979 174.596 366.105 174.86 366.254C176.198 367.075 177.736 367.515 179.307 367.526C179.734 367.515 180.158 367.445 180.568 367.32C181.616 367.041 182.513 366.362 183.066 365.429C183.633 364.362 183.756 363.115 183.408 361.958C183.06 360.801 182.27 359.828 181.209 359.251C180.705 358.941 176.453 357.795 173.037 356.959L171.57 356.592C171.284 356.5 170.986 356.42 170.722 356.363C170.722 356.363 170.722 356.362 170.722 356.282C170.722 356.202 170.802 355.927 170.837 355.709C170.871 355.491 170.905 355.388 170.928 355.205C171.41 352.328 171.88 347.056 169.083 345.325C168.992 345.26 168.896 345.202 168.796 345.153C168.245 344.791 167.587 344.628 166.931 344.691C166.274 344.753 165.659 345.038 165.186 345.497C163.535 346.861 163.57 350.253 164.578 352.317ZM172.602 362.838C172.142 361.315 171.36 359.907 170.309 358.712C170.27 358.331 170.27 357.947 170.309 357.566L171.925 357.979L173.656 358.426C176.808 359.262 179.926 360.11 180.361 360.328C180.731 360.514 181.06 360.771 181.329 361.085C181.598 361.399 181.802 361.764 181.929 362.157C182.056 362.551 182.103 362.966 182.068 363.378C182.033 363.79 181.917 364.191 181.725 364.558C181.451 365.016 181.055 365.389 180.582 365.636C180.108 365.883 179.576 365.994 179.043 365.956C178.736 365.969 178.428 365.946 178.126 365.887C177.194 365.694 176.299 365.35 175.479 364.867C174.448 364.315 173.493 363.633 172.636 362.838H172.602ZM168.258 358.575C168.392 358.698 168.511 358.836 168.613 358.987C168.762 359.113 168.877 359.274 169.014 359.423C169.376 360.973 170.171 362.388 171.306 363.503C171.91 365.181 172.295 366.93 172.453 368.707C171.926 367.585 171.455 366.437 171.043 365.268C170.308 363.179 169.459 361.132 168.498 359.136C168.487 358.93 168.384 358.747 168.292 358.575H168.258ZM167.96 356.351C168.338 356.649 168.682 356.89 168.922 357.05C168.931 357.096 168.931 357.142 168.922 357.188C168.624 356.901 168.304 356.626 167.994 356.351H167.96ZM166.091 346.334C166.252 346.162 166.779 345.657 168.028 346.334L168.2 346.414C170.183 347.652 169.851 352.213 169.347 355.079C169.347 355.251 169.278 355.423 169.243 355.572C169.049 355.446 168.831 355.251 168.602 355.067C167.456 354.167 166.515 353.034 165.839 351.743C165.048 349.955 165.163 347.308 166.126 346.345L166.091 346.334Z" fill="#FEF9F3"/>
<path d="M187.972 351.801L182.172 350.655C182.172 350.655 177.966 352.649 178.883 355.354C179.8 358.059 204.878 374.919 207.159 373.142C209.44 371.366 212.443 368.397 212.443 368.397L187.972 351.801Z" fill="#4C767A"/>
<path d="M265.327 330.173C265.327 330.173 243.423 368.122 245.613 374.208C247.802 380.295 263.951 385.67 265.327 381.532C266.702 377.395 284.25 347.285 284.479 343.285C284.708 339.285 268.559 324.43 265.327 330.173Z" fill="#4C767A"/>
<path d="M305.718 352.856C305.718 352.856 291.31 349.967 292.216 352.191C293.121 354.414 296.892 362.415 290.772 366.552C284.651 370.69 275.081 368.226 277.717 373.727C280.353 379.229 286.886 382.541 286.886 382.541C286.886 382.541 315.804 373.842 316.985 373.085C318.165 372.329 305.718 352.856 305.718 352.856Z" fill="#1F1327"/>
<path d="M277.006 372.741L277.144 372.925L277.212 373.005C277.385 373.211 277.542 373.429 277.682 373.658C279.795 376.714 282.42 379.382 285.442 381.544L285.797 381.784C286.141 382.014 286.496 382.232 286.863 382.449C289.188 383.796 291.715 384.756 294.348 385.292C302.371 386.954 336.171 386.335 345.501 381.968C354.831 377.601 358.361 371.457 355.61 362.483C353.1 354.276 345.547 348.935 336.469 348.58C335.549 348.531 334.627 348.531 333.707 348.58C329.443 348.912 322.864 349.99 316.285 350.998C307.54 352.374 298.783 353.68 295.437 353.05C296.468 355.342 297.282 358.884 295.173 362.059C291.734 367.457 273.384 367.503 277.006 372.741Z" fill="#1F1327"/>
<path d="M286.932 382.529C289.256 383.876 291.784 384.836 294.417 385.372C302.44 387.034 336.24 386.415 345.57 382.048C354.9 377.681 358.43 371.538 355.679 362.563C353.169 354.357 345.616 349.015 336.538 348.66C333.053 351.183 330.64 354.921 329.776 359.136C326.521 372.489 337.226 379.767 327.174 382.919C317.718 385.888 293.626 385.773 286.932 382.529Z" fill="white"/>
<path d="M326.555 348.97C325.083 349.854 323.698 350.875 322.417 352.019C320.819 353.366 319.549 355.059 318.704 356.97C318.704 356.97 318.188 358.311 317.73 359.939C317.202 361.807 316.744 364.076 317.225 365.165C317.285 365.356 317.406 365.521 317.569 365.635C317.753 365.777 317.979 365.853 318.211 365.853C318.443 365.853 318.669 365.777 318.853 365.635C318.916 365.601 318.973 365.559 319.025 365.509C319.276 365.293 319.486 365.033 319.644 364.741C320.252 363.517 320.777 362.254 321.214 360.959L321.867 359.182C323.013 356.065 324.595 352.557 326.59 350.792C326.814 350.585 327.056 350.397 327.312 350.231L326.555 348.97ZM320.171 359.561L319.85 360.432C319.438 361.601 318.967 362.748 318.44 363.87C318.532 362.454 318.806 361.056 319.254 359.71C319.469 358.932 319.725 358.167 320.022 357.417C320.626 356.018 321.511 354.757 322.624 353.715C321.689 355.611 320.874 357.563 320.182 359.561H320.171Z" fill="#FEF9F3"/>
<path d="M317.764 350.597C316.763 351.2 315.798 351.862 314.876 352.58C312.756 354.124 311.054 356.173 309.924 358.54C309.924 358.54 309.489 359.686 309.076 361.05C308.4 363.343 307.735 366.414 308.79 367.194C308.975 367.331 309.2 367.406 309.431 367.406C309.663 367.406 309.888 367.331 310.073 367.194C310.136 367.16 310.194 367.117 310.245 367.068C311.046 366.137 311.622 365.035 311.93 363.847C312.079 363.446 312.239 362.999 312.434 362.506C312.767 361.6 313.111 360.649 313.5 359.663C314.646 356.878 316.01 353.933 317.753 352.385C317.983 352.157 318.236 351.953 318.509 351.778L317.764 350.597ZM312.033 359.365C311.655 360.305 311.334 361.211 311.013 362.059C310.91 362.322 310.807 362.598 310.704 362.873C310.374 363.777 309.992 364.661 309.557 365.52C309.632 364.441 309.821 363.373 310.119 362.334C310.398 361.235 310.746 360.156 311.162 359.102C311.773 357.706 312.658 356.447 313.764 355.4C313.214 356.683 312.618 358.047 312.079 359.365H312.033Z" fill="#FEF9F3"/>
<path d="M309.248 343.17C308.775 342.711 308.159 342.427 307.503 342.364C306.847 342.302 306.189 342.465 305.638 342.826C305.538 342.876 305.442 342.933 305.351 342.998C302.554 344.729 303.059 350.001 303.506 352.878C303.506 353.062 303.563 353.222 303.597 353.383C303.632 353.543 303.678 353.784 303.712 353.956C303.746 354.128 303.712 354.013 303.712 354.036C303.448 354.093 303.15 354.173 302.864 354.265L301.397 354.632C297.958 355.514 293.729 356.649 293.224 356.924C292.164 357.502 291.373 358.475 291.026 359.631C290.678 360.788 290.801 362.035 291.368 363.102C291.92 364.036 292.818 364.715 293.866 364.993C294.275 365.119 294.699 365.188 295.127 365.2C296.698 365.189 298.235 364.749 299.574 363.927C299.838 363.778 300.102 363.641 300.342 363.48C300.583 363.32 300.778 363.125 301.041 362.965C300.48 365.073 300.079 367.549 301.041 368.191C301.227 368.329 301.452 368.403 301.683 368.403C301.914 368.403 302.139 368.329 302.325 368.191C302.395 368.157 302.46 368.115 302.52 368.065C303.173 367.549 303.666 366.162 304.698 363.48C305.317 361.841 306.004 359.939 306.841 358.162C307.036 357.738 307.242 357.325 307.471 356.913C308.215 355.27 309.357 353.84 310.795 352.752L310.727 352.638L310.039 351.491C309.959 351.491 309.236 351.961 308.239 352.638C307.861 352.901 307.448 353.211 307.001 353.566C307.343 353.278 307.664 352.968 307.964 352.638C308.735 351.865 309.374 350.97 309.855 349.99C310.784 348.099 310.818 344.718 309.248 343.17ZM298.841 362.747C298.02 363.229 297.125 363.574 296.193 363.767C295.891 363.826 295.583 363.849 295.276 363.836C294.744 363.873 294.211 363.762 293.737 363.516C293.264 363.269 292.868 362.895 292.594 362.437C292.403 362.071 292.286 361.67 292.251 361.258C292.216 360.845 292.263 360.431 292.39 360.037C292.517 359.643 292.721 359.279 292.99 358.965C293.26 358.651 293.588 358.394 293.958 358.208C294.394 357.979 297.523 357.142 300.663 356.305L302.394 355.858L304.01 355.446C304.049 355.827 304.049 356.211 304.01 356.592C302.959 357.787 302.177 359.194 301.718 360.718C300.85 361.515 299.883 362.197 298.841 362.747ZM305.787 357.016C304.826 359.012 303.977 361.059 303.242 363.148C302.83 364.317 302.359 365.464 301.832 366.586C301.99 364.81 302.375 363.061 302.978 361.383C304.114 360.268 304.909 358.852 305.271 357.302C305.408 357.153 305.523 356.993 305.672 356.867C305.774 356.716 305.893 356.577 306.027 356.454C306.027 356.592 305.867 356.764 305.787 356.97V357.016ZM305.408 355.09C305.399 355.045 305.399 354.998 305.408 354.953C305.649 354.804 305.993 354.552 306.371 354.254C306.027 354.471 305.718 354.746 305.42 355.033L305.408 355.09ZM308.469 349.589C307.793 350.879 306.851 352.012 305.706 352.913C305.477 353.096 305.259 353.291 305.064 353.417C305.064 353.268 304.996 353.096 304.961 352.924C304.468 350.059 304.136 345.485 306.107 344.259L306.279 344.179C307.529 343.56 308.056 344.064 308.216 344.179C309.191 345.153 309.317 347.801 308.48 349.543L308.469 349.589Z" fill="#FEF9F3"/>
<path opacity="0.86" d="M176.224 284.108L249.108 283.26L208.133 302.676L176.224 284.108Z" fill="#9D2526"/>
<path d="M228.432 286.549C228.432 286.549 218.013 286.549 220.615 281.334C223.216 276.119 241.647 268.635 245.464 273.838C249.28 279.042 247.974 281.976 243.091 284.257C238.208 286.538 231.056 286.744 228.432 286.549Z" fill="#FFB4A3"/>
<path opacity="0.55" d="M165.278 220.965L176.224 208.14C176.224 208.14 164.338 238.169 195.559 239.017C226.781 239.866 259.94 239.155 262.782 231.762C264.131 227.924 265.997 224.287 268.33 220.954L267.825 244.943H165.278V220.965Z" fill="#9D2526"/>
<path d="M197.68 245.012H191.697C187.284 235.671 182.126 225.47 182.126 225.47L189.989 222.536L197.68 245.012Z" fill="#1F1327"/>
<path d="M224.856 244.691C224.856 244.691 166.195 188.758 160.349 148.482C154.504 108.205 178.436 68.6394 192.556 60.3297C206.677 52.02 177.301 27.0908 152.922 81.0639C128.543 135.037 152.486 173.227 176.178 201.309C199.869 229.39 214.54 245.023 214.54 245.023L224.856 244.691Z" fill="#ACBF40"/>
<path d="M130.663 167.818C130.324 167.754 130.003 167.619 129.72 167.421C129.438 167.223 129.201 166.968 129.024 166.671C128.554 165.915 117.459 147.805 119.121 121.799C120.184 105.819 126.374 90.6082 136.772 78.4278C137.216 77.9552 137.83 77.6781 138.478 77.6577C139.126 77.6373 139.755 77.8751 140.228 78.319C140.701 78.7628 140.978 79.3762 140.998 80.0243C141.019 80.6723 140.781 81.302 140.337 81.7747C130.772 93.1746 125.044 107.3 123.97 122.143C123.005 136.719 126.184 151.27 133.139 164.115C133.388 164.517 133.516 164.982 133.506 165.454C133.497 165.927 133.35 166.386 133.084 166.777C132.818 167.168 132.445 167.473 132.009 167.656C131.573 167.838 131.094 167.891 130.629 167.806L130.663 167.818Z" fill="#82942F"/>
<path d="M161.369 218.421C155.892 217.345 150.62 215.411 145.747 212.69C135.706 207.257 121.013 195.715 108.061 171.611C95.1091 147.507 92.3354 126.383 92.2322 112.893C92.1291 98.119 95.0862 89.1101 95.2123 88.7433C95.281 88.4031 95.4214 88.0815 95.6242 87.7999C95.8269 87.5183 96.0874 87.2832 96.3882 87.1102C96.6891 86.9372 97.0233 86.8303 97.3687 86.7967C97.7141 86.763 98.0627 86.8034 98.3912 86.9151C98.7197 87.0268 99.0207 87.2073 99.274 87.4445C99.5273 87.6817 99.7271 87.9701 99.8602 88.2906C99.9932 88.6111 100.056 88.9563 100.045 89.3032C100.035 89.65 99.9498 89.9906 99.797 90.3021C99.797 90.3823 96.9315 99.0817 97.0691 113.111C97.1952 126.04 99.9345 146.35 112.313 169.273C124.6 192.128 138.343 203.062 147.707 208.243C157.805 213.79 165.117 213.974 165.197 213.974C165.845 213.981 166.463 214.246 166.915 214.709C167.368 215.172 167.618 215.796 167.61 216.444C167.602 217.091 167.338 217.709 166.875 218.162C166.412 218.614 165.788 218.864 165.14 218.856C163.874 218.808 162.613 218.662 161.369 218.421Z" fill="#263C29"/>
<path d="M43.245 348.97C43.245 348.97 31.6916 361.463 37.8236 367.985C43.9556 374.507 54.764 377.154 58.0191 373.223C61.2742 369.292 69.2745 353.325 69.2745 353.325L43.245 348.97Z" fill="#4F541F"/>
<path d="M65.6182 347.663C65.6182 347.663 69.4693 376.993 75.6472 377.395C81.825 377.796 95.5218 369.773 96.1636 364.328C96.8055 358.884 90.0201 342.402 90.0201 342.402L65.6182 347.663Z" fill="#677225"/>
<path d="M47.5775 314.447C47.5775 314.447 18.992 299.547 19.313 309.026C19.6339 318.505 42.5229 329.542 42.5229 329.542L47.5775 314.447Z" fill="#677225"/>
<path d="M47.5775 314.447C47.5775 314.447 34.2934 344.156 45.6978 351.354C57.1022 358.552 86.7421 351.285 89.6763 343.835C92.6105 336.385 81.6531 311.433 81.6531 311.433L47.5775 314.447Z" fill="#82942F"/>
<path d="M72.2889 317.324C72.2889 317.324 69.2057 342.62 75.991 345.978C82.7764 349.337 96.4272 349.073 92.2323 331.651C88.0373 314.229 81.6187 311.421 81.6187 311.421L72.2889 317.324Z" fill="#ACBF40"/>
<path d="M51.0962 275.695C44.3682 281.254 41.2621 294.538 42.4083 302.676C44.3682 316.843 56.7354 323.422 66.1913 319.639C75.6472 315.857 84.7592 314.505 86.7077 298.08C87.1824 293.965 86.6805 289.795 85.2427 285.91C83.805 282.025 81.4718 278.533 78.4324 275.718C71.372 269.093 64.4835 269.414 55.7153 273.139C54.1089 273.742 52.5932 274.564 51.2109 275.581L51.0962 275.695Z" fill="#CDC945"/>
<path d="M49.973 296.315C50.1335 292.67 54.3857 291.73 56.5405 294.366C57.6867 295.833 59.7842 293.747 58.6151 292.292C54.7296 287.478 47.3024 290.343 47.0388 296.315C46.9586 298.206 49.8928 298.194 49.973 296.315Z" fill="#4F541F"/>
<path d="M67.4292 294.08C67.8419 293.539 68.3697 293.097 68.9744 292.786C69.579 292.475 70.2453 292.302 70.925 292.28C72.2201 292.166 72.5411 294.137 73.1485 295.054C74.1915 296.613 76.736 295.146 75.6816 293.575C74.4437 291.719 73.9394 289.151 71.1542 289.3C68.8619 289.426 66.0652 290.446 64.8847 292.613C63.9677 294.263 66.5008 295.742 67.4177 294.091L67.4292 294.08Z" fill="#4F541F"/>
<path d="M52.529 306.699C54.2138 308.716 56.2425 310.883 59.0048 311.192C62.0651 311.536 64.8273 309.37 67.326 307.914C67.6501 307.712 67.8827 307.392 67.9745 307.021C68.0662 306.651 68.0099 306.259 67.8174 305.929C67.6249 305.599 67.3115 305.358 66.9436 305.255C66.5758 305.153 66.1826 305.198 65.8474 305.381C64.048 306.424 61.5608 308.476 59.406 308.258C57.2512 308.04 55.8528 306.115 54.6035 304.613C53.3542 303.112 51.3255 305.243 52.529 306.688V306.699Z" fill="#4F541F"/>
<path d="M294.222 181.824C294.222 181.824 281.832 175.886 281.557 184.185C281.281 192.483 292.514 201.068 295.448 201.297C298.382 201.526 304.239 195.176 301.316 190.534C299.249 187.4 296.873 184.482 294.222 181.824Z" fill="#EDEDED"/>
<path d="M323.472 217.836C323.472 217.836 311.082 211.899 310.807 220.198C310.532 228.496 321.764 237.081 324.698 237.31C327.633 237.539 333.489 231.189 330.567 226.547C328.5 223.413 326.123 220.495 323.472 217.836Z" fill="#EDEDED"/>
<path d="M318.165 153.892C318.165 153.892 316.205 147.874 323.541 139.37C330.876 130.865 328.951 120.332 331.358 121.948C333.765 123.564 340.149 128.573 341.616 140.722C343.083 152.872 342.59 160.207 346.017 162.144L354.808 167.176C354.808 167.176 348.94 167.623 351.553 169.468C354.166 171.313 361.33 178.786 359.691 178.133C358.052 177.48 354.476 176.506 357.399 179.761C360.321 183.016 368.471 181.721 374.339 188.93C380.207 196.139 382.477 207.131 379.222 205.527C375.966 203.922 370.43 200.334 363.588 203.91C356.745 207.487 349.834 204.529 350.189 205.527C350.544 206.524 348.607 211.934 343.725 212.805C338.842 213.676 314.738 205.217 312.778 198.054C310.818 190.89 297.465 165.777 304.961 162.213C312.457 158.648 318.326 157.261 318.165 153.892Z" fill="#EDEDED"/>
<path d="M331.919 180.746C331.742 180.749 331.567 180.703 331.414 180.614C331.261 180.524 331.135 180.395 331.05 180.239C330.965 180.083 330.925 179.907 330.932 179.73C330.94 179.553 330.996 179.381 331.094 179.234C331.919 177.786 332.353 176.149 332.353 174.483C332.353 172.817 331.919 171.179 331.094 169.732C330.28 168.3 329.044 167.153 327.555 166.448C326.067 165.742 324.397 165.512 322.773 165.789C322.519 165.839 322.256 165.786 322.041 165.642C321.826 165.498 321.677 165.275 321.627 165.021C321.576 164.767 321.629 164.504 321.773 164.289C321.917 164.074 322.141 163.925 322.395 163.875C322.463 163.875 329.375 162.58 332.802 168.792C333.799 170.537 334.323 172.513 334.323 174.523C334.323 176.533 333.799 178.508 332.802 180.254C332.714 180.409 332.585 180.537 332.429 180.623C332.274 180.71 332.097 180.753 331.919 180.746Z" fill="#8E8E8E"/>
<path d="M341.65 202.214C341.44 202.215 341.236 202.148 341.067 202.023C340.899 201.898 340.775 201.722 340.714 201.521C340.654 201.32 340.66 201.105 340.731 200.908C340.803 200.711 340.936 200.542 341.111 200.426C342.228 199.64 343.064 198.518 343.499 197.223C343.934 195.929 343.945 194.529 343.53 193.228C343.133 191.859 342.401 190.609 341.4 189.593C340.4 188.576 339.162 187.825 337.799 187.406C337.547 187.347 337.328 187.189 337.192 186.969C337.055 186.749 337.012 186.483 337.071 186.231C337.13 185.979 337.288 185.76 337.508 185.624C337.728 185.487 337.994 185.444 338.246 185.503C339.95 185.995 341.503 186.908 342.761 188.158C344.019 189.408 344.942 190.954 345.444 192.655C345.985 194.359 345.965 196.191 345.387 197.883C344.81 199.575 343.705 201.037 342.235 202.054C342.062 202.168 341.857 202.224 341.65 202.214Z" fill="#8E8E8E"/>
<path d="M328.63 200.071C327.62 200.082 326.621 199.86 325.711 199.422C324.8 198.985 324.003 198.344 323.38 197.549C322.957 196.926 322.715 196.197 322.681 195.445C322.646 194.692 322.821 193.945 323.185 193.285C321.363 193.583 319.208 193.595 317.753 192.54C317.309 192.213 316.943 191.794 316.677 191.311C316.412 190.828 316.255 190.293 316.217 189.744L315.724 185.022C315.696 184.763 315.773 184.505 315.936 184.302C316.1 184.1 316.337 183.972 316.595 183.944C316.853 183.917 317.112 183.993 317.314 184.157C317.516 184.32 317.645 184.557 317.672 184.815L318.165 189.537C318.175 189.812 318.245 190.081 318.372 190.325C318.499 190.569 318.679 190.782 318.899 190.947C319.781 191.589 321.569 191.669 323.804 191.165C324.087 191.104 324.382 191.127 324.652 191.233C324.922 191.339 325.154 191.523 325.32 191.761C325.485 191.999 325.576 192.28 325.582 192.57C325.588 192.86 325.508 193.144 325.352 193.389C324.801 194.248 324.297 195.452 324.973 196.392C325.425 196.943 325.996 197.383 326.644 197.679C327.291 197.975 327.998 198.119 328.71 198.099C328.838 198.093 328.966 198.111 329.087 198.154C329.207 198.196 329.319 198.263 329.414 198.348C329.509 198.434 329.587 198.538 329.642 198.653C329.697 198.769 329.729 198.894 329.736 199.022C329.743 199.15 329.724 199.278 329.681 199.399C329.639 199.52 329.573 199.631 329.487 199.726C329.401 199.821 329.298 199.899 329.182 199.954C329.066 200.009 328.941 200.041 328.813 200.048L328.63 200.071Z" fill="#8E8E8E"/>
<path d="M324.836 184.07C324.836 184.07 332.802 190.454 331.564 192.792C330.326 195.131 325.569 193.239 324.836 190.752C324.102 188.265 323.804 183.382 324.836 184.07Z" fill="#132332"/>
<path d="M317.351 173.228C317.148 173.229 316.949 173.167 316.782 173.05C316.616 172.933 316.49 172.766 316.423 172.574L309.878 153.754C309.793 153.509 309.809 153.241 309.922 153.008C310.035 152.774 310.235 152.596 310.48 152.511C310.725 152.425 310.993 152.441 311.227 152.554C311.46 152.667 311.639 152.868 311.724 153.112L318.268 171.932C318.32 172.08 318.335 172.238 318.313 172.392C318.29 172.547 318.231 172.694 318.14 172.821C318.049 172.948 317.929 173.051 317.79 173.122C317.65 173.193 317.496 173.229 317.34 173.228H317.351Z" fill="#CCCCCC"/>
<path d="M313.649 173.125C313.497 173.208 313.322 173.241 313.15 173.221C312.977 173.2 312.815 173.127 312.686 173.01L299.987 161.64C299.831 161.494 299.738 161.294 299.725 161.08C299.712 160.867 299.781 160.657 299.918 160.494C300.063 160.336 300.263 160.24 300.477 160.227C300.691 160.214 300.902 160.285 301.064 160.425L313.764 171.795C313.919 171.941 314.013 172.141 314.026 172.354C314.039 172.567 313.97 172.777 313.833 172.941C313.782 173.012 313.72 173.073 313.649 173.125Z" fill="#CCCCCC"/>
<path d="M335.828 204.621C336.019 204.558 336.226 204.556 336.419 204.616C336.612 204.675 336.782 204.793 336.905 204.953L349.054 220.748C349.163 220.954 349.194 221.191 349.142 221.418C349.09 221.645 348.959 221.846 348.772 221.984C348.585 222.122 348.355 222.189 348.123 222.173C347.891 222.156 347.672 222.057 347.507 221.894L335.358 206.1C335.262 205.976 335.197 205.831 335.169 205.677C335.141 205.523 335.15 205.365 335.196 205.215C335.242 205.066 335.324 204.929 335.434 204.818C335.544 204.707 335.679 204.623 335.828 204.575V204.621Z" fill="#CCCCCC"/>
<path d="M339.369 203.544C339.487 203.419 339.64 203.333 339.809 203.298C339.977 203.263 340.151 203.281 340.309 203.349L355.943 210.134C356.05 210.178 356.146 210.242 356.227 210.325C356.307 210.407 356.37 210.505 356.411 210.612C356.451 210.72 356.47 210.835 356.464 210.95C356.459 211.065 356.429 211.177 356.378 211.28C356.337 211.388 356.273 211.486 356.191 211.567C356.109 211.649 356.01 211.712 355.902 211.753C355.794 211.794 355.679 211.812 355.563 211.806C355.448 211.799 355.335 211.769 355.232 211.716L339.599 204.931C339.492 204.887 339.395 204.823 339.315 204.74C339.234 204.658 339.172 204.56 339.131 204.453C339.09 204.345 339.072 204.23 339.077 204.115C339.083 204 339.112 203.888 339.163 203.784C339.216 203.692 339.286 203.61 339.369 203.544Z" fill="#CCCCCC"/>
<path d="M318.165 153.892C318.165 153.892 328.756 153.319 331.358 146.155C333.959 138.991 333.019 125.616 331.701 128.068C330.383 130.521 326.291 139.53 322.727 142.888C319.162 146.247 317.03 151.542 318.165 153.892Z" fill="#8E8E8E"/>
<path d="M350.201 203.28C350.201 203.28 358.063 194.695 364.253 195.348C370.442 196.002 377.285 198.936 375.657 200.071C374.029 201.205 368.448 199.635 364.906 202.214C361.364 204.793 355.313 208.151 350.201 203.28Z" fill="#8E8E8E"/>
</svg>
