<svg width="413" height="401" viewBox="0 0 413 401" fill="none" xmlns="http://www.w3.org/2000/svg">
<style>
    #frame-1 {
        animation: frame1 2s ease-in-out infinite;
    }
    #frame-2 {
        animation: frame2 3s ease-in-out infinite;
    }
    #frame-3 {
        animation: frame3 2s ease-in-out infinite;
    }
    #frame-4 {
        animation: frame4 4s ease-in-out infinite;
    }
    @keyframes frame1 {
        0% {
            transform:translateY(0);
        } 25% {
            transform:translateY(10px);
        } 50% {
            transform:translateY(-10px);
        } 75% {
            transform:translateY(10px);
        } 100% {
            transform:translateY(0);
        }
    }
    @keyframes frame2 {
        0% {
            transform:scale(.9);
        } 25% {
            transform:scale(.95);
        } 50% {
            transform:scale(.9);
        } 75% {
            transform:scale(.95);
        } 100% {
            transform:scale(.9);
        }
    }
    @keyframes frame3 {
        0% {
            transform:translateX(0);
        } 25% {
            transform:translateX(10px);
        } 50% {
            transform:translateX(-10px);
        } 75% {
            transform:translateX(10px);
        } 100% {
            transform:translateX(0);
        }
    }
    @keyframes frame4 {
        0% {
            transform:translateX(0);
        } 25% {
            transform:translateX(10px);
        } 50% {
            transform:translateX(-10px);
        } 75% {
            transform:translateX(10px);
        } 100% {
            transform:translateX(0);
        }
    }
</style>
<rect y="0.466797" width="412.621" height="400" fill="none"/>
<g clip-path="url(#clip0)">
<!--frame 1-->
<g id="frame-1">
<path d="M369.594 318.644C363.321 318.605 357.199 316.71 352.002 313.197C346.805 309.684 342.764 304.71 340.39 298.903C338.016 293.097 337.415 286.717 338.662 280.569C339.91 274.421 342.95 268.78 347.399 264.358C351.849 259.935 357.508 256.93 363.664 255.72C369.819 254.51 376.195 255.15 381.987 257.56C387.779 259.969 392.728 264.04 396.21 269.259C399.691 274.478 401.549 280.61 401.549 286.884C401.513 295.329 398.128 303.416 392.137 309.37C386.147 315.324 378.04 318.659 369.594 318.644ZM369.594 256.877C363.666 256.911 357.882 258.699 352.97 262.017C348.058 265.335 344.239 270.033 341.994 275.519C339.749 281.005 339.179 287.033 340.357 292.842C341.534 298.652 344.405 303.982 348.608 308.162C352.812 312.341 358.159 315.182 363.975 316.326C369.791 317.47 375.815 316.865 381.288 314.589C386.761 312.313 391.437 308.467 394.727 303.536C398.017 298.606 399.772 292.811 399.772 286.884C399.745 278.902 396.552 271.257 390.894 265.627C385.236 259.997 377.576 256.842 369.594 256.854V256.877Z" fill="#5D6528"/>
<path d="M361.181 269.393L340.24 322.426H361.181H382.121L361.181 269.393Z" fill="#5D6528"/>
<path d="M361.181 258.745L345.329 298.884H361.181H377.032L361.181 258.745Z" fill="#82942F"/>
<path d="M361.181 249.106L349.444 278.814H361.181H372.918L361.181 249.106Z" fill="#CDC945"/>
</g>
<!--frame 2-->
<g id="frame-2">
<path d="M140.154 112.173H93.4243V165.229H140.154V112.173Z" fill="#82942F"/>
<path d="M103.258 129.686C103.006 129.799 102.746 129.891 102.479 129.961C102.112 130.061 101.73 130.153 101.333 130.237C100.931 130.314 100.526 130.368 100.118 130.397C99.8175 130.429 99.5137 130.402 99.2238 130.317C99.1794 130.307 99.1376 130.287 99.1016 130.26C99.0655 130.232 99.036 130.196 99.0152 130.156C98.9944 130.115 98.9828 130.071 98.9812 130.025C98.9797 129.98 98.9881 129.935 99.0061 129.893C99.198 129.535 99.4731 129.228 99.8084 128.999C100.878 128.273 101.914 127.6 102.915 126.981C103.9 126.367 104.954 125.871 106.055 125.503C106.482 125.334 106.957 125.334 107.385 125.503C107.807 125.689 108.177 125.976 108.462 126.34C108.771 126.732 109.005 127.179 109.15 127.658C109.302 128.127 109.341 128.626 109.264 129.113C109.243 129.209 109.196 129.296 109.127 129.365C109.031 129.438 108.95 129.527 108.886 129.629C108.053 131.081 107.155 132.674 106.193 134.409C105.23 136.143 104.278 137.95 103.339 139.83C102.399 141.71 101.509 143.62 100.668 145.561C99.8683 147.378 99.1681 149.238 98.5705 151.131L98.4559 151.75L103.373 150.856C105.139 150.542 106.923 150.343 108.714 150.26C110.44 150.18 112.17 150.291 113.872 150.593C115.457 150.863 116.959 151.495 118.262 152.438C118.519 152.642 118.71 152.917 118.812 153.229C118.857 153.374 118.857 153.53 118.812 153.676C118.786 153.743 118.741 153.801 118.681 153.842C118.622 153.883 118.552 153.905 118.479 153.905C116.402 153.493 114.293 153.267 112.176 153.229C107.936 153.153 103.702 153.591 99.5677 154.535C97.5199 155.001 95.5599 155.533 93.6878 156.129C93.4277 156.214 93.1584 156.268 92.8855 156.289C92.5902 156.316 92.2924 156.296 92.003 156.232C91.7248 156.17 91.4605 156.058 91.2236 155.899C90.9996 155.754 90.8334 155.535 90.7537 155.28C90.6897 155.107 90.6637 154.923 90.6775 154.739C90.6914 154.555 90.7447 154.376 90.8339 154.214C90.9173 154.046 91.0331 153.895 91.1747 153.771C91.3163 153.647 91.4809 153.553 91.6591 153.492C92.2322 153.286 92.8053 153.091 93.3784 152.908L95.132 152.415C95.2553 152.395 95.3684 152.335 95.4535 152.243C95.5386 152.152 95.5908 152.035 95.602 151.911C95.9863 149.663 96.5693 147.453 97.3441 145.309C98.1082 143.085 98.9793 140.942 99.9574 138.879C100.935 136.816 101.894 134.905 102.834 133.148C103.797 131.39 104.657 129.9 105.413 128.678C105.046 128.831 104.695 128.999 104.359 129.182C104.022 129.365 103.656 129.534 103.258 129.686Z" fill="#EDEDED"/>
<path d="M128.657 145.675C129.006 145.644 129.349 145.566 129.678 145.446C130.044 145.32 130.377 145.217 130.698 145.137C131.019 145.056 131.443 144.907 131.844 144.77C132.218 144.635 132.601 144.524 132.99 144.437C133.25 144.437 133.353 144.51 133.299 144.655C133.214 144.847 133.089 145.019 132.933 145.16C132.726 145.364 132.504 145.551 132.268 145.721C132.016 145.905 131.832 146.031 131.706 146.111C131.108 146.388 130.487 146.61 129.849 146.776C129.245 146.929 128.66 147.152 128.107 147.44C127.87 147.853 127.546 148.403 127.133 149.091C126.712 149.787 126.248 150.457 125.746 151.097C125.271 151.709 124.734 152.27 124.142 152.77C123.702 153.186 123.13 153.433 122.525 153.469C121.846 153.488 121.181 153.269 120.646 152.85C120.226 152.559 119.915 152.135 119.763 151.647C119.562 151.078 119.442 150.484 119.408 149.882C119.368 149.259 119.387 148.633 119.465 148.014C119.525 147.511 119.617 147.014 119.74 146.524C119.749 146.394 119.788 146.268 119.855 146.157C119.898 146.1 119.953 146.053 120.015 146.019L120.187 145.939C120.26 145.904 120.32 145.848 120.359 145.778C120.436 145.496 120.516 145.198 120.6 144.884C120.674 144.582 120.794 144.292 120.955 144.025C121.409 143.229 121.977 142.503 122.64 141.87C123.29 141.228 124.139 140.824 125.047 140.724C125.573 140.619 126.116 140.646 126.629 140.804C127.13 140.973 127.572 141.283 127.901 141.698C128.206 142.025 128.433 142.417 128.566 142.844C128.688 143.216 128.765 143.601 128.795 143.99C128.835 144.333 128.835 144.679 128.795 145.022L128.657 145.675ZM122.927 152.048C123.268 151.948 123.574 151.753 123.809 151.486C124.154 151.131 124.468 150.748 124.749 150.34C125.039 149.94 125.3 149.518 125.528 149.079C125.713 148.74 125.863 148.383 125.975 148.014C125.416 148.069 124.853 148.095 124.291 148.094C123.738 148.105 123.185 148.063 122.64 147.968C122.549 148.265 122.495 148.573 122.48 148.885C122.454 149.266 122.454 149.649 122.48 150.031C122.505 150.416 122.558 150.799 122.64 151.177C122.69 151.487 122.795 151.786 122.95 152.06L122.927 152.048ZM126.365 146.065C126.396 146.063 126.426 146.055 126.454 146.041C126.481 146.027 126.506 146.008 126.526 145.985C126.548 145.967 126.567 145.944 126.581 145.918C126.595 145.893 126.603 145.865 126.606 145.836C126.82 145.321 126.921 144.766 126.904 144.208C126.909 143.944 126.862 143.682 126.766 143.436C126.67 143.19 126.526 142.966 126.342 142.776C126.163 142.574 125.912 142.45 125.643 142.432C125.358 142.406 125.072 142.462 124.818 142.592C124.335 142.871 123.911 143.241 123.568 143.681C123.255 144.094 122.957 144.522 122.674 144.965C122.664 145.063 122.693 145.162 122.755 145.24C122.873 145.331 122.967 145.45 123.029 145.585C123.091 145.721 123.119 145.87 123.11 146.019C123.11 146.145 123.259 146.226 123.557 146.248C123.897 146.27 124.237 146.27 124.577 146.248C124.961 146.24 125.343 146.21 125.723 146.157C125.955 146.116 126.188 146.09 126.422 146.077L126.365 146.065Z" fill="#EDEDED"/>
<path d="M134.32 149.492C134.48 149.645 134.774 149.599 135.202 149.355C135.692 149.068 136.163 148.751 136.612 148.403L138.194 147.177C138.643 146.82 139.114 146.491 139.603 146.191C139.849 146.042 140.106 145.912 140.371 145.802C140.739 145.644 141.124 145.529 141.517 145.458C141.858 145.395 142.208 145.395 142.549 145.458C142.689 145.47 142.82 145.531 142.92 145.629C143.021 145.727 143.084 145.857 143.099 145.996C143.153 146.463 143.187 146.929 143.202 147.395C143.218 147.861 143.248 148.354 143.294 148.873V149.263C143.814 148.873 144.352 148.491 144.91 148.117L146.538 147.131L148.28 146.145C148.834 145.823 149.417 145.555 150.022 145.343H150.102L150.011 145.458L149.907 145.572C149.441 146.092 148.979 146.566 148.521 146.994L147.134 148.3C146.591 148.843 146.075 149.316 145.586 149.721C145.097 150.126 144.57 150.585 144.005 151.097C143.631 151.447 143.331 151.868 143.122 152.335C142.937 152.8 142.788 153.279 142.675 153.767C142.156 155.448 141.617 157.248 141.059 159.166C140.507 161.063 139.837 162.923 139.053 164.736C138.274 166.512 137.293 168.193 136.131 169.745C135.073 171.178 133.706 172.353 132.13 173.184C131.751 173.242 131.364 173.242 130.984 173.184C130.585 173.107 130.213 172.925 129.907 172.656C129.362 172.229 128.962 171.645 128.761 170.983C128.576 170.319 128.503 169.63 128.543 168.943C128.581 168.224 128.705 167.512 128.91 166.822C129.091 166.201 129.313 165.592 129.574 165C130.226 163.55 130.993 162.155 131.867 160.828C132.703 159.543 133.618 158.31 134.606 157.137C135.581 155.974 136.617 154.864 137.712 153.813C138.805 152.766 139.924 151.75 141.07 150.764C141.221 150.565 141.323 150.334 141.368 150.088C141.456 149.757 141.521 149.42 141.563 149.08C141.611 148.822 141.611 148.558 141.563 148.3C141.51 148.109 141.38 148.109 141.174 148.3C140.654 148.713 140.1 149.125 139.512 149.538C138.937 149.947 138.331 150.311 137.701 150.627C137.087 150.931 136.446 151.177 135.787 151.36C135.154 151.541 134.492 151.596 133.838 151.521C133.314 151.454 132.823 151.23 132.428 150.879C132.096 150.563 131.848 150.169 131.706 149.733C131.559 149.282 131.485 148.809 131.489 148.335C131.487 147.843 131.552 147.353 131.683 146.879C131.905 145.948 132.319 145.073 132.898 144.312C133.473 143.557 134.278 143.01 135.191 142.753C136.596 142.284 138.123 142.341 139.489 142.913C139.751 143.03 140.008 143.16 140.257 143.303C140.476 143.432 140.637 143.642 140.704 143.887C140.964 144.461 140.757 144.705 140.085 144.621C139.798 144.621 139.5 144.529 139.202 144.506C138.904 144.483 138.618 144.506 138.366 144.506C137.636 144.482 136.917 144.691 136.314 145.102C135.777 145.479 135.324 145.963 134.984 146.524C134.677 147.024 134.459 147.575 134.342 148.151C134.219 148.589 134.211 149.051 134.32 149.492ZM139.363 154.581L136.921 157.24C136.104 158.134 135.34 159.047 134.629 159.98C133.905 160.9 133.239 161.865 132.635 162.868C132.031 163.897 131.532 164.983 131.145 166.112C130.92 166.815 130.755 167.536 130.652 168.266C130.563 168.976 130.609 169.695 130.789 170.387C131.4 170.049 131.932 169.584 132.348 169.023C132.889 168.349 133.379 167.637 133.815 166.891C134.274 166.127 134.683 165.363 135.042 164.599L135.936 162.788C136.119 162.429 136.398 161.852 136.772 161.057C137.147 160.262 137.529 159.433 137.919 158.57C138.293 157.699 138.625 156.885 138.916 156.129C139.139 155.637 139.29 155.116 139.363 154.581Z" fill="#EDEDED"/>
<path d="M156.154 145.675C156.503 145.644 156.846 145.566 157.174 145.446C157.541 145.32 157.873 145.217 158.194 145.137C158.515 145.056 158.939 144.907 159.34 144.77C159.715 144.635 160.098 144.524 160.487 144.437C160.746 144.437 160.85 144.51 160.796 144.655C160.71 144.847 160.585 145.019 160.429 145.16C160.223 145.364 160 145.551 159.765 145.721C159.512 145.905 159.329 146.031 159.203 146.111C158.605 146.388 157.984 146.61 157.346 146.776C156.742 146.929 156.157 147.152 155.604 147.44C155.367 147.853 155.042 148.403 154.63 149.091C154.208 149.787 153.745 150.457 153.243 151.097C152.768 151.709 152.23 152.27 151.638 152.77C151.198 153.186 150.626 153.433 150.022 153.469C149.343 153.488 148.678 153.269 148.142 152.85C147.722 152.559 147.412 152.135 147.26 151.647C147.058 151.078 146.939 150.484 146.904 149.882C146.865 149.259 146.884 148.633 146.962 148.014C147.021 147.511 147.113 147.014 147.237 146.524C147.245 146.394 147.285 146.268 147.351 146.157C147.395 146.1 147.45 146.053 147.512 146.019L147.684 145.939C147.756 145.904 147.816 145.848 147.856 145.778C147.932 145.496 148.012 145.198 148.097 144.884C148.171 144.582 148.29 144.292 148.452 144.025C148.909 143.228 149.481 142.502 150.148 141.87C150.798 141.228 151.647 140.824 152.555 140.724C153.081 140.619 153.624 140.646 154.137 140.804C154.638 140.973 155.08 141.283 155.409 141.698C155.714 142.025 155.941 142.417 156.074 142.844C156.196 143.216 156.273 143.601 156.303 143.99C156.343 144.333 156.343 144.679 156.303 145.022L156.154 145.675ZM150.423 152.048C150.765 151.948 151.071 151.753 151.306 151.486C151.65 151.131 151.964 150.748 152.246 150.34C152.536 149.94 152.796 149.518 153.025 149.079C153.21 148.74 153.359 148.383 153.472 148.014C152.912 148.069 152.35 148.095 151.787 148.094C151.238 148.104 150.689 148.062 150.148 147.968C150.057 148.265 150.003 148.573 149.988 148.885C149.962 149.266 149.962 149.649 149.988 150.031C150.013 150.416 150.066 150.799 150.148 151.177C150.198 151.487 150.303 151.786 150.458 152.06L150.423 152.048ZM153.862 146.065C153.893 146.063 153.923 146.055 153.95 146.041C153.978 146.027 154.002 146.008 154.022 145.985C154.045 145.967 154.064 145.944 154.077 145.918C154.091 145.893 154.1 145.865 154.102 145.836C154.316 145.321 154.418 144.766 154.4 144.208C154.406 143.944 154.359 143.682 154.262 143.436C154.166 143.19 154.022 142.966 153.839 142.776C153.66 142.574 153.409 142.45 153.14 142.432C152.855 142.406 152.569 142.462 152.314 142.592C151.831 142.871 151.407 143.241 151.065 143.681C150.752 144.094 150.454 144.522 150.171 144.965C150.161 145.063 150.19 145.162 150.251 145.24C150.369 145.331 150.464 145.45 150.526 145.585C150.587 145.721 150.615 145.87 150.607 146.019C150.607 146.145 150.756 146.226 151.054 146.248C151.393 146.27 151.734 146.27 152.074 146.248C152.457 146.24 152.84 146.21 153.22 146.157C153.455 146.116 153.692 146.089 153.931 146.077L153.862 146.065Z" fill="#EDEDED"/>
</g>
<!--frame 3-->
<g id="frame-3">
<path d="M33.9266 333.108C38.4209 333.108 42.0644 329.486 42.0644 325.017C42.0644 320.547 38.4209 316.925 33.9266 316.925C29.4322 316.925 25.7888 320.547 25.7888 325.017C25.7888 329.486 29.4322 333.108 33.9266 333.108Z" fill="#ACBF40"/>
<path d="M358.556 220.658L341.776 211.03L351.461 194.353L368.241 203.981L358.556 220.658Z" fill="#82942F"/>
</g>
<!--frame 4-->
<g id="frame-4">
<path d="M163.478 83.7822C163.479 85.4422 163.08 87.078 162.313 88.5506C161.547 90.0233 160.437 91.2892 159.077 92.2409C157.715 91.2903 156.603 90.0248 155.835 88.5522C155.067 87.0795 154.666 85.4431 154.666 83.7822C154.666 82.1213 155.067 80.4849 155.835 79.0123C156.603 77.5396 157.715 76.2741 159.077 75.3235C160.437 76.2752 161.547 77.5412 162.313 79.0138C163.08 80.4864 163.479 82.1222 163.478 83.7822Z" fill="#5D6528"/>
<path d="M159.077 92.264C157.749 93.1832 156.223 93.7778 154.624 93.9997C153.024 94.2217 151.394 94.0649 149.866 93.542C148.338 93.0191 146.954 92.1447 145.826 90.9891C144.697 89.8335 143.856 88.4291 143.369 86.889C142.883 85.3489 142.765 83.716 143.025 82.1219C143.285 80.5279 143.915 79.0171 144.866 77.7113C145.816 76.4055 147.06 75.3411 148.497 74.6039C149.934 73.8666 151.525 73.4772 153.14 73.4668C155.265 73.4668 157.339 74.1232 159.077 75.3465C157.715 76.2972 156.603 77.5626 155.835 79.0353C155.067 80.508 154.666 82.1443 154.666 83.8052C154.666 85.4662 155.067 87.1025 155.835 88.5752C156.603 90.0479 157.715 91.3133 159.077 92.264Z" fill="#ACBF40"/>
<path d="M175.364 83.7823C175.371 85.6773 174.856 87.5376 173.876 89.1592C172.895 90.7808 171.487 92.1009 169.805 92.9748C168.124 93.8487 166.234 94.2425 164.344 94.1131C162.453 93.9836 160.635 93.3359 159.088 92.2411C160.45 91.2904 161.562 90.025 162.331 88.5523C163.099 87.0796 163.5 85.4432 163.5 83.7823C163.5 82.1214 163.099 80.4851 162.331 79.0124C161.562 77.5397 160.45 76.2742 159.088 75.3236C160.635 74.2287 162.453 73.581 164.344 73.4516C166.234 73.3222 168.124 73.716 169.805 74.5899C171.487 75.4637 172.895 76.7839 173.876 78.4055C174.856 80.027 175.371 81.8874 175.364 83.7823Z" fill="#82942F"/>
</g>
<!--frame 5-->
<path d="M97.4244 214.916H89.5846V207.569C89.5846 207.392 89.5145 207.223 89.3899 207.099C89.2652 206.974 89.0961 206.904 88.9198 206.904C88.7435 206.904 88.5744 206.974 88.4497 207.099C88.3251 207.223 88.255 207.392 88.255 207.569V214.893H59.1882V182.49C59.1882 182.32 59.1205 182.157 59.0002 182.037C58.8798 181.916 58.7166 181.849 58.5463 181.849C58.3761 181.849 58.2128 181.916 58.0925 182.037C57.9721 182.157 57.9045 182.32 57.9045 182.49V214.916H37.9497C37.7794 214.916 37.6162 214.983 37.4958 215.104C37.3754 215.224 37.3078 215.387 37.3078 215.557C37.3078 215.728 37.3754 215.891 37.4958 216.011C37.6162 216.132 37.7794 216.199 37.9497 216.199H57.9045V241.633C57.9045 241.803 57.9721 241.966 58.0925 242.087C58.2128 242.207 58.3761 242.275 58.5463 242.275C58.7166 242.275 58.8798 242.207 59.0002 242.087C59.1205 241.966 59.1882 241.803 59.1882 241.633V216.199H88.255V266.734C88.255 266.904 88.3226 267.067 88.443 267.188C88.5634 267.308 88.7266 267.376 88.8969 267.376C89.0671 267.376 89.2304 267.308 89.3507 267.188C89.4711 267.067 89.5387 266.904 89.5387 266.734V216.199H97.4244C97.5946 216.199 97.7579 216.132 97.8782 216.011C97.9986 215.891 98.0662 215.728 98.0662 215.557C98.0662 215.387 97.9986 215.224 97.8782 215.104C97.7579 214.983 97.5946 214.916 97.4244 214.916Z" fill="#1F1327"/>
<path d="M254.335 179.384C254.335 179.384 243.034 195.19 237.142 198.732C231.251 202.273 214.769 201.838 209.749 200.6C204.729 199.362 202.425 198.308 193.416 186.032C184.407 173.757 191.96 174.33 191.96 174.33C193.111 174.318 194.259 174.234 195.399 174.078L195.789 174.02C197.577 173.711 197.359 166.215 197.359 166.215C197.359 166.215 239.228 162.261 240.443 163.464C241.658 164.667 239.228 165.756 239.653 170.524C239.9 172.519 240.534 174.447 241.521 176.198C242.678 178.353 254.335 179.384 254.335 179.384Z" fill="#FA8977"/>
<path d="M241.567 176.232C236.455 182.387 224.443 193.345 217.497 190.823C212.202 188.898 202.264 180.37 195.445 174.123L195.834 174.066C197.622 173.757 197.405 166.261 197.405 166.261C197.405 166.261 239.274 162.306 240.489 163.51C241.704 164.713 239.274 165.802 239.698 170.57C239.947 172.561 240.582 174.484 241.567 176.232Z" fill="#F3602A"/>
<path d="M205.944 100.459C205.944 100.459 197.393 99.2441 190.7 103.198C184.006 107.153 180.648 115.692 178.974 114.66L177.301 113.583C177.301 113.583 178.974 117.743 180.235 117.95L181.496 118.156C181.496 118.156 181.702 123.36 180.453 125.033C179.66 126.05 178.558 126.783 177.312 127.119C177.312 127.119 182.333 128.162 182.55 127.119L182.757 126.076C182.757 126.076 189.038 147.097 187.158 150.948C186.627 152.065 185.868 153.059 184.931 153.867C183.993 154.674 182.898 155.276 181.714 155.636C181.714 155.636 184.648 158.662 186.115 157.676L187.582 156.679C187.582 156.679 186 156.828 188.786 160.117L191.571 163.453C191.571 163.453 203.032 141.526 211.869 142.306C220.706 143.085 239.206 152.243 240.524 155.154C241.842 158.066 246.083 157.607 246.083 157.607L248.936 156.61C248.581 155.456 248.581 154.222 248.936 153.068C249.452 150.581 250.404 150.879 250.404 150.879C250.404 150.879 252.994 152.759 252.501 150.879C252.008 148.999 250.782 142.397 251.298 138.913C251.813 135.429 253.28 137.205 253.28 137.205C253.28 137.205 250.988 132.047 252.306 129.755C253.624 127.463 253.28 126.638 253.28 126.638C253.28 126.638 252.845 132.46 254.667 134.34C255.723 135.435 256.895 136.411 258.163 137.251C258.163 137.251 253.464 129.343 254.667 126.007C255.871 122.672 252.937 111.646 250.209 108.322C248.452 106.194 246.565 104.176 244.558 102.281L249.796 104.677C249.796 104.677 248.753 99.7828 239.481 97.0778C230.208 94.3729 211.846 90.7166 205.944 100.459Z" fill="#132332"/>
<path d="M188.763 155.441C192.662 155.441 195.823 151.597 195.823 146.856C195.823 142.115 192.662 138.271 188.763 138.271C184.863 138.271 181.702 142.115 181.702 146.856C181.702 151.597 184.863 155.441 188.763 155.441Z" fill="#FA8977"/>
<path d="M247.55 155.441C251.449 155.441 254.61 151.597 254.61 146.856C254.61 142.115 251.449 138.271 247.55 138.271C243.65 138.271 240.489 142.115 240.489 146.856C240.489 151.597 243.65 155.441 247.55 155.441Z" fill="#FA8977"/>
<path d="M247.103 132.093C247.103 105.411 217.864 104.757 217.864 104.757C217.864 104.757 188.625 105.411 188.625 132.093C188.625 132.093 186.333 153.871 192.27 165.034C198.207 176.198 210.609 182.491 217.864 182.491C225.119 182.491 237.498 176.232 243.458 165.034C249.418 153.836 247.103 132.093 247.103 132.093Z" fill="#FFB4A3"/>
<path d="M203.055 101.949C203.055 101.949 219.102 92.585 230.059 97.5823C241.016 102.58 247.641 109.755 250.472 119.44C253.303 129.125 247.573 144.724 247.573 144.724C247.573 144.724 236.684 117.56 231.652 113.503C226.621 109.445 218.013 118.809 212.591 113.812C207.17 108.815 207.159 110.374 207.159 110.374C207.159 110.374 206.219 119.543 201.187 120.414C196.155 121.285 188.155 129.411 188.201 134.099C188.247 138.787 188.201 143.624 188.201 143.624C188.201 143.624 179.204 120.7 186.115 111.932C193.026 103.164 200.247 104.757 200.247 104.757L203.055 101.949Z" fill="#132332"/>
<path d="M205.944 107.267C207.09 110.373 210.689 118.179 217.864 123.176C225.039 128.173 229.119 131.291 226.941 128.483C224.764 125.675 216.626 118.167 223.801 122.867C230.976 127.566 239.504 135.36 237.624 131.291C235.744 127.222 233.039 122.294 237.887 127.853C242.736 133.411 246.61 142.375 246.61 142.375C246.61 142.375 245.28 125.744 239.16 120.46C233.039 115.176 224.649 103.783 217.864 104.757C213.838 105.324 209.856 106.163 205.944 107.267Z" fill="#192D3D"/>
<path d="M247.573 138.798L247.504 137.859L241.624 138.294C238.034 137.235 234.289 136.797 230.552 136.999C223.675 137.629 222.38 138.214 221.497 139.291C220.202 138.666 218.786 138.333 217.348 138.317C215.922 138.38 214.522 138.714 213.222 139.303C212.339 138.237 211.101 137.652 204.156 137.01C200.418 136.808 196.674 137.246 193.084 138.306L187.467 137.87L187.399 138.81L192.683 139.222V139.383C192.82 141.549 193.496 148.644 196.637 148.999C197.6 149.102 200.408 149.274 203.273 149.274C206.62 149.274 210.047 149.045 210.746 148.197C211.445 147.349 213.967 142.157 213.634 140.174C214.807 139.653 216.066 139.353 217.348 139.291C218.631 139.306 219.895 139.604 221.05 140.162C220.706 142.168 223.171 147.292 223.939 148.186C224.706 149.08 228.065 149.263 231.412 149.263C234.277 149.263 237.074 149.091 238.036 148.988C241.177 148.644 241.865 141.549 241.991 139.371V139.211L247.573 138.798ZM210.036 147.59C209.336 148.449 200.866 148.506 196.774 148.048C194.986 147.853 193.909 143.383 193.657 139.314C193.657 139.245 193.657 139.177 193.657 139.119C197.051 138.169 200.579 137.782 204.098 137.973C211.594 138.649 212.122 139.291 212.729 140.174C213.187 140.781 211.17 146.157 210.047 147.532L210.036 147.59ZM241.074 139.314C240.822 143.383 239.733 147.853 237.956 148.048C233.819 148.506 225.348 148.438 224.695 147.59C223.549 146.214 221.509 140.839 222.024 140.151C222.678 139.268 223.171 138.626 230.655 137.939C231.263 137.939 231.87 137.859 232.478 137.859C235.392 137.914 238.288 138.338 241.097 139.119L241.074 139.314Z" fill="black"/>
<path d="M209.417 167.453C211.482 169.586 214.295 170.834 217.262 170.934C220.23 171.035 223.12 169.98 225.325 167.992C226.712 166.845 224.706 164.84 223.331 166.009C221.661 167.476 219.489 168.239 217.268 168.139C215.048 168.038 212.953 167.082 211.422 165.47C210.139 164.186 208.133 166.181 209.428 167.453H209.417Z" fill="#D66154"/>
<path d="M218.506 150.134C218.506 150.134 223.514 156.69 222.105 157.309C220.695 157.928 218.036 158.558 217.875 158.088C217.715 157.619 217.692 149.022 218.506 150.134Z" fill="#FA8977"/>
<path d="M204.591 143.039C204.354 143.041 204.119 142.995 203.899 142.906C203.679 142.816 203.48 142.684 203.311 142.516C203.143 142.349 203.009 142.15 202.918 141.931C202.827 141.712 202.78 141.477 202.78 141.24C202.78 140.943 202.855 140.652 202.998 140.392H202.78C202.242 140.396 201.717 140.56 201.271 140.862C200.825 141.165 200.479 141.593 200.276 142.091C200.073 142.59 200.023 143.138 200.131 143.666C200.238 144.193 200.5 144.677 200.882 145.056C201.265 145.436 201.751 145.693 202.279 145.797C202.808 145.9 203.355 145.845 203.852 145.637C204.349 145.43 204.774 145.081 205.073 144.633C205.372 144.185 205.531 143.658 205.531 143.119C205.538 143.013 205.538 142.905 205.531 142.799C205.246 142.963 204.921 143.047 204.591 143.039Z" fill="#132332"/>
<path d="M233.486 143.039C233.249 143.041 233.014 142.995 232.794 142.906C232.574 142.816 232.375 142.684 232.206 142.516C232.038 142.349 231.904 142.15 231.813 141.931C231.722 141.712 231.675 141.477 231.675 141.24C231.675 140.943 231.75 140.652 231.893 140.392H231.675C231.137 140.396 230.612 140.56 230.166 140.862C229.72 141.165 229.374 141.593 229.171 142.091C228.968 142.59 228.918 143.138 229.025 143.666C229.133 144.193 229.395 144.677 229.777 145.056C230.16 145.436 230.646 145.693 231.174 145.797C231.703 145.9 232.25 145.845 232.747 145.637C233.244 145.43 233.669 145.081 233.968 144.633C234.267 144.185 234.426 143.658 234.426 143.119C234.432 143.013 234.432 142.905 234.426 142.799C234.141 142.963 233.816 143.047 233.486 143.039Z" fill="#132332"/>
<path d="M195.823 137.01C197.044 136.073 198.357 135.262 199.743 134.592C201.554 133.813 205.394 133.973 205.394 134.592C205.394 135.211 205.944 135.314 205.394 135.532C204.843 135.75 198.574 134.592 195.823 137.01Z" fill="#192D3D"/>
<path d="M237.475 137.01C236.254 136.073 234.941 135.262 233.555 134.592C231.744 133.813 227.904 133.973 227.904 134.592C227.904 135.211 227.354 135.314 227.904 135.532C228.454 135.75 234.724 134.592 237.475 137.01Z" fill="#192D3D"/>
<path d="M158.446 210.434L176.968 284.752L254.61 292.385L241.567 177.241C241.567 177.241 237.257 195.821 217.703 194.044C198.15 192.267 191.96 174.33 191.96 174.33L158.446 210.434Z" fill="#F3602A"/>
<path d="M241.567 177.241C241.567 177.241 269.671 202.227 270.496 224.761C271.321 247.295 254.633 292.385 254.633 292.385L231.71 240.154L241.567 177.241Z" fill="#F3602A"/>
<path d="M411.303 372.239C411.303 381.775 377.892 390.234 326.555 395.414L322.681 395.793C306.944 397.306 289.614 398.52 271.103 399.369L267.069 399.541C248.191 400.354 228.099 400.79 207.365 400.79C173.049 400.79 140.715 399.644 112.336 397.512L109.62 397.306C46.3511 392.457 3.43848 383.047 3.43848 372.239C3.43848 368.858 7.63346 365.614 15.3243 362.611L16.6538 362.107C45.8467 351.344 120.233 343.688 207.376 343.688C231.813 343.688 255.24 344.284 276.949 345.384L279.917 345.545C311.529 347.229 339.369 349.98 361.204 353.487L363.244 353.808C393.228 358.794 411.303 365.224 411.303 372.239Z" fill="#ACBF40"/>
<path d="M153.231 383.437C153.38 385.156 150.836 387.586 130.87 392.606C123.844 394.36 117.712 396.045 112.347 397.535L109.631 397.328C115.744 395.54 122.739 393.668 130.617 391.712C148.693 387.185 152.395 384.766 152.257 383.54C152.188 382.703 150.137 381.42 140.795 380.044C133.437 378.967 123.064 378.027 110.995 376.938C85.103 374.577 52.8842 371.643 24.528 365.305C21.4079 364.649 18.3425 363.757 15.3586 362.634L16.6882 362.13C19.342 363.065 22.0524 363.83 24.8031 364.422C53.0905 370.749 85.275 373.683 111.133 376.033C139.34 378.554 152.933 379.941 153.231 383.437Z" fill="#82942F"/>
<path d="M325.89 362.45C325.168 369.11 288.067 371.173 235.664 373.362C222.116 373.935 209.302 374.508 199.307 375.127C184.648 376.101 182.974 377.694 182.929 378.325C182.86 379.311 185.851 381.672 206.586 386.451C221.188 389.821 240.478 393.5 260.891 397.409L271.103 399.369L267.069 399.54L260.685 398.314C211.652 388.938 181.599 382.944 181.943 378.245C182.035 376.881 184.086 375.173 199.239 374.176C209.268 373.511 222.07 373.03 235.618 372.411C255.642 371.574 278.347 370.623 295.563 369.064C319.449 366.898 324.71 364.216 324.916 362.336C325.122 360.456 320.641 357.121 298.187 351.711C287.402 349.109 280.869 347.034 276.96 345.361L279.929 345.522C285.989 347.632 292.161 349.407 298.417 350.84C323.506 356.869 326.108 360.353 325.89 362.45Z" fill="#82942F"/>
<path d="M374.511 375.62C374.511 379.758 365.754 384.491 348.493 389.683C339.954 392.262 331.3 394.268 326.555 395.414C324.263 395.941 322.83 396.239 322.784 396.251L322.681 395.804L322.578 395.345C336.756 392.377 373.548 383.047 373.548 375.631C373.548 373.82 371.107 371.161 359.496 368.754C350.327 366.84 346.051 364.811 345.914 362.347C345.742 359.195 352.585 356.376 361.215 353.522L363.255 353.843C354.923 356.548 346.751 359.574 346.888 362.29C346.957 363.619 349.249 365.648 359.702 367.837C369.662 369.9 374.511 372.456 374.511 375.62Z" fill="#82942F"/>
<path opacity="0.28" d="M201.634 389.466C298.751 389.466 377.479 382.82 377.479 374.623C377.479 366.425 298.751 359.78 201.634 359.78C104.517 359.78 25.7888 366.425 25.7888 374.623C25.7888 382.82 104.517 389.466 201.634 389.466Z" fill="#263C29"/>
<path d="M191.96 174.33C191.96 174.33 146.01 177.138 118.25 209.403C90.49 241.667 113.585 263.846 130.984 266.711C148.383 269.576 174.539 270.998 177.301 266.711C180.063 262.424 185.76 247.834 179.467 244.762C173.175 241.69 153.105 243.994 152.326 234.779C151.546 225.564 161.942 212.463 171.031 212.864C180.12 213.265 191.96 174.33 191.96 174.33Z" fill="#F3602A"/>
<path d="M241.567 177.241C241.567 177.241 287.517 180.049 315.277 212.314C343.037 244.578 319.942 266.757 302.543 269.622C285.144 272.488 258.988 273.909 256.226 269.622C253.464 265.336 247.767 250.745 254.06 247.673C260.352 244.601 280.422 246.905 281.201 237.69C281.981 228.475 271.585 215.374 262.496 215.775C253.407 216.176 241.567 177.241 241.567 177.241Z" fill="#F3602A"/>
<path d="M263.309 215.557H169.083C162.12 215.557 156.475 221.202 156.475 228.165V286.746C156.475 293.709 162.12 299.354 169.083 299.354H263.309C270.273 299.354 275.917 293.709 275.917 286.746V228.165C275.917 221.202 270.273 215.557 263.309 215.557Z" fill="#1F1327"/>
<path d="M258.392 224.761H174C168.303 224.761 163.684 229.38 163.684 235.077V279.823C163.684 285.52 168.303 290.139 174 290.139H258.392C264.089 290.139 268.708 285.52 268.708 279.823V235.077C268.708 229.38 264.089 224.761 258.392 224.761Z" fill="white"/>
<path d="M347.026 382.554C337.65 386.91 303.666 387.529 295.654 385.867C287.643 384.205 282.806 379.781 278.462 373.58C278.462 373.58 278.393 373.477 278.347 373.431C273.877 367.161 259.114 366.187 258.198 366.187L270.496 342.622C270.496 342.622 291.242 352.101 296.296 353.579C299.253 354.439 308.48 353.075 317.707 351.631C324.309 350.622 330.922 349.545 335.197 349.212C345.513 348.49 354.43 354.038 357.192 363.047C359.954 372.055 356.39 378.199 347.026 382.554Z" fill="#FFBF9F"/>
<path d="M209.004 303.148C209.004 303.148 291.528 261.886 308.125 264.247C324.721 266.608 345.341 271.754 350.533 287.972C355.725 304.191 341.616 320.065 326.544 330.323C311.472 340.582 225.979 371.219 221.36 373.442C216.741 375.666 210.597 380.251 204.167 375.952C197.737 371.654 186.975 352.146 189.714 349.785C192.453 347.424 238.999 318.518 238.999 318.518L209.004 303.148Z" fill="#192D3D"/>
<path d="M273.063 338.415C273.063 338.415 272.754 357.338 264.146 366.645C255.538 375.952 249.074 373.522 242.312 371.746C235.549 369.969 194.333 374.153 160.808 369.041C127.282 363.929 113.471 356.135 102.995 332.111C92.5188 308.088 87.6934 277.29 117.643 268.74C147.592 260.189 168.498 280.751 191.88 293.955C215.262 307.159 273.316 334.621 273.063 338.415Z" fill="#2D4C51"/>
<path d="M189.347 352.055L130.973 324.306C130.973 324.306 163.26 344.329 162.343 349.785C161.426 355.241 138.881 354.943 138.881 354.943C138.881 354.943 163.272 358.244 176.189 357.946C189.106 357.648 190.665 356.318 190.665 356.318L189.347 352.055Z" fill="#192D3D"/>
<path opacity="0.33" d="M243.653 320.925L293.053 290.07L234.713 316.329L243.653 320.925Z" fill="#091216"/>
<path d="M189.645 384.079L189.29 384.319C189.399 384.227 189.519 384.146 189.645 384.079Z" fill="#5679DB"/>
<path d="M213.291 368.697C208.396 369.454 201.187 371.253 198.173 375.23L198.035 375.414C198.001 375.449 197.97 375.487 197.943 375.528L197.473 376.182C193.198 382.027 188.304 386.211 180.716 387.804C172.693 389.466 138.721 388.847 129.345 384.491C119.97 380.136 116.428 374.004 119.202 365.006C121.975 356.009 130.87 350.45 141.197 351.172C145.472 351.505 152.085 352.582 158.687 353.591C167.467 354.966 176.258 356.273 179.628 355.642L180.098 355.539C181.737 355.058 185.049 353.728 188.763 352.158C191.25 354.381 202.677 364.032 213.291 368.697Z" fill="#FFBF9F"/>
<path d="M198.173 375.242L198.035 375.425L197.966 375.505C197.794 375.712 197.637 375.93 197.496 376.159C195.372 379.213 192.735 381.877 189.702 384.033L189.347 384.274C189.003 384.503 188.637 384.721 188.281 384.927C185.945 386.274 183.406 387.234 180.762 387.769C172.739 389.431 138.767 388.812 129.391 384.457C120.015 380.101 116.474 373.969 119.247 364.972C121.769 356.777 129.345 351.447 138.469 351.092C139.393 351.043 140.318 351.043 141.242 351.092C145.518 351.424 152.131 352.502 158.733 353.51C167.513 354.886 176.304 356.192 179.673 355.562C178.642 357.854 177.828 361.385 179.937 364.559C183.387 369.969 201.806 370.004 198.173 375.242Z" fill="#1F1327"/>
<path d="M188.201 385.018C185.864 386.365 183.325 387.325 180.682 387.861C172.659 389.523 138.686 388.904 129.311 384.549C119.935 380.193 116.393 374.061 119.167 365.064C121.689 356.869 129.265 351.539 138.388 351.184C141.885 353.697 144.31 357.432 145.185 361.648C148.452 374.989 137.701 382.199 147.798 385.385C157.289 388.365 181.484 388.262 188.201 385.018Z" fill="white"/>
<path d="M147.661 352.742C147.917 352.909 148.158 353.097 148.383 353.304C150.389 355.058 151.925 358.565 153.117 361.671L153.77 363.448C154.211 364.743 154.739 366.007 155.352 367.23C155.509 367.522 155.719 367.782 155.971 367.998C156.022 368.047 156.08 368.09 156.143 368.124C156.328 368.264 156.553 368.339 156.784 368.339C157.016 368.339 157.241 368.264 157.426 368.124C157.59 368.01 157.71 367.844 157.77 367.654C158.252 366.565 157.77 364.296 157.266 362.439C156.807 360.823 156.303 359.505 156.292 359.47C155.438 357.561 154.16 355.872 152.555 354.531C151.267 353.39 149.874 352.373 148.394 351.493L147.661 352.742ZM152.326 356.307C153.443 357.348 154.332 358.608 154.939 360.009C155.236 360.759 155.492 361.524 155.707 362.302C156.156 363.648 156.43 365.046 156.521 366.462C155.994 365.34 155.523 364.193 155.111 363.024L154.79 362.153C154.092 360.154 153.269 358.202 152.326 356.307Z" fill="#FEF9F3"/>
<path d="M156.475 354.359C156.751 354.529 157.009 354.729 157.243 354.955C158.997 356.525 160.395 359.436 161.518 362.221C161.908 363.207 162.263 364.158 162.596 365.064C162.79 365.545 162.951 365.992 163.1 366.393C163.41 367.58 163.991 368.678 164.796 369.603C164.848 369.652 164.905 369.694 164.968 369.729C165.158 369.857 165.381 369.925 165.61 369.925C165.839 369.925 166.062 369.857 166.252 369.729C167.306 368.949 166.642 365.855 165.965 363.597C165.553 362.198 165.117 361.109 165.117 361.087C163.98 358.721 162.27 356.676 160.143 355.138C159.216 354.42 158.248 353.758 157.243 353.155L156.475 354.359ZM161.163 357.935C162.274 358.981 163.162 360.24 163.776 361.637C164.192 362.687 164.541 363.763 164.819 364.857C165.119 365.897 165.307 366.965 165.381 368.044C164.946 367.185 164.564 366.301 164.235 365.396C164.131 365.121 164.028 364.846 163.925 364.582C163.616 363.734 163.283 362.829 162.905 361.889C162.412 360.571 161.805 359.207 161.151 357.935H161.163Z" fill="#FEF9F3"/>
<path d="M165.266 352.708C165.751 353.685 166.394 354.576 167.169 355.344C167.469 355.675 167.79 355.985 168.132 356.273C167.685 355.929 167.272 355.608 166.894 355.344C165.885 354.634 165.163 354.198 165.083 354.198L164.395 355.344L164.326 355.459C165.773 356.543 166.924 357.974 167.673 359.619C167.902 360.032 168.109 360.445 168.303 360.869C169.14 362.645 169.839 364.548 170.458 366.187C171.444 368.823 171.983 370.21 172.647 370.772C172.707 370.822 172.772 370.864 172.842 370.898C173.032 371.026 173.255 371.094 173.484 371.094C173.713 371.094 173.936 371.026 174.126 370.898C175.043 370.244 174.642 367.792 174.126 365.683C174.39 365.843 174.55 366.027 174.825 366.198C175.1 366.37 175.329 366.496 175.605 366.634C176.948 367.454 178.489 367.893 180.063 367.906C180.491 367.894 180.915 367.825 181.324 367.7C182.376 367.423 183.278 366.744 183.834 365.809C184.401 364.742 184.524 363.495 184.176 362.338C183.828 361.181 183.038 360.208 181.977 359.631C181.473 359.321 177.209 358.175 173.771 357.339L172.292 356.972C172.006 356.88 171.708 356.8 171.433 356.743C171.433 356.743 171.433 356.743 171.433 356.662C171.433 356.582 171.513 356.307 171.547 356.089C171.582 355.872 171.616 355.768 171.639 355.585C172.12 352.72 172.59 347.447 169.793 345.716C169.699 345.651 169.599 345.594 169.495 345.545C168.941 345.186 168.282 345.025 167.625 345.087C166.968 345.15 166.351 345.432 165.874 345.888C164.212 347.264 164.246 350.634 165.266 352.708ZM173.358 363.207C172.9 361.683 172.118 360.275 171.066 359.081C171.026 358.7 171.026 358.316 171.066 357.935L172.693 358.347L174.424 358.794C177.587 359.631 180.716 360.468 181.163 360.697C181.536 360.879 181.869 361.134 182.141 361.448C182.413 361.761 182.619 362.126 182.747 362.52C182.876 362.915 182.923 363.331 182.888 363.744C182.852 364.158 182.733 364.56 182.539 364.926C182.263 365.385 181.865 365.759 181.39 366.006C180.914 366.253 180.38 366.363 179.845 366.325C179.534 366.338 179.223 366.315 178.917 366.256C177.981 366.063 177.083 365.718 176.258 365.236C175.208 364.687 174.233 364.005 173.358 363.207ZM168.991 358.955C169.126 359.078 169.245 359.216 169.346 359.367C169.495 359.493 169.61 359.654 169.748 359.803C170.11 361.349 170.905 362.761 172.04 363.872C172.645 365.549 173.031 367.299 173.186 369.075C172.655 367.954 172.181 366.806 171.765 365.637C171.027 363.551 170.173 361.508 169.209 359.516C169.175 359.31 169.083 359.115 168.991 358.955ZM168.693 356.743C169.071 357.041 169.427 357.281 169.667 357.442C169.677 357.487 169.677 357.534 169.667 357.579C169.335 357.281 169.003 357.006 168.682 356.731L168.693 356.743ZM166.825 346.748C166.985 346.576 167.513 346.072 168.773 346.748L168.945 346.828C170.94 348.055 170.607 352.616 170.091 355.482C170.091 355.654 170.011 355.826 169.988 355.975C169.793 355.849 169.576 355.654 169.346 355.47C168.198 354.574 167.253 353.445 166.573 352.158C165.713 350.347 165.839 347.699 166.813 346.737L166.825 346.748Z" fill="#FEF9F3"/>
<path d="M188.717 352.181L182.894 351.035C182.894 351.035 178.676 353.018 179.593 355.723C180.51 358.427 205.692 375.207 207.984 373.488C210.276 371.769 213.291 368.754 213.291 368.754L188.717 352.181Z" fill="#4C767A"/>
<path d="M266.439 330.587C266.439 330.587 244.444 368.479 246.644 374.554C248.845 380.629 265.098 386.016 266.439 381.867C267.78 377.718 285.488 347.665 285.671 343.676C285.855 339.688 269.682 324.868 266.439 330.587Z" fill="#4C767A"/>
<path d="M307.001 353.247C307.001 353.247 292.537 350.358 293.442 352.582C294.348 354.805 298.142 362.783 291.987 366.92C285.832 371.058 276.192 368.64 278.886 374.084C281.579 379.528 288.135 382.875 288.135 382.875C288.135 382.875 317.179 374.187 318.36 373.442C319.541 372.697 307.001 353.247 307.001 353.247Z" fill="#1F1327"/>
<path d="M278.164 373.087L278.301 373.27L278.37 373.351C278.542 373.557 278.699 373.775 278.84 374.004C280.964 377.059 283.601 379.723 286.634 381.878L286.989 382.119C287.333 382.348 287.7 382.566 288.055 382.772C290.392 384.119 292.931 385.079 295.574 385.615C303.597 387.277 337.57 386.658 346.945 382.302C356.321 377.947 359.863 371.815 357.089 362.817C354.567 354.622 346.991 349.292 337.868 348.937C336.944 348.888 336.018 348.888 335.094 348.937C330.819 349.27 324.205 350.347 317.604 351.356C308.824 352.731 300.033 354.038 296.663 353.407C297.695 355.7 298.508 359.23 296.399 362.405C292.949 367.826 274.53 367.86 278.164 373.087Z" fill="#1F1327"/>
<path d="M288.124 382.875C290.461 384.222 293 385.182 295.643 385.718C303.666 387.38 337.639 386.761 347.014 382.405C356.39 378.05 359.932 371.918 357.158 362.92C354.636 354.725 347.06 349.396 337.937 349.04C334.44 351.554 332.015 355.289 331.14 359.505C327.873 372.846 338.624 380.056 328.527 383.242C319.048 386.211 294.852 386.107 288.124 382.875Z" fill="white"/>
<path d="M327.93 349.361C326.451 350.241 325.058 351.258 323.77 352.399C322.165 353.74 320.887 355.429 320.033 357.339C320.033 357.339 319.506 358.68 319.059 360.307C318.532 362.175 318.062 364.445 318.555 365.522C318.615 365.713 318.735 365.878 318.899 365.992C319.084 366.132 319.309 366.207 319.541 366.207C319.772 366.207 319.997 366.132 320.182 365.992C320.245 365.958 320.303 365.916 320.354 365.866C320.606 365.65 320.816 365.39 320.973 365.098C321.586 363.875 322.114 362.611 322.555 361.316L323.208 359.539C324.354 356.433 325.948 352.914 327.942 351.172C328.166 350.965 328.408 350.777 328.664 350.611L327.93 349.361ZM321.523 359.94L321.202 360.812C320.79 361.981 320.32 363.128 319.793 364.25C319.884 362.834 320.157 361.435 320.606 360.089C320.821 359.312 321.078 358.547 321.374 357.797C321.981 356.396 322.871 355.136 323.988 354.095C323.045 355.99 322.222 357.942 321.523 359.94Z" fill="#FEF9F3"/>
<path d="M319.105 350.989C318.1 351.591 317.131 352.254 316.205 352.972C314.078 354.51 312.368 356.555 311.231 358.92C311.231 358.92 310.795 360.066 310.383 361.43C309.706 363.723 309.042 366.783 310.096 367.562C310.286 367.691 310.509 367.759 310.738 367.759C310.967 367.759 311.19 367.691 311.38 367.562C311.442 367.528 311.5 367.486 311.552 367.436C312.357 366.512 312.938 365.413 313.248 364.227C313.397 363.826 313.558 363.379 313.752 362.897C314.085 361.992 314.429 361.052 314.83 360.055C315.976 357.27 317.351 354.324 319.105 352.788C319.339 352.563 319.597 352.363 319.873 352.192L319.105 350.989ZM313.374 359.746C312.996 360.685 312.664 361.591 312.354 362.439C312.239 362.703 312.148 362.978 312.045 363.253C311.716 364.157 311.333 365.042 310.898 365.9C310.972 364.821 311.161 363.753 311.46 362.714C311.739 361.619 312.087 360.544 312.503 359.493C313.117 358.096 314.006 356.837 315.116 355.791C314.52 357.063 313.924 358.416 313.397 359.746H313.374Z" fill="#FEF9F3"/>
<path d="M310.543 343.573C310.066 343.117 309.449 342.834 308.792 342.772C308.135 342.71 307.476 342.871 306.921 343.229C306.817 343.278 306.718 343.336 306.623 343.401C303.815 345.132 304.331 350.393 304.778 353.27C304.778 353.441 304.835 353.613 304.87 353.774C304.904 353.934 304.95 354.175 304.984 354.347C305.019 354.519 304.984 354.404 304.984 354.427C304.721 354.484 304.423 354.565 304.125 354.656L302.646 355.023C299.207 355.906 294.944 357.04 294.439 357.316C293.379 357.893 292.588 358.866 292.241 360.023C291.893 361.179 292.016 362.427 292.583 363.493C293.139 364.429 294.04 365.108 295.093 365.385C295.502 365.509 295.926 365.579 296.354 365.591C297.927 365.578 299.468 365.138 300.812 364.319C301.076 364.17 301.351 364.032 301.592 363.883C301.832 363.734 302.039 363.539 302.291 363.367C301.729 365.476 301.328 367.952 302.291 368.582C302.48 368.71 302.704 368.779 302.933 368.779C303.161 368.779 303.385 368.71 303.574 368.582C303.644 368.548 303.71 368.506 303.769 368.456C304.434 367.941 304.915 366.554 305.958 363.872C306.577 362.233 307.277 360.341 308.113 358.553C308.308 358.129 308.514 357.728 308.744 357.304C309.493 355.659 310.644 354.228 312.09 353.143L312.022 353.029L311.334 351.883C311.254 351.883 310.532 352.353 309.523 353.029C309.145 353.292 308.721 353.602 308.285 353.957C308.626 353.669 308.948 353.359 309.248 353.029C310.023 352.261 310.665 351.37 311.151 350.393C312.09 348.49 312.125 345.109 310.543 343.573ZM300.09 363.058C299.265 363.541 298.367 363.885 297.431 364.078C297.125 364.137 296.814 364.16 296.503 364.147C295.968 364.185 295.434 364.075 294.958 363.828C294.483 363.581 294.085 363.207 293.809 362.748C293.615 362.382 293.496 361.98 293.46 361.566C293.425 361.153 293.472 360.737 293.601 360.342C293.729 359.948 293.935 359.583 294.207 359.27C294.479 358.957 294.812 358.701 295.184 358.519C295.62 358.301 298.761 357.453 301.924 356.616L303.655 356.169L305.282 355.757C305.322 356.138 305.322 356.522 305.282 356.903C304.23 358.097 303.448 359.505 302.99 361.029C302.122 361.847 301.151 362.548 300.101 363.115L300.09 363.058ZM307.07 357.327C306.106 359.318 305.253 361.362 304.514 363.448C304.098 364.617 303.624 365.764 303.093 366.886C303.249 365.109 303.634 363.36 304.239 361.682C305.374 360.571 306.169 359.16 306.532 357.614C306.669 357.465 306.784 357.304 306.933 357.178C307.034 357.027 307.154 356.888 307.288 356.765C307.254 356.972 307.173 357.155 307.07 357.338V357.327ZM306.692 355.401C306.683 355.356 306.683 355.309 306.692 355.264C306.933 355.115 307.277 354.863 307.666 354.565C307.334 354.851 307.001 355.138 306.692 355.424V355.401ZM309.764 349.911C309.083 351.199 308.138 352.328 306.99 353.224C306.761 353.407 306.543 353.602 306.348 353.728C306.348 353.579 306.279 353.407 306.245 353.235C305.741 350.37 305.408 345.808 307.391 344.582L307.563 344.501C308.824 343.882 309.351 344.387 309.512 344.501C310.486 345.556 310.612 348.192 309.775 349.934L309.764 349.911Z" fill="#FEF9F3"/>
<path d="M160.143 242.573C160.143 242.573 152.005 239.386 151.077 250.848C150.148 262.31 154.251 268.338 160.143 267.708C166.034 267.078 165.404 245.392 160.143 242.573Z" fill="#FFB4A3"/>
<path d="M270.553 242.573C270.553 242.573 278.691 239.386 279.619 250.848C280.548 262.31 276.445 268.338 270.553 267.708C264.662 267.078 265.292 245.392 270.553 242.573Z" fill="#FFB4A3"/>
<path d="M181.633 237.438H187.8V254.63H196.247V260.785H181.633V237.438Z" fill="#82942F"/>
<path d="M210.895 237.438C213.198 237.445 215.447 238.133 217.358 239.417C219.27 240.7 220.759 242.521 221.637 244.649C222.514 246.778 222.742 249.119 222.292 251.377C221.841 253.635 220.731 255.709 219.103 257.337C217.475 258.965 215.401 260.074 213.143 260.525C210.885 260.976 208.544 260.748 206.416 259.87C204.287 258.992 202.466 257.503 201.183 255.592C199.9 253.68 199.211 251.431 199.204 249.129C199.213 246.031 200.448 243.062 202.638 240.872C204.829 238.681 207.797 237.447 210.895 237.438ZM210.895 243.535C209.794 243.54 208.72 243.87 207.807 244.485C206.894 245.1 206.183 245.972 205.765 246.99C205.347 248.008 205.24 249.127 205.458 250.206C205.675 251.285 206.207 252.276 206.987 253.053C207.767 253.829 208.76 254.358 209.84 254.571C210.92 254.784 212.038 254.672 213.055 254.25C214.072 253.828 214.94 253.114 215.551 252.198C216.162 251.283 216.488 250.206 216.488 249.106C216.488 248.372 216.344 247.646 216.062 246.969C215.781 246.291 215.369 245.676 214.849 245.159C214.329 244.641 213.712 244.231 213.034 243.953C212.355 243.674 211.629 243.532 210.895 243.535Z" fill="#82942F"/>
<path d="M224.202 265.565V266.436C224.206 269.146 223.269 271.774 221.553 273.871C219.836 275.968 217.445 277.405 214.787 277.937C212.13 278.469 209.37 278.063 206.978 276.788C204.587 275.513 202.711 273.449 201.671 270.946C200.631 268.443 200.491 265.657 201.275 263.063C202.059 260.468 203.719 258.226 205.971 256.718C208.223 255.21 210.928 254.53 213.625 254.793C216.323 255.056 218.845 256.246 220.764 258.161L216.42 262.447C215.367 261.442 213.967 260.883 212.511 260.889C211.567 260.904 210.642 261.161 209.825 261.635C209.008 262.108 208.326 262.783 207.843 263.595C207.361 264.407 207.094 265.329 207.068 266.273C207.042 267.217 207.259 268.152 207.696 268.989C208.134 269.826 208.778 270.537 209.568 271.055C210.358 271.572 211.268 271.879 212.21 271.946C213.152 272.013 214.095 271.838 214.951 271.437C215.806 271.036 216.544 270.423 217.096 269.657H212.511V265.565H224.202Z" fill="#82942F"/>
<path d="M238.334 254.779C240.637 254.786 242.886 255.475 244.797 256.758C246.709 258.042 248.198 259.862 249.076 261.991C249.954 264.119 250.182 266.46 249.731 268.718C249.28 270.976 248.171 273.05 246.542 274.678C244.914 276.306 242.84 277.416 240.583 277.867C238.325 278.318 235.984 278.09 233.855 277.212C231.727 276.334 229.906 274.845 228.622 272.933C227.339 271.022 226.65 268.773 226.643 266.47C226.653 263.372 227.887 260.404 230.078 258.214C232.268 256.023 235.237 254.788 238.334 254.779ZM238.334 260.877C237.234 260.881 236.159 261.212 235.246 261.827C234.333 262.442 233.623 263.313 233.204 264.331C232.786 265.35 232.679 266.469 232.897 267.548C233.114 268.627 233.647 269.617 234.427 270.394C235.207 271.171 236.199 271.699 237.279 271.912C238.359 272.125 239.478 272.014 240.494 271.591C241.511 271.169 242.379 270.455 242.991 269.54C243.602 268.624 243.928 267.548 243.928 266.447C243.928 265.714 243.783 264.988 243.502 264.31C243.22 263.633 242.808 263.018 242.288 262.5C241.768 261.983 241.152 261.573 240.473 261.294C239.795 261.016 239.068 260.874 238.334 260.877Z" fill="#82942F"/>
<path d="M61.641 286.803C61.1553 278.923 57.6493 271.533 51.8527 266.172L42.0644 257.003L58.5463 215.592L88.9427 243.501C85.6728 250.593 84.0805 258.343 84.2893 266.149C84.828 278.528 86.8911 280.981 86.8911 280.981L61.641 286.803Z" fill="#EDEDED"/>
<path d="M58.9933 285.29L87.5558 278.413C87.9292 278.324 88.3225 278.376 88.6593 278.561C88.9961 278.745 89.2523 279.048 89.3782 279.411L90.96 284.076C91.0274 284.281 91.0507 284.498 91.0284 284.713C91.0061 284.928 90.9387 285.136 90.8305 285.323C90.7223 285.511 90.5758 285.673 90.4006 285.799C90.2254 285.926 90.0254 286.014 89.8138 286.058L61.5836 293.016C61.222 293.107 60.8396 293.064 60.5068 292.896C60.174 292.727 59.9134 292.444 59.7727 292.099L57.8471 287.308C57.7739 287.1 57.746 286.88 57.7655 286.66C57.785 286.441 57.8513 286.229 57.96 286.038C58.0687 285.846 58.2172 285.681 58.3954 285.552C58.5737 285.423 58.7776 285.334 58.9933 285.29Z" fill="#82942F"/>
<path d="M58.5463 215.557L66.7873 254.733L71.5439 254.321L58.5463 215.557Z" fill="#A8A8A8"/>
<path d="M69.5037 260.992C72.232 260.992 74.4437 258.795 74.4437 256.086C74.4437 253.377 72.232 251.18 69.5037 251.18C66.7754 251.18 64.5637 253.377 64.5637 256.086C64.5637 258.795 66.7754 260.992 69.5037 260.992Z" fill="#82942F"/>
</g>
<defs>
<clipPath id="clip0">
<rect width="407.864" height="327.335" fill="white" transform="translate(3.43848 73.4668)"/>
</clipPath>
</defs>
</svg>
