<svg width="409" height="401" viewBox="0 0 409 401" fill="none" xmlns="http://www.w3.org/2000/svg">
<style>
    #frame-1 {
        animation: frame1 2s ease-in-out infinite;
    }
    #frame-2 {
        animation: frame2 4s ease-in-out infinite;
    }
    @keyframes frame1 {
        0% {
            transform:translateX(0);
        } 25% {
            transform:translateX(10px);
        } 50% {
            transform:translateX(-10px);
        } 75% {
            transform:translateX(10px);
        } 100% {
            transform:translateX(0);
        }
    }
    @keyframes frame2 {
        0% {
            transform:translateY(0);
        } 25% {
            transform:translateY(10px);
        } 50% {
            transform:translateY(-10px);
        } 75% {
            transform:translateY(10px);
        } 100% {
            transform:translateY(0);
        }
    }
</style>
<rect x="7.37903" y="0.801514" width="399" height="400" fill="none"/>
<!--frame 1-->
<g id="frame-1">
<path d="M293.985 119.424L268.148 117.475L273.089 84.603L290.394 85.7492L296.906 92.0761L293.985 119.424ZM270.498 115.55L292.151 117.189L294.743 92.9586L289.516 87.8811L274.824 86.8954L270.498 115.55Z" fill="#A8A8A8"/>
<path d="M298.311 93.4512L286.891 94.0014L289.45 84.832L298.311 93.4512ZM289.659 91.732L293.359 91.5486L290.482 88.7634L289.659 91.732Z" fill="#A8A8A8"/>
</g>
<!--frame 2-->
<g id="frame-2">
<path d="M258.617 146.92L271.409 142.255L271.146 144.651L261.022 148.147L270.135 153.969L269.872 156.33L258.419 148.789L258.617 146.92Z" fill="#82942F"/>
<path d="M286.661 139.286L285.003 154.519C284.86 155.848 284.75 157.293 284.706 158.164L281.895 157.831L281.994 155.768C281.504 156.46 280.841 156.998 280.079 157.326C279.316 157.653 278.483 157.756 277.668 157.625C274.703 157.27 272.639 154.358 273.067 150.381C273.517 146.049 276.361 143.791 279.403 144.146C280.079 144.18 280.735 144.393 281.311 144.764C281.887 145.134 282.364 145.651 282.697 146.266V146.266L283.499 138.942L286.661 139.286ZM282.269 150.221C282.295 149.935 282.295 149.647 282.269 149.361C282.216 148.692 281.942 148.062 281.493 147.581C281.044 147.1 280.449 146.797 279.809 146.725C277.789 146.484 276.515 148.203 276.197 150.622C275.878 153.04 276.877 154.84 278.865 155.08C279.502 155.156 280.145 155 280.685 154.639C281.225 154.278 281.629 153.734 281.83 153.098C281.94 152.792 282.01 152.472 282.038 152.146L282.269 150.221Z" fill="#82942F"/>
<path d="M287.979 158.542L289.395 145.614L292.568 145.992L291.152 158.921L287.979 158.542ZM293.139 142.404C293.111 142.773 292.977 143.124 292.756 143.414C292.535 143.703 292.236 143.916 291.898 144.027C291.56 144.137 291.198 144.14 290.858 144.034C290.519 143.929 290.217 143.719 289.992 143.434C289.767 143.148 289.629 142.799 289.595 142.43C289.562 142.062 289.635 141.692 289.804 141.367C289.973 141.042 290.232 140.777 290.547 140.607C290.861 140.436 291.217 140.368 291.569 140.41C291.801 140.422 292.027 140.484 292.235 140.593C292.442 140.701 292.625 140.854 292.773 141.04C292.921 141.227 293.03 141.443 293.093 141.676C293.156 141.909 293.172 142.153 293.139 142.393V142.404Z" fill="#82942F"/>
<path d="M297.949 146.623L299.234 153.373C299.464 154.52 299.607 155.666 299.728 156.709H299.805C300.156 155.677 300.54 154.703 301.001 153.568L303.692 147.241L306.986 147.643L300.815 160.01L297.718 159.643L294.501 146.164L297.949 146.623Z" fill="#82942F"/>
<path d="M322.018 162.187C320.844 162.514 319.62 162.596 318.416 162.428C314.529 161.97 312.278 159.093 312.718 155.081C313.157 151.07 316.012 148.479 320.404 149.006C321.448 149.123 322.459 149.454 323.38 149.981L322.545 152.353C321.835 151.913 321.04 151.643 320.217 151.562C319.188 151.504 318.177 151.859 317.391 152.553C316.604 153.248 316.101 154.229 315.985 155.298C315.868 156.366 316.147 157.441 316.765 158.302C317.382 159.162 318.291 159.745 319.306 159.929C320.156 160.043 321.019 159.973 321.842 159.723L322.018 162.187Z" fill="#82942F"/>
<path d="M326.355 144.009L329.529 144.387L327.464 163.242L324.302 162.863L326.355 144.009Z" fill="#82942F"/>
<path d="M337.885 164.48V163.024H337.808C337.296 163.53 336.682 163.908 336.011 164.13C335.339 164.352 334.629 164.413 333.932 164.308C333.425 164.28 332.929 164.144 332.474 163.909C332.02 163.673 331.616 163.342 331.289 162.937C330.962 162.532 330.718 162.061 330.571 161.554C330.425 161.047 330.381 160.513 330.44 159.987C330.802 156.72 333.734 155.402 338.368 155.987V155.769C338.456 154.921 338.28 153.477 336.084 153.213C334.904 153.077 333.71 153.27 332.625 153.775L332.241 151.574C333.705 150.954 335.298 150.745 336.863 150.967C340.849 151.437 341.717 154.21 341.409 157.018L340.904 161.695C340.784 162.737 340.74 163.787 340.772 164.835L337.885 164.48ZM338.17 158.107C335.974 157.786 333.778 158.039 333.558 160.01C333.51 160.259 333.515 160.515 333.572 160.762C333.629 161.008 333.737 161.238 333.889 161.436C334.041 161.634 334.233 161.795 334.451 161.907C334.669 162.019 334.908 162.08 335.151 162.085C335.686 162.158 336.229 162.053 336.704 161.786C337.179 161.518 337.562 161.102 337.797 160.595C337.89 160.368 337.949 160.129 337.972 159.884L338.17 158.107Z" fill="#82942F"/>
<path d="M344.067 162.176C344.985 162.862 346.046 163.31 347.163 163.482C348.547 163.643 349.227 163.138 349.359 162.336C349.491 161.534 348.997 160.949 347.514 160.204C345.176 159.058 344.308 157.534 344.495 156.021C344.747 153.728 346.757 152.169 349.645 152.513C350.788 152.63 351.889 153.022 352.862 153.659L351.994 155.952C351.238 155.386 350.359 155.024 349.436 154.897C348.338 154.76 347.635 155.253 347.547 156.044C347.46 156.834 347.998 157.339 349.524 158.107C351.72 159.253 352.598 160.548 352.423 162.462C352.17 164.754 350.227 166.29 346.932 165.901C345.616 165.77 344.349 165.306 343.243 164.548L344.067 162.176Z" fill="#82942F"/>
<path d="M354.707 163.448C355.625 164.134 356.686 164.582 357.803 164.755C359.187 164.915 359.867 164.411 359.999 163.609C360.131 162.806 359.637 162.222 358.154 161.477C355.816 160.331 354.948 158.806 355.135 157.305C355.387 155.012 357.397 153.454 360.285 153.798C361.428 153.913 362.529 154.306 363.502 154.944L362.635 157.236C361.878 156.67 360.999 156.308 360.076 156.182C358.978 156.044 358.275 156.537 358.187 157.328C358.1 158.119 358.649 158.623 360.164 159.391C362.36 160.537 363.238 161.832 363.052 163.746C362.799 166.039 360.856 167.574 357.562 167.185C356.245 167.054 354.978 166.589 353.872 165.832L354.707 163.448Z" fill="#82942F"/>
<path d="M370.31 166.508C370.325 166.231 370.396 165.96 370.517 165.712C370.638 165.464 370.808 165.246 371.014 165.07C371.221 164.894 371.46 164.765 371.717 164.691C371.974 164.617 372.242 164.6 372.506 164.64C373.039 164.704 373.526 164.986 373.859 165.425C374.193 165.863 374.346 166.422 374.285 166.978C374.224 167.535 373.953 168.043 373.533 168.391C373.113 168.739 372.578 168.899 372.045 168.835C371.78 168.812 371.523 168.732 371.29 168.6C371.057 168.468 370.852 168.287 370.689 168.068C370.526 167.85 370.408 167.598 370.343 167.33C370.278 167.061 370.266 166.782 370.31 166.508V166.508Z" fill="#82942F"/>
<path d="M376.349 167.23C376.365 166.953 376.435 166.681 376.556 166.434C376.678 166.186 376.847 165.967 377.053 165.792C377.26 165.616 377.499 165.487 377.756 165.413C378.013 165.339 378.282 165.322 378.545 165.362C378.809 165.393 379.064 165.479 379.297 165.614C379.529 165.748 379.733 165.929 379.899 166.146C380.064 166.364 380.186 166.613 380.259 166.879C380.332 167.146 380.354 167.425 380.324 167.7C380.294 167.976 380.212 168.242 380.083 168.484C379.954 168.727 379.78 168.94 379.572 169.113C379.364 169.285 379.126 169.413 378.871 169.489C378.615 169.566 378.348 169.588 378.084 169.557C377.82 169.534 377.563 169.454 377.329 169.322C377.096 169.19 376.891 169.009 376.728 168.79C376.565 168.571 376.448 168.32 376.382 168.052C376.317 167.783 376.306 167.503 376.349 167.23V167.23Z" fill="#82942F"/>
<path d="M382.388 167.953C382.404 167.675 382.474 167.404 382.596 167.156C382.717 166.909 382.886 166.69 383.093 166.514C383.299 166.339 383.538 166.21 383.795 166.136C384.052 166.062 384.321 166.044 384.584 166.085C385.117 166.148 385.604 166.431 385.938 166.869C386.271 167.308 386.424 167.866 386.363 168.423C386.302 168.979 386.032 169.487 385.612 169.835C385.192 170.184 384.656 170.343 384.123 170.28C383.859 170.256 383.602 170.176 383.369 170.044C383.135 169.912 382.931 169.731 382.768 169.513C382.605 169.294 382.487 169.043 382.422 168.774C382.356 168.506 382.345 168.226 382.388 167.953V167.953Z" fill="#82942F"/>
<path d="M406.567 166.52L393.775 171.105L394.039 168.743L404.327 165.236L395.06 159.402L395.312 157.041L406.776 164.537L406.567 166.52Z" fill="#82942F"/>
<path d="M30.7949 130.667C30.9167 130.874 30.996 131.105 31.0276 131.345C31.0592 131.585 31.0424 131.829 30.9783 132.062C30.9142 132.295 30.8043 132.512 30.6555 132.698C30.5066 132.884 30.3223 133.036 30.1141 133.143C29.9259 133.273 29.7143 133.361 29.4922 133.402C29.2702 133.442 29.0425 133.435 28.8232 133.38C28.604 133.326 28.3978 133.224 28.2176 133.083C28.0373 132.942 27.8868 132.763 27.7753 132.559C27.6504 132.354 27.5678 132.124 27.5329 131.884C27.4979 131.645 27.5114 131.4 27.5724 131.166C27.6334 130.931 27.7405 130.713 27.887 130.525C28.0335 130.336 28.2161 130.182 28.4231 130.071C28.613 129.937 28.8279 129.845 29.0539 129.801C29.2799 129.758 29.5121 129.765 29.7354 129.821C29.9588 129.877 30.1685 129.982 30.3509 130.127C30.5334 130.273 30.6846 130.457 30.7949 130.667ZM34.8467 151.081C35.5934 150.616 36.1517 149.882 36.4169 149.018C36.5925 148.124 36.2961 147.138 34.9016 144.708L29.7078 135.642L32.42 133.888L38.0749 143.757C39.4035 146.049 39.8098 147.78 39.4145 149.384C38.8537 150.954 37.77 152.26 36.362 153.064L34.8467 151.081Z" fill="#ACBF40"/>
<path d="M40.0843 140.765C41.2112 140.731 42.314 140.416 43.3015 139.848C44.4984 139.103 44.74 138.267 44.3117 137.556C43.8835 136.845 43.2137 136.685 41.6105 137.029C39.085 137.579 37.5148 136.937 36.7901 135.619C35.6921 133.648 36.3509 131.138 38.8435 129.579C39.8191 128.939 40.9247 128.546 42.0717 128.433L42.6866 130.725C41.7565 130.753 40.8474 131.021 40.0403 131.504C39.0741 132.112 38.8105 132.926 39.2058 133.613C39.6011 134.301 40.3039 134.347 41.9729 134.003C44.3337 133.522 45.827 134.003 46.7933 135.619C47.9462 137.636 47.2655 140.055 44.4105 141.831C43.2936 142.545 42.0277 142.966 40.7211 143.058L40.0843 140.765Z" fill="#ACBF40"/>
<path d="M50.4608 127.814C51.9871 126.828 51.6687 125.842 51.2514 125.109C50.8867 124.502 50.4908 123.917 50.0655 123.355C49.6201 122.797 49.2128 122.207 48.8467 121.59C47.6169 119.435 48.4075 117.693 50.373 116.467L51.0098 116.065L51.9871 117.727L51.5918 117.98C50.4937 118.702 50.4279 119.607 51.0757 120.73C51.3414 121.204 51.6464 121.653 51.9871 122.071C52.3785 122.575 52.745 123.099 53.0851 123.642C53.2979 123.902 53.459 124.204 53.5593 124.53C53.6597 124.856 53.6971 125.199 53.6695 125.54C53.642 125.881 53.5499 126.213 53.3987 126.517C53.2475 126.82 53.0402 127.09 52.7887 127.309C53.0982 127.176 53.4301 127.109 53.7648 127.113C54.0995 127.116 54.4302 127.189 54.7373 127.328C55.0444 127.467 55.3217 127.669 55.5528 127.921C55.7839 128.174 55.9641 128.473 56.0828 128.799C56.3862 129.369 56.6611 129.954 56.9063 130.553C57.0858 131.085 57.3099 131.599 57.5761 132.089C58.235 133.235 59.0585 133.625 60.1565 132.937L60.5518 132.685L61.4852 134.312L60.8483 134.714C58.9267 135.86 57.082 135.94 55.7643 133.625C55.4212 133.006 55.1203 132.362 54.864 131.699C54.5977 131.052 54.2971 130.42 53.9636 129.808C53.5792 129.143 52.8655 128.318 51.3063 129.258L50.4608 127.814Z" fill="#ACBF40"/>
<path d="M50.2631 173.088C50.1162 172.86 50.0156 172.604 49.9674 172.334C49.9193 172.064 49.9248 171.787 49.9835 171.519C50.0421 171.252 50.1528 171 50.3085 170.778C50.4643 170.557 50.6619 170.372 50.889 170.234C51.3491 169.947 51.8997 169.862 52.4197 169.998C52.9397 170.135 53.3864 170.481 53.6616 170.962C53.9368 171.442 54.0179 172.017 53.8872 172.559C53.7564 173.102 53.4244 173.568 52.9643 173.856C52.7407 173.999 52.4915 174.093 52.2319 174.131C51.9722 174.17 51.7077 174.153 51.4547 174.081C51.2016 174.009 50.9654 173.884 50.7605 173.713C50.5555 173.542 50.3863 173.329 50.2631 173.088Z" fill="#ACBF40"/>
<path d="M55.4788 169.832C55.3324 169.604 55.2324 169.346 55.1851 169.076C55.1378 168.806 55.1442 168.528 55.2039 168.261C55.2636 167.993 55.3754 167.741 55.5322 167.521C55.689 167.3 55.8877 167.115 56.1157 166.978C56.5668 166.762 57.0783 166.727 57.5525 166.88C58.0268 167.032 58.4307 167.362 58.6872 167.805C58.9437 168.248 59.0349 168.775 58.9434 169.284C58.8519 169.793 58.5841 170.249 58.191 170.565C57.969 170.712 57.7207 170.809 57.4613 170.851C57.2019 170.894 56.937 170.88 56.6828 170.811C56.4287 170.743 56.1908 170.62 55.9837 170.452C55.7766 170.283 55.6048 170.072 55.4788 169.832Z" fill="#ACBF40"/>
<path d="M60.6835 166.589C60.5301 166.358 60.4247 166.097 60.3742 165.821C60.3237 165.545 60.3291 165.262 60.3901 164.988C60.4512 164.715 60.5665 164.458 60.7287 164.234C60.8908 164.011 61.0961 163.825 61.3314 163.689C61.5592 163.547 61.8117 163.453 62.0743 163.412C62.3369 163.372 62.6046 163.386 62.8621 163.453C63.1195 163.521 63.3617 163.641 63.5748 163.806C63.7879 163.971 63.9677 164.179 64.104 164.417C64.2402 164.654 64.3303 164.918 64.369 165.192C64.4077 165.466 64.3943 165.746 64.3295 166.014C64.2648 166.283 64.15 166.536 63.9916 166.758C63.8333 166.981 63.6345 167.169 63.4067 167.311C63.185 167.459 62.9364 167.559 62.6763 167.603C62.4162 167.647 62.1502 167.635 61.8948 167.567C61.6394 167.5 61.4001 167.378 61.1917 167.209C60.9833 167.041 60.8104 166.83 60.6835 166.589Z" fill="#ACBF40"/>
<path d="M82.5676 216.011C88.3652 218.063 90.1331 215.06 91.0554 212.321C91.7899 210.016 92.4021 207.67 92.8892 205.295C93.3199 202.874 93.9144 200.488 94.668 198.154C97.4021 190.131 103.507 188.526 110.842 191.277L113.236 192.16L111.139 198.315L109.656 197.764C105.374 196.171 103.068 198.108 101.619 202.349C101.042 204.175 100.623 206.05 100.367 207.954C99.8947 209.891 99.5214 212.069 98.7637 214.292C96.8092 220.31 93.4711 221.96 88.8813 221.433L88.8264 221.605C92.6806 224.184 94.2508 227.76 92.1205 233.708C91.33 236.001 90.3088 237.949 89.5072 239.772C88.5713 241.392 87.7739 243.094 87.1244 244.861C85.675 249.136 86.4766 252.23 90.5943 253.755L92.0766 254.305L90.0123 260.38L87.6186 259.497C80.4483 256.838 76.3856 251.864 79.3174 243.233C80.1307 240.955 81.0994 238.741 82.2162 236.608C83.2616 234.474 84.1927 232.282 85.0052 230.041C85.8507 227.565 86.3778 223.805 80.613 221.593L82.5676 216.011Z" fill="#EDEDED"/>
<path d="M330.297 218.865C324.554 221.089 325.092 224.837 325.905 227.313C326.717 229.558 327.648 231.754 328.694 233.892C329.81 236.025 330.779 238.239 331.593 240.516C334.525 249.159 330.495 254.133 323.292 256.781L320.898 257.663L318.834 251.588L320.316 251.038C324.434 249.514 325.246 246.454 323.786 242.144C323.133 240.35 322.328 238.62 321.381 236.975C320.579 235.152 319.547 233.227 318.768 230.912C316.648 224.951 318.219 221.387 322.062 218.808L322.106 218.705C317.549 219.232 314.211 217.559 312.223 211.564C311.466 209.341 311.125 207.163 310.62 205.226C310.364 203.322 309.945 201.447 309.368 199.621C307.941 195.426 305.613 193.501 301.331 195.036L299.848 195.587L297.751 189.432L300.145 188.549C307.48 185.833 313.585 187.403 316.319 195.426C317.073 197.76 317.667 200.146 318.098 202.567C318.585 204.942 319.197 207.288 319.932 209.593C320.865 212.332 322.622 215.324 328.419 213.283L330.297 218.865Z" fill="#EDEDED"/>
</g>
<!--frame 3-->
<g id="frame-3">
</g>
<path d="M390.009 372.177C390.009 381.736 358.166 390.194 309.16 395.387L305.47 395.765C290.46 397.278 273.924 398.493 256.278 399.341L252.435 399.513C234.427 400.327 215.299 400.762 195.479 400.762C162.747 400.762 131.892 399.616 104.825 397.473L102.234 397.266C41.8522 392.43 0.917091 383.008 0.917091 372.177C0.917091 368.738 4.91397 365.54 12.2599 362.537L13.5556 361.976C41.402 351.19 112.379 343.522 195.501 343.522C218.813 343.522 241.158 344.13 261.878 345.23L264.711 345.391C294.863 347.076 321.425 349.838 342.255 353.357L344.198 353.689C372.759 358.709 390.009 365.139 390.009 372.177Z" fill="#ACBF40"/>
<path d="M143.816 383.397C143.959 385.117 141.533 387.558 122.481 392.567C115.783 394.332 109.92 396.005 104.814 397.495L102.223 397.289C108.079 395.501 114.755 393.625 122.251 391.661C139.49 387.077 142.993 384.704 142.894 383.466C142.828 382.63 140.863 381.334 131.914 379.959C124.886 378.882 114.993 377.942 103.529 376.841C78.8342 374.48 48.089 371.546 21.0442 365.196C18.0546 364.543 15.1178 363.651 12.2599 362.526L13.5555 361.976C16.0687 362.908 18.636 363.674 21.2419 364.268C48.2318 370.606 78.9331 373.54 103.595 375.902C130.563 378.492 143.531 379.89 143.816 383.397Z" fill="#82942F"/>
<path d="M308.523 362.366C307.831 369.037 272.419 371.1 222.458 373.3C209.534 373.874 197.335 374.447 187.771 375.066C173.793 376.04 172.19 377.633 172.146 378.275C172.08 379.261 174.935 381.633 194.711 386.424C208.645 389.794 227.048 393.485 246.516 397.404L256.267 399.364L252.424 399.536L246.341 398.31C199.575 388.911 170.916 382.917 171.224 378.218C171.311 376.854 173.266 375.146 187.694 374.137C197.269 373.472 209.468 372.934 222.403 372.372C241.509 371.535 263.163 370.584 279.59 369.014C302.385 366.848 307.392 364.154 307.59 362.274C307.787 360.395 303.516 357.048 282.093 351.638C271.804 349.036 265.568 346.961 261.845 345.288L264.678 345.449C270.462 347.552 276.353 349.32 282.324 350.744C306.25 356.773 308.732 360.269 308.523 362.366Z" fill="#82942F"/>
<path d="M354.904 375.57C354.904 379.707 346.548 384.453 330.089 389.656C321.941 392.235 313.717 394.298 309.171 395.387C306.975 395.914 305.613 396.212 305.58 396.224L305.481 395.765L305.383 395.307C318.91 392.327 354.004 382.986 354.004 375.558C354.004 373.747 351.676 371.077 340.597 368.681C331.889 366.767 327.772 364.727 327.64 362.263C327.475 359.099 333.998 356.28 342.233 353.426L344.176 353.758C336.227 356.475 328.43 359.489 328.562 362.228C328.628 363.558 330.758 365.587 340.783 367.776C350.282 369.827 354.904 372.395 354.904 375.57Z" fill="#82942F"/>
<path opacity="0.28" d="M189.989 389.438C282.634 389.438 357.737 382.777 357.737 374.561C357.737 366.344 282.634 359.684 189.989 359.684C97.3445 359.684 22.2411 366.344 22.2411 374.561C22.2411 382.777 97.3445 389.438 189.989 389.438Z" fill="#263C29"/>
<path d="M240.269 179.001C240.269 179.001 229.486 194.841 223.897 198.372C218.308 201.902 202.518 201.501 197.73 200.251C192.943 199.002 190.747 197.959 182.149 185.649C173.551 173.339 180.755 174.004 180.755 174.004C181.857 173.993 182.957 173.909 184.049 173.752L184.422 173.695C186.124 173.385 185.915 165.878 185.915 165.878C185.915 165.878 225.851 161.912 227.015 163.127C228.179 164.342 225.851 165.419 226.258 170.199C226.49 172.213 227.098 174.16 228.047 175.93C229.145 177.958 240.269 179.001 240.269 179.001Z" fill="#FA8977"/>
<path d="M228.08 175.85C223.205 182.016 211.752 193.042 205.12 190.463C200.058 188.538 190.582 179.999 184.082 173.741L184.455 173.683C186.157 173.374 185.948 165.866 185.948 165.866C185.948 165.866 225.884 161.901 227.048 163.116C228.212 164.331 225.884 165.408 226.29 170.187C226.531 172.178 227.139 174.101 228.08 175.85Z" fill="#F3602A"/>
<path d="M194.107 99.9388C194.107 99.9388 185.948 98.7239 179.558 102.678C173.167 106.632 169.972 115.183 168.369 114.14L166.766 113.097C166.766 113.097 168.369 117.269 169.566 117.475L170.762 117.682C170.762 117.682 170.96 122.897 169.763 124.559C169.008 125.576 167.956 126.308 166.766 126.645C166.766 126.645 171.564 127.688 171.762 126.645L171.959 125.602C171.959 125.602 177.955 146.657 176.154 150.519C175.649 151.635 174.926 152.629 174.031 153.436C173.137 154.243 172.091 154.846 170.96 155.207C170.96 155.207 173.76 158.244 175.155 157.247L176.549 156.25C176.549 156.25 175.034 156.399 177.647 159.746L180.304 163.093C180.304 163.093 191.285 141.132 199.663 141.912C208.041 142.691 225.741 151.872 226.982 154.783C228.223 157.694 232.286 157.236 232.286 157.236L235.009 156.239C234.671 155.084 234.671 153.851 235.009 152.697C235.503 150.21 236.403 150.508 236.403 150.508C236.403 150.508 238.874 152.399 238.402 150.508C237.93 148.617 236.755 142.015 237.304 138.519C237.853 135.023 239.193 136.811 239.193 136.811C239.193 136.811 237.062 131.642 238.259 129.35C239.456 127.057 239.193 126.22 239.193 126.22C239.193 126.22 238.775 132.054 240.51 133.934C241.503 135.03 242.608 136.011 243.804 136.857C243.804 136.857 239.324 128.937 240.51 125.602C241.696 122.266 238.852 111.217 236.261 107.882C234.59 105.739 232.793 103.706 230.88 101.796L235.876 104.191C235.876 104.191 234.877 99.2969 226.093 96.5805C217.309 93.8641 199.729 90.1849 194.107 99.9388Z" fill="#132332"/>
<path d="M177.713 155.024C181.437 155.024 184.455 151.175 184.455 146.427C184.455 141.68 181.437 137.831 177.713 137.831C173.99 137.831 170.971 141.68 170.971 146.427C170.971 151.175 173.99 155.024 177.713 155.024Z" fill="#FA8977"/>
<path d="M233.79 155.024C237.514 155.024 240.532 151.175 240.532 146.427C240.532 141.68 237.514 137.831 233.79 137.831C230.067 137.831 227.048 141.68 227.048 146.427C227.048 151.175 230.067 155.024 233.79 155.024Z" fill="#FA8977"/>
<path d="M233.362 131.596C233.362 104.867 205.472 104.214 205.472 104.214C205.472 104.214 177.581 104.879 177.581 131.596C177.581 131.596 175.385 153.373 181.062 164.594C186.739 175.815 198.631 182.085 205.472 182.085C212.312 182.085 224.193 175.849 229.87 164.628C235.547 153.407 233.362 131.596 233.362 131.596Z" fill="#FFB4A3"/>
<path d="M191.34 101.44C191.34 101.44 206.614 92.0641 217.1 97.0614C227.586 102.059 233.878 109.257 236.579 118.988C239.28 128.719 233.79 144.318 233.79 144.318C233.79 144.318 223.403 117.108 218.604 113.05C213.806 108.993 205.592 118.369 200.421 113.36C195.249 108.351 195.238 109.921 195.238 109.921C195.238 109.921 194.337 119.091 189.55 119.973C184.762 120.856 177.164 128.936 177.164 133.647C177.164 138.358 177.164 143.183 177.164 143.183C177.164 143.183 168.577 120.203 175.166 111.446C181.754 102.689 188.65 104.248 188.65 104.248L191.34 101.44Z" fill="#132332"/>
<path d="M194.107 106.77C195.205 109.887 198.642 117.704 205.472 122.702C212.301 127.699 216.199 130.828 214.102 128.02C212.005 125.212 204.22 117.704 211.105 122.392C217.989 127.08 226.082 134.897 224.281 130.839C222.48 126.782 219.889 121.819 224.534 127.401C229.178 132.983 232.868 141.911 232.868 141.911C232.868 141.911 231.583 125.258 225.785 119.916C219.988 114.575 211.95 103.263 205.472 104.237C201.633 104.811 197.836 105.657 194.107 106.77Z" fill="#192D3D"/>
<path d="M233.823 138.289L233.757 137.349L228.146 137.785C224.722 136.725 221.149 136.287 217.583 136.49C210.995 137.12 209.787 137.705 208.941 138.782C207.709 138.157 206.359 137.825 204.988 137.808C203.63 137.871 202.295 138.206 201.057 138.794C200.223 137.728 199.037 137.143 192.416 136.501C188.85 136.298 185.277 136.736 181.853 137.796L176.494 137.327L176.428 138.266L181.479 138.679V138.839C181.611 141.006 182.259 148.123 185.257 148.467C186.179 148.57 188.847 148.742 191.581 148.742C194.766 148.742 198.049 148.513 198.708 147.665C199.366 146.817 201.782 141.613 201.464 139.642C202.583 139.121 203.786 138.821 205.01 138.759C206.232 138.775 207.436 139.072 208.535 139.63C208.206 141.648 210.556 146.771 211.291 147.711C212.027 148.651 215.222 148.788 218.418 148.788C221.152 148.788 223.82 148.616 224.742 148.513C227.74 148.169 228.388 141.052 228.52 138.885V138.702L233.823 138.289ZM198.027 147.092C197.357 147.952 189.319 148.009 185.377 147.55C183.675 147.355 182.643 142.874 182.402 138.794C182.402 138.725 182.402 138.656 182.402 138.599C185.639 137.648 189.003 137.261 192.361 137.453C199.509 138.129 199.959 138.771 200.596 139.665C201.046 140.341 199.125 145.716 198.027 147.092ZM227.674 138.805C227.432 142.885 226.4 147.356 224.698 147.562C220.756 148.02 212.719 147.952 212.038 147.103C210.94 145.716 208.996 140.341 209.49 139.653C210.116 138.759 210.588 138.117 217.726 137.441C218.297 137.441 218.89 137.361 219.461 137.361C222.242 137.416 225.006 137.84 227.685 138.622L227.674 138.805Z" fill="black"/>
<path d="M197.412 167.035C199.38 169.164 202.063 170.41 204.895 170.51C207.727 170.611 210.485 169.558 212.587 167.574C213.905 166.428 211.994 164.411 210.676 165.58C209.086 167.049 207.011 167.815 204.889 167.715C202.768 167.614 200.767 166.655 199.312 165.041C199.058 164.777 198.715 164.628 198.356 164.628C197.998 164.628 197.654 164.777 197.401 165.041C197.148 165.305 197.005 165.664 197.005 166.038C197.005 166.412 197.148 166.771 197.401 167.035H197.412Z" fill="#D66154"/>
<path d="M206.076 149.694C206.076 149.694 210.852 156.261 209.501 156.892C208.151 157.522 205.625 158.141 205.461 157.671C205.296 157.201 205.307 148.593 206.076 149.694Z" fill="#FA8977"/>
<path d="M192.811 142.599C192.582 142.599 192.355 142.551 192.144 142.459C191.932 142.366 191.741 142.231 191.58 142.06C191.42 141.889 191.294 141.687 191.209 141.464C191.124 141.242 191.083 141.004 191.087 140.765C191.088 140.469 191.16 140.177 191.296 139.917H191.087C190.568 139.917 190.061 140.078 189.629 140.379C189.198 140.68 188.861 141.107 188.663 141.608C188.464 142.109 188.412 142.659 188.513 143.191C188.615 143.722 188.864 144.21 189.232 144.593C189.599 144.976 190.066 145.237 190.575 145.343C191.084 145.449 191.612 145.394 192.091 145.187C192.571 144.98 192.981 144.629 193.269 144.178C193.558 143.728 193.712 143.198 193.712 142.656C193.718 142.549 193.718 142.442 193.712 142.335C193.441 142.509 193.129 142.601 192.811 142.599Z" fill="#132332"/>
<path d="M220.372 142.599C220.143 142.599 219.916 142.551 219.705 142.459C219.493 142.366 219.302 142.231 219.141 142.06C218.981 141.889 218.854 141.687 218.77 141.464C218.685 141.242 218.644 141.004 218.648 140.765C218.649 140.469 218.72 140.177 218.857 139.917H218.648C218.129 139.917 217.622 140.078 217.19 140.379C216.759 140.68 216.422 141.107 216.224 141.608C216.025 142.109 215.973 142.659 216.074 143.191C216.175 143.722 216.425 144.21 216.792 144.593C217.159 144.976 217.627 145.237 218.136 145.343C218.645 145.449 219.173 145.394 219.652 145.187C220.132 144.98 220.542 144.629 220.83 144.178C221.118 143.728 221.272 143.198 221.272 142.656C221.278 142.549 221.278 142.442 221.272 142.335C221.002 142.509 220.69 142.601 220.372 142.599Z" fill="#132332"/>
<path d="M184.455 136.559C185.603 135.621 186.839 134.807 188.144 134.129C189.868 133.35 193.536 133.499 193.536 134.129C193.536 134.76 194.063 134.851 193.536 135.081C193.009 135.31 187.046 134.129 184.455 136.559Z" fill="#192D3D"/>
<path d="M224.182 136.559C223.017 135.621 221.762 134.811 220.438 134.14C218.714 133.361 215.047 133.51 215.047 134.14C215.047 134.771 214.519 134.863 215.047 135.092C215.574 135.321 221.558 134.129 224.182 136.559Z" fill="#192D3D"/>
<path d="M307.546 223.656C295.16 191.839 240.565 165.981 240.565 165.981C240.565 165.981 235.613 164.491 232.077 165.488C228.541 166.485 226.587 171.953 221.942 179.907C217.298 187.861 205.592 195.323 205.592 195.323L204.988 195.736V195.323C204.988 195.323 193.25 187.861 188.639 179.907C184.027 171.953 182.05 166.485 178.504 165.488C174.957 164.491 170.016 165.981 170.016 165.981C170.016 165.981 115.432 191.839 103.035 223.656C90.6382 255.474 112.566 273.87 129.707 283.314C142.147 290.191 150.185 294.868 156.126 295.109C156.356 305.607 156.927 317.619 156.927 317.619H204.956V315.132C205.157 315.143 205.358 315.143 205.559 315.132V317.585H253.588C253.588 317.585 254.17 305.573 254.389 295.074C260.33 294.822 268.368 290.134 280.808 283.28C298.026 273.87 319.91 255.474 307.546 223.656ZM133.089 246.58C133.089 243.141 155.95 221.226 155.95 221.226C155.95 221.226 156.554 246.007 156.664 263.703C145.453 256.528 133.1 248.505 133.1 246.522L133.089 246.58ZM253.961 263.635C254.071 245.938 254.675 221.158 254.675 221.158C254.675 221.158 277.536 243.038 277.536 246.511C277.547 248.505 265.194 256.528 253.961 263.635Z" fill="#F3602A"/>
<path opacity="0.86" d="M166.447 284.392L236.272 283.544L197.017 302.96L166.447 284.392Z" fill="#9D2526"/>
<path opacity="0.55" d="M155.961 221.261L166.447 208.39C166.447 208.39 155.06 238.419 184.971 239.267C214.882 240.116 246.648 239.405 249.371 232.012C250.663 228.174 252.451 224.537 254.686 221.204L254.203 245.193H155.961V221.261Z" fill="#9D2526"/>
<path d="M214.135 210.865H123.525C122.52 210.865 121.529 211.105 120.627 211.567C119.726 212.028 118.937 212.699 118.321 213.527C117.706 214.355 117.28 215.32 117.076 216.346C116.872 217.373 116.896 218.434 117.145 219.45L136.449 297.79C136.812 299.269 137.636 300.579 138.791 301.515C139.946 302.451 141.366 302.959 142.828 302.96H267.138C268.6 302.959 270.02 302.451 271.175 301.515C272.33 300.579 273.154 299.269 273.517 297.79L292.821 219.438C293.07 218.423 293.094 217.361 292.89 216.335C292.686 215.308 292.26 214.344 291.645 213.515C291.029 212.687 290.24 212.017 289.338 211.555C288.437 211.094 287.446 210.854 286.441 210.854L214.135 210.865Z" fill="#1F1327"/>
<path d="M328.694 382.504C319.756 386.871 287.331 387.49 279.688 385.828C272.046 384.166 267.434 379.73 263.218 373.518C263.218 373.518 263.152 373.415 263.108 373.369C258.847 367.088 244.771 366.114 243.881 366.114L255.663 342.491C255.663 342.491 275.428 351.982 280.27 353.46C283.092 354.331 291.888 352.956 300.694 351.512C306.997 350.503 313.299 349.414 317.384 349.093C327.267 348.371 335.721 353.93 338.368 362.95C341.014 371.971 337.621 378.137 328.694 382.504Z" fill="#FFBF9F"/>
<path d="M197.017 302.96C197.017 302.96 275.724 261.583 291.569 263.99C307.414 266.397 327.069 271.509 332.054 287.75C337.039 303.992 323.544 319.935 309.171 330.159C294.797 340.382 213.246 371.146 208.843 373.369C204.439 375.593 198.576 380.189 192.372 375.891C186.168 371.593 175.901 352.05 178.58 349.689C181.26 347.328 225.621 318.422 225.621 318.422L197.017 302.96Z" fill="#192D3D"/>
<path d="M258.134 338.296C258.134 338.296 257.837 357.254 249.635 366.561C241.432 375.868 235.261 373.438 228.772 371.673C222.283 369.908 183.006 374.08 151.02 368.968C119.034 363.856 105.857 356.05 95.9088 331.981C85.9605 307.911 81.2938 277.068 109.854 268.506C138.414 259.944 158.376 280.541 180.667 293.722C202.957 306.903 258.419 334.468 258.134 338.296Z" fill="#2D4C51"/>
<path d="M178.262 351.958L122.58 324.152C122.58 324.152 153.38 344.21 152.502 349.678C151.624 355.145 130.113 354.835 130.113 354.835C130.113 354.835 153.38 358.148 165.7 357.838C178.02 357.529 179.514 356.245 179.514 356.245L178.262 351.958Z" fill="#192D3D"/>
<path opacity="0.33" d="M230.068 320.783L277.196 289.871L221.547 316.164L230.068 320.783Z" fill="#091216"/>
<path d="M178.548 384.062L178.207 384.303C178.312 384.211 178.426 384.13 178.548 384.062Z" fill="#5679DB"/>
<path d="M201.112 368.635C196.446 369.392 189.561 371.191 186.684 375.18L186.552 375.363C186.52 375.398 186.49 375.437 186.464 375.478L186.014 376.131C181.93 381.988 177.285 386.172 170.027 387.776C162.34 389.438 129.959 388.819 121.021 384.452C112.083 380.085 108.701 373.942 111.336 364.967C113.972 355.993 122.459 350.388 132.32 351.11C136.405 351.443 142.707 352.52 149.01 353.529C157.388 354.904 165.777 356.211 168.984 355.58L169.423 355.477C170.993 354.996 174.144 353.666 177.68 352.039C180.074 354.285 190.988 363.959 201.112 368.635Z" fill="#FFBF9F"/>
<path d="M186.684 375.18L186.552 375.364L186.486 375.444C186.322 375.65 186.171 375.868 186.036 376.097C184.012 379.153 181.497 381.821 178.602 383.983L178.262 384.223C177.933 384.453 177.592 384.67 177.241 384.888C175.014 386.235 172.592 387.195 170.071 387.731C162.384 389.393 130.003 388.774 121.065 384.407C112.127 380.04 108.745 373.896 111.38 364.922C113.785 356.715 121.021 351.374 129.718 351.019C130.599 350.97 131.482 350.97 132.364 351.019C136.449 351.351 142.751 352.429 149.054 353.437C157.432 354.813 165.821 356.119 169.028 355.489C168.039 357.781 167.26 361.323 169.28 364.498C172.574 369.896 190.154 369.942 186.684 375.18Z" fill="#1F1327"/>
<path d="M177.164 384.98C174.937 386.326 172.516 387.286 169.994 387.822C162.308 389.484 129.926 388.865 120.988 384.498C112.05 380.131 108.668 373.988 111.303 365.013C113.708 356.807 120.944 351.466 129.641 351.11C132.98 353.633 135.292 357.371 136.119 361.586C139.238 374.939 128.982 382.217 138.612 385.369C147.682 388.338 170.762 388.223 177.164 384.98Z" fill="white"/>
<path d="M138.502 352.647C138.747 352.813 138.979 353.001 139.194 353.208C141.104 354.962 142.565 358.481 143.718 361.598L144.343 363.375C144.763 364.669 145.265 365.933 145.848 367.157C145.999 367.449 146.2 367.709 146.441 367.925C146.49 367.974 146.545 368.017 146.605 368.051C146.782 368.192 146.998 368.269 147.22 368.269C147.443 368.269 147.659 368.192 147.835 368.051C147.992 367.937 148.107 367.771 148.165 367.581C148.626 366.492 148.165 364.223 147.682 362.355C147.253 360.727 146.759 359.409 146.748 359.386C145.938 357.475 144.721 355.781 143.191 354.435C141.964 353.29 140.637 352.27 139.227 351.386L138.502 352.647ZM142.949 356.211C144.015 357.253 144.863 358.514 145.442 359.913C145.726 360.663 145.971 361.428 146.177 362.206C146.607 363.552 146.869 364.95 146.957 366.366C146.452 365.244 146.001 364.097 145.606 362.928L145.321 361.976C144.643 360.017 143.851 358.103 142.949 356.246V356.211Z" fill="#FEF9F3"/>
<path d="M146.902 354.263C147.163 354.438 147.406 354.641 147.627 354.87C149.296 356.452 150.635 359.363 151.7 362.148C152.074 363.145 152.414 364.097 152.722 364.991C152.908 365.472 153.062 365.931 153.205 366.332C153.5 367.52 154.052 368.622 154.819 369.552C154.868 369.602 154.924 369.644 154.984 369.679C155.161 369.816 155.377 369.891 155.598 369.891C155.82 369.891 156.035 369.816 156.213 369.679C157.224 368.899 156.587 365.805 155.939 363.535C155.544 362.137 155.137 361.048 155.126 361.025C154.044 358.658 152.414 356.609 150.383 355.065C149.499 354.347 148.575 353.685 147.616 353.082L146.902 354.263ZM151.371 357.839C152.431 358.886 153.278 360.145 153.864 361.541C154.262 362.595 154.596 363.674 154.863 364.773C155.149 365.812 155.329 366.88 155.401 367.959C154.985 367.1 154.618 366.216 154.303 365.312C154.204 365.037 154.105 364.761 154.006 364.498C153.71 363.65 153.391 362.744 153.029 361.804C152.568 360.486 151.997 359.122 151.371 357.839Z" fill="#FEF9F3"/>
<path d="M155.291 352.611C155.752 353.592 156.364 354.486 157.103 355.259C157.39 355.59 157.698 355.9 158.025 356.187C157.608 355.832 157.202 355.523 156.839 355.259C155.884 354.548 155.192 354.113 155.115 354.113L154.456 355.259L154.391 355.374C155.768 356.461 156.863 357.892 157.575 359.534C157.784 359.947 157.981 360.36 158.179 360.784C158.98 362.56 159.65 364.474 160.232 366.102C161.177 368.738 161.693 370.136 162.318 370.687C162.376 370.736 162.438 370.779 162.505 370.813C162.683 370.95 162.899 371.025 163.12 371.025C163.342 371.025 163.557 370.95 163.735 370.813C164.602 370.148 164.218 367.695 163.735 365.586C163.988 365.747 164.141 365.93 164.405 366.102C164.668 366.274 164.888 366.4 165.14 366.549C166.423 367.37 167.896 367.81 169.401 367.821C169.811 367.81 170.217 367.74 170.609 367.615C171.613 367.336 172.473 366.657 173.002 365.724C173.545 364.657 173.663 363.41 173.33 362.253C172.997 361.096 172.24 360.123 171.224 359.546C170.74 359.236 166.667 358.09 163.395 357.253L161.989 356.887C161.715 356.795 161.429 356.715 161.177 356.657C161.177 356.657 161.177 356.657 161.177 356.577C161.177 356.497 161.253 356.222 161.286 356.004C161.319 355.786 161.352 355.683 161.374 355.5C161.835 352.623 162.286 347.351 159.606 345.62C159.519 345.555 159.428 345.497 159.332 345.448C158.804 345.086 158.173 344.923 157.545 344.986C156.916 345.048 156.326 345.333 155.873 345.792C154.292 347.156 154.325 350.514 155.291 352.611ZM162.977 363.133C162.537 361.609 161.788 360.202 160.781 359.007C160.743 358.626 160.743 358.242 160.781 357.861L162.329 358.274L163.988 358.721C167.007 359.557 169.994 360.405 170.411 360.623C170.765 360.809 171.08 361.066 171.338 361.38C171.596 361.694 171.791 362.059 171.913 362.452C172.035 362.846 172.08 363.261 172.046 363.673C172.013 364.085 171.901 364.486 171.718 364.853C171.455 365.311 171.076 365.684 170.622 365.931C170.169 366.178 169.659 366.288 169.148 366.251C168.854 366.264 168.559 366.241 168.27 366.182C167.377 365.989 166.52 365.645 165.733 365.162C164.746 364.606 163.831 363.921 163.01 363.122L162.977 363.133ZM158.816 358.87C158.944 358.992 159.059 359.131 159.156 359.282C159.299 359.408 159.409 359.569 159.54 359.718C159.887 361.268 160.649 362.683 161.737 363.798C162.315 365.476 162.684 367.225 162.835 369.002C162.33 367.88 161.879 366.732 161.484 365.563C160.78 363.474 159.966 361.427 159.046 359.431C159.024 359.225 158.937 359.03 158.849 358.858L158.816 358.87ZM158.53 356.646C158.893 356.944 159.222 357.185 159.453 357.345C159.461 357.391 159.461 357.437 159.453 357.483C159.167 357.196 158.86 356.91 158.563 356.646H158.53ZM156.74 346.628C156.894 346.457 157.399 345.952 158.596 346.628L158.761 346.709C160.66 347.947 160.342 352.508 159.859 355.374C159.859 355.546 159.793 355.718 159.76 355.867C159.573 355.74 159.365 355.546 159.145 355.362C158.048 354.462 157.146 353.329 156.499 352.038C155.73 350.239 155.851 347.591 156.773 346.628H156.74Z" fill="#FEF9F3"/>
<path d="M177.669 352.085L172.113 350.938C172.113 350.938 168.083 352.933 168.962 355.638C169.84 358.343 193.865 375.203 196.05 373.426C198.235 371.65 201.112 368.681 201.112 368.681L177.669 352.085Z" fill="#4C767A"/>
<path d="M251.831 330.457C251.831 330.457 230.847 368.406 232.945 374.492C235.042 380.579 250.513 385.954 251.831 381.816C253.149 377.679 270.004 347.557 270.179 343.557C270.355 339.557 254.905 324.726 251.831 330.457Z" fill="#4C767A"/>
<path d="M290.504 353.15C290.504 353.15 276.702 350.262 277.569 352.486C278.437 354.709 282.049 362.709 276.186 366.847C270.322 370.985 261.12 368.578 263.69 374.022C266.259 379.466 272.474 382.836 272.474 382.836C272.474 382.836 300.178 374.137 301.309 373.38C302.44 372.624 290.504 353.15 290.504 353.15Z" fill="#1F1327"/>
<path d="M262.998 373.025L263.13 373.208L263.196 373.289C263.361 373.495 263.511 373.713 263.646 373.942C265.67 376.998 268.185 379.666 271.08 381.827L271.42 382.068C271.749 382.297 272.09 382.515 272.441 382.733C274.668 384.079 277.09 385.04 279.611 385.575C287.298 387.237 319.679 386.618 328.617 382.252C337.555 377.885 340.937 371.741 338.302 362.767C335.897 354.56 328.661 349.219 319.965 348.864C319.083 348.815 318.2 348.815 317.318 348.864C313.234 349.196 306.931 350.273 300.628 351.282C292.25 352.657 283.861 353.964 280.655 353.334C281.643 355.626 282.422 359.168 280.402 362.343C277.086 367.707 259.517 367.787 262.998 373.025Z" fill="#1F1327"/>
<path d="M272.507 382.824C274.734 384.171 277.156 385.131 279.677 385.667C287.364 387.329 319.745 386.71 328.683 382.343C337.621 377.976 341.003 371.833 338.368 362.858C335.963 354.652 328.727 349.31 320.03 348.955C316.691 351.478 314.38 355.216 313.552 359.431C310.434 372.784 320.689 380.062 311.059 383.214C302.001 386.171 278.92 386.045 272.507 382.824Z" fill="white"/>
<path d="M310.466 349.265C309.056 350.149 307.729 351.169 306.503 352.313C304.972 353.66 303.755 355.354 302.945 357.265C302.945 357.265 302.451 358.606 302.012 360.233C301.506 362.102 301.067 364.371 301.528 365.46C301.586 365.65 301.701 365.815 301.858 365.93C302.034 366.071 302.25 366.148 302.473 366.148C302.695 366.148 302.911 366.071 303.088 365.93C303.148 365.896 303.203 365.853 303.252 365.804C303.493 365.588 303.694 365.328 303.845 365.036C304.428 363.812 304.931 362.548 305.35 361.254L305.975 359.477C307.074 356.359 308.589 352.852 310.499 351.087C310.693 350.879 310.902 350.687 311.125 350.514L310.466 349.265ZM304.35 359.855L304.043 360.726C303.648 361.895 303.197 363.043 302.692 364.165C302.781 362.749 303.043 361.351 303.472 360.004C303.678 359.227 303.923 358.462 304.208 357.712C304.802 356.33 305.662 355.089 306.733 354.067C305.829 355.944 305.037 357.877 304.361 359.855H304.35Z" fill="#FEF9F3"/>
<path d="M302.044 350.881C301.085 351.484 300.161 352.146 299.277 352.864C297.246 354.408 295.616 356.457 294.534 358.824C294.534 358.824 294.117 359.97 293.721 361.334C293.073 363.626 292.437 366.698 293.447 367.477C293.625 367.615 293.84 367.689 294.062 367.689C294.283 367.689 294.499 367.615 294.677 367.477C294.737 367.443 294.792 367.401 294.841 367.351C295.608 366.421 296.161 365.319 296.455 364.131C296.598 363.729 296.752 363.282 296.939 362.79C297.257 361.884 297.586 360.933 297.96 359.947C299.058 357.162 300.364 354.216 302.034 352.669C302.254 352.44 302.497 352.237 302.758 352.061L302.044 350.881ZM296.554 359.649C296.192 360.589 295.884 361.494 295.577 362.343C295.478 362.606 295.379 362.881 295.281 363.156C294.965 364.061 294.599 364.945 294.183 365.804C294.254 364.725 294.435 363.657 294.721 362.618C294.987 361.519 295.321 360.44 295.72 359.385C296.305 357.99 297.153 356.731 298.212 355.683C297.685 356.967 297.103 358.331 296.598 359.683L296.554 359.649Z" fill="#FEF9F3"/>
<path d="M293.886 343.465C293.433 343.006 292.843 342.722 292.214 342.659C291.586 342.597 290.955 342.76 290.427 343.121C290.331 343.171 290.24 343.228 290.153 343.293C287.473 345.024 287.957 350.296 288.385 353.173C288.385 353.357 288.44 353.517 288.473 353.677C288.506 353.838 288.55 354.079 288.582 354.251C288.615 354.422 288.582 354.308 288.582 354.331C288.33 354.388 288.044 354.468 287.77 354.56L286.364 354.927C283.07 355.809 279.019 356.944 278.535 357.219C277.519 357.797 276.762 358.769 276.429 359.926C276.096 361.083 276.214 362.33 276.757 363.397C277.286 364.331 278.146 365.01 279.15 365.288C279.542 365.414 279.948 365.483 280.358 365.494C281.863 365.483 283.336 365.044 284.619 364.222C284.871 364.073 285.124 363.936 285.354 363.775C285.585 363.615 285.772 363.42 286.024 363.259C285.486 365.368 285.102 367.844 286.024 368.486C286.202 368.624 286.418 368.698 286.639 368.698C286.86 368.698 287.076 368.624 287.254 368.486C287.321 368.452 287.383 368.41 287.441 368.36C288.066 367.844 288.539 366.457 289.527 363.775C290.12 362.136 290.779 360.234 291.58 358.457C291.767 358.033 291.964 357.62 292.184 357.208C292.896 355.565 293.991 354.135 295.368 353.047L295.303 352.932L294.644 351.786C294.567 351.786 293.875 352.256 292.92 352.932C292.557 353.196 292.162 353.506 291.734 353.861C292.061 353.573 292.369 353.263 292.656 352.932C293.395 352.16 294.007 351.265 294.468 350.285C295.357 348.382 295.39 345.001 293.886 343.465ZM283.916 363.042C283.129 363.524 282.273 363.869 281.379 364.062C281.09 364.12 280.795 364.144 280.501 364.131C279.991 364.168 279.48 364.057 279.027 363.81C278.573 363.564 278.194 363.19 277.931 362.732C277.755 362.364 277.65 361.964 277.622 361.554C277.594 361.143 277.644 360.731 277.77 360.341C277.896 359.951 278.094 359.591 278.353 359.281C278.613 358.972 278.928 358.719 279.282 358.537C279.699 358.308 282.697 357.471 285.706 356.635L287.364 356.188L288.912 355.775C288.95 356.156 288.95 356.54 288.912 356.921C287.905 358.116 287.156 359.524 286.716 361.047C285.868 361.832 284.927 362.498 283.916 363.03V363.042ZM290.57 357.311C289.65 359.306 288.836 361.354 288.132 363.443C287.737 364.612 287.286 365.759 286.782 366.881C286.933 365.105 287.302 363.356 287.88 361.678C288.968 360.563 289.729 359.147 290.076 357.597C290.208 357.448 290.317 357.288 290.46 357.162C290.557 357.011 290.672 356.872 290.801 356.749C290.746 356.875 290.647 357.07 290.57 357.254V357.311ZM290.263 355.328C290.254 355.283 290.254 355.236 290.263 355.19C290.493 355.041 290.823 354.789 291.185 354.491C290.823 354.766 290.504 355.041 290.263 355.328ZM293.194 349.826C292.547 351.117 291.645 352.25 290.548 353.15C290.328 353.334 290.12 353.528 289.933 353.655C289.933 353.506 289.867 353.334 289.834 353.162C289.362 350.296 289.044 345.723 290.932 344.497L291.097 344.416C292.294 343.797 292.799 344.302 292.953 344.416C293.831 345.448 293.952 348.084 293.15 349.826H293.194Z" fill="#FEF9F3"/>
<path d="M174.968 254.58C181.651 252.718 188.215 250.421 194.623 247.703L194.447 251.142C189.382 253.136 184.148 254.897 178.745 256.425V256.506C183.562 259.486 188.576 262.259 193.788 264.827L193.624 268.265C187.062 264.988 180.696 261.298 174.562 257.216L174.968 254.58Z" fill="#ACBF40"/>
<path d="M196.566 270.076C200.398 260.91 203.777 251.545 206.69 242.018L209.919 241.926C207.181 251.513 203.974 260.947 200.311 270.191C199.066 270.16 197.818 270.122 196.566 270.076Z" fill="#ACBF40"/>
<path d="M232.549 257.411C226.409 261.465 220.04 265.128 213.476 268.38L213.312 264.941C218.604 262.374 223.699 259.589 228.596 256.586V256.528C223.113 255 217.799 253.235 212.653 251.233L212.488 247.794C218.875 250.451 225.413 252.69 232.066 254.5L232.549 257.411Z" fill="#ACBF40"/>
<path d="M27.6544 219.496L0.379028 228.241L22.4607 284.105L46.3431 283.028L66.6899 269.927L54.9188 210.75L27.6544 219.496Z" fill="#ACBF40"/>
<path d="M48.3525 225.892L49.8019 233.147L49.8239 233.239L23.5148 241.674L26.2379 248.563L51.3282 240.769L55.7863 262.993L43.027 271.75L27.7532 271.991L23.394 260.907L30.2677 258.706L32.387 264.059L40.776 264.093L47.4082 259.245L45.5086 249.95L22.0434 257.469L13.9508 236.918L31.1791 231.496L48.3525 225.892Z" fill="white"/>
<path d="M379.621 201.158L350.863 192.768L340.048 255.016L361.679 268.163L386.693 268.633L408.379 209.547L379.621 201.158Z" fill="#82942F"/>
<path opacity="0.76" d="M376.228 213.822L358.122 208.424L356.76 216.16L384.222 224.172L381.334 230.751L355.53 223.221L354.114 231.301L378.534 238.431L375.152 247.566L367.169 247.657L359.538 243.004L360.768 237.032L353.477 234.9L351.281 247.462L364.864 256.265L380.851 256.093L394.401 219.014L376.228 213.822Z" fill="white"/>
<path d="M108.767 123.034L87.0037 124.077L93.1417 169.786L111.007 173.729L128.433 168.09L130.53 121.991L108.767 123.034Z" fill="#5D6528"/>
<path d="M109.195 132.616L95.4696 133.189L96.2163 138.874L117.365 137.866L116.332 156.308L110.326 158.245L104.397 157.018L103.408 152.674L98.0829 152.926L99.2688 161.867L110.612 164.732L121.647 160.801L122.91 131.883L109.195 132.616Z" fill="#ACBF40"/>
</svg>
