<svg width="211" height="224" viewBox="0 0 211 224" fill="none" xmlns="http://www.w3.org/2000/svg">
<path d="M210.7 211.768C210.7 214.168 204.4 216.468 193.5 218.368C192.8 218.468 192 218.668 191.2 218.768C172.1 221.868 140.8 223.868 105.3 223.868C99.7 223.868 94.2 223.768 88.9 223.768C88.6 223.768 88.3 223.768 88 223.768C38.1 222.868 0 217.868 0 211.968C0 208.868 10 206.168 26.5 203.968C27.3 203.868 28.1 203.768 28.9 203.668C48.1 201.368 75.2 199.968 105.3 199.968C149 199.968 186.5 202.968 202.4 207.368C203.4 207.668 204.3 207.868 205.1 208.168C208.8 209.168 210.7 210.468 210.7 211.768Z" fill="#ACBF40"/>
<path d="M114.9 212.568C114.9 213.168 114.3 213.668 110.7 214.268C99.4 216.168 89.3 220.568 89 223.568C88.7 223.568 88.4 223.568 88.1 223.568C88.5 219.268 101.2 214.968 110.6 213.368C112.8 212.968 113.7 212.668 114 212.568C112 211.468 96.2 210.268 80.9 209.168C64.4 207.968 45.7 206.668 31.6 204.668C29.3 204.368 27.7 203.968 26.6 203.668C27.4 203.568 28.2 203.468 29 203.368C29.7 203.568 30.6 203.668 31.7 203.768C45.7 205.668 64.4 207.068 80.9 208.268C108 210.368 114.8 211.068 114.9 212.568Z" fill="#82942F"/>
<path d="M156.8 207.468C157 209.268 175.8 214.768 193.5 218.268C192.8 218.368 192 218.568 191.2 218.668C177 215.668 155.5 210.268 155.9 207.368C156 206.368 157.6 205.568 168 206.268C180.7 207.068 192.7 207.268 202.5 207.168C203.5 207.468 204.4 207.668 205.2 207.968C195 208.168 181.8 208.068 168 207.168C157.9 206.468 156.9 207.368 156.8 207.468Z" fill="#82942F"/>
<path opacity="0.28" d="M102.6 218.768C137.283 218.768 165.4 216.619 165.4 213.968C165.4 211.317 137.283 209.168 102.6 209.168C67.9165 209.168 39.8 211.317 39.8 213.968C39.8 216.619 67.9165 218.768 102.6 218.768Z" fill="#263C29"/>
<path d="M180.6 32.2677C180.6 32.2677 178.4 32.7677 176.4 33.1677C176.1 33.2677 175.7 33.2677 175.4 33.3677C173.2 33.6677 172.9 39.1677 172.9 39.1677C172.9 39.1677 172 39.0677 170.7 38.8677C168.2 38.4677 164.2 37.5677 162.4 35.6677C159.5 32.7677 153 31.3677 157.9 28.2677C161.5 26.0677 163.2 22.0677 163.9 20.0677C164.1 19.2677 164.2 18.8677 164.2 18.8677L177.8 30.1677L180.6 32.2677Z" fill="#FFB4A3"/>
<path d="M177.9 30.0676L176.4 33.1676C176.1 33.2676 175.7 33.2676 175.4 33.3676C173.2 33.6676 172.9 39.1676 172.9 39.1676C172.9 39.1676 172 39.0676 170.7 38.8676L163.9 20.0676L177.9 30.0676Z" fill="#D66154"/>
<path d="M190.2 20.2677C188.2 24.0677 189.8 25.1677 189.3 26.8677C188.8 28.5677 185.2 28.7677 184.7 29.2677C184.7 29.2677 184.3 30.2677 183.7 31.4677C183.6 31.6677 183.5 31.8676 183.4 32.0676C182.8 33.2677 182 34.5676 181.2 35.0676C179.6 36.1677 175.9 34.0677 172.9 31.3677C172.1 30.6677 171.3 29.8676 170.5 29.0676C168.6 27.7677 166.9 26.1677 165.8 24.3677C164.7 22.6677 164.1 20.8677 164.3 18.8677C165.1 9.86765 172 5.96765 179.3 5.96765C186.6 5.96765 191.3 13.2677 191.3 13.2677C191.3 13.2677 192.2 16.4677 190.2 20.2677Z" fill="#FFB4A3"/>
<path d="M177.6 0.367671C177.6 0.367671 171.4 -0.332329 167.5 5.36767C163.6 11.0677 162.8 18.7677 164.4 18.7677C165.9 18.7677 169.9 9.96767 170.7 11.8677C171.5 13.7677 171.2 17.6677 172.3 15.4677C173.4 13.2677 175 7.26767 177.7 8.46767C180.4 9.66767 190.9 14.6677 193.2 12.7677C195.5 10.8677 196.2 7.06767 193.2 5.16767C190.2 3.26767 180.7 0.167671 177.6 0.367671Z" fill="#192D3D"/>
<path d="M184.1 19.2677C183.7 19.2677 183.4 18.9676 183.4 18.5676C183.4 18.3676 183.5 18.1676 183.6 18.0676C183.5 17.9676 183.3 17.9677 183.1 17.9677C182.4 17.9677 181.8 18.5677 181.8 19.2677C181.8 19.9677 182.4 20.5676 183.1 20.5676C183.8 20.5676 184.4 19.9677 184.4 19.2677C184.4 19.2677 184.4 19.2677 184.4 19.1677C184.3 19.2677 184.2 19.2677 184.1 19.2677Z" fill="#192D3D"/>
<path d="M180.9 16.5676C180.9 16.5676 182.7 15.1676 184.5 15.9676C186.3 16.7676 186.1 17.2676 186 17.4676C185.8 17.5676 184.7 17.0676 183.9 16.5676C183.2 16.0676 180.9 16.5676 180.9 16.5676Z" fill="#192D3D"/>
<path d="M183.7 31.3676C183.6 31.5676 183.5 31.7676 183.4 31.9676H183.3C182.2 31.6676 181.2 31.1676 180.5 30.3676C179.7 29.5676 179.3 28.3676 179.4 27.3676C179.4 27.1676 179.6 27.0676 179.7 27.0676C179.9 27.0676 180 27.2676 180 27.3676C179.9 28.2676 180.3 29.1676 181 29.8676C181.6 30.4676 182.4 30.9676 183.5 31.2676C183.6 31.3676 183.6 31.3676 183.7 31.3676Z" fill="#D66154"/>
<path d="M151.8 203.568C149.6 203.368 147.4 203.468 146.7 202.768C145.5 201.668 145.5 198.468 143.9 198.168C142.4 197.868 138.4 196.768 138.2 196.668C138.7 194.768 139.3 192.368 139.7 189.568C139.8 189.068 139.9 188.568 140 188.068L151.7 190.468C151.3 191.968 150.9 193.268 150.8 194.068C149.9 198.168 150.2 201.168 151.8 203.568Z" fill="#EDEDED"/>
<path d="M165 148.968C164 152.668 156.9 173.568 153.1 185.968C152.6 187.668 152.1 189.268 151.7 190.568L140 188.168C140.3 186.668 140.5 185.068 140.8 183.468C143.5 168.868 147.7 151.068 147.9 149.968C148.2 148.668 145.7 145.168 140.3 136.968C134.9 128.668 131.4 114.768 131.4 114.768L162.9 113.468C162.9 113.468 166.4 144.168 165 148.968Z" fill="#FFB4A3"/>
<path d="M155 188.268L154.8 189.168C154.6 190.168 153.6 190.868 152.5 190.668L151.7 190.468L140 188.068H139.8C138.8 187.868 138.1 186.868 138.3 185.768L138.5 184.868C138.7 183.868 139.7 183.168 140.8 183.368L153.1 185.968L153.5 186.068C154.6 186.268 155.2 187.268 155 188.268Z" fill="white"/>
<path d="M70.1 162.168C68.9 160.368 67.4 158.768 67.4 157.768C67.5 156.068 69.9 154.068 69.2 152.668C68.5 151.268 66.8 147.568 66.7 147.368C68.5 146.568 70.7 145.468 73.2 144.068C73.6 143.768 74.1 143.568 74.6 143.268L80.2 153.868C78.7 154.468 77.6 155.068 76.9 155.368C73.1 157.268 71 159.368 70.1 162.168Z" fill="#EDEDED"/>
<path d="M66.9 174.268C64.5 172.368 56.8 160.068 56.7 154.468C56.6 149.968 58.7 150.968 66.7 147.368C66.8 147.568 68.4 151.268 69.2 152.668C70 154.068 67.5 156.068 67.4 157.768C67.4 158.768 68.9 160.368 70.1 162.168C69.6 163.668 69.6 165.468 69.9 167.468C70.8 172.968 69.2 176.068 66.9 174.268Z" fill="#FFB4A3"/>
<path d="M120.7 137.668C117.2 139.168 96.6 147.068 84.6 151.968C82.9 152.668 81.5 153.268 80.2 153.868L74.6 143.268C75.9 142.468 77.3 141.768 78.8 140.968C91.8 133.768 108.1 125.668 109.2 125.168C110.4 124.568 111.5 120.468 114.4 110.968C117.3 101.568 125.8 89.9678 125.8 89.9678L146.8 113.468C146.7 113.468 125.2 135.668 120.7 137.668Z" fill="#FA8977"/>
<path d="M84 154.868L83.2 155.268C82.3 155.768 81.1 155.368 80.6 154.468L80.2 153.768L74.6 143.168L74.5 143.068C74 142.168 74.4 140.968 75.3 140.468L76.1 140.068C77 139.568 78.2 139.968 78.7 140.868L84.5 151.968L84.7 152.368C85.2 153.268 84.9 154.368 84 154.868Z" fill="white"/>
<path d="M69.8 176.268C68 177.068 66.4 176.368 64.8 174.968C63.2 173.568 56.1 160.468 55.8 157.268C55.5 154.068 55.1 150.868 59.7 149.068C64.3 147.268 66.7 147.268 66.7 147.268C66.8 147.468 68.4 151.168 69.2 152.568C70 153.968 67.5 155.968 67.4 157.668C67.4 158.668 68.9 160.268 70.1 162.068C70.9 163.268 71.6 164.668 71.5 165.868C71.4 168.968 71.5 175.368 69.8 176.268Z" fill="#192D3D"/>
<path d="M128 78.6677C128 78.6677 108.4 101.668 109.7 104.768C111.1 107.968 135.6 123.368 135.6 123.368L147.2 101.368L128.2 77.2677" fill="#B23F3F"/>
<path d="M126.9 77.2677C126.9 77.2677 124.9 126.368 131.4 128.068C137.9 129.768 150.8 127.868 161 124.468C171.2 121.068 173.3 116.168 172.9 114.668C172.5 113.168 165.2 91.3677 165.2 91.3677L126.9 77.2677Z" fill="#E53939"/>
<path d="M159 213.768C156 214.368 141.6 212.468 137.3 208.968C133.8 206.168 135.9 205.168 138.2 196.668C138.4 196.768 142.3 197.768 143.9 198.168C145.5 198.468 145.5 201.668 146.7 202.768C147.4 203.468 149.6 203.268 151.8 203.568C152.7 204.968 154 206.068 155.7 207.068C160.5 209.968 162 213.068 159 213.768Z" fill="#FFB4A3"/>
<path d="M162.4 212.768C161.9 214.668 160.3 215.468 158.3 215.768C156.2 216.068 141.6 213.268 138.9 211.468C136.2 209.768 133.5 207.968 135.1 203.168C136.7 198.368 138.2 196.668 138.2 196.668C138.4 196.768 142.3 197.768 143.9 198.168C145.5 198.468 145.5 201.668 146.7 202.768C147.4 203.468 149.6 203.268 151.8 203.568C153.3 203.768 154.7 204.068 155.6 204.868C157.8 206.968 162.9 210.868 162.4 212.768Z" fill="#192D3D"/>
<path d="M159 26.0677C159 26.0677 149.4 17.1677 139.6 18.0677C129.9 18.8677 109.8 54.4677 111.4 59.9677C113.1 65.4677 126.6 72.4677 126.6 72.4677L159 26.0677Z" fill="#192D3D"/>
<path d="M116.2 56.4677C116.4 55.8677 120.2 45.7677 121.7 46.9677C123.2 48.1677 129.7 50.6677 131.4 51.6677C133.1 52.6677 126.3 66.5677 123.8 66.8677C121.3 67.1677 113.7 65.5677 116.2 56.4677Z" fill="#445F72"/>
<path d="M175.6 50.0676C175.6 50.0676 175.3 70.1676 176.8 72.4676C178.3 74.7676 185.9 87.6676 187.4 89.0676C188.9 90.4676 189.7 94.9676 189.5 96.5676C189.3 98.2676 186.7 102.068 184.6 100.568C182.5 99.0676 181.1 98.0676 181.4 96.9676C181.7 95.8676 181.7 100.768 179.8 97.1676C177.9 93.5676 179.8 91.1676 178.1 88.9676C176.4 86.7676 169.6 77.6676 168.1 75.4676C166.7 73.2676 175.6 50.0676 175.6 50.0676Z" fill="#FA8977"/>
<path d="M144.8 29.9677C144.8 29.9677 152.8 28.1677 161.1 29.6677C169.4 31.1677 176.1 39.4677 176.3 43.9677C176.5 48.4677 169.3 83.2677 167.2 87.4677C165.1 91.6677 167.2 90.4677 165 90.9677C162.8 91.4677 128.3 81.1677 125.5 77.9677C122.8 74.7677 138.5 32.7677 144.8 29.9677Z" fill="#EDEDED"/>
<path d="M153.2 29.0676C153.2 29.0676 158.7 23.8676 160.8 25.2676C162.9 26.6676 174.5 37.4676 176.4 39.3676C178.2 41.2676 174.5 41.7676 173.8 41.2676C172.9 40.6676 153.2 29.0676 153.2 29.0676Z" fill="white"/>
<path d="M173.7 41.1677C173.7 41.1677 170.6 57.1677 164.4 63.7677C158.2 70.3677 154.4 79.6677 154.4 79.6677L156.6 89.0677L164.1 84.9677C164.1 84.9677 171.3 69.2677 172.9 62.7677C174.5 56.2677 175.6 41.2677 175.6 41.2677L173.7 41.1677Z" fill="#E53939"/>
<path d="M132.2 46.9677C132.2 46.9677 122.9 60.9676 123.9 63.5676C124.9 66.0676 127.6 71.9676 129.3 76.0676C131 80.1676 138.7 91.4677 139.8 93.8677C140.9 96.2677 140.6 102.068 143 105.368C145.4 108.668 143.4 110.568 145.3 110.368C147.2 110.168 149.3 110.468 150.5 105.468C151.7 100.468 149.8 97.6677 148.5 96.3677C147.2 95.0677 145.9 92.7677 145.3 91.6677C144.7 90.5677 140.1 72.9677 138.7 69.1677C137.3 65.3677 138.1 65.4677 138.1 65.4677L145.3 55.9677L132.2 46.9677Z" fill="#FFB4A3"/>
<path d="M148 56.8677L156.9 45.5677C160.4 41.0677 159.6 34.6677 155.1 31.1677C150.6 27.6677 144.2 28.4677 140.7 32.9677L131.8 44.2677C131.2 45.0677 131.3 46.2677 132.1 46.9677L145.2 57.2677C146.1 57.8677 147.3 57.7677 148 56.8677Z" fill="white"/>
</svg>
