<svg width="217" height="242" viewBox="0 0 217 242" fill="none" xmlns="http://www.w3.org/2000/svg">
<path d="M216.449 229.568C216.449 231.968 210.149 234.268 199.249 236.168C198.549 236.268 197.749 236.468 196.949 236.568C177.849 239.668 146.549 241.668 111.049 241.668C105.449 241.668 99.9488 241.568 94.6488 241.568C94.3488 241.568 94.0488 241.568 93.7488 241.568C43.8488 240.668 5.74878 235.668 5.74878 229.768C5.74878 226.668 15.7488 223.968 32.2488 221.768C33.0488 221.668 33.8488 221.568 34.6488 221.468C53.8488 219.168 80.9488 217.768 111.049 217.768C154.749 217.768 192.249 220.768 208.149 225.168C209.149 225.468 210.049 225.668 210.849 225.968C214.549 226.868 216.449 228.168 216.449 229.568Z" fill="#ACBF40"/>
<path d="M120.649 230.368C120.649 230.968 120.049 231.468 116.449 232.068C105.149 233.968 95.0488 238.368 94.7488 241.368C94.4488 241.368 94.1488 241.368 93.8488 241.368C94.2488 237.068 106.949 232.768 116.349 231.168C118.549 230.768 119.449 230.468 119.749 230.368C117.749 229.268 101.949 228.068 86.6488 226.968C70.1488 225.768 51.4488 224.468 37.3488 222.468C35.0488 222.168 33.4488 221.768 32.3488 221.468C33.1488 221.368 33.9488 221.268 34.7488 221.168C35.4488 221.368 36.3488 221.468 37.4488 221.568C51.4488 223.468 70.1488 224.868 86.6488 226.068C113.749 228.168 120.649 228.868 120.649 230.368Z" fill="#82942F"/>
<path d="M162.549 225.268C162.749 227.068 181.549 232.568 199.249 236.068C198.549 236.168 197.749 236.368 196.949 236.468C182.749 233.468 161.249 228.068 161.649 225.168C161.749 224.168 163.349 223.368 173.749 224.068C186.449 224.868 198.449 225.068 208.249 224.968C209.249 225.268 210.149 225.468 210.949 225.768C200.749 225.968 187.549 225.868 173.749 224.968C163.649 224.268 162.649 225.068 162.549 225.268Z" fill="#82942F"/>
<path opacity="0.28" d="M108.349 236.568C143.032 236.568 171.149 234.419 171.149 231.768C171.149 229.117 143.032 226.968 108.349 226.968C73.6653 226.968 45.5488 229.117 45.5488 231.768C45.5488 234.419 73.6653 236.568 108.349 236.568Z" fill="#263C29"/>
<path d="M113.849 37.2677C113.849 37.2677 95.8488 28.5677 89.2488 32.7677C82.6488 36.9677 63.1488 65.9677 66.9488 73.2677C70.7488 80.5677 80.1488 84.4677 80.1488 84.4677L113.849 37.2677Z" fill="#192D3D"/>
<path d="M34.5488 107.268L24.4488 114.068C22.3488 110.768 20.8488 108.268 20.5488 107.968C20.0488 107.368 19.6488 107.868 18.1488 108.868C18.1488 108.668 18.0488 108.368 17.9488 108.168C16.5488 104.968 22.1488 98.8677 23.9488 100.368C24.7488 101.068 25.9488 100.768 27.1488 100.268C28.5488 101.768 30.4488 103.268 34.5488 107.268Z" fill="#EDEDED"/>
<path d="M23.9488 100.368C22.1488 98.7677 16.5488 104.968 17.9488 108.168C18.0488 108.368 18.1488 108.668 18.1488 108.868C16.7488 109.868 14.3488 111.368 10.0488 113.068C1.2488 116.568 -0.351222 111.468 1.24878 109.468C2.84878 107.568 9.44878 101.868 12.2488 100.068C14.9488 98.2677 18.0488 92.5677 20.8488 93.2677C23.5488 93.9677 24.8488 97.5677 26.5488 99.5677C26.7488 99.7677 26.9488 100.068 27.1488 100.268C25.9488 100.768 24.7488 101.068 23.9488 100.368Z" stroke="black" stroke-miterlimit="10"/>
<path d="M80.7488 135.568C80.7488 135.568 62.8488 148.568 59.5488 149.868C56.2488 151.168 52.0488 150.268 46.9488 148.068C41.8488 145.868 40.3488 139.268 36.5488 133.468C34.5488 130.368 30.4488 123.768 26.8488 118.068C26.0488 116.668 25.1488 115.368 24.4488 114.168L34.5488 107.368C34.9488 107.768 35.3488 108.168 35.8488 108.668C36.4488 109.268 37.1488 109.968 37.7488 110.768C43.2488 117.168 50.1488 127.968 50.6488 128.768C51.1488 129.668 51.3488 128.068 54.4488 124.968C57.5488 121.868 64.5488 114.668 64.5488 114.668L80.7488 135.568Z" fill="#FA8977"/>
<path d="M80.1488 92.3677C80.1488 92.3677 60.7488 113.468 61.8488 116.068C62.9488 118.668 78.1488 145.268 82.5488 144.568C86.9488 143.868 108.649 115.868 108.649 115.868L80.1488 92.3677Z" fill="#215572"/>
<path d="M173.349 230.868C172.549 233.368 159.349 233.368 154.849 232.768C150.349 232.268 147.549 233.868 144.849 233.868C142.149 233.868 140.449 229.168 141.449 224.568C141.649 223.768 141.749 222.968 141.749 221.968C141.849 218.668 140.849 214.468 138.249 209.668C137.049 207.468 135.649 205.268 133.749 202.868C126.449 193.868 124.049 175.768 122.349 170.768C120.749 165.868 122.049 165.568 117.149 160.068C112.249 154.568 105.049 143.068 105.049 143.068C105.049 143.068 129.449 130.168 130.549 135.368C131.649 140.568 131.649 151.268 132.849 153.168C134.049 155.068 136.349 157.868 136.349 161.368C136.349 164.968 145.349 193.968 147.249 199.468C147.749 200.968 148.549 203.068 149.349 205.268C151.449 210.868 154.049 217.468 154.749 219.268C155.349 220.768 157.249 221.568 159.749 222.168C161.349 222.568 163.049 222.968 164.849 223.368C169.249 224.568 174.149 228.368 173.349 230.868Z" fill="#FFB4A3"/>
<path d="M81.1488 90.7677C81.1488 90.7677 75.1488 95.1677 82.6488 119.968C90.1488 144.768 91.0488 151.568 95.8488 150.868C100.649 150.168 104.049 151.268 118.349 145.768C132.649 140.268 134.849 133.568 133.549 130.568C132.249 127.668 123.849 104.368 123.849 104.368L81.1488 90.7677Z" fill="#246EA0"/>
<path d="M142.749 62.4678C142.749 62.4678 150.049 75.0678 150.049 76.8678C150.049 78.6678 145.849 94.4678 142.749 92.0678C139.649 89.6678 132.849 77.3678 132.849 77.3678L142.749 62.4678Z" fill="#FA8977"/>
<path d="M135.749 49.7677C135.749 49.7677 143.149 59.0677 143.149 61.2677C143.149 63.4677 133.449 79.1677 133.449 79.1677L135.749 49.7677Z" fill="#D1D1D1"/>
<path d="M113.849 37.2678C113.849 37.2678 93.8488 53.7678 87.8488 65.7678C81.8488 77.8678 76.8488 90.4678 80.4488 93.9678C84.0488 97.5678 93.0488 99.4678 103.249 103.268C113.349 107.068 122.449 111.768 125.449 108.168C128.449 104.568 136.949 67.0678 136.449 56.0678C135.949 45.0678 132.849 44.0678 130.649 43.6678C128.449 43.2678 116.749 35.3678 113.849 37.2678Z" fill="#EDEDED"/>
<path d="M141.149 83.4677C141.149 83.4677 145.949 71.5677 149.749 66.6677C153.549 61.7677 155.949 54.7677 155.949 51.4677C155.949 48.1677 156.149 46.9677 158.649 44.8677C161.249 42.8677 165.449 42.8677 166.549 44.8677C167.649 46.8677 169.449 46.9677 168.549 49.6677C167.649 52.3677 163.249 55.6677 162.549 58.0677C161.849 60.4677 155.749 88.3677 151.949 91.9677C148.149 95.5677 139.649 94.9677 141.149 83.4677Z" fill="#FFB4A3"/>
<path d="M149.749 205.268L137.949 209.768C136.649 210.268 135.249 209.668 134.849 208.368L134.749 208.168C134.249 206.868 134.849 205.468 136.149 205.068L147.949 200.568C149.249 200.068 150.649 200.668 151.049 201.968L151.149 202.168C151.649 203.368 151.049 204.768 149.749 205.268Z" fill="white"/>
<path d="M156.649 227.868C152.949 230.668 152.449 227.768 147.449 227.868C142.549 227.968 142.349 225.168 141.749 221.868C141.849 218.568 140.849 214.368 138.249 209.568L149.449 205.268C151.549 210.868 154.149 217.468 154.849 219.268C155.449 220.768 157.349 221.568 159.849 222.168C159.849 222.268 160.349 225.068 156.649 227.868Z" fill="#EDEDED"/>
<path d="M173.349 230.868C172.549 233.368 159.349 233.368 154.849 232.768C150.349 232.268 147.549 233.868 144.849 233.868C142.149 233.868 140.449 229.168 141.449 224.568C141.649 223.768 141.749 222.968 141.749 221.968C142.649 221.968 143.549 222.268 144.349 223.168C147.049 225.868 152.749 227.568 156.049 225.868C158.849 224.468 156.849 222.968 159.749 222.168C161.349 222.568 163.049 222.968 164.849 223.368C169.249 224.568 174.149 228.368 173.349 230.868Z" fill="#192D3D"/>
<path d="M37.8488 110.568L26.8488 117.968L26.4488 118.268C25.9488 118.568 25.2488 118.468 24.9488 117.968L23.6488 115.968C23.3488 115.468 23.4488 114.768 23.9488 114.468L24.4488 114.068L34.5488 107.268L35.2488 106.768C35.7488 106.468 36.4488 106.568 36.7488 107.068L38.0488 109.068C38.4488 109.568 38.3488 110.168 37.8488 110.568Z" fill="white"/>
<path d="M27.1488 100.268C26.0488 100.768 24.7488 101.068 23.9488 100.368C22.1488 98.7677 16.5488 104.968 17.9488 108.168C18.0488 108.368 18.1488 108.668 18.1488 108.868C16.7488 109.868 14.3488 111.368 10.0488 113.068C1.2488 116.568 -0.351222 111.468 1.24878 109.468C2.84878 107.568 9.44878 101.868 12.2488 100.068C14.9488 98.2677 18.0488 92.5677 20.8488 93.2677C23.5488 93.9677 24.8488 97.5677 26.5488 99.5677C26.7488 99.8677 26.8488 100.068 27.1488 100.268Z" fill="#192D3D"/>
<path d="M141.549 33.0677C141.549 33.0677 139.649 34.2677 137.849 35.2677C137.549 35.4677 137.249 35.5677 137.049 35.7677C135.149 36.7677 136.749 48.8677 136.749 48.8677C136.749 48.8677 135.549 46.7677 134.449 46.2677C134.249 46.1677 134.049 46.1677 133.849 46.1677C131.349 46.5677 128.049 43.3677 125.649 42.2677C122.049 40.4677 115.349 41.2677 119.049 36.7677C121.749 33.4677 122.049 29.1677 121.949 27.0677C121.949 26.2677 121.849 25.7677 121.849 25.7677L138.349 31.9677L141.549 33.0677Z" fill="#FFB4A3"/>
<path d="M137.849 35.2677C137.549 35.4677 137.249 35.5677 137.049 35.7677C135.149 36.7677 136.749 48.8677 136.749 48.8677C136.749 48.8677 135.549 46.7677 134.449 46.2677L121.849 26.8677L137.849 35.2677Z" fill="#D66154"/>
<path d="M146.549 18.5678C145.949 22.7678 147.849 23.2678 147.849 25.0678C147.949 26.8678 144.649 28.1678 144.249 28.8678C144.249 28.8678 144.149 29.9678 144.049 31.2678C144.049 31.4678 143.949 31.6678 143.949 31.8678C143.749 33.1678 143.449 34.6678 142.849 35.3678C141.749 36.9678 137.549 36.1678 133.849 34.5678C132.949 34.1678 131.849 33.7678 130.849 33.2678C128.649 32.6678 126.549 31.6678 124.849 30.3678C123.249 29.1678 122.049 27.6678 121.649 25.6678C119.449 16.9678 124.649 11.0678 131.549 8.66778C138.449 6.26778 145.149 11.5678 145.149 11.5678C145.149 11.5678 147.149 14.3678 146.549 18.5678Z" fill="#FFB4A3"/>
<path d="M140.449 19.6677C140.049 19.7677 139.649 19.5677 139.549 19.2677C139.449 19.0677 139.549 18.8677 139.549 18.7677C139.349 18.7677 139.249 18.7677 139.049 18.8677C138.349 19.0677 138.049 19.8677 138.249 20.4677C138.449 21.1677 139.249 21.4677 139.849 21.2677C140.549 21.0677 140.849 20.2677 140.649 19.6677C140.649 19.6677 140.649 19.6677 140.649 19.5677C140.649 19.5677 140.549 19.6677 140.449 19.6677Z" fill="#192D3D"/>
<path d="M136.649 18.1678C136.649 18.1678 137.949 16.2678 139.849 16.4678C141.849 16.6678 141.849 17.1678 141.749 17.3678C141.649 17.5678 140.449 17.4678 139.549 17.2678C138.649 16.9678 136.649 18.1678 136.649 18.1678Z" fill="#192D3D"/>
<path d="M144.149 31.1677C144.149 31.3677 144.049 31.5677 144.049 31.7677H143.949C142.749 31.8677 141.749 31.6677 140.849 31.1677C139.849 30.6677 139.049 29.7677 138.849 28.7677C138.849 28.5677 138.949 28.4677 139.049 28.3677C139.249 28.2677 139.349 28.4677 139.449 28.5677C139.649 29.3677 140.349 30.1677 141.149 30.5677C141.949 30.9677 142.849 31.1677 143.949 31.0677C143.949 31.1677 144.049 31.1677 144.149 31.1677Z" fill="#D66154"/>
<path d="M145.749 6.36773C146.049 6.96773 148.449 10.6677 145.849 12.7677C143.249 14.8677 141.749 14.7677 141.749 14.7677C141.749 14.7677 143.549 12.0677 142.949 12.3677C142.349 12.7677 141.849 14.3677 137.849 14.7677C133.849 15.1677 131.149 15.7677 131.949 14.7677C132.749 13.7677 134.549 12.0677 134.549 12.0677C134.549 12.0677 128.249 14.5677 127.849 16.7677C127.349 18.9677 126.649 23.2677 126.349 20.3677C126.049 17.4677 124.549 15.0677 123.949 16.4677C123.349 17.8677 121.249 21.5677 121.849 23.7677C122.449 25.9677 121.849 27.6677 121.849 27.6677C121.849 27.6677 119.649 24.8677 118.949 22.7677C118.249 20.6677 112.949 10.1677 122.349 3.56773C131.749 -3.03227 143.749 2.66773 145.749 6.36773Z" fill="#192D3D"/>
<path d="M70.9488 67.4678C71.0488 67.0678 74.1488 59.6678 75.3488 60.4678C76.5488 61.3678 81.7488 63.1678 83.1488 63.8678C84.5488 64.5678 79.0488 74.8678 77.0488 74.9678C75.0488 75.0678 68.9488 74.1678 70.9488 67.4678Z" fill="#445F72"/>
<path d="M97.9488 58.1677C97.9488 58.1677 90.5488 71.3677 89.7488 74.8677C88.9488 78.4677 88.9488 80.8677 91.3488 83.8677C93.8488 86.8677 102.749 93.1677 110.249 97.2677C117.749 101.368 120.949 100.868 123.749 104.368C126.449 107.968 125.149 112.068 128.949 113.668C132.749 115.268 136.949 113.668 137.449 110.668C137.949 107.668 137.449 101.668 133.049 98.8677C128.649 96.0677 124.549 95.5677 121.549 92.8677C118.549 90.1677 109.749 81.0677 108.349 79.6677C106.949 78.2677 111.649 69.5677 111.649 69.5677L97.9488 58.1677Z" fill="#FFB4A3"/>
<path d="M114.449 72.4677L124.149 60.0677C127.949 55.1677 126.649 47.7677 121.149 43.4677C115.649 39.1677 108.149 39.6677 104.349 44.5677L94.6488 56.9677C93.9488 57.8677 94.1488 59.2677 95.2488 60.0677L111.449 72.6677C112.349 73.4677 113.749 73.3677 114.449 72.4677Z" fill="white"/>
<path d="M135.349 48.8677C135.349 48.8677 131.449 72.1677 126.349 78.6677C121.249 85.2677 97.2488 82.1677 97.2488 82.1677L88.2488 86.2677L99.7488 93.1677C99.7488 93.1677 117.349 94.7677 126.249 84.9677C135.149 75.0677 137.949 57.1677 137.549 53.8677C137.149 50.5677 136.349 48.8677 136.349 48.8677H135.349Z" fill="#246EA0"/>
<path d="M136.349 46.0677C136.349 46.0677 137.249 46.0678 137.649 46.8678C138.049 47.6678 138.449 50.5678 137.149 51.3678C135.949 52.1678 133.349 49.7678 133.349 49.7678L136.349 46.0677Z" fill="#246EA0"/>
<path d="M113.849 37.2677C113.849 37.2677 118.949 31.4677 121.749 33.0677C124.449 34.6677 135.849 43.6677 136.349 44.3677C136.849 45.0677 134.149 50.1677 133.449 49.6677C132.749 49.1677 113.849 37.2677 113.849 37.2677Z" fill="white"/>
</svg>
