<svg width="212" height="289" viewBox="0 0 212 289" fill="none" xmlns="http://www.w3.org/2000/svg">
<path d="M131.249 44.0677C131.249 44.0677 131.249 47.0677 129.949 47.0677C129.749 47.0677 128.849 50.0677 128.649 50.1677C126.549 51.4677 122.249 49.7677 119.649 49.5677C115.649 49.2677 108.649 44.9677 110.349 39.4677C111.249 36.3677 110.749 33.2677 110.049 31.1677C109.849 30.5677 109.649 29.9677 109.449 29.5677C109.249 29.1677 109.149 28.8677 109.049 28.6677C108.949 28.5677 108.949 28.4677 108.949 28.4677L126.449 27.9677L128.649 27.8677H128.849H129.949C129.949 27.8677 129.449 28.6677 128.649 29.5677C128.249 30.0677 127.849 30.6677 127.349 31.2677C127.149 31.5677 126.949 31.7677 126.749 31.9677C126.149 32.6677 126.849 34.9677 127.949 37.3677C129.249 40.5677 131.249 44.0677 131.249 44.0677Z" fill="#FFB4A3"/>
<path d="M126.649 31.8677C126.049 32.5677 126.749 34.8677 127.849 37.2677C127.549 40.0677 127.149 42.5677 126.749 43.7677C125.849 46.2677 115.249 35.9677 110.049 31.0677C109.849 30.4677 109.649 29.8677 109.449 29.4677C109.249 29.0677 109.149 28.7677 109.049 28.5677L128.549 27.8677H128.749C128.749 27.8677 128.749 28.4677 128.649 29.5677C128.249 30.0677 127.849 30.6677 127.349 31.2677C127.049 31.4677 126.849 31.6677 126.649 31.8677Z" fill="#D66154"/>
<path d="M129.049 12.5677C129.349 13.5677 129.049 14.4677 129.349 14.9677C130.349 16.6677 132.049 16.7677 132.649 17.9677C133.349 19.5677 130.849 22.0677 130.749 22.7677C130.749 22.7677 131.149 23.7677 131.449 25.0677C131.449 25.2677 131.549 25.4677 131.649 25.6677C131.949 26.9677 132.149 28.4677 131.949 29.2677C131.449 31.1677 127.349 31.9677 123.449 31.8677C122.449 31.8677 121.349 31.8677 120.149 31.7677C117.949 31.9677 115.649 31.9677 113.549 31.3677C111.649 30.8677 109.949 29.8677 108.849 28.2677C103.549 21.0677 106.149 13.6677 111.549 8.96771C116.949 4.26771 125.149 6.56771 125.149 6.56771C125.149 6.56771 128.049 8.46771 129.049 12.5677Z" fill="#FFB4A3"/>
<path d="M123.849 15.8677C123.549 16.1677 123.149 16.0677 122.849 15.7677C122.749 15.6677 122.649 15.4677 122.649 15.2677C122.549 15.3677 122.349 15.3677 122.249 15.4677C121.749 15.9677 121.649 16.7677 122.149 17.2677C122.649 17.7677 123.449 17.8677 123.949 17.3677C124.449 16.8677 124.549 16.0677 124.049 15.5677C124.049 15.6677 123.949 15.7677 123.849 15.8677Z" fill="#192D3D"/>
<path d="M131.549 25.0677C131.549 25.2677 131.649 25.4677 131.749 25.6677H131.649C130.649 26.1677 129.549 26.3677 128.549 26.2677C127.449 26.1677 126.349 25.5677 125.749 24.7677C125.649 24.6677 125.649 24.4677 125.849 24.3677C125.949 24.2677 126.149 24.2677 126.249 24.4677C126.749 25.1677 127.649 25.5677 128.549 25.6677C129.349 25.7677 130.349 25.5677 131.249 25.0677C131.349 25.1677 131.449 25.0677 131.549 25.0677Z" fill="#D66154"/>
<path d="M123.749 1.66769C124.249 2.16769 127.849 4.56769 126.249 7.56769C124.649 10.5677 123.149 10.9677 123.149 10.9677C123.149 10.9677 123.749 7.76769 123.349 8.36769C122.849 8.96769 123.149 10.6677 119.549 12.4677C115.949 14.2677 113.749 15.8677 114.149 14.6677C114.549 13.4677 115.549 11.2677 115.549 11.2677C115.549 11.2677 110.749 15.8677 111.149 18.0677C111.549 20.2677 112.449 24.4677 111.049 21.9677C109.649 19.3677 107.449 17.6677 107.349 19.2677C107.249 20.7677 106.749 24.9677 108.149 26.7677C109.549 28.5677 109.649 30.3677 109.649 30.3677C109.649 30.3677 106.549 28.5677 105.049 26.9677C103.549 25.2677 94.7488 17.5677 100.949 8.06769C107.149 -1.43231 120.549 -1.03231 123.749 1.66769Z" fill="#192D3D"/>
<path d="M127.249 13.1677C126.149 13.3677 125.449 14.2677 125.249 14.5677C124.949 14.3677 124.549 14.2677 123.949 14.2677C122.949 14.2677 121.649 14.5677 120.749 14.8677C121.149 14.4677 121.749 13.9677 122.149 13.9677C123.049 13.8677 124.249 13.4677 124.249 13.2677C124.249 13.0677 124.049 12.5677 122.249 13.1677C121.149 13.4677 120.549 14.4677 120.149 15.1677C119.849 15.2677 119.649 15.3677 119.549 15.3677C119.349 15.4677 119.449 15.8677 119.549 16.3677L109.349 18.9677L109.549 19.5677L119.749 16.9677C120.149 18.3677 120.849 20.3677 120.949 20.6677C120.949 20.7677 121.049 20.7677 121.149 20.7677C122.249 20.7677 126.749 18.7677 126.849 18.0677C126.949 17.2677 125.549 14.8677 125.549 14.8677L125.849 15.0677C125.849 15.0677 126.449 14.0677 127.549 13.8677C128.549 13.6677 129.249 14.3677 129.249 14.3677L129.449 13.8677C129.449 13.8677 128.549 12.8677 127.249 13.1677ZM121.149 20.0677V19.9677C120.249 17.3677 120.049 16.2677 119.949 15.8677C120.749 15.5677 122.649 14.9677 123.949 14.9677C124.549 14.9677 124.749 15.0677 124.849 15.2677C125.449 16.3677 125.949 17.5677 126.049 17.9677C125.449 18.4677 122.349 19.8677 121.149 20.0677Z" fill="black"/>
<path d="M141.649 230.068L127.849 228.368C126.549 228.168 125.549 226.968 125.749 225.668L125.849 225.068C126.049 223.768 127.249 222.768 128.549 222.968L142.349 224.668C143.649 224.868 144.649 226.068 144.449 227.368L144.349 227.968C144.249 229.268 142.949 230.168 141.649 230.068Z" fill="white"/>
<path d="M136.749 254.868C131.849 255.668 132.749 252.668 128.049 250.268C123.349 247.868 124.549 245.168 125.649 241.768C127.349 238.668 128.549 234.268 128.449 228.368L141.149 229.868C140.349 236.268 139.549 243.768 139.349 245.768C139.149 247.468 140.549 249.168 142.549 250.968C142.549 251.068 141.649 254.068 136.749 254.868Z" fill="#EDEDED"/>
<path d="M151.049 265.968C149.049 267.868 136.649 261.368 132.649 258.568C128.649 255.768 125.249 255.968 122.649 254.668C120.049 253.268 120.849 248.068 124.049 244.168C124.549 243.568 125.149 242.768 125.649 241.868C126.449 242.368 127.149 243.068 127.549 244.368C128.749 248.368 133.349 252.668 137.249 252.768C140.649 252.868 139.449 250.368 142.549 251.168C143.849 252.368 145.349 253.568 146.749 254.768C150.349 257.968 153.049 264.068 151.049 265.968Z" fill="#192D3D"/>
<path d="M46.4488 189.868L40.5488 177.268C39.9488 176.068 40.5488 174.568 41.7488 174.068L42.2488 173.868C43.4488 173.268 44.9488 173.868 45.4488 175.068L51.3488 187.668C51.9488 188.868 51.3488 190.368 50.1488 190.868L49.6488 191.068C48.4488 191.668 47.0488 191.068 46.4488 189.868Z" fill="white"/>
<path d="M22.7488 198.768C19.4488 195.068 22.5488 194.268 22.0488 188.968C21.5488 183.668 24.5488 183.368 27.9488 182.468C31.4488 182.268 35.8488 180.968 40.8488 177.768L46.2488 189.368C40.4488 192.068 33.6488 195.368 31.7488 196.168C30.1488 196.868 29.5488 199.068 29.0488 201.668C29.0488 201.768 26.0488 202.568 22.7488 198.768Z" fill="#EDEDED"/>
<path d="M20.9488 216.868C18.2488 216.168 17.2488 202.168 17.4488 197.268C17.6488 192.368 15.7488 189.568 15.5488 186.668C15.3488 183.768 20.1488 181.668 25.2488 182.368C26.0488 182.468 27.0488 182.568 28.0488 182.468C28.0488 183.368 27.8488 184.368 26.9488 185.368C24.2488 188.468 22.9488 194.668 24.9488 198.068C26.6488 200.968 28.0488 198.668 29.1488 201.768C28.8488 203.468 28.6488 205.368 28.2488 207.268C27.3488 211.968 23.6488 217.568 20.9488 216.868Z" fill="#192D3D"/>
<path d="M138.449 112.468C138.449 112.468 131.049 143.468 126.849 147.268C122.649 151.068 102.849 178.368 98.5488 178.668C94.1488 178.968 37.0488 199.468 36.1488 195.668C35.1488 191.868 30.3488 181.268 31.9488 179.268C33.5488 177.368 77.8488 160.068 79.7488 157.768C81.6488 155.468 96.2488 106.968 96.2488 106.968L138.449 112.468Z" fill="#678693"/>
<path d="M95.7488 101.468C95.7488 101.468 88.3488 115.568 95.7488 129.068C103.149 142.568 126.549 160.868 129.449 164.068C132.349 167.268 132.349 171.768 131.049 178.468C129.749 185.168 126.249 217.868 125.249 224.368C124.249 230.768 127.449 231.468 129.449 232.668C131.349 233.968 140.049 238.168 143.249 236.168C146.449 234.168 148.049 225.868 150.349 214.968C152.549 204.068 159.349 169.068 159.049 164.968C158.749 160.768 138.549 132.868 134.949 128.068C131.449 123.268 126.949 115.768 126.949 115.768L95.7488 101.468Z" fill="#8FA8B5"/>
<path d="M166.449 55.5677L147.649 56.4677L144.449 41.3677L153.549 39.9677L166.449 55.5677Z" fill="#FA8977"/>
<path d="M154.749 27.9677C155.849 28.5677 173.949 45.0677 174.249 48.6677C174.449 52.2677 167.749 55.9677 164.549 55.7677C161.349 55.5677 153.549 44.7677 149.549 40.2677C145.549 35.7677 138.749 26.8677 139.649 24.8677C140.549 22.8677 147.149 20.8677 149.349 22.8677C151.549 24.8677 154.749 27.9677 154.749 27.9677Z" fill="#FFB4A3"/>
<path d="M151.549 18.6677C151.549 18.6677 151.149 24.4677 152.049 25.3677C153.049 26.2677 142.849 31.8677 141.949 30.4677C141.049 29.0677 138.049 24.5677 138.049 24.5677L151.549 18.6677Z" fill="#FA8977"/>
<path d="M131.049 43.0677C131.049 43.0677 145.949 40.6677 146.149 41.5677C146.349 42.4677 152.949 57.8677 151.049 58.5677C149.149 59.1677 142.549 60.6677 138.549 69.9677C134.549 79.2677 131.049 43.0677 131.049 43.0677Z" fill="#D1D1D1"/>
<path d="M107.449 38.7677C107.449 38.7677 99.7488 41.1677 97.8488 42.0677C95.9488 42.9677 92.0488 60.2677 94.1488 69.0677C96.2488 77.8677 99.6488 81.8677 96.2488 92.1677C92.8488 102.468 94.3488 104.868 96.2488 107.068C98.1488 109.268 110.049 112.968 118.649 115.268C127.349 117.468 137.849 113.668 140.149 111.268C142.349 108.868 139.949 95.5677 139.349 87.3677C138.749 79.1677 138.549 58.4677 136.749 53.8677C134.949 49.1677 130.949 44.0677 129.649 44.8677C128.349 45.6677 125.549 47.5677 124.149 46.6677C122.949 45.6677 107.449 38.7677 107.449 38.7677Z" fill="#EDEDED"/>
<path d="M123.949 52.6677H126.849C126.849 52.6677 127.449 64.9677 118.549 82.1677C109.649 99.3677 92.4488 107.168 89.2488 107.568L81.7488 103.968L85.8488 99.2677C85.8488 99.2677 97.1488 99.2677 105.349 90.0677C113.449 80.8677 120.349 66.1677 122.449 60.5677C124.449 55.1677 123.949 52.6677 123.949 52.6677Z" fill="#8FA8B5"/>
<path d="M121.849 49.0677C121.849 49.0677 122.949 52.6677 123.949 52.6677C124.949 52.6677 126.849 52.6677 126.849 52.6677C126.849 52.6677 128.749 49.9677 128.149 49.0677C127.549 48.1677 121.849 49.0677 121.849 49.0677Z" fill="#678693"/>
<path d="M115.349 37.2677C115.349 37.2677 125.649 45.2677 124.349 46.5677C123.049 47.8677 120.749 53.9677 119.949 52.3677C119.149 50.7677 106.049 40.6677 107.449 38.7677C108.849 36.8677 110.049 34.2677 111.149 35.2677C112.249 36.1677 115.349 37.2677 115.349 37.2677Z" fill="white"/>
<path d="M126.849 51.2677C126.849 51.2677 124.749 46.7677 125.549 45.7677C126.349 44.7677 129.049 43.9677 128.549 42.5677C128.049 41.1677 128.049 41.1677 128.049 41.1677C128.049 41.1677 131.049 42.2677 132.249 44.9677C133.449 47.7677 133.449 47.7677 133.449 47.7677C133.449 47.7677 127.549 52.9677 126.849 51.2677Z" fill="white"/>
<path d="M86.2488 55.7677C86.2488 55.7677 80.3488 66.7677 77.7488 70.6677C75.1488 74.4677 73.5488 77.8677 70.8488 81.0677C68.1488 84.2677 62.1487 99.1677 60.5487 101.268C58.9487 103.368 53.9488 108.968 53.6488 111.068C53.3488 113.168 53.8488 117.868 56.8488 115.868C59.8488 113.868 62.7488 111.168 62.7488 112.168C62.7488 113.168 62.2488 116.468 63.3488 115.068C64.4488 113.668 66.8488 109.968 67.3488 107.568C67.8488 105.168 68.2488 103.768 69.7488 101.668C71.3488 99.5677 82.6488 82.0677 84.3488 80.1677C86.0488 78.2677 88.3488 76.8677 91.3488 73.7677C94.3488 70.6677 98.2488 65.5677 98.2488 65.5677L86.2488 55.7677Z" fill="#FFB4A3"/>
<path d="M102.149 69.3677L110.549 58.5677C113.849 54.3677 112.649 47.8677 107.949 44.1677C103.149 40.4677 96.6488 40.8677 93.3488 45.0677L84.9488 55.8677C84.3488 56.6677 84.5488 57.8677 85.4488 58.5677L99.4488 69.5677C100.349 70.1677 101.549 70.1677 102.149 69.3677Z" fill="white"/>
<path d="M141.749 17.6677C141.749 17.6677 135.349 20.4677 137.449 24.4677C139.549 28.4677 142.749 27.1677 146.049 25.7677C149.349 24.3677 152.049 20.6677 151.549 18.6677C150.949 16.7677 146.449 16.1677 141.749 17.6677Z" fill="#FFB4A3"/>
<path d="M211.149 276.768C211.149 279.168 204.849 281.468 193.949 283.368C193.249 283.468 192.449 283.668 191.649 283.768C172.549 286.868 141.249 288.868 105.749 288.868C100.149 288.868 94.6488 288.768 89.3488 288.768C89.0488 288.768 88.7488 288.768 88.4488 288.768C38.5488 287.868 0.448792 282.868 0.448792 276.968C0.448792 273.868 10.4488 271.168 26.9488 268.968C27.7488 268.868 28.5488 268.768 29.3488 268.668C48.5488 266.368 75.6488 264.968 105.749 264.968C149.449 264.968 186.949 267.968 202.849 272.368C203.849 272.668 204.749 272.868 205.549 273.168C209.149 274.168 211.149 275.368 211.149 276.768Z" fill="#ACBF40"/>
<path d="M115.349 277.568C115.349 278.168 114.749 278.668 111.149 279.268C99.8488 281.168 89.7488 285.568 89.4488 288.568C89.1488 288.568 88.8488 288.568 88.5488 288.568C88.9488 284.268 101.649 279.968 111.049 278.368C113.249 277.968 114.149 277.668 114.449 277.568C112.449 276.468 96.6488 275.268 81.3488 274.168C64.8488 272.968 46.1488 271.668 32.0488 269.668C29.7488 269.368 28.1488 268.968 27.0488 268.668C27.8488 268.568 28.6488 268.468 29.4488 268.368C30.1488 268.568 31.0488 268.668 32.1488 268.768C46.1488 270.668 64.8488 272.068 81.3488 273.268C108.449 275.368 115.249 276.068 115.349 277.568Z" fill="#82942F"/>
<path d="M157.149 272.468C157.349 274.268 176.149 279.768 193.849 283.268C193.149 283.368 192.349 283.568 191.549 283.668C177.349 280.668 155.849 275.268 156.249 272.368C156.349 271.368 157.949 270.568 168.349 271.268C181.049 272.068 193.049 272.268 202.849 272.168C203.849 272.468 204.749 272.668 205.549 272.968C195.349 273.168 182.149 273.068 168.349 272.168C158.249 271.468 157.249 272.268 157.149 272.468Z" fill="#82942F"/>
<path opacity="0.28" d="M102.949 283.768C137.632 283.768 165.749 281.619 165.749 278.968C165.749 276.317 137.632 274.168 102.949 274.168C68.2653 274.168 40.1488 276.317 40.1488 278.968C40.1488 281.619 68.2653 283.768 102.949 283.768Z" fill="#263C29"/>
</svg>
