<svg width="249" height="221" viewBox="0 0 249 221" fill="none" xmlns="http://www.w3.org/2000/svg">
<path d="M248.149 208.768C248.149 211.168 240.749 213.468 227.949 215.368C227.049 215.468 226.149 215.668 225.249 215.768C202.749 218.868 165.849 220.868 124.149 220.868C117.549 220.868 111.149 220.768 104.749 220.768C104.449 220.768 104.049 220.768 103.749 220.768C44.9488 219.868 0.148804 214.868 0.148804 208.968C0.148804 205.868 11.9488 203.168 31.3488 200.968C32.2488 200.868 33.2488 200.768 34.1488 200.668C56.7488 198.368 88.6488 196.968 124.049 196.968C175.549 196.968 219.649 199.968 238.449 204.368C239.649 204.668 240.649 204.868 241.649 205.168C245.849 206.168 248.149 207.468 248.149 208.768Z" fill="#ACBF40"/>
<path d="M135.349 209.668C135.349 210.268 134.649 210.768 130.349 211.368C117.049 213.268 105.149 217.668 104.749 220.668C104.449 220.668 104.049 220.668 103.749 220.668C104.149 216.368 119.149 212.068 130.149 210.468C132.749 210.068 133.749 209.768 134.149 209.668C131.749 208.568 113.249 207.368 95.2488 206.268C75.8488 205.068 53.7488 203.768 37.2488 201.768C34.5488 201.468 32.6488 201.068 31.4488 200.768C32.3488 200.668 33.3488 200.568 34.2488 200.468C35.1488 200.668 36.1488 200.768 37.4488 200.868C53.9488 202.768 75.9488 204.168 95.4488 205.368C127.249 207.368 135.249 208.068 135.349 209.668Z" fill="#82942F"/>
<path d="M184.649 204.568C184.949 206.368 207.049 211.868 227.849 215.368C226.949 215.468 226.049 215.668 225.149 215.768C208.449 212.768 183.149 207.368 183.549 204.468C183.649 203.468 185.549 202.668 197.849 203.368C212.749 204.168 226.949 204.368 238.449 204.268C239.649 204.568 240.649 204.768 241.649 205.068C229.549 205.268 214.149 205.168 197.749 204.268C185.949 203.468 184.749 204.368 184.649 204.568Z" fill="#82942F"/>
<path opacity="0.28" d="M120.849 215.768C167.296 215.768 204.949 213.619 204.949 210.968C204.949 208.317 167.296 206.168 120.849 206.168C74.4017 206.168 36.7488 208.317 36.7488 210.968C36.7488 213.619 74.4017 215.768 120.849 215.768Z" fill="#263C29"/>
<path d="M115.949 43.5677C116.449 44.9677 119.949 49.6678 118.949 53.3678C117.949 57.0678 116.949 57.6678 117.649 58.1678C118.349 58.5678 129.549 62.6678 129.549 62.6678L130.749 48.8678L115.949 43.5677Z" fill="#FA8977"/>
<path d="M118.949 42.9678C118.949 42.9678 123.349 54.6678 121.449 59.5678C119.549 64.4678 127.349 65.9678 127.349 65.9678L141.049 62.5678C141.049 62.5678 136.549 51.6678 136.549 47.6678C136.449 43.8678 118.949 42.9678 118.949 42.9678Z" fill="#FA8977"/>
<path d="M138.249 28.3678C137.849 28.4678 141.649 36.3678 140.949 41.9678C140.249 47.5678 140.549 48.2678 139.649 49.4678C138.749 50.5678 134.649 53.1678 128.049 51.8678C121.449 50.5678 119.649 49.4678 117.149 45.2678C114.649 41.0678 110.749 35.1678 117.149 29.8678C123.549 24.5678 129.349 19.4678 133.949 20.3678C138.349 21.3678 138.249 28.3678 138.249 28.3678Z" fill="#FFB4A3"/>
<path d="M140.349 37.8677C140.349 37.8677 142.349 42.9677 141.049 47.8677C139.749 52.7677 135.949 53.8677 132.049 53.1677C128.149 52.4677 120.549 52.1677 117.349 45.7677C114.149 39.4677 140.349 37.8677 140.349 37.8677Z" fill="#FFB4A3"/>
<path d="M141.749 53.9678H137.849L138.749 57.3678L141.349 55.6678L141.749 53.9678Z" fill="#D1D1D1"/>
<path d="M60.8488 188.168C60.8488 188.168 51.1488 187.868 50.6488 190.268C50.3488 191.968 48.4488 192.368 47.0488 195.568C46.4488 197.068 45.8488 199.068 45.5488 202.068C44.7488 211.768 43.0488 211.868 38.5488 212.368C33.9488 212.968 33.3488 197.868 35.7488 191.668C38.1488 185.468 35.2488 178.068 37.1488 174.868C38.1488 173.268 43.9488 172.768 49.3488 172.568C54.5488 172.468 59.4488 172.668 59.4488 172.668L60.8488 188.168Z" fill="#192D3D"/>
<path d="M145.949 124.068C145.949 124.068 147.349 165.768 145.949 174.068C144.549 182.368 140.849 193.268 139.449 194.468C138.049 195.668 99.7488 193.268 87.8488 194.468C76.0488 195.668 71.2488 195.868 71.2488 194.768C71.2488 193.668 68.4488 173.568 69.1488 173.568C69.8488 173.568 88.5488 169.768 99.2488 169.268C109.949 168.768 115.249 165.268 115.249 165.268C115.249 165.268 113.249 141.868 115.249 132.468C117.349 123.168 145.949 124.068 145.949 124.068Z" fill="#2B2D4F"/>
<path d="M146.649 165.568C146.649 165.568 182.849 143.268 188.849 132.568C194.849 121.868 198.749 116.368 193.649 109.368C188.549 102.368 165.849 114.768 161.849 117.768C157.949 120.668 145.249 129.568 145.249 129.568L146.649 165.568Z" fill="#1E2138"/>
<path d="M185.649 107.368C185.649 107.368 169.049 111.668 173.249 127.868C177.449 144.068 177.549 182.568 179.149 187.168C180.749 191.768 197.449 189.968 197.849 187.168C198.249 184.368 201.149 118.568 196.149 111.468C191.149 104.368 185.649 107.368 185.649 107.368Z" fill="#1E2138"/>
<path d="M60.8488 188.168C60.8488 188.168 51.1488 187.868 50.6488 190.268C50.3488 191.968 48.4487 192.368 47.0487 195.568C44.7487 191.168 45.5487 183.568 48.7487 180.468C50.5487 178.768 50.2488 175.568 49.3488 172.668C54.5488 172.568 59.4488 172.768 59.4488 172.768L60.8488 188.168Z" fill="#EDEDED"/>
<path d="M196.849 189.168C196.849 189.168 196.949 198.868 199.449 199.168C201.149 199.368 201.649 201.268 204.849 202.468C206.349 203.068 208.449 203.468 211.449 203.568C221.149 203.968 221.349 205.568 222.149 210.068C222.949 214.568 207.949 215.968 201.649 213.868C195.349 211.768 188.049 215.068 184.849 213.268C183.149 212.368 182.349 206.668 181.949 201.268C181.549 196.068 181.549 191.168 181.549 191.168L196.849 189.168Z" fill="#192D3D"/>
<path d="M196.849 189.168C196.849 189.168 196.949 198.868 199.449 199.168C201.149 199.368 201.649 201.268 204.849 202.468C200.549 204.968 192.849 204.568 189.749 201.568C187.949 199.868 184.749 200.368 181.949 201.268C181.549 196.068 181.549 191.168 181.549 191.168L196.849 189.168Z" fill="#EDEDED"/>
<path d="M133.749 61.4677L136.049 63.8677V60.7677L143.849 66.0677L157.849 120.668C157.849 120.668 152.549 128.068 147.549 131.068C142.549 134.068 123.549 132.568 123.549 132.568L126.449 62.5677L133.749 61.4677Z" fill="#EDEDED"/>
<path d="M110.149 31.9677C110.149 31.9677 111.049 29.7677 109.049 28.3677C107.049 26.9677 106.349 26.3677 106.349 26.3677C106.349 26.3677 109.349 26.0677 110.649 26.3677C111.949 26.6677 111.949 25.3677 111.949 25.3677C111.949 25.3677 109.449 21.4677 110.249 21.9677C110.949 22.3677 113.849 23.0677 115.449 21.9677C117.049 20.8677 119.049 18.8677 120.949 16.8677C122.849 14.8677 128.749 13.2677 128.749 13.2677L127.449 15.6677C127.449 15.6677 133.749 15.6677 137.349 19.8677C141.049 24.0677 141.349 33.6677 140.849 32.9677C140.449 32.2677 135.949 30.0677 137.349 31.2677C138.749 32.3677 140.449 34.1677 140.449 34.1677C140.449 34.1677 134.149 32.1677 132.749 31.4677C131.349 30.7677 131.349 30.7677 131.349 30.7677C131.349 30.7677 132.849 32.9677 132.749 32.9677C132.649 32.9677 125.849 32.3677 125.849 32.3677C125.849 32.3677 121.349 33.0677 120.049 32.0677C118.749 31.0677 118.749 31.0677 118.749 31.0677C118.749 31.0677 118.949 35.3677 117.749 36.9677C116.549 38.5677 121.349 45.1677 120.049 44.2677C118.749 43.3677 115.349 38.0677 116.049 41.2677C116.749 44.4677 118.049 48.7677 117.749 47.9677C117.449 47.2677 112.549 40.4677 111.449 37.1677C110.149 33.6677 110.149 31.9677 110.149 31.9677Z" fill="#192D3D"/>
<path d="M186.349 12.3677C186.349 12.3677 190.649 2.76774 197.349 1.36774C204.149 -0.0322626 205.849 -0.432263 204.849 1.36774C203.749 3.16774 199.349 7.06774 200.249 7.76774C201.149 8.46774 204.249 13.9677 197.749 15.9677C191.249 17.9677 190.649 23.7677 190.649 23.7677L186.349 12.3677Z" fill="#FFB4A3"/>
<path d="M85.4488 137.468C85.4488 137.468 82.4488 139.268 81.1488 144.968C79.7488 150.668 79.5488 155.068 82.1488 152.868C84.7488 150.568 87.8488 147.168 87.8488 148.168C87.8488 149.168 87.0488 153.168 88.5488 151.368C90.0488 149.568 91.2488 143.268 91.2488 143.268L85.4488 137.468Z" fill="#FFB4A3"/>
<path d="M125.349 58.0677C125.349 58.0677 133.649 59.1678 133.849 61.4678C134.049 63.7678 132.649 67.1678 132.649 67.1678L127.049 63.6678L125.349 58.0677Z" fill="white"/>
<path d="M141.349 55.6677C141.349 55.6677 135.549 58.7677 136.049 60.6677C136.549 62.6677 137.349 65.9677 137.349 65.9677L139.749 64.9677L139.549 63.4677L141.349 55.6677Z" fill="white"/>
<path d="M135.349 129.568C135.349 130.268 135.249 130.968 135.149 131.768C134.249 137.668 130.249 146.168 123.949 145.068C116.849 143.768 105.949 144.468 107.849 137.568C109.549 131.168 113.849 101.868 111.749 92.0678C111.549 91.1678 111.249 90.3678 110.949 89.8678C109.249 86.2678 96.0488 141.268 94.2488 143.368C92.5488 145.468 93.3488 146.668 84.1488 140.768C74.9488 134.868 89.3488 93.3678 93.8488 79.3678C98.3488 65.3678 107.349 57.5678 107.349 57.5678L114.649 53.9678C114.649 53.9678 114.949 53.9678 115.249 54.0678C116.949 54.3678 121.949 55.4678 123.849 57.0678C124.649 57.6678 125.549 59.7678 126.449 62.5678C128.449 68.1678 130.649 76.6678 132.549 80.7678C134.549 85.1678 135.049 104.968 135.149 118.168C135.349 123.568 135.349 127.868 135.349 129.568Z" fill="#246EA0"/>
<path d="M184.149 36.6677C176.649 43.4677 155.949 69.2677 155.449 69.8677L161.849 117.668C161.849 117.668 160.249 118.868 157.949 120.568C155.949 116.568 153.449 110.068 151.149 103.468C147.849 94.1677 144.749 84.9677 143.649 82.7677C142.249 80.0677 140.649 70.8677 139.549 63.5677C139.549 63.4677 139.549 63.4677 139.549 63.4677C142.149 62.4677 143.149 58.9677 141.749 56.4677C141.549 56.1677 141.449 55.8677 141.349 55.5677C141.149 54.6677 141.349 54.1677 141.749 53.8677C142.149 53.4677 142.649 53.3677 142.649 53.3677C142.649 53.3677 157.849 40.3677 162.749 34.6677C167.749 28.9677 184.349 9.76773 185.249 9.36773C186.149 8.86773 193.349 20.9677 193.549 22.3677C193.849 23.8677 191.749 29.7677 184.149 36.6677Z" fill="#246EA0"/>
<path d="M132.749 80.7678C134.749 85.1678 135.249 104.968 135.349 118.168C131.549 106.368 128.949 93.5678 125.249 84.7678C121.549 75.9678 124.549 75.5678 125.149 73.6678C125.749 71.7678 122.749 71.1678 120.249 70.5678C117.849 69.9678 115.549 55.5678 115.249 54.0678C116.949 54.3678 119.749 52.9678 121.749 54.4678C122.549 55.0678 125.949 59.3678 126.949 62.0678C128.949 67.7678 130.849 76.5678 132.749 80.7678Z" fill="#46A1D3"/>
<path d="M151.049 103.568C147.749 94.2678 144.649 85.0678 143.549 82.8678C142.149 80.1678 140.549 70.9678 139.449 63.6678C139.449 63.5678 139.449 63.5678 139.449 63.5678L141.249 55.6678L141.649 53.9678C141.649 53.9678 146.149 65.0678 146.349 66.5678C146.549 67.9678 143.749 70.8678 143.749 70.8678C143.749 70.8678 145.149 72.0678 146.149 72.5678C147.149 72.8678 150.949 102.668 151.049 103.568Z" fill="#46A1D3"/>
<path d="M66.2488 199.168H63.1488C59.2488 199.168 56.1488 196.068 56.1488 192.168V174.468C56.1488 170.568 59.2488 167.468 63.1488 167.468H66.2488C70.1488 167.468 73.2488 170.568 73.2488 174.468V192.168C73.2488 196.068 70.1488 199.168 66.2488 199.168Z" fill="#474C77"/>
<path d="M178.949 195.368C178.949 195.368 174.149 183.568 177.049 180.268C179.949 176.968 200.349 173.768 201.449 176.568C202.549 179.368 201.449 192.968 201.449 192.968C201.449 193.068 180.649 200.368 178.949 195.368Z" fill="#2B2D4F"/>
<path d="M141.249 34.8677C141.249 34.7677 141.049 34.7677 140.749 34.7677C139.249 34.7677 135.049 35.4677 134.949 35.7677C134.949 35.8677 134.949 35.9677 134.949 36.1677C134.549 35.9677 133.949 35.7677 133.349 35.8677C132.849 35.9677 132.349 36.2677 131.949 36.5677C131.949 36.1677 131.949 35.8677 131.849 35.7677C131.749 35.6677 131.249 35.5677 130.449 35.5677C128.249 35.5677 124.449 35.8677 124.549 36.2677C124.549 36.2677 124.549 36.6677 124.649 37.1677L117.549 38.1677L117.649 38.9677L124.749 37.9677C125.049 39.0677 125.449 40.3677 126.049 40.3677C126.049 40.3677 126.049 40.3677 126.149 40.3677C127.349 40.2677 131.749 39.7677 131.749 39.2677C131.749 39.0677 131.849 38.2677 131.849 37.4677C131.849 37.4677 132.649 36.7677 133.349 36.5677C133.849 36.4677 134.649 36.8677 134.849 37.0677L134.949 36.8677C135.149 37.5677 135.349 38.4677 135.449 38.6677C135.449 38.7677 135.849 38.7677 136.349 38.7677C137.549 38.7677 139.649 38.5677 140.349 38.4677C141.649 38.5677 141.249 34.8677 141.249 34.8677ZM131.149 38.8677C130.649 38.9677 129.449 39.2677 126.349 39.5677C126.049 39.2677 125.749 38.0677 125.549 36.8677C126.549 36.6677 128.849 36.4677 130.549 36.4677C130.849 36.4677 131.049 36.4677 131.249 36.4677C131.249 37.0677 131.249 38.1677 131.149 38.8677ZM140.349 37.8677C139.549 37.9677 137.749 38.1677 136.649 38.1677C136.549 38.1677 136.449 38.1677 136.349 38.1677C136.249 37.6677 136.049 36.8677 135.949 36.3677C136.949 36.0677 139.249 35.7677 140.549 35.6677C140.549 36.5677 140.449 37.4677 140.349 37.8677Z" fill="black"/>
<path d="M136.049 46.9678C135.049 48.1678 133.549 48.0678 132.349 47.4678C131.549 47.0678 131.249 48.9678 132.049 49.3678C133.549 50.0678 135.449 50.1678 136.749 48.6678C137.349 47.8678 136.749 46.1678 136.049 46.9678Z" fill="#D66154"/>
<path d="M133.449 40.4678C133.449 40.4678 131.049 42.3678 132.349 43.0678C133.649 43.7678 134.449 43.7678 134.249 43.0678C134.149 42.3678 133.449 40.4678 133.449 40.4678Z" fill="#FA8977"/>
<path d="M129.049 37.8677C128.749 37.8677 128.549 37.6677 128.549 37.3677C128.549 37.2677 128.649 37.0677 128.749 36.9677C128.649 36.9677 128.549 36.8677 128.449 36.8677C127.949 36.8677 127.549 37.2677 127.549 37.7677C127.549 38.2677 127.949 38.6677 128.449 38.6677C128.949 38.6677 129.349 38.2677 129.349 37.7677V37.6677C129.249 37.8677 129.149 37.8677 129.049 37.8677Z" fill="#192D3D"/>
<path d="M138.549 36.8678C138.349 36.8678 138.149 36.6678 138.149 36.4678C138.149 36.3678 138.249 36.2678 138.249 36.1678C138.149 36.1678 138.049 36.0677 137.949 36.0677C137.549 36.0677 137.149 36.4678 137.149 36.8678C137.149 37.2678 137.549 37.6678 137.949 37.6678C138.349 37.6678 138.749 37.2678 138.749 36.8678C138.749 36.8678 138.749 36.8678 138.749 36.7678C138.749 36.8678 138.649 36.8678 138.549 36.8678Z" fill="#192D3D"/>
<path d="M126.049 35.2678C126.049 35.2678 125.949 34.7678 127.349 34.4678C128.749 34.1678 129.149 34.3678 129.249 34.4678C129.349 34.5678 128.749 34.4678 128.049 34.7678C127.349 35.0678 126.049 35.2678 126.049 35.2678Z" fill="#192D3D"/>
<path d="M136.249 34.3677C136.249 34.3677 137.249 33.9677 137.949 34.0677C138.649 34.1677 138.749 34.3677 138.749 34.3677C138.749 34.4677 136.249 34.3677 136.249 34.3677Z" fill="#192D3D"/>
</svg>
