<svg width="421" height="240" viewBox="0 0 421 240" fill="none" xmlns="http://www.w3.org/2000/svg">
<path d="M57.072 143.782C57.584 143.782 58.032 143.99 58.416 144.406L62.112 148.39C59.296 151.654 55.872 154.198 51.84 156.022C47.84 157.846 42.992 158.758 37.296 158.758C32.368 158.758 27.888 157.91 23.856 156.214C19.824 154.486 16.384 152.086 13.536 149.014C10.688 145.91 8.48 142.198 6.912 137.878C5.344 133.558 4.56 128.806 4.56 123.622C4.56 118.438 5.376 113.686 7.008 109.366C8.64 105.046 10.928 101.334 13.872 98.2297C16.848 95.1257 20.4 92.7257 24.528 91.0297C28.656 89.3017 33.216 88.4377 38.208 88.4377C43.104 88.4377 47.424 89.2217 51.168 90.7897C54.912 92.3577 58.208 94.4857 61.056 97.1737L57.984 101.446C57.792 101.766 57.536 102.038 57.216 102.262C56.928 102.454 56.528 102.55 56.016 102.55C55.44 102.55 54.736 102.246 53.904 101.638C53.072 100.998 51.984 100.294 50.64 99.5257C49.296 98.7577 47.616 98.0697 45.6 97.4617C43.584 96.8217 41.104 96.5017 38.16 96.5017C34.608 96.5017 31.36 97.1257 28.416 98.3737C25.472 99.5897 22.928 101.366 20.784 103.702C18.672 106.038 17.024 108.886 15.84 112.246C14.656 115.606 14.064 119.398 14.064 123.622C14.064 127.91 14.672 131.734 15.888 135.094C17.136 138.454 18.816 141.302 20.928 143.638C23.072 145.942 25.584 147.702 28.464 148.918C31.376 150.134 34.512 150.742 37.872 150.742C39.92 150.742 41.76 150.63 43.392 150.406C45.056 150.15 46.576 149.766 47.952 149.254C49.36 148.742 50.656 148.102 51.84 147.334C53.056 146.534 54.256 145.59 55.44 144.502C55.984 144.022 56.528 143.782 57.072 143.782ZM90.4515 108.598C94.0035 108.598 97.2035 109.19 100.052 110.374C102.9 111.558 105.332 113.238 107.348 115.414C109.364 117.59 110.9 120.23 111.956 123.334C113.044 126.406 113.588 129.846 113.588 133.654C113.588 137.494 113.044 140.95 111.956 144.022C110.9 147.094 109.364 149.718 107.348 151.894C105.332 154.07 102.9 155.75 100.052 156.934C97.2035 158.086 94.0035 158.662 90.4515 158.662C86.8675 158.662 83.6355 158.086 80.7555 156.934C77.9075 155.75 75.4755 154.07 73.4595 151.894C71.4435 149.718 69.8915 147.094 68.8035 144.022C67.7475 140.95 67.2195 137.494 67.2195 133.654C67.2195 129.846 67.7475 126.406 68.8035 123.334C69.8915 120.23 71.4435 117.59 73.4595 115.414C75.4755 113.238 77.9075 111.558 80.7555 110.374C83.6355 109.19 86.8675 108.598 90.4515 108.598ZM90.4515 151.99C95.2515 151.99 98.8355 150.39 101.204 147.19C103.572 143.958 104.756 139.462 104.756 133.702C104.756 127.91 103.572 123.398 101.204 120.166C98.8355 116.934 95.2515 115.318 90.4515 115.318C88.0195 115.318 85.8915 115.734 84.0675 116.566C82.2755 117.398 80.7715 118.598 79.5555 120.166C78.3715 121.734 77.4755 123.67 76.8675 125.974C76.2915 128.246 76.0035 130.822 76.0035 133.702C76.0035 139.462 77.1875 143.958 79.5555 147.19C81.9555 150.39 85.5875 151.99 90.4515 151.99ZM132.488 116.422C133.544 115.238 134.664 114.166 135.848 113.206C137.032 112.246 138.28 111.43 139.592 110.758C140.936 110.054 142.344 109.526 143.816 109.174C145.32 108.79 146.936 108.598 148.664 108.598C151.32 108.598 153.656 109.046 155.672 109.942C157.72 110.806 159.416 112.054 160.76 113.686C162.136 115.286 163.176 117.222 163.88 119.494C164.584 121.766 164.936 124.278 164.936 127.03V157.99H156.344V127.03C156.344 123.35 155.496 120.502 153.8 118.486C152.136 116.438 149.592 115.414 146.168 115.414C143.64 115.414 141.272 116.022 139.064 117.238C136.888 118.454 134.872 120.102 133.016 122.182V157.99H124.424V109.366H129.56C130.776 109.366 131.528 109.958 131.816 111.142L132.488 116.422ZM186.02 116.422C187.076 115.238 188.196 114.166 189.38 113.206C190.564 112.246 191.812 111.43 193.124 110.758C194.468 110.054 195.876 109.526 197.348 109.174C198.852 108.79 200.468 108.598 202.196 108.598C204.852 108.598 207.188 109.046 209.204 109.942C211.252 110.806 212.948 112.054 214.292 113.686C215.668 115.286 216.708 117.222 217.412 119.494C218.116 121.766 218.468 124.278 218.468 127.03V157.99H209.876V127.03C209.876 123.35 209.028 120.502 207.332 118.486C205.668 116.438 203.124 115.414 199.7 115.414C197.172 115.414 194.804 116.022 192.596 117.238C190.42 118.454 188.404 120.102 186.548 122.182V157.99H177.956V109.366H183.092C184.308 109.366 185.06 109.958 185.348 111.142L186.02 116.422ZM264.031 128.374C264.031 126.39 263.743 124.582 263.167 122.95C262.623 121.286 261.807 119.862 260.719 118.678C259.663 117.462 258.367 116.534 256.831 115.894C255.295 115.222 253.551 114.886 251.599 114.886C247.503 114.886 244.255 116.086 241.855 118.486C239.487 120.854 238.015 124.15 237.439 128.374H264.031ZM270.943 151.174C269.887 152.454 268.623 153.574 267.151 154.534C265.679 155.462 264.095 156.23 262.399 156.838C260.735 157.446 259.007 157.894 257.215 158.182C255.423 158.502 253.647 158.662 251.887 158.662C248.527 158.662 245.423 158.102 242.575 156.982C239.759 155.83 237.311 154.166 235.231 151.99C233.183 149.782 231.583 147.062 230.431 143.83C229.279 140.598 228.703 136.886 228.703 132.694C228.703 129.302 229.215 126.134 230.239 123.19C231.295 120.246 232.799 117.702 234.751 115.558C236.703 113.382 239.087 111.686 241.903 110.47C244.719 109.222 247.887 108.598 251.407 108.598C254.319 108.598 257.007 109.094 259.471 110.086C261.967 111.046 264.111 112.454 265.903 114.31C267.727 116.134 269.151 118.406 270.175 121.126C271.199 123.814 271.711 126.886 271.711 130.342C271.711 131.686 271.567 132.582 271.279 133.03C270.991 133.478 270.447 133.702 269.647 133.702H237.151C237.247 136.774 237.663 139.446 238.399 141.718C239.167 143.99 240.223 145.894 241.567 147.43C242.911 148.934 244.511 150.07 246.367 150.838C248.223 151.574 250.303 151.942 252.607 151.942C254.751 151.942 256.591 151.702 258.127 151.222C259.695 150.71 261.039 150.166 262.159 149.59C263.279 149.014 264.207 148.486 264.943 148.006C265.711 147.494 266.367 147.238 266.911 147.238C267.615 147.238 268.159 147.51 268.543 148.054L270.943 151.174ZM316.046 118.006C315.79 118.358 315.534 118.63 315.278 118.822C315.022 119.014 314.67 119.11 314.222 119.11C313.742 119.11 313.214 118.918 312.638 118.534C312.062 118.118 311.342 117.67 310.478 117.19C309.646 116.71 308.606 116.278 307.358 115.894C306.142 115.478 304.638 115.27 302.846 115.27C300.446 115.27 298.334 115.702 296.51 116.566C294.686 117.398 293.15 118.614 291.902 120.214C290.686 121.814 289.758 123.75 289.118 126.022C288.51 128.294 288.206 130.838 288.206 133.654C288.206 136.598 288.542 139.222 289.214 141.526C289.886 143.798 290.83 145.718 292.046 147.286C293.294 148.822 294.782 150.006 296.51 150.838C298.27 151.638 300.238 152.038 302.414 152.038C304.494 152.038 306.206 151.798 307.55 151.318C308.894 150.806 309.998 150.246 310.862 149.638C311.758 149.03 312.494 148.486 313.07 148.006C313.678 147.494 314.27 147.238 314.846 147.238C315.55 147.238 316.094 147.51 316.478 148.054L318.878 151.174C317.822 152.486 316.622 153.606 315.278 154.534C313.934 155.462 312.478 156.246 310.91 156.886C309.374 157.494 307.758 157.942 306.062 158.23C304.366 158.518 302.638 158.662 300.878 158.662C297.838 158.662 295.006 158.102 292.382 156.982C289.79 155.862 287.534 154.246 285.614 152.134C283.694 149.99 282.19 147.366 281.102 144.262C280.014 141.158 279.47 137.622 279.47 133.654C279.47 130.038 279.966 126.694 280.958 123.622C281.982 120.55 283.454 117.91 285.374 115.702C287.326 113.462 289.71 111.718 292.526 110.47C295.374 109.222 298.638 108.598 302.318 108.598C305.742 108.598 308.75 109.158 311.342 110.278C313.966 111.366 316.286 112.918 318.302 114.934L316.046 118.006ZM342.977 158.758C339.137 158.758 336.177 157.686 334.097 155.542C332.049 153.398 331.025 150.31 331.025 146.278V116.518H325.169C324.657 116.518 324.225 116.374 323.873 116.086C323.521 115.766 323.345 115.286 323.345 114.646V111.238L331.313 110.23L333.281 95.2057C333.377 94.7257 333.585 94.3417 333.905 94.0537C334.257 93.7337 334.705 93.5737 335.249 93.5737H339.569V110.326H353.633V116.518H339.569V145.702C339.569 147.75 340.065 149.27 341.057 150.262C342.049 151.254 343.329 151.75 344.897 151.75C345.793 151.75 346.561 151.638 347.201 151.414C347.873 151.158 348.449 150.886 348.929 150.598C349.409 150.31 349.809 150.054 350.129 149.83C350.481 149.574 350.785 149.446 351.041 149.446C351.489 149.446 351.889 149.718 352.241 150.262L354.737 154.342C353.265 155.718 351.489 156.806 349.409 157.606C347.329 158.374 345.185 158.758 342.977 158.758Z" fill="#263C29"/>
<circle cx="301.5" cy="120.49" r="119.5" fill="#CDC945"/>
<path d="M58.416 144.406L57.6812 145.084L57.6829 145.086L58.416 144.406ZM62.112 148.39L62.8692 149.043L63.4536 148.366L62.8451 147.71L62.112 148.39ZM51.84 156.022L51.4278 155.111L51.4251 155.112L51.84 156.022ZM23.856 156.214L23.4621 157.133L23.4683 157.136L23.856 156.214ZM13.536 149.014L12.7992 149.69L12.8027 149.694L13.536 149.014ZM6.912 137.878L7.852 137.537L6.912 137.878ZM7.008 109.366L7.94347 109.719L7.008 109.366ZM13.872 98.2297L13.1502 97.5377L13.1464 97.5416L13.872 98.2297ZM24.528 91.0297L24.908 91.9547L24.9141 91.9522L24.528 91.0297ZM51.168 90.7897L51.5543 89.8674L51.168 90.7897ZM61.056 97.1737L61.8679 97.7576L62.3788 97.0471L61.7424 96.4465L61.056 97.1737ZM57.984 101.446L57.1721 100.862L57.1479 100.896L57.1265 100.931L57.984 101.446ZM57.216 102.262L57.7707 103.094L57.7802 103.087L57.7895 103.081L57.216 102.262ZM53.904 101.638L53.2943 102.43L53.304 102.438L53.314 102.445L53.904 101.638ZM50.64 99.5257L51.1361 98.6575L50.64 99.5257ZM45.6 97.4617L45.2974 98.4149L45.3043 98.4171L45.3113 98.4192L45.6 97.4617ZM28.416 98.3737L28.7978 99.298L28.8063 99.2944L28.416 98.3737ZM20.784 103.702L20.0472 103.026L20.0422 103.031L20.784 103.702ZM15.888 135.094L14.9477 135.434L14.9506 135.442L15.888 135.094ZM20.928 143.638L20.1862 144.308L20.191 144.314L20.1959 144.319L20.928 143.638ZM28.464 148.918L28.075 149.839L28.0787 149.841L28.464 148.918ZM43.392 150.406L43.528 151.396L43.536 151.395L43.5441 151.394L43.392 150.406ZM47.952 149.254L47.6103 148.314L47.6033 148.317L47.952 149.254ZM51.84 147.334L52.3842 148.173L52.3896 148.169L51.84 147.334ZM55.44 144.502L54.7784 143.752L54.7708 143.759L54.7634 143.765L55.44 144.502ZM57.072 144.782C57.2737 144.782 57.4643 144.849 57.6812 145.084L59.1508 143.727C58.5997 143.13 57.8943 142.782 57.072 142.782V144.782ZM57.6829 145.086L61.3789 149.07L62.8451 147.71L59.1491 143.726L57.6829 145.086ZM61.3548 147.737C58.6363 150.888 55.3311 153.345 51.4278 155.111L52.2522 156.933C56.4129 155.051 59.9557 152.42 62.8692 149.043L61.3548 147.737ZM51.4251 155.112C47.5878 156.862 42.8895 157.758 37.296 157.758V159.758C43.0945 159.758 48.0922 158.83 52.2549 156.932L51.4251 155.112ZM37.296 157.758C32.4843 157.758 28.1384 156.93 24.2437 155.292L23.4683 157.136C27.6376 158.889 32.2517 159.758 37.296 159.758V157.758ZM24.2499 155.295C20.3404 153.619 17.0177 151.298 14.2693 148.334L12.8027 149.694C15.7503 152.873 19.3076 155.352 23.4621 157.133L24.2499 155.295ZM14.2728 148.338C11.5218 145.339 9.37913 141.744 7.852 137.537L5.972 138.219C7.58087 142.652 9.85422 146.48 12.7992 149.69L14.2728 148.338ZM7.852 137.537C6.32843 133.339 5.56 128.704 5.56 123.622H3.56C3.56 128.907 4.35957 133.777 5.972 138.219L7.852 137.537ZM5.56 123.622C5.56 118.544 6.35904 113.913 7.94347 109.719L6.07253 109.012C4.39296 113.458 3.56 118.332 3.56 123.622H5.56ZM7.94347 109.719C9.53224 105.514 11.7522 101.918 14.5976 98.9179L13.1464 97.5416C10.1038 100.75 7.74777 104.578 6.07253 109.012L7.94347 109.719ZM14.5938 98.9218C17.4697 95.9222 20.904 93.5998 24.908 91.9547L24.148 90.1048C19.896 91.8517 16.2263 94.3292 13.1502 97.5377L14.5938 98.9218ZM24.9141 91.9522C28.9065 90.281 33.3333 89.4377 38.208 89.4377V87.4377C33.0987 87.4377 28.4055 88.3225 24.1419 90.1073L24.9141 91.9522ZM38.208 89.4377C42.9981 89.4377 47.1825 90.2048 50.7817 91.7121L51.5543 89.8674C47.6655 88.2387 43.2099 87.4377 38.208 87.4377V89.4377ZM50.7817 91.7121C54.4189 93.2354 57.6123 95.2986 60.3696 97.901L61.7424 96.4465C58.8037 93.6729 55.4051 91.4801 51.5543 89.8674L50.7817 91.7121ZM60.2441 96.5899L57.1721 100.862L58.7959 102.03L61.8679 97.7576L60.2441 96.5899ZM57.1265 100.931C57.0101 101.125 56.853 101.295 56.6425 101.443L57.7895 103.081C58.219 102.78 58.5739 102.406 58.8415 101.96L57.1265 100.931ZM56.6613 101.43C56.5988 101.471 56.4198 101.55 56.016 101.55V103.55C56.6362 103.55 57.2573 103.436 57.7707 103.094L56.6613 101.43ZM56.016 101.55C55.7629 101.55 55.2736 101.4 54.494 100.83L53.314 102.445C54.1984 103.091 55.1171 103.55 56.016 103.55V101.55ZM54.5137 100.845C53.6331 100.168 52.503 99.4386 51.1361 98.6575L50.1439 100.394C51.465 101.149 52.5109 101.828 53.2943 102.43L54.5137 100.845ZM51.1361 98.6575C49.7079 97.8414 47.953 97.1269 45.8887 96.5043L45.3113 98.4192C47.279 99.0126 48.8841 99.6741 50.1439 100.394L51.1361 98.6575ZM45.9026 96.5086C43.7588 95.828 41.1696 95.5017 38.16 95.5017V97.5017C41.0384 97.5017 43.4092 97.8154 45.2974 98.4149L45.9026 96.5086ZM38.16 95.5017C34.4888 95.5017 31.1062 96.1472 28.0257 97.453L28.8063 99.2944C31.6138 98.1043 34.7272 97.5017 38.16 97.5017V95.5017ZM28.0342 97.4495C24.9559 98.721 22.2905 100.581 20.0473 103.026L21.5207 104.378C23.5655 102.15 25.9881 100.458 28.7978 99.298L28.0342 97.4495ZM20.0422 103.031C17.8304 105.477 16.1191 108.445 14.8968 111.913L16.7832 112.578C17.9289 109.327 19.5136 106.598 21.5258 104.372L20.0422 103.031ZM14.8968 111.913C13.669 115.398 13.064 119.305 13.064 123.622H15.064C15.064 119.49 15.643 115.814 16.7832 112.578L14.8968 111.913ZM13.064 123.622C13.064 128.003 13.6852 131.946 14.9477 135.434L16.8283 134.753C15.6588 131.522 15.064 127.816 15.064 123.622H13.064ZM14.9506 135.442C16.2367 138.905 17.9782 141.866 20.1862 144.308L21.6698 142.967C19.6538 140.737 18.0353 138.003 16.8254 134.746L14.9506 135.442ZM20.1959 144.319C22.4354 146.726 25.0641 148.568 28.075 149.839L28.853 147.996C26.1039 146.836 23.7086 145.158 21.6601 142.957L20.1959 144.319ZM28.0787 149.841C31.1205 151.111 34.3884 151.742 37.872 151.742V149.742C34.6356 149.742 31.6315 149.157 28.8493 147.995L28.0787 149.841ZM37.872 151.742C39.9551 151.742 41.8416 151.628 43.528 151.396L43.256 149.415C41.6784 149.632 39.885 149.742 37.872 149.742V151.742ZM43.5441 151.394C45.2656 151.129 46.8526 150.73 48.3007 150.191L47.6033 148.317C46.2994 148.802 44.8464 149.17 43.2399 149.417L43.5441 151.394ZM48.2937 150.194C49.7685 149.657 51.133 148.984 52.3842 148.173L51.2958 146.495C50.179 147.219 48.9515 147.826 47.6103 148.314L48.2937 150.194ZM52.3896 148.169C53.6549 147.337 54.8971 146.359 56.1166 145.238L54.7634 143.765C53.6149 144.821 52.4571 145.731 51.2904 146.498L52.3896 148.169ZM56.1016 145.252C56.5247 144.878 56.8431 144.782 57.072 144.782V142.782C56.2129 142.782 55.4433 143.165 54.7784 143.752L56.1016 145.252ZM100.051 110.374L99.6676 111.297L100.051 110.374ZM107.348 115.414L106.614 116.093L107.348 115.414ZM111.956 123.334L111.009 123.656L111.013 123.668L111.956 123.334ZM111.956 144.022L111.013 143.688L111.01 143.697L111.956 144.022ZM107.348 151.894L106.614 151.214V151.214L107.348 151.894ZM100.051 156.934L100.426 157.861L100.435 157.857L100.051 156.934ZM80.7555 156.934L80.3716 157.857L80.3841 157.862L80.7555 156.934ZM73.4595 151.894L74.1931 151.214V151.214L73.4595 151.894ZM68.8035 144.022L67.8578 144.347L67.8609 144.356L68.8035 144.022ZM68.8035 123.334L67.8598 123.003L67.8578 123.009L68.8035 123.334ZM73.4595 115.414L74.1931 116.093L73.4595 115.414ZM80.7555 110.374L80.3753 109.449L80.3716 109.45L80.7555 110.374ZM101.204 147.19L102.007 147.785L102.01 147.781L101.204 147.19ZM84.0675 116.566L83.6525 115.656L83.6464 115.659L84.0675 116.566ZM79.5555 120.166L78.7652 119.553L78.7575 119.563L79.5555 120.166ZM76.8675 125.974L75.9006 125.719L75.8982 125.728L76.8675 125.974ZM79.5555 147.19L78.7488 147.781L78.7555 147.79L79.5555 147.19ZM90.4515 109.598C93.8915 109.598 96.9583 110.171 99.6676 111.297L100.435 109.45C97.4487 108.209 94.1155 107.598 90.4515 107.598V109.598ZM99.6676 111.297C102.388 112.428 104.7 114.027 106.614 116.093L108.081 114.734C105.963 112.448 103.411 110.687 100.435 109.45L99.6676 111.297ZM106.614 116.093C108.525 118.156 109.993 120.671 111.009 123.656L112.902 123.012C111.806 119.789 110.202 117.023 108.081 114.734L106.614 116.093ZM111.013 123.668C112.057 126.616 112.588 129.941 112.588 133.654H114.588C114.588 129.751 114.03 126.195 112.898 123L111.013 123.668ZM112.588 133.654C112.588 137.4 112.057 140.74 111.013 143.688L112.898 144.356C114.03 141.159 114.588 137.588 114.588 133.654H112.588ZM111.01 143.697C109.995 146.65 108.527 149.15 106.614 151.214L108.081 152.573C110.2 150.286 111.804 147.538 112.901 144.347L111.01 143.697ZM106.614 151.214C104.7 153.28 102.388 154.879 99.6676 156.01L100.435 157.857C103.411 156.62 105.963 154.859 108.081 152.573L106.614 151.214ZM99.6765 156.007C96.9648 157.104 93.8948 157.662 90.4515 157.662V159.662C94.1122 159.662 97.4422 159.068 100.426 157.861L99.6765 156.007ZM90.4515 157.662C86.9752 157.662 83.8719 157.103 81.1269 156.005L80.3841 157.862C83.3991 159.068 86.7598 159.662 90.4515 159.662V157.662ZM81.1394 156.01C78.4187 154.879 76.1075 153.28 74.1931 151.214L72.7259 152.573C74.8435 154.859 77.3963 156.62 80.3716 157.857L81.1394 156.01ZM74.1931 151.214C72.2783 149.147 70.7932 146.644 69.7461 143.688L67.8609 144.356C68.9898 147.543 70.6087 150.288 72.7259 152.573L74.1931 151.214ZM69.7492 143.697C68.735 140.746 68.2195 137.403 68.2195 133.654H66.2195C66.2195 137.585 66.76 141.153 67.8578 144.347L69.7492 143.697ZM68.2195 133.654C68.2195 129.938 68.7347 126.61 69.7492 123.659L67.8578 123.009C66.7603 126.202 66.2195 129.754 66.2195 133.654H68.2195ZM69.7472 123.665C70.7948 120.676 72.28 118.158 74.1931 116.093L72.7259 114.734C70.607 117.021 68.9882 119.784 67.8598 123.003L69.7472 123.665ZM74.1931 116.093C76.1075 114.027 78.4187 112.428 81.1394 111.297L80.3716 109.45C77.3963 110.687 74.8435 112.448 72.7259 114.734L74.1931 116.093ZM81.1357 111.299C83.8783 110.171 86.9784 109.598 90.4515 109.598V107.598C86.7566 107.598 83.3927 108.208 80.3753 109.449L81.1357 111.299ZM90.4515 152.99C95.4951 152.99 99.411 151.293 102.007 147.785L100.4 146.595C98.26 149.486 95.0079 150.99 90.4515 150.99V152.99ZM102.01 147.781C104.548 144.317 105.756 139.585 105.756 133.702H103.756C103.756 139.339 102.595 143.599 100.397 146.599L102.01 147.781ZM105.756 133.702C105.756 127.788 104.549 123.039 102.01 119.575L100.397 120.757C102.594 123.756 103.756 128.031 103.756 133.702H105.756ZM102.01 119.575C99.4153 116.033 95.4989 114.318 90.4515 114.318V116.318C95.0041 116.318 98.2557 117.834 100.397 120.757L102.01 119.575ZM90.4515 114.318C87.9062 114.318 85.6315 114.753 83.6525 115.656L84.4825 117.476C86.1515 116.714 88.1328 116.318 90.4515 116.318V114.318ZM83.6464 115.659C81.709 116.558 80.0786 117.859 78.7653 119.553L80.3457 120.779C81.4644 119.336 82.842 118.237 84.4886 117.473L83.6464 115.659ZM78.7575 119.563C77.4804 121.254 76.5349 123.315 75.9006 125.719L77.8344 126.229C78.4161 124.025 79.2626 122.213 80.3535 120.768L78.7575 119.563ZM75.8982 125.728C75.2978 128.096 75.0035 130.757 75.0035 133.702H77.0035C77.0035 130.887 77.2852 128.395 77.8368 126.219L75.8982 125.728ZM75.0035 133.702C75.0035 139.585 76.211 144.317 78.7488 147.781L80.3622 146.599C78.164 143.599 77.0035 139.339 77.0035 133.702H75.0035ZM78.7555 147.79C81.3858 151.297 85.3488 152.99 90.4515 152.99V150.99C85.8262 150.99 82.5252 149.483 80.3555 146.59L78.7555 147.79ZM132.488 116.422L131.496 116.548L131.773 118.726L133.235 117.087L132.488 116.422ZM135.848 113.206L136.478 113.983L135.848 113.206ZM139.592 110.758L140.048 111.648L140.056 111.644L139.592 110.758ZM143.816 109.174L144.049 110.146L144.056 110.145L144.064 110.143L143.816 109.174ZM155.672 109.942L155.266 110.856L155.275 110.859L155.284 110.863L155.672 109.942ZM160.76 113.686L159.988 114.321L159.995 114.33L160.002 114.338L160.76 113.686ZM163.88 119.494L164.835 119.198L163.88 119.494ZM164.936 157.99V158.99H165.936V157.99H164.936ZM156.344 157.99H155.344V158.99H156.344V157.99ZM153.8 118.486L153.024 119.116L153.03 119.123L153.035 119.13L153.8 118.486ZM139.064 117.238L138.582 116.362L138.576 116.365L139.064 117.238ZM133.016 122.182L132.27 121.516L132.016 121.8V122.182H133.016ZM133.016 157.99V158.99H134.016V157.99H133.016ZM124.424 157.99H123.424V158.99H124.424V157.99ZM124.424 109.366V108.366H123.424V109.366H124.424ZM131.816 111.142L132.808 111.015L132.801 110.96L132.788 110.905L131.816 111.142ZM133.235 117.087C134.256 115.942 135.337 114.907 136.478 113.983L135.218 112.429C133.991 113.424 132.832 114.534 131.742 115.756L133.235 117.087ZM136.478 113.983C137.61 113.065 138.8 112.287 140.048 111.648L139.136 109.868C137.761 110.572 136.454 111.427 135.218 112.429L136.478 113.983ZM140.056 111.644C141.327 110.978 142.657 110.479 144.049 110.146L143.584 108.201C142.031 108.572 140.545 109.13 139.128 109.872L140.056 111.644ZM144.064 110.143C145.478 109.781 147.01 109.598 148.664 109.598V107.598C146.862 107.598 145.162 107.798 143.569 108.205L144.064 110.143ZM148.664 109.598C151.208 109.598 153.401 110.027 155.266 110.856L156.078 109.028C153.911 108.065 151.432 107.598 148.664 107.598V109.598ZM155.284 110.863C157.19 111.668 158.752 112.821 159.988 114.321L161.532 113.05C160.08 111.287 158.25 109.944 156.061 109.02L155.284 110.863ZM160.002 114.338C161.278 115.821 162.256 117.632 162.925 119.79L164.835 119.198C164.096 116.811 162.995 114.75 161.518 113.034L160.002 114.338ZM162.925 119.79C163.595 121.952 163.936 124.363 163.936 127.03H165.936C165.936 124.193 165.573 121.579 164.835 119.198L162.925 119.79ZM163.936 127.03V157.99H165.936V127.03H163.936ZM164.936 156.99H156.344V158.99H164.936V156.99ZM157.344 157.99V127.03H155.344V157.99H157.344ZM157.344 127.03C157.344 123.207 156.464 120.098 154.565 117.842L153.035 119.13C154.529 120.905 155.344 123.493 155.344 127.03H157.344ZM154.576 117.855C152.669 115.507 149.797 114.414 146.168 114.414V116.414C149.388 116.414 151.604 117.368 153.024 119.116L154.576 117.855ZM146.168 114.414C143.472 114.414 140.938 115.064 138.582 116.362L139.547 118.114C141.606 116.979 143.808 116.414 146.168 116.414V114.414ZM138.576 116.365C136.293 117.641 134.191 119.363 132.27 121.516L133.762 122.848C135.553 120.841 137.484 119.266 139.552 118.111L138.576 116.365ZM132.016 122.182V157.99H134.016V122.182H132.016ZM133.016 156.99H124.424V158.99H133.016V156.99ZM125.424 157.99V109.366H123.424V157.99H125.424ZM124.424 110.366H129.56V108.366H124.424V110.366ZM129.56 110.366C130.006 110.366 130.261 110.472 130.418 110.595C130.575 110.719 130.739 110.943 130.845 111.378L132.788 110.905C132.606 110.156 132.25 109.492 131.655 109.024C131.059 108.555 130.331 108.366 129.56 108.366V110.366ZM130.824 111.268L131.496 116.548L133.48 116.295L132.808 111.015L130.824 111.268ZM186.02 116.422L185.027 116.548L185.305 118.726L186.766 117.087L186.02 116.422ZM189.38 113.206L190.009 113.983L189.38 113.206ZM193.124 110.758L193.579 111.648L193.588 111.644L193.124 110.758ZM197.348 109.174L197.58 110.146L197.587 110.145L197.595 110.143L197.348 109.174ZM209.204 109.942L208.797 110.856L208.806 110.859L208.815 110.863L209.204 109.942ZM214.292 113.686L213.52 114.321L213.526 114.33L213.533 114.338L214.292 113.686ZM217.411 119.494L218.367 119.198L217.411 119.494ZM218.467 157.99V158.99H219.467V157.99H218.467ZM209.876 157.99H208.876V158.99H209.876V157.99ZM207.331 118.486L206.555 119.116L206.561 119.123L206.566 119.13L207.331 118.486ZM192.596 117.238L192.113 116.362L192.108 116.365L192.596 117.238ZM186.548 122.182L185.801 121.516L185.548 121.8V122.182H186.548ZM186.548 157.99V158.99H187.548V157.99H186.548ZM177.956 157.99H176.956V158.99H177.956V157.99ZM177.956 109.366V108.366H176.956V109.366H177.956ZM185.348 111.142L186.339 111.015L186.332 110.96L186.319 110.905L185.348 111.142ZM186.766 117.087C187.787 115.942 188.869 114.907 190.009 113.983L188.75 112.429C187.522 113.424 186.364 114.534 185.273 115.756L186.766 117.087ZM190.009 113.983C191.141 113.065 192.331 112.287 193.579 111.648L192.668 109.868C191.292 110.572 189.986 111.427 188.75 112.429L190.009 113.983ZM193.588 111.644C194.858 110.978 196.189 110.479 197.58 110.146L197.115 108.201C195.562 108.572 194.077 109.13 192.66 109.872L193.588 111.644ZM197.595 110.143C199.01 109.781 200.542 109.598 202.195 109.598V107.598C200.393 107.598 198.693 107.798 197.1 108.205L197.595 110.143ZM202.195 109.598C204.74 109.598 206.933 110.027 208.797 110.856L209.61 109.028C207.442 108.065 204.963 107.598 202.195 107.598V109.598ZM208.815 110.863C210.722 111.668 212.284 112.821 213.52 114.321L215.063 113.05C213.611 111.287 211.781 109.944 209.592 109.02L208.815 110.863ZM213.533 114.338C214.809 115.821 215.788 117.632 216.456 119.79L218.367 119.198C217.627 116.811 216.526 114.75 215.05 113.034L213.533 114.338ZM216.456 119.79C217.126 121.952 217.467 124.363 217.467 127.03H219.467C219.467 124.193 219.105 121.579 218.367 119.198L216.456 119.79ZM217.467 127.03V157.99H219.467V127.03H217.467ZM218.467 156.99H209.876V158.99H218.467V156.99ZM210.876 157.99V127.03H208.876V157.99H210.876ZM210.876 127.03C210.876 123.207 209.995 120.098 208.097 117.842L206.566 119.13C208.06 120.905 208.876 123.493 208.876 127.03H210.876ZM208.108 117.855C206.2 115.507 203.328 114.414 199.7 114.414V116.414C202.919 116.414 205.135 117.368 206.555 119.116L208.108 117.855ZM199.7 114.414C197.003 114.414 194.469 115.064 192.113 116.362L193.078 118.114C195.138 116.979 197.34 116.414 199.7 116.414V114.414ZM192.108 116.365C189.824 117.641 187.723 119.363 185.801 121.516L187.294 122.848C189.084 120.841 191.015 119.266 193.083 118.111L192.108 116.365ZM185.548 122.182V157.99H187.548V122.182H185.548ZM186.548 156.99H177.956V158.99H186.548V156.99ZM178.956 157.99V109.366H176.956V157.99H178.956ZM177.956 110.366H183.092V108.366H177.956V110.366ZM183.092 110.366C183.537 110.366 183.792 110.472 183.949 110.595C184.106 110.719 184.27 110.943 184.376 111.378L186.319 110.905C186.137 110.156 185.781 109.492 185.186 109.024C184.591 108.555 183.862 108.366 183.092 108.366V110.366ZM184.355 111.268L185.027 116.548L187.012 116.295L186.339 111.015L184.355 111.268ZM264.031 128.374V129.374H265.031V128.374H264.031ZM263.167 122.95L262.216 123.26L262.22 123.272L262.224 123.283L263.167 122.95ZM260.719 118.678L259.964 119.333L259.973 119.344L259.982 119.354L260.719 118.678ZM256.831 115.894L256.43 116.81L256.438 116.813L256.446 116.817L256.831 115.894ZM241.855 118.486L242.562 119.193L241.855 118.486ZM237.439 128.374L236.448 128.239L236.293 129.374H237.439V128.374ZM270.943 151.174L271.714 151.81L272.221 151.196L271.735 150.564L270.943 151.174ZM267.151 154.534L267.684 155.38L267.691 155.376L267.697 155.371L267.151 154.534ZM262.399 156.838L262.061 155.896L262.056 155.898L262.399 156.838ZM257.215 158.182L257.056 157.194L257.048 157.196L257.039 157.197L257.215 158.182ZM242.575 156.982L242.196 157.907L242.209 157.912L242.575 156.982ZM235.231 151.99L234.498 152.67L234.503 152.675L234.508 152.681L235.231 151.99ZM230.239 123.19L229.297 122.852L229.294 122.861L230.239 123.19ZM234.751 115.558L235.49 116.231L235.495 116.225L234.751 115.558ZM241.903 110.47L242.299 111.388L242.308 111.384L241.903 110.47ZM259.471 110.086L259.097 111.013L259.104 111.016L259.112 111.019L259.471 110.086ZM265.903 114.31L265.183 115.004L265.189 115.011L265.196 115.017L265.903 114.31ZM270.175 121.126L269.239 121.478L269.24 121.482L270.175 121.126ZM237.151 133.702V132.702H236.119L236.151 133.733L237.151 133.702ZM238.399 141.718L237.447 142.026L237.451 142.038L238.399 141.718ZM241.567 147.43L240.814 148.088L240.821 148.096L241.567 147.43ZM246.367 150.838L245.984 151.762L245.991 151.765L245.998 151.767L246.367 150.838ZM258.127 151.222L258.425 152.176L258.437 152.172L258.127 151.222ZM262.159 149.59L261.701 148.7L262.159 149.59ZM264.943 148.006L265.489 148.843L265.497 148.838L264.943 148.006ZM268.543 148.054L267.726 148.63L267.738 148.647L267.75 148.663L268.543 148.054ZM265.031 128.374C265.031 126.293 264.729 124.37 264.11 122.617L262.224 123.283C262.757 124.793 263.031 126.487 263.031 128.374H265.031ZM264.117 122.639C263.533 120.851 262.648 119.299 261.455 118.001L259.982 119.354C260.965 120.424 261.713 121.72 262.216 123.26L264.117 122.639ZM261.474 118.022C260.313 116.686 258.889 115.668 257.215 114.971L256.446 116.817C257.845 117.4 259.012 118.238 259.964 119.333L261.474 118.022ZM257.232 114.978C255.55 114.242 253.666 113.886 251.599 113.886V115.886C253.435 115.886 255.039 116.202 256.43 116.81L257.232 114.978ZM251.599 113.886C247.296 113.886 243.773 115.153 241.148 117.779L242.562 119.193C244.737 117.018 247.709 115.886 251.599 115.886V113.886ZM241.148 117.779C238.587 120.339 237.045 123.858 236.448 128.239L238.43 128.509C238.984 124.442 240.386 121.369 242.562 119.193L241.148 117.779ZM237.439 129.374H264.031V127.374H237.439V129.374ZM270.171 150.537C269.184 151.735 267.997 152.788 266.604 153.696L267.697 155.371C269.249 154.359 270.59 153.173 271.714 151.81L270.171 150.537ZM266.617 153.688C265.209 154.576 263.691 155.312 262.061 155.896L262.736 157.779C264.498 157.147 266.148 156.348 267.684 155.38L266.617 153.688ZM262.056 155.898C260.453 156.484 258.787 156.916 257.056 157.194L257.373 159.169C259.227 158.871 261.017 158.407 262.742 157.777L262.056 155.898ZM257.039 157.197C255.303 157.507 253.586 157.662 251.887 157.662V159.662C253.708 159.662 255.543 159.496 257.391 159.166L257.039 157.197ZM251.887 157.662C248.64 157.662 245.661 157.121 242.941 156.051L242.209 157.912C245.184 159.083 248.414 159.662 251.887 159.662V157.662ZM242.953 156.056C240.266 154.957 237.936 153.372 235.954 151.299L234.508 152.681C236.686 154.959 239.252 156.703 242.196 157.907L242.953 156.056ZM235.964 151.31C234.02 149.214 232.485 146.616 231.373 143.494L229.489 144.165C230.68 147.508 232.345 150.349 234.498 152.67L235.964 151.31ZM231.373 143.494C230.267 140.391 229.703 136.796 229.703 132.694H227.703C227.703 136.976 228.291 140.805 229.489 144.165L231.373 143.494ZM229.703 132.694C229.703 129.404 230.199 126.348 231.183 123.518L229.294 122.861C228.23 125.92 227.703 129.2 227.703 132.694H229.703ZM231.18 123.527C232.195 120.698 233.634 118.27 235.49 116.231L234.011 114.885C231.964 117.133 230.394 119.794 229.297 122.852L231.18 123.527ZM235.495 116.225C237.346 114.162 239.609 112.549 242.299 111.388L241.506 109.552C238.564 110.822 236.06 112.601 234.006 114.89L235.495 116.225ZM242.308 111.384C244.979 110.2 248.006 109.598 251.407 109.598V107.598C247.767 107.598 244.458 108.243 241.498 109.556L242.308 111.384ZM251.407 109.598C254.203 109.598 256.763 110.074 259.097 111.013L259.844 109.158C257.251 108.114 254.434 107.598 251.407 107.598V109.598ZM259.112 111.019C261.477 111.929 263.496 113.257 265.183 115.004L266.622 113.615C264.725 111.65 262.457 110.163 259.83 109.152L259.112 111.019ZM265.196 115.017C266.907 116.728 268.259 118.874 269.239 121.478L271.111 120.773C270.043 117.937 268.547 115.539 266.61 113.603L265.196 115.017ZM269.24 121.482C270.213 124.036 270.711 126.984 270.711 130.342H272.711C272.711 126.788 272.184 123.592 271.109 120.77L269.24 121.482ZM270.711 130.342C270.711 130.983 270.676 131.486 270.615 131.863C270.552 132.258 270.472 132.435 270.438 132.489L272.12 133.571C272.373 133.176 272.509 132.682 272.59 132.18C272.673 131.661 272.711 131.044 272.711 130.342H270.711ZM270.438 132.489C270.414 132.526 270.288 132.702 269.647 132.702V134.702C270.605 134.702 271.567 134.43 272.12 133.571L270.438 132.489ZM269.647 132.702H237.151V134.702H269.647V132.702ZM236.151 133.733C236.249 136.874 236.675 139.643 237.447 142.026L239.35 141.41C238.65 139.249 238.244 136.674 238.15 133.671L236.151 133.733ZM237.451 142.038C238.254 144.413 239.37 146.438 240.814 148.088L242.319 146.771C241.076 145.35 240.079 143.567 239.346 141.398L237.451 142.038ZM240.821 148.096C242.265 149.712 243.989 150.936 245.984 151.762L246.749 149.914C245.033 149.203 243.557 148.156 242.312 146.763L240.821 148.096ZM245.998 151.767C247.988 152.556 250.196 152.942 252.607 152.942V150.942C250.41 150.942 248.457 150.591 246.735 149.908L245.998 151.767ZM252.607 152.942C254.82 152.942 256.766 152.695 258.425 152.176L257.828 150.267C256.415 150.709 254.681 150.942 252.607 150.942V152.942ZM258.437 152.172C260.041 151.649 261.437 151.085 262.616 150.479L261.701 148.7C260.641 149.246 259.348 149.771 257.816 150.271L258.437 152.172ZM262.616 150.479C263.755 149.893 264.715 149.348 265.489 148.843L264.396 147.168C263.699 147.623 262.803 148.134 261.701 148.7L262.616 150.479ZM265.497 148.838C266.203 148.367 266.659 148.238 266.911 148.238V146.238C266.075 146.238 265.218 146.62 264.388 147.174L265.497 148.838ZM266.911 148.238C267.312 148.238 267.541 148.369 267.726 148.63L269.36 147.477C268.776 146.65 267.918 146.238 266.911 146.238V148.238ZM267.75 148.663L270.15 151.783L271.735 150.564L269.335 147.444L267.75 148.663ZM316.046 118.006L315.24 117.414L315.237 117.418L316.046 118.006ZM312.638 118.534L312.052 119.344L312.067 119.355L312.083 119.366L312.638 118.534ZM310.478 117.19L309.978 118.056L309.985 118.06L309.992 118.064L310.478 117.19ZM307.358 115.894L307.034 116.84L307.049 116.845L307.063 116.85L307.358 115.894ZM296.509 116.566L296.924 117.476L296.931 117.473L296.938 117.469L296.509 116.566ZM291.901 120.214L291.113 119.599L291.105 119.609L291.901 120.214ZM289.117 126.022L288.155 125.751L288.151 125.763L289.117 126.022ZM289.214 141.526L288.253 141.806L288.255 141.809L289.214 141.526ZM292.046 147.286L291.255 147.899L291.262 147.908L291.269 147.916L292.046 147.286ZM296.509 150.838L296.076 151.739L296.086 151.744L296.096 151.748L296.509 150.838ZM307.549 151.318L307.886 152.259L307.896 152.256L307.905 152.252L307.549 151.318ZM310.862 149.638L310.3 148.81L310.293 148.815L310.286 148.82L310.862 149.638ZM313.069 148.006L313.71 148.774L313.714 148.771L313.069 148.006ZM316.478 148.054L315.661 148.63L315.672 148.647L315.685 148.663L316.478 148.054ZM318.878 151.174L319.657 151.801L320.15 151.188L319.67 150.564L318.878 151.174ZM315.277 154.534L314.709 153.711L315.277 154.534ZM310.91 156.886L311.278 157.816L311.287 157.812L310.91 156.886ZM306.061 158.23L305.894 157.244L306.061 158.23ZM292.382 156.982L291.985 157.9L291.989 157.901L292.382 156.982ZM285.613 152.134L284.869 152.801L284.874 152.806L285.613 152.134ZM280.957 123.622L280.009 123.306L280.006 123.314L280.957 123.622ZM285.374 115.702L284.62 115.045L284.619 115.046L285.374 115.702ZM292.526 110.47L292.124 109.554L292.12 109.556L292.526 110.47ZM311.341 110.278L310.945 111.196L310.952 111.199L310.958 111.201L311.341 110.278ZM318.302 114.934L319.108 115.526L319.616 114.834L319.009 114.227L318.302 114.934ZM315.237 117.418C315.02 117.716 314.831 117.907 314.677 118.022L315.878 119.622C316.236 119.353 316.559 119 316.854 118.594L315.237 117.418ZM314.677 118.022C314.652 118.041 314.538 118.11 314.221 118.11V120.11C314.801 120.11 315.391 119.986 315.878 119.622L314.677 118.022ZM314.221 118.11C314.008 118.11 313.673 118.022 313.192 117.702L312.083 119.366C312.754 119.813 313.475 120.11 314.221 120.11V118.11ZM313.223 117.723C312.605 117.277 311.849 116.808 310.963 116.316L309.992 118.064C310.834 118.532 311.518 118.958 312.052 119.344L313.223 117.723ZM310.977 116.324C310.062 115.795 308.948 115.337 307.652 114.938L307.063 116.85C308.263 117.219 309.229 117.624 309.978 118.056L310.977 116.324ZM307.681 114.948C306.329 114.485 304.708 114.27 302.845 114.27V116.27C304.567 116.27 305.954 116.471 307.034 116.84L307.681 114.948ZM302.845 114.27C300.325 114.27 298.062 114.724 296.081 115.662L296.938 117.469C298.605 116.68 300.566 116.27 302.845 116.27V114.27ZM296.094 115.656C294.122 116.556 292.459 117.873 291.113 119.599L292.69 120.829C293.84 119.354 295.249 118.24 296.924 117.476L296.094 115.656ZM291.105 119.609C289.801 121.324 288.823 123.379 288.155 125.751L290.08 126.293C290.692 124.121 291.57 122.303 292.698 120.819L291.105 119.609ZM288.151 125.763C287.517 128.134 287.206 130.767 287.206 133.654H289.206C289.206 130.908 289.502 128.453 290.083 126.28L288.151 125.763ZM287.206 133.654C287.206 136.672 287.55 139.393 288.254 141.806L290.173 141.246C289.533 139.051 289.206 136.524 289.206 133.654H287.206ZM288.255 141.809C288.955 144.178 289.95 146.215 291.255 147.899L292.836 146.673C291.709 145.22 290.816 143.417 290.172 141.242L288.255 141.809ZM291.269 147.916C292.607 149.563 294.211 150.841 296.076 151.739L296.943 149.937C295.352 149.171 293.98 148.081 292.822 146.655L291.269 147.916ZM296.096 151.748C298.001 152.614 300.113 153.038 302.414 153.038V151.038C300.362 151.038 298.538 150.661 296.923 149.927L296.096 151.748ZM302.414 153.038C304.56 153.038 306.397 152.791 307.886 152.259L307.213 150.376C306.014 150.804 304.427 151.038 302.414 151.038V153.038ZM307.905 152.252C309.301 151.72 310.486 151.125 311.437 150.456L310.286 148.82C309.509 149.366 308.486 149.891 307.194 150.383L307.905 152.252ZM311.423 150.465C312.335 149.846 313.1 149.282 313.71 148.774L312.429 147.238C311.887 147.69 311.18 148.213 310.3 148.81L311.423 150.465ZM313.714 148.771C314.21 148.353 314.581 148.238 314.845 148.238V146.238C313.958 146.238 313.145 146.634 312.425 147.241L313.714 148.771ZM314.845 148.238C315.247 148.238 315.476 148.369 315.661 148.63L317.294 147.477C316.711 146.65 315.852 146.238 314.845 146.238V148.238ZM315.685 148.663L318.085 151.783L319.67 150.564L317.27 147.444L315.685 148.663ZM318.098 150.547C317.101 151.786 315.971 152.839 314.709 153.711L315.846 155.357C317.271 154.372 318.542 153.186 319.657 151.801L318.098 150.547ZM314.709 153.711C313.427 154.596 312.035 155.346 310.532 155.96L311.287 157.812C312.92 157.145 314.44 156.327 315.846 155.357L314.709 153.711ZM310.541 155.956C309.073 156.537 307.524 156.967 305.894 157.244L306.229 159.216C307.991 158.916 309.674 158.45 311.278 157.816L310.541 155.956ZM305.894 157.244C304.255 157.522 302.583 157.662 300.878 157.662V159.662C302.692 159.662 304.476 159.513 306.229 159.216L305.894 157.244ZM300.878 157.662C297.963 157.662 295.266 157.126 292.774 156.062L291.989 157.901C294.745 159.078 297.712 159.662 300.878 159.662V157.662ZM292.778 156.064C290.318 155.001 288.179 153.469 286.353 151.461L284.874 152.806C286.888 155.022 289.261 156.723 291.985 157.9L292.778 156.064ZM286.358 151.467C284.538 149.434 283.096 146.928 282.045 143.931L280.158 144.593C281.283 147.803 282.849 150.546 284.869 152.801L286.358 151.467ZM282.045 143.931C281.001 140.953 280.47 137.532 280.47 133.654H278.47C278.47 137.712 279.026 141.363 280.158 144.593L282.045 143.931ZM280.47 133.654C280.47 130.13 280.953 126.891 281.909 123.929L280.006 123.314C278.978 126.497 278.47 129.946 278.47 133.654H280.47ZM281.906 123.938C282.893 120.978 284.303 118.456 286.128 116.358L284.619 115.046C282.604 117.363 281.07 120.122 280.009 123.306L281.906 123.938ZM286.127 116.359C287.98 114.233 290.243 112.575 292.931 111.384L292.12 109.556C289.176 110.861 286.671 112.69 284.62 115.045L286.127 116.359ZM292.927 111.386C295.627 110.202 298.751 109.598 302.318 109.598V107.598C298.524 107.598 295.12 108.241 292.124 109.554L292.927 111.386ZM302.318 109.598C305.633 109.598 308.502 110.14 310.945 111.196L311.738 109.36C308.997 108.175 305.85 107.598 302.318 107.598V109.598ZM310.958 111.201C313.461 112.239 315.671 113.717 317.594 115.641L319.009 114.227C316.9 112.118 314.47 110.492 311.725 109.354L310.958 111.201ZM317.496 114.342L315.24 117.414L316.852 118.598L319.108 115.526L317.496 114.342ZM334.097 155.542L333.374 156.232L333.38 156.238L334.097 155.542ZM331.025 116.518H332.025V115.518H331.025V116.518ZM323.873 116.086L323.201 116.826L323.22 116.843L323.24 116.86L323.873 116.086ZM323.345 111.238L323.22 110.246L322.345 110.356V111.238H323.345ZM331.313 110.23L331.439 111.222L332.205 111.125L332.305 110.36L331.313 110.23ZM333.281 95.2057L332.301 95.0096L332.294 95.0426L332.29 95.0759L333.281 95.2057ZM333.905 94.0537L334.574 94.7971L334.578 94.7937L333.905 94.0537ZM339.569 93.5737H340.569V92.5737H339.569V93.5737ZM339.569 110.326H338.569V111.326H339.569V110.326ZM353.633 110.326H354.633V109.326H353.633V110.326ZM353.633 116.518V117.518H354.633V116.518H353.633ZM339.569 116.518V115.518H338.569V116.518H339.569ZM341.057 150.262L341.764 149.555L341.057 150.262ZM347.201 151.414L347.532 152.358L347.544 152.353L347.557 152.348L347.201 151.414ZM348.929 150.598L348.415 149.74L348.929 150.598ZM350.129 149.83L350.703 150.649L350.71 150.644L350.717 150.638L350.129 149.83ZM352.241 150.262L353.094 149.74L353.088 149.729L353.081 149.718L352.241 150.262ZM354.737 154.342L355.42 155.072L356.016 154.515L355.59 153.82L354.737 154.342ZM349.409 157.606L349.756 158.544L349.768 158.539L349.409 157.606ZM342.977 157.758C339.327 157.758 336.657 156.744 334.815 154.845L333.38 156.238C335.698 158.628 338.948 159.758 342.977 159.758V157.758ZM334.82 154.851C333.006 152.952 332.025 150.147 332.025 146.278H330.025C330.025 150.473 331.092 153.844 333.374 156.232L334.82 154.851ZM332.025 146.278V116.518H330.025V146.278H332.025ZM331.025 115.518H325.169V117.518H331.025V115.518ZM325.169 115.518C324.857 115.518 324.657 115.435 324.507 115.312L323.24 116.86C323.793 117.312 324.457 117.518 325.169 117.518V115.518ZM324.546 115.346C324.467 115.274 324.345 115.106 324.345 114.646H322.345C322.345 115.466 322.575 116.257 323.201 116.826L324.546 115.346ZM324.345 114.646V111.238H322.345V114.646H324.345ZM323.471 112.23L331.439 111.222L331.188 109.238L323.22 110.246L323.471 112.23ZM332.305 110.36L334.273 95.3356L332.29 95.0759L330.322 110.1L332.305 110.36ZM334.262 95.4019C334.322 95.1028 334.436 94.9216 334.574 94.797L333.236 93.3104C332.735 93.7619 332.433 94.3487 332.301 95.0096L334.262 95.4019ZM334.578 94.7937C334.719 94.6651 334.916 94.5737 335.249 94.5737V92.5737C334.495 92.5737 333.795 92.8024 333.233 93.3138L334.578 94.7937ZM335.249 94.5737H339.569V92.5737H335.249V94.5737ZM338.569 93.5737V110.326H340.569V93.5737H338.569ZM339.569 111.326H353.633V109.326H339.569V111.326ZM352.633 110.326V116.518H354.633V110.326H352.633ZM353.633 115.518H339.569V117.518H353.633V115.518ZM338.569 116.518V145.702H340.569V116.518H338.569ZM338.569 145.702C338.569 147.893 339.099 149.718 340.35 150.969L341.764 149.555C341.031 148.822 340.569 147.606 340.569 145.702H338.569ZM340.35 150.969C341.553 152.171 343.098 152.75 344.897 152.75V150.75C343.56 150.75 342.546 150.336 341.764 149.555L340.35 150.969ZM344.897 152.75C345.872 152.75 346.757 152.629 347.532 152.358L346.871 150.47C346.365 150.647 345.715 150.75 344.897 150.75V152.75ZM347.557 152.348C348.27 152.077 348.901 151.781 349.444 151.455L348.415 149.74C347.997 149.991 347.477 150.239 346.845 150.479L347.557 152.348ZM349.444 151.455C349.936 151.16 350.357 150.891 350.703 150.649L349.556 149.011C349.261 149.217 348.882 149.46 348.415 149.74L349.444 151.455ZM350.717 150.638C350.85 150.542 350.946 150.49 351.009 150.463C351.072 150.437 351.079 150.446 351.041 150.446V148.446C350.471 148.446 349.956 148.719 349.541 149.021L350.717 150.638ZM351.041 150.446C351.049 150.446 351.067 150.444 351.115 150.477C351.174 150.517 351.275 150.609 351.402 150.805L353.081 149.718C352.633 149.027 351.965 148.446 351.041 148.446V150.446ZM351.388 150.784L353.884 154.864L355.59 153.82L353.094 149.74L351.388 150.784ZM354.054 153.611C352.686 154.891 351.023 155.914 349.05 156.672L349.768 158.539C351.956 157.698 353.845 156.545 355.42 155.072L354.054 153.611ZM349.063 156.668C347.093 157.395 345.067 157.758 342.977 157.758V159.758C345.304 159.758 347.565 159.353 349.756 158.544L349.063 156.668Z" fill="#263C29"/>
</svg>
