<svg width="470" height="239" viewBox="0 0 470 239" fill="none" xmlns="http://www.w3.org/2000/svg">
<path d="M100.216 149.416L100.168 157H57.784V88.216H100.168V95.8H67.096V118.648H93.88V125.944H67.096V149.416H100.216ZM140.792 119.944C139.192 117.8 137.464 116.312 135.608 115.48C133.752 114.616 131.672 114.184 129.368 114.184C124.856 114.184 121.384 115.8 118.952 119.032C116.52 122.264 115.304 126.872 115.304 132.856C115.304 136.024 115.576 138.744 116.12 141.016C116.664 143.256 117.464 145.112 118.52 146.584C119.576 148.024 120.872 149.08 122.408 149.752C123.944 150.424 125.688 150.76 127.64 150.76C130.456 150.76 132.904 150.12 134.984 148.84C137.096 147.56 139.032 145.752 140.792 143.416V119.944ZM149.336 86.296V157H144.248C143.032 157 142.264 156.408 141.944 155.224L141.176 149.32C139.096 151.816 136.728 153.832 134.072 155.368C131.416 156.904 128.344 157.672 124.856 157.672C122.072 157.672 119.544 157.144 117.272 156.088C115 155 113.064 153.416 111.464 151.336C109.864 149.256 108.632 146.664 107.768 143.56C106.904 140.456 106.472 136.888 106.472 132.856C106.472 129.272 106.952 125.944 107.912 122.872C108.872 119.768 110.248 117.08 112.04 114.808C113.832 112.536 116.024 110.76 118.616 109.48C121.24 108.168 124.184 107.512 127.448 107.512C130.424 107.512 132.968 108.024 135.08 109.048C137.224 110.04 139.128 111.432 140.792 113.224V86.296H149.336ZM202.815 108.376V157H197.727C196.511 157 195.743 156.408 195.423 155.224L194.751 149.992C192.639 152.328 190.271 154.216 187.647 155.656C185.023 157.064 182.015 157.768 178.623 157.768C175.967 157.768 173.615 157.336 171.567 156.472C169.551 155.576 167.855 154.328 166.479 152.728C165.103 151.128 164.063 149.192 163.359 146.92C162.687 144.648 162.351 142.136 162.351 139.384V108.376H170.895V139.384C170.895 143.064 171.727 145.912 173.391 147.928C175.087 149.944 177.663 150.952 181.119 150.952C183.647 150.952 185.999 150.36 188.175 149.176C190.383 147.96 192.415 146.296 194.271 144.184V108.376H202.815ZM250.202 117.016C249.946 117.368 249.69 117.64 249.434 117.832C249.178 118.024 248.826 118.12 248.378 118.12C247.898 118.12 247.37 117.928 246.794 117.544C246.218 117.128 245.498 116.68 244.634 116.2C243.802 115.72 242.762 115.288 241.514 114.904C240.298 114.488 238.794 114.28 237.002 114.28C234.602 114.28 232.49 114.712 230.666 115.576C228.842 116.408 227.306 117.624 226.058 119.224C224.842 120.824 223.914 122.76 223.274 125.032C222.666 127.304 222.362 129.848 222.362 132.664C222.362 135.608 222.698 138.232 223.37 140.536C224.042 142.808 224.986 144.728 226.202 146.296C227.45 147.832 228.938 149.016 230.666 149.848C232.426 150.648 234.394 151.048 236.57 151.048C238.65 151.048 240.362 150.808 241.706 150.328C243.05 149.816 244.154 149.256 245.018 148.648C245.914 148.04 246.65 147.496 247.226 147.016C247.834 146.504 248.426 146.248 249.002 146.248C249.706 146.248 250.25 146.52 250.634 147.064L253.034 150.184C251.978 151.496 250.778 152.616 249.434 153.544C248.09 154.472 246.634 155.256 245.066 155.896C243.53 156.504 241.914 156.952 240.218 157.24C238.522 157.528 236.794 157.672 235.034 157.672C231.994 157.672 229.162 157.112 226.538 155.992C223.946 154.872 221.69 153.256 219.77 151.144C217.85 149 216.346 146.376 215.258 143.272C214.17 140.168 213.626 136.632 213.626 132.664C213.626 129.048 214.122 125.704 215.114 122.632C216.138 119.56 217.61 116.92 219.53 114.712C221.482 112.472 223.866 110.728 226.682 109.48C229.53 108.232 232.794 107.608 236.474 107.608C239.898 107.608 242.906 108.168 245.498 109.288C248.122 110.376 250.442 111.928 252.458 113.944L250.202 117.016ZM288.558 135.112C284.622 135.24 281.262 135.56 278.478 136.072C275.726 136.552 273.47 137.192 271.71 137.992C269.982 138.792 268.718 139.736 267.918 140.824C267.15 141.912 266.766 143.128 266.766 144.472C266.766 145.752 266.974 146.856 267.39 147.784C267.806 148.712 268.366 149.48 269.07 150.088C269.806 150.664 270.654 151.096 271.614 151.384C272.606 151.64 273.662 151.768 274.782 151.768C276.286 151.768 277.662 151.624 278.91 151.336C280.158 151.016 281.326 150.568 282.414 149.992C283.534 149.416 284.59 148.728 285.582 147.928C286.606 147.128 287.598 146.216 288.558 145.192V135.112ZM260.958 115.24C263.646 112.648 266.542 110.712 269.646 109.432C272.75 108.152 276.19 107.512 279.966 107.512C282.686 107.512 285.102 107.96 287.214 108.856C289.326 109.752 291.102 111 292.542 112.6C293.982 114.2 295.07 116.136 295.806 118.408C296.542 120.68 296.91 123.176 296.91 125.896V157H293.118C292.286 157 291.646 156.872 291.198 156.616C290.75 156.328 290.398 155.784 290.142 154.984L289.182 150.376C287.902 151.56 286.654 152.616 285.438 153.544C284.222 154.44 282.942 155.208 281.598 155.848C280.254 156.456 278.814 156.92 277.278 157.24C275.774 157.592 274.094 157.768 272.238 157.768C270.35 157.768 268.574 157.512 266.91 157C265.246 156.456 263.79 155.656 262.542 154.6C261.326 153.544 260.35 152.216 259.614 150.616C258.91 148.984 258.558 147.064 258.558 144.856C258.558 142.936 259.086 141.096 260.142 139.336C261.198 137.544 262.91 135.96 265.278 134.584C267.646 133.208 270.734 132.088 274.542 131.224C278.35 130.328 283.022 129.816 288.558 129.688V125.896C288.558 122.12 287.742 119.272 286.11 117.352C284.478 115.4 282.094 114.424 278.958 114.424C276.846 114.424 275.07 114.696 273.63 115.24C272.222 115.752 270.99 116.344 269.934 117.016C268.91 117.656 268.014 118.248 267.246 118.792C266.51 119.304 265.774 119.56 265.038 119.56C264.462 119.56 263.966 119.416 263.55 119.128C263.134 118.808 262.782 118.424 262.493 117.976L260.958 115.24ZM354.388 157H345.844V115.528H320.788V144.712C320.788 146.76 321.284 148.28 322.276 149.272C323.268 150.264 324.548 150.76 326.116 150.76C327.012 150.76 327.78 150.648 328.42 150.424C329.092 150.168 329.668 149.896 330.148 149.608C330.628 149.32 331.028 149.064 331.348 148.84C331.7 148.584 332.004 148.456 332.26 148.456C332.708 148.456 333.108 148.728 333.46 149.272L335.956 153.352C334.484 154.728 332.708 155.816 330.628 156.616C328.548 157.384 326.404 157.768 324.196 157.768C320.356 157.768 317.396 156.696 315.316 154.552C313.268 152.408 312.244 149.32 312.244 145.288V115.528H306.388C305.876 115.528 305.444 115.384 305.092 115.096C304.74 114.776 304.564 114.296 304.564 113.656V110.248L312.532 109.192L314.5 94.216C314.596 93.736 314.804 93.352 315.124 93.064C315.476 92.744 315.924 92.584 316.468 92.584H320.788V109.336H354.388V157ZM356.5 92.776C356.5 93.608 356.324 94.392 355.972 95.128C355.652 95.832 355.204 96.456 354.628 97C354.084 97.544 353.444 97.976 352.708 98.296C351.972 98.616 351.188 98.776 350.356 98.776C349.524 98.776 348.74 98.616 348.004 98.296C347.3 97.976 346.676 97.544 346.132 97C345.588 96.456 345.156 95.832 344.836 95.128C344.516 94.392 344.356 93.608 344.356 92.776C344.356 91.944 344.516 91.16 344.836 90.424C345.156 89.656 345.588 89 346.132 88.456C346.676 87.88 347.3 87.432 348.004 87.112C348.74 86.792 349.524 86.632 350.356 86.632C351.188 86.632 351.972 86.792 352.708 87.112C353.444 87.432 354.084 87.88 354.628 88.456C355.204 89 355.652 89.656 355.972 90.424C356.324 91.16 356.5 91.944 356.5 92.776ZM388.92 107.608C392.472 107.608 395.672 108.2 398.52 109.384C401.368 110.568 403.8 112.248 405.816 114.424C407.832 116.6 409.368 119.24 410.424 122.344C411.512 125.416 412.056 128.856 412.056 132.664C412.056 136.504 411.512 139.96 410.424 143.032C409.368 146.104 407.832 148.728 405.816 150.904C403.8 153.08 401.368 154.76 398.52 155.944C395.672 157.096 392.472 157.672 388.92 157.672C385.336 157.672 382.104 157.096 379.224 155.944C376.376 154.76 373.944 153.08 371.928 150.904C369.912 148.728 368.36 146.104 367.272 143.032C366.216 139.96 365.688 136.504 365.688 132.664C365.688 128.856 366.216 125.416 367.272 122.344C368.36 119.24 369.912 116.6 371.928 114.424C373.944 112.248 376.376 110.568 379.224 109.384C382.104 108.2 385.336 107.608 388.92 107.608ZM388.92 151C393.72 151 397.304 149.4 399.672 146.2C402.04 142.968 403.224 138.472 403.224 132.712C403.224 126.92 402.04 122.408 399.672 119.176C397.304 115.944 393.72 114.328 388.92 114.328C386.488 114.328 384.36 114.744 382.536 115.576C380.744 116.408 379.24 117.608 378.024 119.176C376.84 120.744 375.944 122.68 375.336 124.984C374.76 127.256 374.472 129.832 374.472 132.712C374.472 138.472 375.656 142.968 378.024 146.2C380.424 149.4 384.056 151 388.92 151ZM430.957 115.432C432.013 114.248 433.133 113.176 434.317 112.216C435.501 111.256 436.749 110.44 438.061 109.768C439.405 109.064 440.813 108.536 442.285 108.184C443.789 107.8 445.405 107.608 447.133 107.608C449.789 107.608 452.125 108.056 454.141 108.952C456.189 109.816 457.885 111.064 459.229 112.696C460.605 114.296 461.645 116.232 462.349 118.504C463.053 120.776 463.405 123.288 463.405 126.04V157H454.813V126.04C454.813 122.36 453.965 119.512 452.269 117.496C450.605 115.448 448.061 114.424 444.637 114.424C442.109 114.424 439.741 115.032 437.533 116.248C435.357 117.464 433.341 119.112 431.485 121.192V157H422.893V108.376H428.029C429.245 108.376 429.997 108.968 430.285 110.152L430.957 115.432Z" fill="#263C29"/>
<circle cx="119.5" cy="119.5" r="119.5" fill="#CDC945"/>
<path d="M100.216 149.416L101.216 149.422L101.222 148.416H100.216V149.416ZM100.168 157V158H101.162L101.168 157.006L100.168 157ZM57.784 157H56.784V158H57.784V157ZM57.784 88.216V87.216H56.784V88.216H57.784ZM100.168 88.216H101.168V87.216H100.168V88.216ZM100.168 95.8V96.8H101.168V95.8H100.168ZM67.096 95.8V94.8H66.096V95.8H67.096ZM67.096 118.648H66.096V119.648H67.096V118.648ZM93.88 118.648H94.88V117.648H93.88V118.648ZM93.88 125.944V126.944H94.88V125.944H93.88ZM67.096 125.944V124.944H66.096V125.944H67.096ZM67.096 149.416H66.096V150.416H67.096V149.416ZM99.216 149.41L99.168 156.994L101.168 157.006L101.216 149.422L99.216 149.41ZM100.168 156H57.784V158H100.168V156ZM58.784 157V88.216H56.784V157H58.784ZM57.784 89.216H100.168V87.216H57.784V89.216ZM99.168 88.216V95.8H101.168V88.216H99.168ZM100.168 94.8H67.096V96.8H100.168V94.8ZM66.096 95.8V118.648H68.096V95.8H66.096ZM67.096 119.648H93.88V117.648H67.096V119.648ZM92.88 118.648V125.944H94.88V118.648H92.88ZM93.88 124.944H67.096V126.944H93.88V124.944ZM66.096 125.944V149.416H68.096V125.944H66.096ZM67.096 150.416H100.216V148.416H67.096V150.416ZM140.792 119.944H141.792V119.612L141.593 119.346L140.792 119.944ZM135.608 115.48L135.186 116.387L135.192 116.39L135.199 116.393L135.608 115.48ZM118.952 119.032L119.751 119.633L118.952 119.032ZM116.12 141.016L115.147 141.249L115.148 141.252L116.12 141.016ZM118.52 146.584L117.707 147.167L117.713 147.175L118.52 146.584ZM134.984 148.84L134.465 147.985L134.46 147.988L134.984 148.84ZM140.792 143.416L141.59 144.018L141.792 143.751V143.416H140.792ZM149.336 86.296H150.336V85.296H149.336V86.296ZM149.336 157V158H150.336V157H149.336ZM141.944 155.224L140.952 155.353L140.961 155.42L140.978 155.485L141.944 155.224ZM141.176 149.32L142.167 149.191L141.872 146.922L140.408 148.68L141.176 149.32ZM134.072 155.368L133.571 154.502L134.072 155.368ZM117.272 156.088L116.84 156.99L116.85 156.995L117.272 156.088ZM111.464 151.336L112.256 150.726L111.464 151.336ZM107.768 143.56L108.731 143.292L107.768 143.56ZM107.912 122.872L108.866 123.17L108.867 123.167L107.912 122.872ZM112.04 114.808L111.255 114.189V114.189L112.04 114.808ZM118.616 109.48L119.059 110.377L119.063 110.374L118.616 109.48ZM135.08 109.048L134.643 109.948L134.652 109.952L134.66 109.956L135.08 109.048ZM140.792 113.224L140.059 113.904L141.792 115.771V113.224H140.792ZM140.792 86.296V85.296H139.792V86.296H140.792ZM141.593 119.346C139.922 117.107 138.07 115.488 136.017 114.567L135.199 116.393C136.858 117.136 138.461 118.493 139.99 120.542L141.593 119.346ZM136.03 114.573C134.026 113.641 131.799 113.184 129.368 113.184V115.184C131.544 115.184 133.478 115.591 135.186 116.387L136.03 114.573ZM129.368 113.184C124.583 113.184 120.797 114.916 118.153 118.431L119.751 119.633C121.97 116.684 125.128 115.184 129.368 115.184V113.184ZM118.153 118.431C115.541 121.902 114.304 126.755 114.304 132.856H116.304C116.304 126.989 117.498 122.626 119.751 119.633L118.153 118.431ZM114.304 132.856C114.304 136.077 114.58 138.879 115.147 141.249L117.092 140.783C116.572 138.609 116.304 135.971 116.304 132.856H114.304ZM115.148 141.252C115.714 143.584 116.559 145.566 117.707 147.167L119.332 146.001C118.368 144.658 117.613 142.928 117.092 140.78L115.148 141.252ZM117.713 147.175C118.867 148.748 120.299 149.921 122.007 150.668L122.809 148.836C121.445 148.239 120.285 147.3 119.326 145.993L117.713 147.175ZM122.007 150.668C123.688 151.404 125.572 151.76 127.64 151.76V149.76C125.803 149.76 124.199 149.444 122.809 148.836L122.007 150.668ZM127.64 151.76C130.612 151.76 133.247 151.083 135.508 149.692L134.46 147.988C132.56 149.157 130.3 149.76 127.64 149.76V151.76ZM135.502 149.695C137.741 148.338 139.768 146.437 141.59 144.018L139.993 142.814C138.296 145.067 136.451 146.782 134.465 147.985L135.502 149.695ZM141.792 143.416V119.944H139.792V143.416H141.792ZM148.336 86.296V157H150.336V86.296H148.336ZM149.336 156H144.248V158H149.336V156ZM144.248 156C143.804 156 143.539 155.894 143.37 155.764C143.201 155.633 143.027 155.401 142.909 154.963L140.978 155.485C141.18 156.231 141.551 156.887 142.149 157.348C142.749 157.81 143.476 158 144.248 158V156ZM142.935 155.095L142.167 149.191L140.184 149.449L140.952 155.353L142.935 155.095ZM140.408 148.68C138.398 151.091 136.119 153.029 133.571 154.502L134.572 156.234C137.336 154.635 139.793 152.541 141.944 149.96L140.408 148.68ZM133.571 154.502C131.087 155.939 128.192 156.672 124.856 156.672V158.672C128.495 158.672 131.744 157.869 134.572 156.234L133.571 154.502ZM124.856 156.672C122.201 156.672 119.819 156.169 117.693 155.181L116.85 156.995C119.268 158.119 121.942 158.672 124.856 158.672V156.672ZM117.704 155.186C115.579 154.169 113.765 152.687 112.256 150.726L110.671 151.946C112.363 154.145 114.42 155.831 116.84 156.99L117.704 155.186ZM112.256 150.726C110.75 148.768 109.568 146.299 108.731 143.292L106.804 143.828C107.695 147.029 108.977 149.744 110.671 151.946L112.256 150.726ZM108.731 143.292C107.897 140.294 107.472 136.819 107.472 132.856H105.472C105.472 136.957 105.911 140.618 106.804 143.828L108.731 143.292ZM107.472 132.856C107.472 129.362 107.94 126.135 108.866 123.17L106.957 122.574C105.964 125.753 105.472 129.182 105.472 132.856H107.472ZM108.867 123.167C109.795 120.167 111.118 117.592 112.825 115.427L111.255 114.189C109.378 116.568 107.948 119.369 106.956 122.577L108.867 123.167ZM112.825 115.427C114.525 113.272 116.6 111.591 119.059 110.377L118.173 108.583C115.448 109.929 113.139 111.8 111.255 114.189L112.825 115.427ZM119.063 110.374C121.533 109.139 124.321 108.512 127.448 108.512V106.512C124.046 106.512 120.946 107.197 118.169 108.586L119.063 110.374ZM127.448 108.512C130.312 108.512 132.699 109.005 134.643 109.948L135.516 108.148C133.237 107.043 130.536 106.512 127.448 106.512V108.512ZM134.66 109.956C136.682 110.891 138.48 112.204 140.059 113.904L141.525 112.544C139.775 110.66 137.766 109.189 135.5 108.14L134.66 109.956ZM141.792 113.224V86.296H139.792V113.224H141.792ZM140.792 87.296H149.336V85.296H140.792V87.296ZM202.814 108.376H203.814V107.376H202.814V108.376ZM202.814 157V158H203.814V157H202.814ZM195.423 155.224L194.431 155.351L194.439 155.419L194.457 155.485L195.423 155.224ZM194.751 149.992L195.742 149.865L195.466 147.71L194.009 149.321L194.751 149.992ZM187.646 155.656L188.119 156.537L188.128 156.533L187.646 155.656ZM171.566 156.472L171.16 157.386L171.169 157.39L171.178 157.393L171.566 156.472ZM166.479 152.728L165.72 153.38V153.38L166.479 152.728ZM163.358 146.92L162.399 147.204L162.403 147.216L163.358 146.92ZM162.351 108.376V107.376H161.351V108.376H162.351ZM170.895 108.376H171.895V107.376H170.895V108.376ZM173.391 147.928L172.619 148.565L172.625 148.572L173.391 147.928ZM188.174 149.176L188.652 150.054L188.657 150.052L188.174 149.176ZM194.271 144.184L195.022 144.844L195.271 144.561V144.184H194.271ZM194.271 108.376V107.376H193.271V108.376H194.271ZM201.814 108.376V157H203.814V108.376H201.814ZM202.814 156H197.727V158H202.814V156ZM197.727 156C197.282 156 197.018 155.894 196.849 155.764C196.679 155.633 196.506 155.401 196.388 154.963L194.457 155.485C194.659 156.231 195.03 156.887 195.628 157.348C196.227 157.81 196.955 158 197.727 158V156ZM196.414 155.097L195.742 149.865L193.759 150.119L194.431 155.351L196.414 155.097ZM194.009 149.321C191.968 151.579 189.687 153.396 187.165 154.779L188.128 156.533C190.854 155.036 193.309 153.077 195.492 150.663L194.009 149.321ZM187.174 154.775C184.714 156.095 181.873 156.768 178.622 156.768V158.768C182.156 158.768 185.331 158.033 188.119 156.537L187.174 154.775ZM178.622 156.768C176.075 156.768 173.859 156.354 171.955 155.551L171.178 157.393C173.37 158.318 175.858 158.768 178.622 158.768V156.768ZM171.973 155.558C170.086 154.72 168.512 153.559 167.237 152.076L165.72 153.38C167.197 155.097 169.015 156.432 171.16 157.386L171.973 155.558ZM167.237 152.076C165.961 150.592 164.982 148.782 164.314 146.624L162.403 147.216C163.143 149.602 164.244 151.664 165.72 153.38L167.237 152.076ZM164.317 146.636C163.677 144.47 163.351 142.055 163.351 139.384H161.351C161.351 142.217 161.696 144.826 162.4 147.204L164.317 146.636ZM163.351 139.384V108.376H161.351V139.384H163.351ZM162.351 109.376H170.895V107.376H162.351V109.376ZM169.895 108.376V139.384H171.895V108.376H169.895ZM169.895 139.384C169.895 143.203 170.757 146.309 172.619 148.565L174.162 147.291C172.696 145.515 171.895 142.925 171.895 139.384H169.895ZM172.625 148.572C174.567 150.879 177.466 151.952 181.118 151.952V149.952C177.859 149.952 175.606 149.009 174.156 147.284L172.625 148.572ZM181.118 151.952C183.81 151.952 186.327 151.32 188.652 150.054L187.697 148.298C185.67 149.4 183.483 149.952 181.118 149.952V151.952ZM188.657 150.052C190.977 148.774 193.098 147.033 195.022 144.844L193.519 143.524C191.731 145.559 189.788 147.146 187.692 148.3L188.657 150.052ZM195.271 144.184V108.376H193.271V144.184H195.271ZM194.271 109.376H202.814V107.376H194.271V109.376ZM250.202 117.016L249.396 116.424L249.393 116.428L250.202 117.016ZM246.794 117.544L246.208 118.355L246.223 118.366L246.239 118.376L246.794 117.544ZM244.634 116.2L244.134 117.066L244.141 117.07L244.148 117.074L244.634 116.2ZM241.514 114.904L241.19 115.85L241.205 115.855L241.22 115.86L241.514 114.904ZM230.666 115.576L231.081 116.486L231.087 116.483L231.094 116.48L230.666 115.576ZM226.058 119.224L225.269 118.609L225.262 118.619L226.058 119.224ZM223.274 125.032L222.311 124.761L222.308 124.773L223.274 125.032ZM223.37 140.536L222.41 140.816L222.411 140.82L223.37 140.536ZM226.202 146.296L225.412 146.909L225.418 146.918L225.426 146.927L226.202 146.296ZM230.666 149.848L230.232 150.749L230.242 150.754L230.252 150.758L230.666 149.848ZM241.706 150.328L242.042 151.27L242.052 151.266L242.062 151.262L241.706 150.328ZM245.018 148.648L244.456 147.821L244.449 147.825L244.442 147.83L245.018 148.648ZM247.226 147.016L247.866 147.784L247.87 147.781L247.226 147.016ZM250.634 147.064L249.817 147.641L249.829 147.657L249.841 147.674L250.634 147.064ZM253.034 150.184L253.813 150.811L254.306 150.198L253.826 149.574L253.034 150.184ZM249.434 153.544L248.866 152.721L249.434 153.544ZM245.066 155.896L245.434 156.826L245.444 156.822L245.066 155.896ZM240.218 157.24L240.05 156.254L240.218 157.24ZM226.538 155.992L226.141 156.91L226.145 156.912L226.538 155.992ZM219.77 151.144L219.025 151.811L219.03 151.817L219.77 151.144ZM215.114 122.632L214.165 122.316L214.162 122.325L215.114 122.632ZM219.53 114.712L218.776 114.055L218.775 114.056L219.53 114.712ZM226.682 109.48L226.28 108.564L226.277 108.566L226.682 109.48ZM245.498 109.288L245.101 110.206L245.108 110.209L245.115 110.212L245.498 109.288ZM252.458 113.944L253.264 114.536L253.772 113.844L253.165 113.237L252.458 113.944ZM249.393 116.428C249.176 116.726 248.987 116.917 248.834 117.032L250.034 118.632C250.392 118.363 250.715 118.01 251.01 117.604L249.393 116.428ZM248.834 117.032C248.808 117.051 248.694 117.12 248.378 117.12V119.12C248.958 119.12 249.547 118.997 250.034 118.632L248.834 117.032ZM248.378 117.12C248.165 117.12 247.829 117.033 247.348 116.712L246.239 118.376C246.91 118.823 247.631 119.12 248.378 119.12V117.12ZM247.379 116.733C246.762 116.287 246.006 115.818 245.119 115.326L244.148 117.074C244.99 117.542 245.674 117.969 246.208 118.355L247.379 116.733ZM245.133 115.334C244.218 114.806 243.104 114.347 241.808 113.948L241.22 115.86C242.42 116.229 243.385 116.634 244.134 117.066L245.133 115.334ZM241.837 113.958C240.485 113.495 238.864 113.28 237.002 113.28V115.28C238.724 115.28 240.11 115.481 241.19 115.85L241.837 113.958ZM237.002 113.28C234.481 113.28 232.218 113.734 230.238 114.672L231.094 116.48C232.761 115.69 234.722 115.28 237.002 115.28V113.28ZM230.251 114.666C228.279 115.566 226.615 116.884 225.269 118.609L226.846 119.839C227.997 118.364 229.405 117.25 231.081 116.486L230.251 114.666ZM225.262 118.619C223.958 120.335 222.979 122.389 222.311 124.761L224.236 125.303C224.848 123.131 225.726 121.313 226.854 119.829L225.262 118.619ZM222.308 124.773C221.673 127.144 221.362 129.777 221.362 132.664H223.362C223.362 129.919 223.658 127.464 224.24 125.291L222.308 124.773ZM221.362 132.664C221.362 135.682 221.706 138.403 222.41 140.816L224.33 140.256C223.689 138.061 223.362 135.534 223.362 132.664H221.362ZM222.411 140.82C223.111 143.188 224.106 145.225 225.412 146.909L226.992 145.683C225.865 144.231 224.972 142.428 224.329 140.252L222.411 140.82ZM225.426 146.927C226.763 148.573 228.367 149.851 230.232 150.749L231.1 148.947C229.508 148.181 228.136 147.091 226.978 145.665L225.426 146.927ZM230.252 150.758C232.157 151.624 234.269 152.048 236.57 152.048V150.048C234.519 150.048 232.694 149.672 231.08 148.938L230.252 150.758ZM236.57 152.048C238.717 152.048 240.553 151.802 242.042 151.27L241.369 149.386C240.171 149.814 238.583 150.048 236.57 150.048V152.048ZM242.062 151.262C243.458 150.731 244.642 150.135 245.593 149.466L244.442 147.83C243.666 148.377 242.642 148.901 241.35 149.394L242.062 151.262ZM245.579 149.475C246.492 148.856 247.256 148.292 247.866 147.784L246.586 146.248C246.043 146.7 245.336 147.224 244.456 147.821L245.579 149.475ZM247.87 147.781C248.366 147.363 248.737 147.248 249.002 147.248V145.248C248.114 145.248 247.302 145.645 246.582 146.251L247.87 147.781ZM249.002 147.248C249.403 147.248 249.632 147.38 249.817 147.641L251.451 146.487C250.867 145.66 250.009 145.248 249.002 145.248V147.248ZM249.841 147.674L252.241 150.794L253.826 149.574L251.426 146.454L249.841 147.674ZM252.255 149.557C251.257 150.796 250.128 151.85 248.866 152.721L250.002 154.367C251.428 153.382 252.698 152.196 253.813 150.811L252.255 149.557ZM248.866 152.721C247.583 153.607 246.191 154.356 244.688 154.97L245.444 156.822C247.076 156.156 248.596 155.337 250.002 154.367L248.866 152.721ZM244.698 154.966C243.229 155.548 241.681 155.977 240.05 156.254L240.385 158.226C242.147 157.927 243.83 157.46 245.434 156.826L244.698 154.966ZM240.05 156.254C238.411 156.533 236.739 156.672 235.034 156.672V158.672C236.849 158.672 238.633 158.523 240.385 158.226L240.05 156.254ZM235.034 156.672C232.12 156.672 229.422 156.136 226.93 155.072L226.145 156.912C228.901 158.088 231.868 158.672 235.034 158.672V156.672ZM226.934 155.074C224.474 154.011 222.335 152.479 220.51 150.471L219.03 151.817C221.044 154.033 223.417 155.733 226.141 156.91L226.934 155.074ZM220.515 150.477C218.694 148.444 217.252 145.939 216.201 142.941L214.314 143.603C215.439 146.813 217.005 149.556 219.025 151.811L220.515 150.477ZM216.201 142.941C215.158 139.963 214.626 136.542 214.626 132.664H212.626C212.626 136.722 213.182 140.373 214.314 143.603L216.201 142.941ZM214.626 132.664C214.626 129.14 215.109 125.901 216.065 122.939L214.162 122.325C213.134 125.507 212.626 128.956 212.626 132.664H214.626ZM216.062 122.948C217.049 119.988 218.46 117.467 220.284 115.368L218.775 114.056C216.76 116.373 215.226 119.132 214.165 122.316L216.062 122.948ZM220.284 115.369C222.136 113.243 224.4 111.585 227.087 110.394L226.277 108.566C223.332 109.871 220.827 111.701 218.776 114.055L220.284 115.369ZM227.083 110.396C229.784 109.213 232.907 108.608 236.474 108.608V106.608C232.681 106.608 229.276 107.251 226.28 108.564L227.083 110.396ZM236.474 108.608C239.79 108.608 242.658 109.15 245.101 110.206L245.894 108.37C243.154 107.186 240.006 106.608 236.474 106.608V108.608ZM245.115 110.212C247.617 111.249 249.827 112.728 251.751 114.651L253.165 113.237C251.056 111.128 248.626 109.503 245.881 108.364L245.115 110.212ZM251.652 113.352L249.396 116.424L251.008 117.608L253.264 114.536L251.652 113.352ZM288.557 135.112H289.557V134.079L288.525 134.113L288.557 135.112ZM278.478 136.072L278.649 137.057L278.658 137.056L278.478 136.072ZM271.71 137.992L271.296 137.082L271.289 137.085L271.71 137.992ZM267.917 140.824L267.112 140.232L267.106 140.239L267.101 140.247L267.917 140.824ZM267.389 147.784L266.477 148.193L267.389 147.784ZM269.07 150.088L268.416 150.845L268.434 150.861L268.453 150.876L269.07 150.088ZM271.613 151.384L271.326 152.342L271.345 152.347L271.364 152.352L271.613 151.384ZM278.91 151.336L279.134 152.31L279.146 152.308L279.158 152.305L278.91 151.336ZM282.413 149.992L281.956 149.103L281.946 149.108L282.413 149.992ZM285.581 147.928L284.966 147.14L284.96 147.145L284.954 147.15L285.581 147.928ZM288.557 145.192L289.287 145.876L289.557 145.587V145.192H288.557ZM260.958 115.24L260.263 114.52L259.707 115.056L260.086 115.73L260.958 115.24ZM269.646 109.432L269.264 108.508L269.646 109.432ZM287.214 108.856L287.604 107.935L287.214 108.856ZM292.542 112.6L293.285 111.931V111.931L292.542 112.6ZM295.805 118.408L294.854 118.716L295.805 118.408ZM296.91 157V158H297.91V157H296.91ZM291.198 156.616L290.657 157.457L290.679 157.471L290.701 157.484L291.198 156.616ZM290.142 154.984L289.163 155.188L289.173 155.239L289.189 155.289L290.142 154.984ZM289.182 150.376L290.16 150.172L289.8 148.442L288.502 149.642L289.182 150.376ZM285.438 153.544L286.031 154.349L286.037 154.344L286.044 154.339L285.438 153.544ZM281.598 155.848L282.01 156.759L282.019 156.755L282.027 156.751L281.598 155.848ZM277.277 157.24L277.074 156.261L277.062 156.264L277.05 156.266L277.277 157.24ZM266.91 157L266.599 157.95L266.607 157.953L266.615 157.956L266.91 157ZM262.542 154.6L261.886 155.355L261.896 155.363L262.542 154.6ZM259.613 150.616L258.695 151.012L258.7 151.023L258.705 151.034L259.613 150.616ZM260.141 139.336L260.999 139.851L261.003 139.844L260.141 139.336ZM265.277 134.584L265.78 135.449L265.277 134.584ZM274.542 131.224L274.763 132.199L274.771 132.197L274.542 131.224ZM288.557 129.688L288.581 130.688L289.557 130.665V129.688H288.557ZM286.109 117.352L285.342 117.993L285.348 118L286.109 117.352ZM273.63 115.24L273.971 116.18L273.983 116.175L273.63 115.24ZM269.934 117.016L270.464 117.864L270.47 117.86L269.934 117.016ZM267.245 118.792L267.817 119.613L267.824 119.608L267.245 118.792ZM263.549 119.128L262.94 119.921L262.96 119.936L262.98 119.95L263.549 119.128ZM262.493 117.976L261.622 118.466L261.636 118.492L261.652 118.517L262.493 117.976ZM288.525 134.113C284.557 134.242 281.144 134.565 278.297 135.088L278.658 137.056C281.379 136.555 284.686 136.238 288.59 136.111L288.525 134.113ZM278.306 135.087C275.504 135.576 273.159 136.235 271.296 137.082L272.123 138.902C273.78 138.149 275.947 137.528 278.649 137.057L278.306 135.087ZM271.289 137.085C269.468 137.928 268.044 138.963 267.112 140.232L268.723 141.416C269.391 140.509 270.495 139.656 272.13 138.899L271.289 137.085ZM267.101 140.247C266.212 141.506 265.766 142.924 265.766 144.472H267.766C267.766 143.332 268.087 142.318 268.734 141.401L267.101 140.247ZM265.766 144.472C265.766 145.858 265.99 147.108 266.477 148.193L268.302 147.375C267.957 146.604 267.766 145.646 267.766 144.472H265.766ZM266.477 148.193C266.947 149.242 267.591 150.133 268.416 150.845L269.723 149.331C269.14 148.827 268.664 148.182 268.302 147.375L266.477 148.193ZM268.453 150.876C269.294 151.534 270.256 152.021 271.326 152.342L271.901 150.426C271.051 150.171 270.317 149.794 269.686 149.3L268.453 150.876ZM271.364 152.352C272.444 152.631 273.585 152.768 274.781 152.768V150.768C273.738 150.768 272.767 150.649 271.863 150.416L271.364 152.352ZM274.781 152.768C276.348 152.768 277.801 152.618 279.134 152.31L278.685 150.362C277.522 150.63 276.223 150.768 274.781 150.768V152.768ZM279.158 152.305C280.479 151.966 281.721 151.49 282.881 150.876L281.946 149.108C280.93 149.646 279.836 150.066 278.661 150.367L279.158 152.305ZM282.871 150.881C284.052 150.274 285.165 149.549 286.209 148.706L284.954 147.15C284.014 147.907 283.015 148.558 281.956 149.103L282.871 150.881ZM286.197 148.716C287.265 147.882 288.295 146.935 289.287 145.876L287.828 144.508C286.9 145.497 285.946 146.374 284.966 147.14L286.197 148.716ZM289.557 145.192V135.112H287.557V145.192H289.557ZM261.652 115.96C264.259 113.445 267.051 111.583 270.027 110.356L269.264 108.508C266.032 109.841 263.032 111.851 260.263 114.52L261.652 115.96ZM270.027 110.356C272.996 109.132 276.304 108.512 279.965 108.512V106.512C276.075 106.512 272.503 107.172 269.264 108.508L270.027 110.356ZM279.965 108.512C282.576 108.512 284.855 108.942 286.823 109.777L287.604 107.935C285.348 106.978 282.795 106.512 279.965 106.512V108.512ZM286.823 109.777C288.809 110.619 290.462 111.785 291.798 113.269L293.285 111.931C291.741 110.215 289.842 108.885 287.604 107.935L286.823 109.777ZM291.798 113.269C293.134 114.754 294.157 116.563 294.854 118.716L296.757 118.1C295.982 115.709 294.829 113.646 293.285 111.931L291.798 113.269ZM294.854 118.716C295.554 120.876 295.91 123.266 295.91 125.896H297.91C297.91 123.086 297.529 120.484 296.757 118.1L294.854 118.716ZM295.91 125.896V157H297.91V125.896H295.91ZM296.91 156H293.118V158H296.91V156ZM293.118 156C292.364 156 291.925 155.88 291.694 155.748L290.701 157.484C291.366 157.864 292.207 158 293.118 158V156ZM291.738 155.775C291.57 155.667 291.318 155.378 291.094 154.679L289.189 155.289C289.477 156.19 289.929 156.989 290.657 157.457L291.738 155.775ZM291.12 154.78L290.16 150.172L288.203 150.58L289.163 155.188L291.12 154.78ZM288.502 149.642C287.242 150.807 286.019 151.843 284.831 152.749L286.044 154.339C287.288 153.389 288.561 152.313 289.861 151.11L288.502 149.642ZM284.844 152.739C283.679 153.598 282.453 154.333 281.168 154.945L282.027 156.751C283.43 156.083 284.764 155.282 286.031 154.349L284.844 152.739ZM281.185 154.937C279.912 155.513 278.542 155.955 277.074 156.261L277.481 158.219C279.085 157.885 280.595 157.399 282.01 156.759L281.185 154.937ZM277.05 156.266C275.633 156.598 274.032 156.768 272.238 156.768V158.768C274.155 158.768 275.913 158.586 277.505 158.214L277.05 156.266ZM272.238 156.768C270.441 156.768 268.765 156.525 267.204 156.044L266.615 157.956C268.382 158.499 270.258 158.768 272.238 158.768V156.768ZM267.22 156.05C265.67 155.543 264.33 154.803 263.187 153.837L261.896 155.363C263.249 156.509 264.821 157.369 266.599 157.95L267.22 156.05ZM263.197 153.845C262.098 152.891 261.204 151.681 260.522 150.198L258.705 151.034C259.495 152.751 260.553 154.197 261.886 155.355L263.197 153.845ZM260.532 150.22C259.893 148.739 259.557 146.96 259.557 144.856H257.557C257.557 147.168 257.926 149.229 258.695 151.012L260.532 150.22ZM259.557 144.856C259.557 143.13 260.03 141.466 260.999 139.85L259.284 138.822C258.141 140.726 257.557 142.742 257.557 144.856H259.557ZM261.003 139.844C261.949 138.239 263.515 136.765 265.78 135.449L264.775 133.719C262.304 135.155 260.446 136.849 259.28 138.828L261.003 139.844ZM265.78 135.449C268.032 134.14 271.015 133.05 274.763 132.199L274.32 130.249C270.452 131.126 267.259 132.276 264.775 133.719L265.78 135.449ZM274.771 132.197C278.49 131.322 283.088 130.815 288.581 130.688L288.534 128.688C282.955 128.817 278.209 129.334 274.312 130.251L274.771 132.197ZM289.557 129.688V125.896H287.557V129.688H289.557ZM289.557 125.896C289.557 121.997 288.718 118.876 286.871 116.704L285.348 118C286.765 119.668 287.557 122.243 287.557 125.896H289.557ZM286.877 116.711C285.011 114.479 282.314 113.424 278.958 113.424V115.424C281.873 115.424 283.944 116.321 285.342 117.993L286.877 116.711ZM278.958 113.424C276.767 113.424 274.862 113.705 273.276 114.305L273.983 116.175C275.277 115.687 276.924 115.424 278.958 115.424V113.424ZM273.288 114.3C271.824 114.832 270.525 115.455 269.397 116.172L270.47 117.86C271.454 117.233 272.619 116.672 273.971 116.18L273.288 114.3ZM269.404 116.168C268.367 116.816 267.455 117.418 266.667 117.976L267.824 119.608C268.572 119.078 269.452 118.496 270.464 117.864L269.404 116.168ZM266.674 117.971C266.069 118.392 265.528 118.56 265.038 118.56V120.56C266.019 120.56 266.95 120.216 267.817 119.613L266.674 117.971ZM265.038 118.56C264.636 118.56 264.345 118.462 264.119 118.306L262.98 119.95C263.586 120.37 264.287 120.56 265.038 120.56V118.56ZM264.159 118.335C263.836 118.086 263.561 117.788 263.335 117.435L261.652 118.517C262.002 119.06 262.431 119.53 262.94 119.921L264.159 118.335ZM263.365 117.486L261.829 114.75L260.086 115.73L261.622 118.466L263.365 117.486ZM354.388 157V158H355.388V157H354.388ZM345.844 157H344.844V158H345.844V157ZM345.844 115.528H346.844V114.528H345.844V115.528ZM320.788 115.528V114.528H319.788V115.528H320.788ZM322.276 149.272L322.983 148.565L322.276 149.272ZM328.42 150.424L328.75 151.368L328.763 151.363L328.776 151.358L328.42 150.424ZM330.148 149.608L329.634 148.751L330.148 149.608ZM331.348 148.84L331.921 149.659L331.929 149.654L331.936 149.649L331.348 148.84ZM333.46 149.272L334.313 148.75L334.306 148.739L334.3 148.729L333.46 149.272ZM335.956 153.352L336.639 154.083L337.235 153.526L336.809 152.83L335.956 153.352ZM330.628 156.616L330.974 157.554L330.987 157.549L330.628 156.616ZM315.316 154.552L314.593 155.243L314.598 155.248L315.316 154.552ZM312.244 115.528H313.244V114.528H312.244V115.528ZM305.092 115.096L304.419 115.836L304.439 115.853L304.459 115.87L305.092 115.096ZM304.564 110.248L304.433 109.257L303.564 109.372V110.248H304.564ZM312.532 109.192L312.663 110.183L313.424 110.083L313.523 109.322L312.532 109.192ZM314.5 94.216L313.519 94.0199L313.513 94.0526L313.509 94.0857L314.5 94.216ZM315.124 93.064L315.793 93.8073L315.797 93.8039L315.124 93.064ZM320.788 92.584H321.788V91.584H320.788V92.584ZM320.788 109.336H319.788V110.336H320.788V109.336ZM354.388 109.336H355.388V108.336H354.388V109.336ZM355.972 95.128L355.07 94.6965L355.066 94.7053L355.062 94.7142L355.972 95.128ZM354.628 97L353.941 96.273L353.931 96.2828L353.921 96.2929L354.628 97ZM348.004 98.296L347.59 99.2064L347.598 99.2098L347.605 99.2131L348.004 98.296ZM346.132 97L345.425 97.7071V97.7071L346.132 97ZM344.836 95.128L343.919 95.5267L343.922 95.5343L343.926 95.5418L344.836 95.128ZM344.836 90.424L345.753 90.8227L345.756 90.8157L345.759 90.8086L344.836 90.424ZM346.132 88.456L346.839 89.1631L346.849 89.153L346.859 89.1426L346.132 88.456ZM348.004 87.112L347.605 86.1949L347.598 86.1982L347.59 86.2016L348.004 87.112ZM354.628 88.456L353.901 89.1426L353.921 89.1634L353.941 89.183L354.628 88.456ZM355.972 90.424L355.049 90.8086L355.059 90.8323L355.07 90.8554L355.972 90.424ZM354.388 156H345.844V158H354.388V156ZM346.844 157V115.528H344.844V157H346.844ZM345.844 114.528H320.788V116.528H345.844V114.528ZM319.788 115.528V144.712H321.788V115.528H319.788ZM319.788 144.712C319.788 146.903 320.318 148.728 321.569 149.979L322.983 148.565C322.25 147.832 321.788 146.617 321.788 144.712H319.788ZM321.569 149.979C322.771 151.181 324.317 151.76 326.116 151.76V149.76C324.779 149.76 323.765 149.347 322.983 148.565L321.569 149.979ZM326.116 151.76C327.09 151.76 327.976 151.639 328.75 151.368L328.09 149.48C327.584 149.657 326.934 149.76 326.116 149.76V151.76ZM328.776 151.358C329.488 151.087 330.12 150.791 330.663 150.465L329.634 148.751C329.216 149.001 328.696 149.249 328.064 149.49L328.776 151.358ZM330.663 150.465C331.155 150.17 331.576 149.901 331.921 149.659L330.775 148.021C330.48 148.227 330.101 148.47 329.634 148.751L330.663 150.465ZM331.936 149.649C332.069 149.552 332.165 149.5 332.228 149.474C332.291 149.447 332.298 149.456 332.26 149.456V147.456C331.69 147.456 331.175 147.729 330.76 148.031L331.936 149.649ZM332.26 149.456C332.267 149.456 332.286 149.454 332.334 149.487C332.393 149.527 332.494 149.619 332.62 149.815L334.3 148.729C333.852 148.037 333.184 147.456 332.26 147.456V149.456ZM332.607 149.794L335.103 153.874L336.809 152.83L334.313 148.75L332.607 149.794ZM335.273 152.621C333.905 153.901 332.242 154.924 330.269 155.683L330.987 157.549C333.174 156.708 335.063 155.555 336.639 154.083L335.273 152.621ZM330.282 155.678C328.312 156.405 326.285 156.768 324.196 156.768V158.768C326.523 158.768 328.784 158.363 330.974 157.554L330.282 155.678ZM324.196 156.768C320.545 156.768 317.876 155.754 316.034 153.856L314.598 155.248C316.916 157.638 320.167 158.768 324.196 158.768V156.768ZM316.039 153.861C314.225 151.962 313.244 149.157 313.244 145.288H311.244C311.244 149.483 312.311 152.854 314.593 155.243L316.039 153.861ZM313.244 145.288V115.528H311.244V145.288H313.244ZM312.244 114.528H306.388V116.528H312.244V114.528ZM306.388 114.528C306.076 114.528 305.876 114.445 305.725 114.322L304.459 115.87C305.012 116.323 305.676 116.528 306.388 116.528V114.528ZM305.765 114.356C305.686 114.285 305.564 114.116 305.564 113.656H303.564C303.564 114.476 303.794 115.267 304.419 115.836L305.765 114.356ZM305.564 113.656V110.248H303.564V113.656H305.564ZM304.695 111.239L312.663 110.183L312.401 108.201L304.433 109.257L304.695 111.239ZM313.523 109.322L315.491 94.3463L313.509 94.0857L311.541 109.062L313.523 109.322ZM315.481 94.4121C315.54 94.1131 315.655 93.9319 315.793 93.8073L314.455 92.3207C313.953 92.7721 313.652 93.3589 313.519 94.0199L315.481 94.4121ZM315.797 93.8039C315.938 93.6753 316.135 93.584 316.468 93.584V91.584C315.713 91.584 315.014 91.8127 314.451 92.3241L315.797 93.8039ZM316.468 93.584H320.788V91.584H316.468V93.584ZM319.788 92.584V109.336H321.788V92.584H319.788ZM320.788 110.336H354.388V108.336H320.788V110.336ZM353.388 109.336V157H355.388V109.336H353.388ZM355.5 92.776C355.5 93.4617 355.356 94.098 355.07 94.6965L356.874 95.5595C357.292 94.686 357.5 93.7543 357.5 92.776H355.5ZM355.062 94.7142C354.797 95.2974 354.426 95.8157 353.941 96.273L355.315 97.727C355.982 97.0963 356.507 96.3666 356.882 95.5418L355.062 94.7142ZM353.921 96.2929C353.469 96.7444 352.935 97.1068 352.309 97.3789L353.107 99.2131C353.953 98.8452 354.699 98.3436 355.335 97.7071L353.921 96.2929ZM352.309 97.3789C351.704 97.6422 351.056 97.776 350.356 97.776V99.776C351.32 99.776 352.24 99.5898 353.107 99.2131L352.309 97.3789ZM350.356 97.776C349.656 97.776 349.008 97.6422 348.403 97.3789L347.605 99.2131C348.472 99.5898 349.392 99.776 350.356 99.776V97.776ZM348.418 97.3856C347.822 97.115 347.298 96.7517 346.839 96.2929L345.425 97.7071C346.054 98.3363 346.778 98.837 347.59 99.2064L348.418 97.3856ZM346.839 96.2929C346.38 95.8341 346.017 95.3096 345.746 94.7142L343.926 95.5418C344.295 96.3544 344.796 97.0779 345.425 97.7071L346.839 96.2929ZM345.753 94.7293C345.49 94.1237 345.356 93.476 345.356 92.776H343.356C343.356 93.74 343.542 94.6603 343.919 95.5267L345.753 94.7293ZM345.356 92.776C345.356 92.076 345.49 91.4283 345.753 90.8227L343.919 90.0253C343.542 90.8917 343.356 91.812 343.356 92.776H345.356ZM345.759 90.8086C346.033 90.1513 346.395 89.6074 346.839 89.1631L345.425 87.7489C344.781 88.3925 344.279 89.1607 343.913 90.0394L345.759 90.8086ZM346.859 89.1426C347.316 88.6584 347.835 88.2874 348.418 88.0224L347.59 86.2016C346.765 86.5766 346.036 87.1016 345.405 87.7694L346.859 89.1426ZM348.403 88.0291C349.008 87.7658 349.656 87.632 350.356 87.632V85.632C349.392 85.632 348.472 85.8182 347.605 86.1949L348.403 88.0291ZM350.356 87.632C351.056 87.632 351.704 87.7658 352.309 88.0291L353.107 86.1949C352.24 85.8182 351.32 85.632 350.356 85.632V87.632ZM352.309 88.0291C352.923 88.2959 353.451 88.6661 353.901 89.1426L355.355 87.7694C354.717 87.0939 353.965 86.5681 353.107 86.1949L352.309 88.0291ZM353.941 89.183C354.41 89.6259 354.78 90.1634 355.049 90.8086L356.895 90.0394C356.524 89.1486 355.998 88.3741 355.315 87.729L353.941 89.183ZM355.07 90.8554C355.356 91.454 355.5 92.0903 355.5 92.776H357.5C357.5 91.7977 357.292 90.866 356.874 89.9925L355.07 90.8554ZM398.52 109.384L398.136 110.307L398.52 109.384ZM405.816 114.424L405.083 115.104L405.816 114.424ZM410.424 122.344L409.477 122.666L409.482 122.678L410.424 122.344ZM410.424 143.032L409.482 142.698L409.479 142.707L410.424 143.032ZM405.816 150.904L405.083 150.224V150.224L405.816 150.904ZM398.52 155.944L398.895 156.871L398.904 156.867L398.52 155.944ZM379.224 155.944L378.84 156.867L378.853 156.872L379.224 155.944ZM371.928 150.904L372.662 150.224V150.224L371.928 150.904ZM367.272 143.032L366.327 143.357L366.33 143.366L367.272 143.032ZM367.272 122.344L366.329 122.013L366.327 122.019L367.272 122.344ZM371.928 114.424L372.662 115.104L371.928 114.424ZM379.224 109.384L378.844 108.459L378.84 108.461L379.224 109.384ZM399.672 146.2L400.476 146.795L400.479 146.791L399.672 146.2ZM382.536 115.576L382.121 114.666L382.115 114.669L382.536 115.576ZM378.024 119.176L377.234 118.563L377.226 118.573L378.024 119.176ZM375.336 124.984L374.369 124.729L374.367 124.738L375.336 124.984ZM378.024 146.2L377.218 146.791L377.224 146.8L378.024 146.2ZM388.92 108.608C392.36 108.608 395.427 109.181 398.136 110.307L398.904 108.461C395.917 107.219 392.584 106.608 388.92 106.608V108.608ZM398.136 110.307C400.857 111.438 403.168 113.037 405.083 115.104L406.55 113.744C404.432 111.459 401.879 109.698 398.904 108.461L398.136 110.307ZM405.083 115.104C406.994 117.166 408.462 119.681 409.478 122.666L411.371 122.022C410.275 118.799 408.671 116.034 406.55 113.744L405.083 115.104ZM409.482 122.678C410.526 125.626 411.056 128.951 411.056 132.664H413.056C413.056 128.761 412.499 125.206 411.367 122.01L409.482 122.678ZM411.056 132.664C411.056 136.41 410.526 139.751 409.482 142.698L411.367 143.366C412.499 140.169 413.056 136.598 413.056 132.664H411.056ZM409.479 142.707C408.463 145.66 406.995 148.16 405.083 150.224L406.55 151.584C408.669 149.296 410.273 146.548 411.37 143.357L409.479 142.707ZM405.083 150.224C403.168 152.291 400.857 153.89 398.136 155.021L398.904 156.867C401.879 155.63 404.432 153.869 406.55 151.584L405.083 150.224ZM398.145 155.017C395.434 156.114 392.364 156.672 388.92 156.672V158.672C392.581 158.672 395.911 158.078 398.895 156.871L398.145 155.017ZM388.92 156.672C385.444 156.672 382.341 156.114 379.596 155.016L378.853 156.872C381.868 158.078 385.229 158.672 388.92 158.672V156.672ZM379.608 155.021C376.887 153.89 374.576 152.291 372.662 150.224L371.195 151.584C373.312 153.869 375.865 155.63 378.84 156.867L379.608 155.021ZM372.662 150.224C370.747 148.158 369.262 145.655 368.215 142.698L366.33 143.366C367.459 146.553 369.077 149.298 371.195 151.584L372.662 150.224ZM368.218 142.707C367.204 139.757 366.688 136.413 366.688 132.664H364.688C364.688 136.595 365.229 140.163 366.327 143.357L368.218 142.707ZM366.688 132.664C366.688 128.948 367.203 125.62 368.218 122.669L366.327 122.019C365.229 125.212 364.688 128.764 364.688 132.664H366.688ZM368.216 122.675C369.264 119.686 370.749 117.169 372.662 115.104L371.195 113.744C369.076 116.031 367.457 118.794 366.329 122.013L368.216 122.675ZM372.662 115.104C374.576 113.037 376.887 111.438 379.608 110.307L378.84 108.461C375.865 109.698 373.312 111.459 371.195 113.744L372.662 115.104ZM379.604 110.309C382.347 109.181 385.447 108.608 388.92 108.608V106.608C385.225 106.608 381.861 107.219 378.844 108.459L379.604 110.309ZM388.92 152C393.964 152 397.88 150.303 400.476 146.795L398.868 145.605C396.729 148.497 393.477 150 388.92 150V152ZM400.479 146.791C403.017 143.327 404.224 138.595 404.224 132.712H402.224C402.224 138.349 401.064 142.609 398.866 145.609L400.479 146.791ZM404.224 132.712C404.224 126.799 403.017 122.05 400.479 118.585L398.866 119.767C401.063 122.766 402.224 127.041 402.224 132.712H404.224ZM400.479 118.585C397.884 115.043 393.968 113.328 388.92 113.328V115.328C393.473 115.328 396.724 116.845 398.866 119.767L400.479 118.585ZM388.92 113.328C386.375 113.328 384.1 113.763 382.121 114.666L382.951 116.486C384.62 115.725 386.602 115.328 388.92 115.328V113.328ZM382.115 114.669C380.178 115.568 378.547 116.87 377.234 118.563L378.814 119.789C379.933 118.346 381.311 117.248 382.957 116.483L382.115 114.669ZM377.226 118.573C375.949 120.265 375.004 122.325 374.369 124.729L376.303 125.239C376.885 123.035 377.731 121.223 378.822 119.779L377.226 118.573ZM374.367 124.738C373.767 127.106 373.472 129.767 373.472 132.712H375.472C375.472 129.897 375.754 127.406 376.306 125.23L374.367 124.738ZM373.472 132.712C373.472 138.595 374.68 143.327 377.218 146.791L378.831 145.609C376.633 142.609 375.472 138.349 375.472 132.712H373.472ZM377.224 146.8C379.855 150.307 383.818 152 388.92 152V150C384.295 150 380.994 148.493 378.824 145.6L377.224 146.8ZM430.957 115.432L429.965 115.558L430.242 117.736L431.703 116.098L430.957 115.432ZM434.317 112.216L434.947 112.993L434.317 112.216ZM438.061 109.768L438.517 110.658L438.525 110.654L438.061 109.768ZM442.285 108.184L442.518 109.157L442.525 109.155L442.532 109.153L442.285 108.184ZM454.141 108.952L453.735 109.866L453.744 109.87L453.752 109.873L454.141 108.952ZM459.229 112.696L458.457 113.332L458.464 113.34L458.471 113.348L459.229 112.696ZM462.349 118.504L463.304 118.208L462.349 118.504ZM463.405 157V158H464.405V157H463.405ZM454.813 157H453.813V158H454.813V157ZM452.269 117.496L451.493 118.127L451.498 118.133L451.504 118.14L452.269 117.496ZM437.533 116.248L437.051 115.372L437.045 115.375L437.533 116.248ZM431.485 121.192L430.739 120.526L430.485 120.811V121.192H431.485ZM431.485 157V158H432.485V157H431.485ZM422.893 157H421.893V158H422.893V157ZM422.893 108.376V107.376H421.893V108.376H422.893ZM430.285 110.152L431.277 110.026L431.27 109.97L431.257 109.916L430.285 110.152ZM431.703 116.098C432.725 114.952 433.806 113.918 434.947 112.993L433.687 111.439C432.46 112.434 431.301 113.544 430.211 114.766L431.703 116.098ZM434.947 112.993C436.079 112.075 437.269 111.297 438.517 110.658L437.605 108.878C436.229 109.583 434.923 110.437 433.687 111.439L434.947 112.993ZM438.525 110.654C439.796 109.988 441.126 109.489 442.518 109.157L442.052 107.211C440.5 107.583 439.014 108.14 437.597 108.882L438.525 110.654ZM442.532 109.153C443.947 108.792 445.479 108.608 447.133 108.608V106.608C445.331 106.608 443.631 106.808 442.038 107.215L442.532 109.153ZM447.133 108.608C449.677 108.608 451.87 109.037 453.735 109.866L454.547 108.038C452.38 107.075 449.901 106.608 447.133 106.608V108.608ZM453.752 109.873C455.659 110.678 457.221 111.831 458.457 113.332L460.001 112.06C458.549 110.297 456.719 108.954 454.53 108.031L453.752 109.873ZM458.471 113.348C459.747 114.832 460.725 116.642 461.394 118.8L463.304 118.208C462.565 115.822 461.463 113.76 459.987 112.044L458.471 113.348ZM461.394 118.8C462.064 120.962 462.405 123.373 462.405 126.04H464.405C464.405 123.203 464.042 120.59 463.304 118.208L461.394 118.8ZM462.405 126.04V157H464.405V126.04H462.405ZM463.405 156H454.813V158H463.405V156ZM455.813 157V126.04H453.813V157H455.813ZM455.813 126.04C455.813 122.217 454.932 119.109 453.034 116.852L451.504 118.14C452.998 119.915 453.813 122.503 453.813 126.04H455.813ZM453.045 116.865C451.138 114.518 448.265 113.424 444.637 113.424V115.424C447.857 115.424 450.072 116.378 451.493 118.127L453.045 116.865ZM444.637 113.424C441.941 113.424 439.407 114.074 437.051 115.372L438.015 117.124C440.075 115.99 442.277 115.424 444.637 115.424V113.424ZM437.045 115.375C434.761 116.651 432.66 118.373 430.739 120.526L432.231 121.858C434.022 119.851 435.953 118.277 438.021 117.121L437.045 115.375ZM430.485 121.192V157H432.485V121.192H430.485ZM431.485 156H422.893V158H431.485V156ZM423.893 157V108.376H421.893V157H423.893ZM422.893 109.376H428.029V107.376H422.893V109.376ZM428.029 109.376C428.474 109.376 428.73 109.482 428.886 109.606C429.043 109.729 429.208 109.954 429.313 110.388L431.257 109.916C431.074 109.166 430.719 108.503 430.124 108.034C429.528 107.566 428.8 107.376 428.029 107.376V109.376ZM429.293 110.278L429.965 115.558L431.949 115.306L431.277 110.026L429.293 110.278Z" fill="#263C29"/>
</svg>
