<svg width="1366" height="2237" viewBox="0 0 1366 2237" fill="none" xmlns="http://www.w3.org/2000/svg">
<path d="M-1 2V2C52.2666 2 95.4478 45.1812 95.4478 98.4478V109.464C95.4478 168.815 143.561 216.928 202.912 216.928H961.46C1094.65 216.928 1202.63 324.903 1202.63 458.097V458.097C1202.63 591.291 1094.65 699.266 961.46 699.266H343.365C206.444 699.266 95.4478 810.262 95.4478 947.183V947.183C95.4478 1084.1 206.444 1195.1 343.365 1195.1H1033.9C1153.72 1195.1 1250.85 1292.23 1250.85 1412.05V1412.05C1250.85 1531.87 1153.72 1629 1033.9 1629H319.698C195.848 1629 95.4478 1729.4 95.4478 1853.25V1853.25C95.4478 1977.1 195.848 2077.5 319.698 2077.5H1172.35C1215.71 2077.5 1250.85 2112.65 1250.85 2156V2156C1250.85 2199.35 1286 2234.5 1329.35 2234.5H1366" stroke="#CDC945" stroke-width="4" stroke-linecap="round" stroke-dasharray="20 20"/>
</svg>
