<svg width="341" height="239" viewBox="0 0 341 239" fill="none" xmlns="http://www.w3.org/2000/svg">
<path d="M43.968 98.968C43.68 99.448 43.36 99.816 43.008 100.072C42.688 100.296 42.288 100.408 41.808 100.408C41.264 100.408 40.624 100.136 39.888 99.592C39.152 99.048 38.224 98.456 37.104 97.816C36.016 97.144 34.688 96.536 33.12 95.992C31.584 95.448 29.712 95.176 27.504 95.176C25.424 95.176 23.584 95.464 21.984 96.04C20.416 96.584 19.088 97.336 18 98.296C16.944 99.256 16.144 100.392 15.6 101.704C15.056 102.984 14.784 104.376 14.784 105.88C14.784 107.8 15.248 109.4 16.176 110.68C17.136 111.928 18.384 113 19.92 113.896C21.488 114.792 23.248 115.576 25.2 116.248C27.184 116.888 29.2 117.56 31.248 118.264C33.328 118.968 35.344 119.768 37.296 120.664C39.28 121.528 41.04 122.632 42.576 123.976C44.144 125.32 45.392 126.968 46.32 128.92C47.28 130.872 47.76 133.272 47.76 136.12C47.76 139.128 47.248 141.96 46.224 144.616C45.2 147.24 43.696 149.528 41.712 151.48C39.76 153.432 37.344 154.968 34.464 156.088C31.616 157.208 28.368 157.768 24.72 157.768C20.24 157.768 16.176 156.968 12.528 155.368C8.88 153.736 5.76 151.544 3.168 148.792L5.856 144.376C6.112 144.024 6.416 143.736 6.768 143.512C7.152 143.256 7.568 143.128 8.016 143.128C8.432 143.128 8.896 143.304 9.408 143.656C9.952 143.976 10.56 144.392 11.232 144.904C11.904 145.416 12.672 145.976 13.536 146.584C14.4 147.192 15.376 147.752 16.464 148.264C17.584 148.776 18.848 149.208 20.256 149.56C21.664 149.88 23.248 150.04 25.008 150.04C27.216 150.04 29.184 149.736 30.912 149.128C32.64 148.52 34.096 147.672 35.28 146.584C36.496 145.464 37.424 144.136 38.064 142.6C38.704 141.064 39.024 139.352 39.024 137.464C39.024 135.384 38.544 133.688 37.584 132.376C36.656 131.032 35.424 129.912 33.888 129.016C32.352 128.12 30.592 127.368 28.608 126.76C26.624 126.12 24.608 125.48 22.56 124.84C20.512 124.168 18.496 123.4 16.512 122.536C14.528 121.672 12.768 120.552 11.232 119.176C9.696 117.8 8.448 116.088 7.488 114.04C6.56 111.96 6.096 109.4 6.096 106.36C6.096 103.928 6.56 101.576 7.488 99.304C8.448 97.032 9.824 95.016 11.616 93.256C13.44 91.496 15.664 90.088 18.288 89.032C20.944 87.976 23.984 87.448 27.408 87.448C31.248 87.448 34.736 88.056 37.872 89.272C41.04 90.488 43.824 92.248 46.224 94.552L43.968 98.968ZM66.6413 86.296V127.912H68.8493C69.4893 127.912 70.0173 127.832 70.4333 127.672C70.8813 127.48 71.3453 127.112 71.8253 126.568L87.1853 110.104C87.6333 109.56 88.0973 109.144 88.5773 108.856C89.0893 108.536 89.7613 108.376 90.5933 108.376H98.3213L80.4173 127.432C79.5533 128.52 78.6253 129.368 77.6333 129.976C78.2093 130.36 78.7213 130.808 79.1693 131.32C79.6493 131.8 80.0973 132.36 80.5133 133L99.5212 157H91.8893C91.1533 157 90.5133 156.888 89.9693 156.664C89.4573 156.408 89.0093 155.96 88.6253 155.32L72.6413 135.4C72.1613 134.728 71.6813 134.296 71.2013 134.104C70.7533 133.88 70.0493 133.768 69.0893 133.768H66.6413V157H58.0493V86.296H66.6413ZM115.823 108.376V157H107.279V108.376H115.823ZM117.647 93.112C117.647 93.944 117.471 94.728 117.119 95.464C116.799 96.168 116.351 96.808 115.775 97.384C115.231 97.928 114.575 98.36 113.807 98.68C113.071 99 112.287 99.16 111.455 99.16C110.623 99.16 109.839 99 109.103 98.68C108.399 98.36 107.775 97.928 107.231 97.384C106.687 96.808 106.255 96.168 105.935 95.464C105.615 94.728 105.455 93.944 105.455 93.112C105.455 92.28 105.615 91.496 105.935 90.76C106.255 89.992 106.687 89.336 107.231 88.792C107.775 88.216 108.399 87.768 109.103 87.448C109.839 87.128 110.623 86.968 111.455 86.968C112.287 86.968 113.071 87.128 113.807 87.448C114.575 87.768 115.231 88.216 115.775 88.792C116.351 89.336 116.799 89.992 117.119 90.76C117.471 91.496 117.647 92.28 117.647 93.112ZM138.694 86.296V157H130.15V86.296H138.694ZM161.381 86.296V157H152.837V86.296H161.381ZM203.557 116.392C203.173 117.096 202.581 117.448 201.781 117.448C201.301 117.448 200.757 117.272 200.149 116.92C199.541 116.568 198.789 116.184 197.893 115.768C197.029 115.32 195.989 114.92 194.773 114.568C193.557 114.184 192.117 113.992 190.453 113.992C189.013 113.992 187.717 114.184 186.565 114.568C185.413 114.92 184.421 115.416 183.589 116.056C182.789 116.696 182.165 117.448 181.717 118.312C181.301 119.144 181.093 120.056 181.093 121.048C181.093 122.296 181.445 123.336 182.149 124.168C182.885 125 183.845 125.72 185.029 126.328C186.213 126.936 187.557 127.48 189.061 127.96C190.565 128.408 192.101 128.904 193.669 129.448C195.269 129.96 196.821 130.536 198.325 131.176C199.829 131.816 201.173 132.616 202.357 133.576C203.541 134.536 204.485 135.72 205.189 137.128C205.925 138.504 206.293 140.168 206.293 142.12C206.293 144.36 205.893 146.44 205.093 148.36C204.293 150.248 203.109 151.896 201.541 153.304C199.973 154.68 198.053 155.768 195.781 156.568C193.509 157.368 190.885 157.768 187.909 157.768C184.517 157.768 181.445 157.224 178.693 156.136C175.941 155.016 173.605 153.592 171.685 151.864L173.701 148.6C173.957 148.184 174.261 147.864 174.613 147.64C174.965 147.416 175.413 147.304 175.957 147.304C176.533 147.304 177.141 147.528 177.781 147.976C178.421 148.424 179.189 148.92 180.085 149.464C181.013 150.008 182.133 150.504 183.445 150.952C184.757 151.4 186.389 151.624 188.341 151.624C190.005 151.624 191.461 151.416 192.709 151C193.957 150.552 194.997 149.96 195.829 149.224C196.661 148.488 197.269 147.64 197.653 146.68C198.069 145.72 198.277 144.696 198.277 143.608C198.277 142.264 197.909 141.16 197.173 140.296C196.469 139.4 195.525 138.648 194.341 138.04C193.157 137.4 191.797 136.856 190.261 136.408C188.757 135.928 187.205 135.432 185.605 134.92C184.037 134.408 182.485 133.832 180.949 133.192C179.445 132.52 178.101 131.688 176.917 130.696C175.733 129.704 174.773 128.488 174.037 127.048C173.333 125.576 172.981 123.8 172.981 121.72C172.981 119.864 173.365 118.088 174.133 116.392C174.901 114.664 176.021 113.16 177.493 111.88C178.965 110.568 180.773 109.528 182.917 108.76C185.061 107.992 187.509 107.608 190.261 107.608C193.461 107.608 196.325 108.12 198.853 109.144C201.413 110.136 203.621 111.512 205.477 113.272L203.557 116.392ZM249.312 127.384C249.312 125.4 249.024 123.592 248.448 121.96C247.904 120.296 247.088 118.872 246 117.688C244.944 116.472 243.648 115.544 242.112 114.904C240.576 114.232 238.832 113.896 236.88 113.896C232.784 113.896 229.536 115.096 227.136 117.496C224.768 119.864 223.296 123.16 222.72 127.384H249.312ZM256.224 150.184C255.168 151.464 253.904 152.584 252.432 153.544C250.96 154.472 249.376 155.24 247.68 155.848C246.016 156.456 244.288 156.904 242.496 157.192C240.704 157.512 238.928 157.672 237.168 157.672C233.808 157.672 230.704 157.112 227.856 155.992C225.04 154.84 222.592 153.176 220.512 151C218.464 148.792 216.864 146.072 215.712 142.84C214.56 139.608 213.984 135.896 213.984 131.704C213.984 128.312 214.496 125.144 215.52 122.2C216.576 119.256 218.08 116.712 220.032 114.568C221.984 112.392 224.368 110.696 227.184 109.48C230 108.232 233.168 107.608 236.688 107.608C239.6 107.608 242.288 108.104 244.752 109.096C247.248 110.056 249.392 111.464 251.184 113.32C253.008 115.144 254.432 117.416 255.456 120.136C256.48 122.824 256.992 125.896 256.992 129.352C256.992 130.696 256.848 131.592 256.56 132.04C256.272 132.488 255.728 132.712 254.928 132.712H222.432C222.528 135.784 222.944 138.456 223.68 140.728C224.448 143 225.504 144.904 226.848 146.44C228.192 147.944 229.792 149.08 231.648 149.848C233.504 150.584 235.584 150.952 237.888 150.952C240.032 150.952 241.872 150.712 243.408 150.232C244.976 149.72 246.32 149.176 247.44 148.6C248.56 148.024 249.488 147.496 250.224 147.016C250.992 146.504 251.648 146.248 252.192 146.248C252.896 146.248 253.44 146.52 253.824 147.064L256.224 150.184ZM282.04 157.768C278.2 157.768 275.24 156.696 273.16 154.552C271.112 152.408 270.088 149.32 270.088 145.288V115.528H264.232C263.72 115.528 263.288 115.384 262.936 115.096C262.584 114.776 262.408 114.296 262.408 113.656V110.248L270.376 109.24L272.344 94.216C272.44 93.736 272.648 93.352 272.968 93.064C273.32 92.744 273.768 92.584 274.312 92.584H278.632V109.336H292.696V115.528H278.632V144.712C278.632 146.76 279.128 148.28 280.12 149.272C281.112 150.264 282.392 150.76 283.96 150.76C284.856 150.76 285.624 150.648 286.264 150.424C286.936 150.168 287.512 149.896 287.992 149.608C288.472 149.32 288.872 149.064 289.192 148.84C289.544 148.584 289.848 148.456 290.104 148.456C290.552 148.456 290.952 148.728 291.304 149.272L293.8 153.352C292.328 154.728 290.552 155.816 288.472 156.616C286.392 157.384 284.248 157.768 282.04 157.768Z" fill="#263C29"/>
<circle cx="221.5" cy="119.5" r="119.5" fill="#CDC945"/>
<path d="M43.968 98.968L44.8255 99.4825L44.843 99.4533L44.8585 99.4229L43.968 98.968ZM43.008 100.072L43.5815 100.891L43.5889 100.886L43.5962 100.881L43.008 100.072ZM39.888 99.592L40.4824 98.7878H40.4824L39.888 99.592ZM37.104 97.816L36.5785 98.6668L36.593 98.6758L36.6079 98.6842L37.104 97.816ZM33.12 95.992L32.7861 96.9346L32.7922 96.9368L33.12 95.992ZM21.984 96.04L22.3118 96.9848L22.3227 96.9809L21.984 96.04ZM18 98.296L17.3384 97.5462L17.3328 97.5511L17.3273 97.5561L18 98.296ZM15.6 101.704L16.5204 102.095L16.5237 102.087L15.6 101.704ZM16.176 110.68L15.3664 111.267L15.3747 111.278L15.3834 111.29L16.176 110.68ZM19.92 113.896L19.4161 114.76L19.4239 114.764L19.92 113.896ZM25.2 116.248L24.8745 117.194L24.8837 117.197L24.893 117.2L25.2 116.248ZM31.248 118.264L30.9229 119.21L30.9274 119.211L31.248 118.264ZM37.296 120.664L36.8788 121.573L36.8877 121.577L36.8967 121.581L37.296 120.664ZM42.576 123.976L41.9175 124.729L41.9252 124.735L42.576 123.976ZM46.32 128.92L45.4168 129.349L45.4227 129.361L46.32 128.92ZM46.224 144.616L47.1556 144.98L47.1571 144.976L46.224 144.616ZM41.712 151.48L41.0106 150.767L41.0049 150.773L41.712 151.48ZM34.464 156.088L34.1016 155.156L34.098 155.157L34.464 156.088ZM12.528 155.368L12.1196 156.281L12.1263 156.284L12.528 155.368ZM3.168 148.792L2.3138 148.272L1.91761 148.923L2.44005 149.478L3.168 148.792ZM5.856 144.376L5.04726 143.788L5.02313 143.821L5.0018 143.856L5.856 144.376ZM6.768 143.512L7.30488 144.356L7.31385 144.35L7.3227 144.344L6.768 143.512ZM9.408 143.656L8.84147 144.48L8.87056 144.5L8.90098 144.518L9.408 143.656ZM11.232 144.904L10.626 145.699L11.232 144.904ZM13.536 146.584L12.9605 147.402L12.9605 147.402L13.536 146.584ZM16.464 148.264L16.0382 149.169L16.0482 149.173L16.464 148.264ZM20.256 149.56L20.0135 150.53L20.0239 150.533L20.0344 150.535L20.256 149.56ZM30.912 149.128L31.2439 150.071H31.2439L30.912 149.128ZM35.28 146.584L35.9566 147.32L35.9575 147.32L35.28 146.584ZM37.584 132.376L36.7611 132.944L36.7689 132.955L36.777 132.967L37.584 132.376ZM28.608 126.76L28.301 127.712L28.308 127.714L28.315 127.716L28.608 126.76ZM22.56 124.84L22.2482 125.79L22.255 125.792L22.2617 125.794L22.56 124.84ZM11.232 119.176L11.8992 118.431L11.232 119.176ZM7.488 114.04L6.57477 114.447L6.57858 114.456L6.58254 114.464L7.488 114.04ZM7.488 99.304L6.56679 98.9148L6.56225 98.9259L7.488 99.304ZM11.616 93.256L10.9216 92.5363L10.9153 92.5425L11.616 93.256ZM18.288 89.032L17.9185 88.1027L17.9147 88.1043L18.288 89.032ZM37.872 89.272L37.5105 90.2044L37.5137 90.2056L37.872 89.272ZM46.224 94.552L47.1145 95.0069L47.4526 94.3452L46.9165 93.8306L46.224 94.552ZM43.1105 98.4535C42.8727 98.8499 42.6369 99.1054 42.4198 99.2633L43.5962 100.881C44.0831 100.527 44.4873 100.046 44.8255 99.4825L43.1105 98.4535ZM42.4345 99.2528C42.3178 99.3345 42.1304 99.408 41.808 99.408V101.408C42.4456 101.408 43.0582 101.257 43.5815 100.891L42.4345 99.2528ZM41.808 99.408C41.5803 99.408 41.1526 99.2832 40.4824 98.7878L39.2936 100.396C40.0954 100.989 40.9477 101.408 41.808 101.408V99.408ZM40.4824 98.7878C39.7051 98.2133 38.7416 97.6 37.6001 96.9478L36.6079 98.6842C37.7064 99.312 38.5989 99.8827 39.2936 100.396L40.4824 98.7878ZM37.6295 96.9652C36.464 96.2453 35.0657 95.6085 33.4478 95.0472L32.7922 96.9368C34.3103 97.4634 35.568 98.0427 36.5785 98.6668L37.6295 96.9652ZM33.4538 95.0494C31.7801 94.4566 29.7881 94.176 27.504 94.176V96.176C29.6359 96.176 31.3879 96.4394 32.7862 96.9346L33.4538 95.0494ZM27.504 94.176C25.3334 94.176 23.3751 94.4764 21.6453 95.0991L22.3227 96.9809C23.7929 96.4516 25.5146 96.176 27.504 96.176V94.176ZM21.6562 95.0952C19.9829 95.6758 18.5369 96.4886 17.3384 97.5462L18.6616 99.0458C19.6391 98.1834 20.8491 97.4922 22.3118 96.9848L21.6562 95.0952ZM17.3273 97.5561C16.1629 98.6146 15.2769 99.8723 14.6763 101.321L16.5237 102.087C17.0111 100.912 17.7251 99.8974 18.6727 99.0359L17.3273 97.5561ZM14.6797 101.313C14.0789 102.726 13.784 104.253 13.784 105.88H15.784C15.784 104.499 16.0331 103.242 16.5203 102.095L14.6797 101.313ZM13.784 105.88C13.784 107.965 14.2901 109.782 15.3664 111.267L16.9856 110.093C16.2059 109.018 15.784 107.635 15.784 105.88H13.784ZM15.3834 111.29C16.4318 112.653 17.7827 113.807 19.4161 114.76L20.4239 113.032C18.9853 112.193 17.8402 111.203 16.9686 110.07L15.3834 111.29ZM19.4239 114.764C21.0533 115.695 22.8715 116.504 24.8745 117.194L25.5255 115.302C23.6245 114.648 21.9227 113.889 20.4161 113.028L19.4239 114.764ZM24.893 117.2C26.8707 117.838 28.8807 118.508 30.9229 119.21L31.5731 117.318C29.5193 116.612 27.4973 115.938 25.507 115.296L24.893 117.2ZM30.9274 119.211C32.9753 119.904 34.959 120.692 36.8788 121.573L37.7132 119.755C35.729 118.844 33.6807 118.032 31.5686 117.317L30.9274 119.211ZM36.8967 121.581C38.7921 122.406 40.4635 123.456 41.9175 124.729L43.2345 123.223C41.6165 121.808 39.7679 120.65 37.6953 119.747L36.8967 121.581ZM41.9252 124.735C43.382 125.984 44.5461 127.518 45.4169 129.349L47.2231 128.491C46.2379 126.418 44.906 124.656 43.2268 123.217L41.9252 124.735ZM45.4227 129.361C46.2976 131.14 46.76 133.38 46.76 136.12H48.76C48.76 133.164 48.2624 130.604 47.2174 128.479L45.4227 129.361ZM46.76 136.12C46.76 139.012 46.2682 141.721 45.2909 144.256L47.1571 144.976C48.2278 142.199 48.76 139.244 48.76 136.12H46.76ZM45.2924 144.252C44.3191 146.747 42.8929 148.915 41.0107 150.767L42.4133 152.193C44.4991 150.141 46.081 147.733 47.1556 144.98L45.2924 144.252ZM41.0049 150.773C39.162 152.616 36.8678 154.08 34.1016 155.156L34.8265 157.02C37.8202 155.856 40.358 154.248 42.4191 152.187L41.0049 150.773ZM34.098 155.157C31.3866 156.224 28.2663 156.768 24.72 156.768V158.768C28.4697 158.768 31.8454 158.192 34.83 157.019L34.098 155.157ZM24.72 156.768C20.361 156.768 16.4361 155.99 12.9297 154.452L12.1263 156.284C15.9159 157.946 20.119 158.768 24.72 158.768V156.768ZM12.9364 154.455C9.40186 152.874 6.39236 150.757 3.89595 148.106L2.44005 149.478C5.12764 152.331 8.35814 154.598 12.1196 156.281L12.9364 154.455ZM4.0222 149.312L6.7102 144.896L5.0018 143.856L2.3138 148.272L4.0222 149.312ZM6.66474 144.964C6.85018 144.709 7.06327 144.509 7.30488 144.356L6.23112 142.668C5.76873 142.963 5.37382 143.339 5.04726 143.788L6.66474 144.964ZM7.3227 144.344C7.54768 144.194 7.77164 144.128 8.016 144.128V142.128C7.36436 142.128 6.75632 142.318 6.2133 142.68L7.3227 144.344ZM8.016 144.128C8.15251 144.128 8.41859 144.189 8.84147 144.48L9.97453 142.832C9.37341 142.419 8.71149 142.128 8.016 142.128V144.128ZM8.90098 144.518C9.40144 144.812 9.97576 145.204 10.626 145.699L11.838 144.109C11.1442 143.58 10.5026 143.14 9.91502 142.794L8.90098 144.518ZM10.626 145.699C11.3101 146.221 12.0886 146.788 12.9605 147.402L14.1115 145.766C13.2554 145.164 12.4979 144.611 11.838 144.109L10.626 145.699ZM12.9605 147.402C13.8777 148.047 14.9049 148.635 16.0382 149.169L16.8898 147.359C15.8471 146.868 14.9223 146.337 14.1115 145.766L12.9605 147.402ZM16.0482 149.173C17.2328 149.715 18.5562 150.166 20.0135 150.53L20.4985 148.59C19.1398 148.25 17.9352 147.837 16.8798 147.355L16.0482 149.173ZM20.0344 150.535C21.5289 150.875 23.189 151.04 25.008 151.04V149.04C23.307 149.04 21.7991 148.885 20.4776 148.585L20.0344 150.535ZM25.008 151.04C27.3065 151.04 29.3899 150.724 31.2439 150.071L30.5801 148.185C28.9781 148.748 27.1255 149.04 25.008 149.04V151.04ZM31.2439 150.071C33.0819 149.425 34.66 148.512 35.9566 147.32L34.6034 145.848C33.532 146.832 32.1981 147.615 30.5801 148.185L31.2439 150.071ZM35.9575 147.32C37.2804 146.101 38.2919 144.653 38.9871 142.985L37.1409 142.215C36.5561 143.619 35.7116 144.827 34.6025 145.848L35.9575 147.32ZM38.9871 142.985C39.6842 141.311 40.024 139.466 40.024 137.464H38.024C38.024 139.238 37.7238 140.817 37.1409 142.215L38.9871 142.985ZM40.024 137.464C40.024 135.231 39.5075 133.311 38.391 131.785L36.777 132.967C37.5805 134.065 38.024 135.537 38.024 137.464H40.024ZM38.4069 131.808C37.3883 130.333 36.0432 129.115 34.3919 128.152L33.3841 129.88C34.8048 130.709 35.9237 131.731 36.7611 132.944L38.4069 131.808ZM34.3919 128.152C32.7794 127.212 30.9467 126.431 28.901 125.804L28.315 127.716C30.2373 128.305 31.9246 129.028 33.3841 129.88L34.3919 128.152ZM28.915 125.808C26.928 125.167 24.9091 124.526 22.8583 123.886L22.2617 125.794C24.3069 126.434 26.32 127.073 28.301 127.712L28.915 125.808ZM22.8718 123.89C20.8536 123.228 18.8668 122.471 16.9113 121.619L16.1127 123.453C18.1252 124.329 20.1704 125.108 22.2482 125.79L22.8718 123.89ZM16.9113 121.619C15.0203 120.796 13.3518 119.732 11.8992 118.431L10.5648 119.921C12.1842 121.372 14.0357 122.548 16.1127 123.453L16.9113 121.619ZM11.8992 118.431C10.4727 117.153 9.30196 115.554 8.39346 113.616L6.58254 114.464C7.59404 116.622 8.91931 118.447 10.5648 119.921L11.8992 118.431ZM8.40123 113.633C7.54617 111.716 7.096 109.304 7.096 106.36H5.096C5.096 109.496 5.57383 112.204 6.57477 114.447L8.40123 113.633ZM7.096 106.36C7.096 104.059 7.53432 101.835 8.41375 99.6821L6.56225 98.9259C5.58568 101.317 5.096 103.797 5.096 106.36H7.096ZM8.40915 99.6932C9.31682 97.545 10.6171 95.6387 12.3167 93.9694L10.9153 92.5425C9.03091 94.3933 7.57918 96.519 6.56685 98.9148L8.40915 99.6932ZM12.3104 93.9756C14.0316 92.3148 16.1429 90.9732 18.6613 89.9597L17.9147 88.1043C15.1851 89.2028 12.8484 90.6772 10.9216 92.5364L12.3104 93.9756ZM18.6575 89.9612C21.1751 88.9602 24.0861 88.448 27.408 88.448V86.448C23.8819 86.448 20.7129 86.9917 17.9185 88.1028L18.6575 89.9612ZM27.408 88.448C31.1417 88.448 34.5049 89.0389 37.5105 90.2044L38.2335 88.3396C34.9671 87.0731 31.3543 86.448 27.408 86.448V88.448ZM37.5137 90.2056C40.5598 91.3748 43.2296 93.0636 45.5315 95.2734L46.9165 93.8306C44.4184 91.4324 41.5202 89.6012 38.2303 88.3384L37.5137 90.2056ZM45.3335 94.0971L43.0775 98.5131L44.8585 99.4229L47.1145 95.0069L45.3335 94.0971ZM66.6413 86.296H67.6413V85.296H66.6413V86.296ZM66.6413 127.912H65.6413V128.912H66.6413V127.912ZM70.4333 127.672L70.7922 128.605L70.8098 128.599L70.8272 128.591L70.4333 127.672ZM71.8252 126.568L71.0941 125.886L71.0846 125.896L71.0754 125.906L71.8252 126.568ZM87.1852 110.104L87.9165 110.786L87.9375 110.764L87.9572 110.74L87.1852 110.104ZM88.5772 108.856L89.0917 109.713L89.0995 109.709L89.1072 109.704L88.5772 108.856ZM98.3213 108.376L99.05 109.061L100.633 107.376H98.3213V108.376ZM80.4173 127.432L79.6885 126.747L79.66 126.778L79.6341 126.81L80.4173 127.432ZM77.6333 129.976L77.1107 129.123L75.7774 129.941L77.0786 130.808L77.6333 129.976ZM79.1693 131.32L78.4167 131.979L78.4386 132.004L78.4621 132.027L79.1693 131.32ZM80.5133 133L79.6748 133.545L79.7003 133.584L79.7293 133.621L80.5133 133ZM99.5212 157V158H101.589L100.305 156.379L99.5212 157ZM89.9693 156.664L89.522 157.558L89.5547 157.575L89.5885 157.589L89.9693 156.664ZM88.6253 155.32L89.4827 154.806L89.4478 154.747L89.4052 154.694L88.6253 155.32ZM72.6413 135.4L71.8275 135.981L71.8438 136.004L71.8613 136.026L72.6413 135.4ZM71.2012 134.104L70.754 134.998L70.7912 135.017L70.8299 135.032L71.2012 134.104ZM66.6413 133.768V132.768H65.6413V133.768H66.6413ZM66.6413 157V158H67.6413V157H66.6413ZM58.0493 157H57.0493V158H58.0493V157ZM58.0493 86.296V85.296H57.0493V86.296H58.0493ZM65.6413 86.296V127.912H67.6413V86.296H65.6413ZM66.6413 128.912H68.8493V126.912H66.6413V128.912ZM68.8493 128.912C69.5629 128.912 70.2234 128.824 70.7922 128.605L70.0743 126.739C69.8111 126.84 69.4156 126.912 68.8493 126.912V128.912ZM70.8272 128.591C71.4615 128.319 72.0408 127.835 72.5751 127.23L71.0754 125.906C70.6497 126.389 70.301 126.641 70.0393 126.753L70.8272 128.591ZM72.5564 127.25L87.9165 110.786L86.4541 109.422L71.0941 125.886L72.5564 127.25ZM87.9572 110.74C88.3506 110.262 88.7312 109.93 89.0917 109.713L88.0628 107.999C87.4633 108.358 86.9159 108.858 86.4133 109.468L87.9572 110.74ZM89.1072 109.704C89.411 109.514 89.8805 109.376 90.5933 109.376V107.376C89.642 107.376 88.7675 107.558 88.0473 108.008L89.1072 109.704ZM90.5933 109.376H98.3213V107.376H90.5933V109.376ZM97.5925 107.691L79.6885 126.747L81.146 128.117L99.05 109.061L97.5925 107.691ZM79.6341 126.81C78.8291 127.824 77.9858 128.587 77.1107 129.123L78.1558 130.829C79.2647 130.149 80.2774 129.216 81.2004 128.054L79.6341 126.81ZM77.0786 130.808C77.5825 131.144 78.0277 131.534 78.4167 131.979L79.9218 130.661C79.4148 130.082 78.836 129.576 78.188 129.144L77.0786 130.808ZM78.4621 132.027C78.8872 132.452 79.2922 132.956 79.6748 133.545L81.3517 132.455C80.9023 131.764 80.4113 131.148 79.8764 130.613L78.4621 132.027ZM79.7293 133.621L98.7373 157.621L100.305 156.379L81.2972 132.379L79.7293 133.621ZM99.5212 156H91.8893V158H99.5212V156ZM91.8893 156C91.2522 156 90.747 155.903 90.35 155.739L89.5885 157.589C90.2795 157.873 91.0543 158 91.8893 158V156ZM90.4165 155.77C90.1191 155.621 89.7981 155.331 89.4827 154.806L87.7678 155.834C88.2204 156.589 88.7954 157.195 89.522 157.558L90.4165 155.77ZM89.4052 154.694L73.4212 134.774L71.8613 136.026L87.8453 155.946L89.4052 154.694ZM73.455 134.819C72.9243 134.076 72.307 133.469 71.5726 133.176L70.8299 135.032C71.0555 135.123 71.3982 135.38 71.8275 135.981L73.455 134.819ZM71.6485 133.21C70.9852 132.878 70.0872 132.768 69.0892 132.768V134.768C70.0113 134.768 70.5213 134.882 70.754 134.998L71.6485 133.21ZM69.0892 132.768H66.6413V134.768H69.0892V132.768ZM65.6413 133.768V157H67.6413V133.768H65.6413ZM66.6413 156H58.0493V158H66.6413V156ZM59.0493 157V86.296H57.0493V157H59.0493ZM58.0493 87.296H66.6413V85.296H58.0493V87.296ZM115.823 108.376H116.823V107.376H115.823V108.376ZM115.823 157V158H116.823V157H115.823ZM107.279 157H106.279V158H107.279V157ZM107.279 108.376V107.376H106.279V108.376H107.279ZM117.119 95.464L116.217 95.0325L116.213 95.0413L116.209 95.0502L117.119 95.464ZM115.775 97.384L115.068 96.6769L115.068 96.6769L115.775 97.384ZM113.807 98.68L113.423 97.7569L113.416 97.7599L113.409 97.7629L113.807 98.68ZM109.103 98.68L108.689 99.5904L108.697 99.5938L108.705 99.5971L109.103 98.68ZM107.231 97.384L106.504 98.0706L106.514 98.081L106.524 98.0911L107.231 97.384ZM105.935 95.464L105.018 95.8627L105.021 95.8703L105.025 95.8778L105.935 95.464ZM105.935 90.76L106.852 91.1587L106.855 91.1517L106.858 91.1446L105.935 90.76ZM107.231 88.792L107.938 89.4991L107.948 89.489L107.958 89.4786L107.231 88.792ZM109.103 87.448L108.705 86.5309L108.697 86.5342L108.689 86.5376L109.103 87.448ZM113.807 87.448L113.409 88.3651L113.416 88.3681L113.423 88.3711L113.807 87.448ZM115.775 88.792L115.048 89.4786L115.068 89.4994L115.089 89.519L115.775 88.792ZM117.119 90.76L116.196 91.1446L116.206 91.1683L116.217 91.1915L117.119 90.76ZM114.823 108.376V157H116.823V108.376H114.823ZM115.823 156H107.279V158H115.823V156ZM108.279 157V108.376H106.279V157H108.279ZM107.279 109.376H115.823V107.376H107.279V109.376ZM116.647 93.112C116.647 93.7977 116.503 94.434 116.217 95.0325L118.021 95.8955C118.439 95.022 118.647 94.0903 118.647 93.112H116.647ZM116.209 95.0502C115.941 95.6393 115.564 96.1811 115.068 96.6769L116.482 98.0911C117.139 97.4349 117.657 96.6967 118.03 95.8778L116.209 95.0502ZM115.068 96.6769C114.624 97.1212 114.08 97.483 113.423 97.7569L114.192 99.6031C115.071 99.237 115.839 98.7348 116.482 98.0911L115.068 96.6769ZM113.409 97.7629C112.803 98.0262 112.155 98.16 111.455 98.16V100.16C112.419 100.16 113.34 99.9738 114.206 99.5971L113.409 97.7629ZM111.455 98.16C110.755 98.16 110.108 98.0262 109.502 97.7629L108.705 99.5971C109.571 99.9738 110.491 100.16 111.455 100.16V98.16ZM109.517 97.7696C108.922 97.499 108.397 97.1357 107.938 96.6769L106.524 98.0911C107.153 98.7203 107.877 99.221 108.689 99.5904L109.517 97.7696ZM107.958 96.6974C107.488 96.1996 107.119 95.6513 106.846 95.0502L105.025 95.8778C105.392 96.6847 105.886 97.4164 106.504 98.0706L107.958 96.6974ZM106.852 95.0653C106.589 94.4597 106.455 93.812 106.455 93.112H104.455C104.455 94.076 104.641 94.9963 105.018 95.8627L106.852 95.0653ZM106.455 93.112C106.455 92.412 106.589 91.7643 106.852 91.1587L105.018 90.3613C104.641 91.2277 104.455 92.148 104.455 93.112H106.455ZM106.858 91.1446C107.132 90.4873 107.494 89.9434 107.938 89.4991L106.524 88.0849C105.88 88.7285 105.378 89.4967 105.012 90.3754L106.858 91.1446ZM107.958 89.4786C108.416 88.9944 108.934 88.6234 109.517 88.3584L108.689 86.5376C107.865 86.9126 107.135 87.4376 106.504 88.1054L107.958 89.4786ZM109.502 88.3651C110.108 88.1018 110.755 87.968 111.455 87.968V85.968C110.491 85.968 109.571 86.1542 108.705 86.5309L109.502 88.3651ZM111.455 87.968C112.155 87.968 112.803 88.1018 113.409 88.3651L114.206 86.5309C113.34 86.1542 112.419 85.968 111.455 85.968V87.968ZM113.423 88.3711C114.068 88.6399 114.605 89.0097 115.048 89.4786L116.502 88.1054C115.857 87.4223 115.083 86.8961 114.192 86.5249L113.423 88.3711ZM115.089 89.519C115.558 89.9619 115.927 90.4994 116.196 91.1446L118.042 90.3754C117.671 89.4846 117.145 88.7101 116.462 88.065L115.089 89.519ZM116.217 91.1915C116.503 91.79 116.647 92.4263 116.647 93.112H118.647C118.647 92.1337 118.439 91.202 118.021 90.3285L116.217 91.1915ZM138.694 86.296H139.694V85.296H138.694V86.296ZM138.694 157V158H139.694V157H138.694ZM130.15 157H129.15V158H130.15V157ZM130.15 86.296V85.296H129.15V86.296H130.15ZM137.694 86.296V157H139.694V86.296H137.694ZM138.694 156H130.15V158H138.694V156ZM131.15 157V86.296H129.15V157H131.15ZM130.15 87.296H138.694V85.296H130.15V87.296ZM161.381 86.296H162.381V85.296H161.381V86.296ZM161.381 157V158H162.381V157H161.381ZM152.837 157H151.837V158H152.837V157ZM152.837 86.296V85.296H151.837V86.296H152.837ZM160.381 86.296V157H162.381V86.296H160.381ZM161.381 156H152.837V158H161.381V156ZM153.837 157V86.296H151.837V157H153.837ZM152.837 87.296H161.381V85.296H152.837V87.296ZM203.557 116.392L202.705 115.868L202.691 115.89L202.679 115.913L203.557 116.392ZM197.893 115.768L197.432 116.656L197.452 116.666L197.472 116.675L197.893 115.768ZM194.773 114.568L194.472 115.522L194.483 115.525L194.495 115.529L194.773 114.568ZM186.565 114.568L186.857 115.524L186.869 115.521L186.881 115.517L186.565 114.568ZM183.589 116.056L182.979 115.263L182.971 115.269L182.964 115.275L183.589 116.056ZM181.717 118.312L180.829 117.852L180.826 117.858L180.822 117.865L181.717 118.312ZM182.149 124.168L181.385 124.814L181.392 124.822L181.4 124.831L182.149 124.168ZM185.029 126.328L185.486 125.438L185.029 126.328ZM189.061 127.96L188.757 128.913L188.766 128.916L188.775 128.918L189.061 127.96ZM193.669 129.448L193.341 130.393L193.352 130.397L193.364 130.4L193.669 129.448ZM198.325 131.176L198.716 130.256L198.325 131.176ZM202.357 133.576L202.987 132.799L202.357 133.576ZM205.189 137.128L204.294 137.575L204.3 137.588L204.307 137.6L205.189 137.128ZM205.093 148.36L206.014 148.75L206.016 148.745L205.093 148.36ZM201.541 153.304L202.2 154.056L202.209 154.048L201.541 153.304ZM195.781 156.568L195.449 155.625L195.781 156.568ZM178.693 156.136L178.316 157.062L178.325 157.066L178.693 156.136ZM171.685 151.864L170.834 151.339L170.395 152.049L171.016 152.607L171.685 151.864ZM173.701 148.6L174.552 149.125L174.552 149.124L173.701 148.6ZM174.613 147.64L174.076 146.796L174.613 147.64ZM177.781 147.976L177.207 148.795L177.781 147.976ZM180.085 149.464L179.566 150.319L179.572 150.323L179.579 150.327L180.085 149.464ZM183.445 150.952L183.122 151.898V151.898L183.445 150.952ZM192.709 151L193.025 151.949L193.036 151.945L193.047 151.941L192.709 151ZM195.829 149.224L196.491 149.973L195.829 149.224ZM197.653 146.68L196.735 146.282L196.73 146.295L196.724 146.309L197.653 146.68ZM197.173 140.296L196.386 140.914L196.399 140.929L196.412 140.944L197.173 140.296ZM194.341 138.04L193.865 138.92L193.875 138.925L193.884 138.93L194.341 138.04ZM190.261 136.408L189.957 137.361L189.969 137.364L189.981 137.368L190.261 136.408ZM185.605 134.92L185.294 135.871L185.3 135.872L185.605 134.92ZM180.949 133.192L180.541 134.105L180.552 134.11L180.564 134.115L180.949 133.192ZM174.037 127.048L173.135 127.479L173.14 127.491L173.146 127.503L174.037 127.048ZM174.133 116.392L175.044 116.805L175.047 116.798L174.133 116.392ZM177.493 111.88L178.149 112.635L178.158 112.627L177.493 111.88ZM182.917 108.76L183.254 109.701L182.917 108.76ZM198.853 109.144L198.477 110.071L198.484 110.074L198.491 110.076L198.853 109.144ZM205.477 113.272L206.328 113.796L206.754 113.105L206.165 112.546L205.477 113.272ZM202.679 115.913C202.558 116.134 202.432 116.254 202.314 116.324C202.196 116.395 202.03 116.448 201.781 116.448V118.448C202.331 118.448 202.862 118.325 203.336 118.044C203.81 117.762 204.171 117.354 204.435 116.871L202.679 115.913ZM201.781 116.448C201.54 116.448 201.172 116.357 200.65 116.055L199.648 117.785C200.342 118.187 201.062 118.448 201.781 118.448V116.448ZM200.65 116.055C200.008 115.683 199.227 115.285 198.314 114.861L197.472 116.675C198.35 117.083 199.074 117.453 199.648 117.785L200.65 116.055ZM198.353 114.88C197.417 114.395 196.312 113.973 195.051 113.607L194.495 115.529C195.665 115.867 196.641 116.245 197.432 116.656L198.353 114.88ZM195.074 113.614C193.736 113.192 192.19 112.992 190.453 112.992V114.992C192.044 114.992 193.378 115.176 194.472 115.522L195.074 113.614ZM190.453 112.992C188.925 112.992 187.519 113.196 186.249 113.619L186.881 115.517C187.914 115.172 189.101 114.992 190.453 114.992V112.992ZM186.273 113.612C185.022 113.994 183.919 114.54 182.979 115.263L184.198 116.849C184.922 116.292 185.803 115.846 186.857 115.524L186.273 113.612ZM182.964 115.275C182.061 115.998 181.345 116.857 180.829 117.852L182.605 118.772C182.985 118.039 183.517 117.394 184.213 116.837L182.964 115.275ZM180.822 117.865C180.332 118.845 180.093 119.911 180.093 121.048H182.093C182.093 120.201 182.269 119.443 182.611 118.759L180.822 117.865ZM180.093 121.048C180.093 122.496 180.507 123.775 181.385 124.814L182.912 123.522C182.383 122.897 182.093 122.096 182.093 121.048H180.093ZM181.4 124.831C182.233 125.772 183.299 126.564 184.572 127.218L185.486 125.438C184.391 124.876 183.537 124.228 182.898 123.505L181.4 124.831ZM184.572 127.218C185.813 127.855 187.21 128.419 188.757 128.913L189.365 127.007C187.904 126.541 186.612 126.017 185.486 125.438L184.572 127.218ZM188.775 128.918C190.264 129.362 191.786 129.853 193.341 130.393L193.997 128.503C192.415 127.955 190.865 127.454 189.346 127.002L188.775 128.918ZM193.364 130.4C194.935 130.903 196.458 131.469 197.933 132.096L198.716 130.256C197.183 129.603 195.602 129.017 193.974 128.496L193.364 130.4ZM197.933 132.096C199.358 132.702 200.62 133.455 201.727 134.353L202.987 132.799C201.725 131.776 200.3 130.93 198.716 130.256L197.933 132.096ZM201.727 134.353C202.797 135.22 203.652 136.29 204.294 137.575L206.083 136.681C205.318 135.15 204.285 133.852 202.987 132.799L201.727 134.353ZM204.307 137.6C204.948 138.799 205.293 140.292 205.293 142.12H207.293C207.293 140.044 206.901 138.209 206.071 136.656L204.307 137.6ZM205.293 142.12C205.293 144.238 204.915 146.186 204.17 147.975L206.016 148.745C206.87 146.694 207.293 144.482 207.293 142.12H205.293ZM204.172 147.97C203.431 149.719 202.335 151.247 200.873 152.56L202.209 154.048C203.883 152.545 205.155 150.777 206.014 148.75L204.172 147.97ZM200.881 152.552C199.423 153.832 197.619 154.861 195.449 155.625L196.113 157.511C198.487 156.675 200.523 155.528 202.2 154.056L200.881 152.552ZM195.449 155.625C193.305 156.38 190.797 156.768 187.909 156.768V158.768C190.972 158.768 193.712 158.356 196.113 157.511L195.449 155.625ZM187.909 156.768C184.624 156.768 181.68 156.242 179.06 155.206L178.325 157.066C181.21 158.206 184.409 158.768 187.909 158.768V156.768ZM179.07 155.21C176.409 154.127 174.176 152.761 172.354 151.121L171.016 152.607C173.034 154.423 175.472 155.905 178.316 157.062L179.07 155.21ZM172.536 152.389L174.552 149.125L172.85 148.075L170.834 151.339L172.536 152.389ZM174.552 149.124C174.743 148.815 174.945 148.614 175.15 148.484L174.076 146.796C173.576 147.114 173.171 147.553 172.849 148.076L174.552 149.124ZM175.15 148.484C175.299 148.388 175.546 148.304 175.957 148.304V146.304C175.279 146.304 174.63 146.444 174.076 146.796L175.15 148.484ZM175.957 148.304C176.266 148.304 176.677 148.424 177.207 148.795L178.354 147.157C177.605 146.632 176.799 146.304 175.957 146.304V148.304ZM177.207 148.795C177.87 149.259 178.657 149.767 179.566 150.319L180.604 148.609C179.72 148.073 178.972 147.589 178.354 147.157L177.207 148.795ZM179.579 150.327C180.579 150.913 181.763 151.435 183.122 151.898L183.768 150.006C182.502 149.573 181.447 149.103 180.59 148.601L179.579 150.327ZM183.122 151.898C184.571 152.393 186.32 152.624 188.341 152.624V150.624C186.457 150.624 184.943 150.407 183.768 150.006L183.122 151.898ZM188.341 152.624C190.085 152.624 191.652 152.406 193.025 151.949L192.393 150.051C191.269 150.426 189.924 150.624 188.341 150.624V152.624ZM193.047 151.941C194.391 151.458 195.548 150.808 196.491 149.973L195.166 148.475C194.446 149.112 193.522 149.646 192.371 150.059L193.047 151.941ZM196.491 149.973C197.431 149.141 198.135 148.167 198.581 147.051L196.724 146.309C196.402 147.113 195.89 147.835 195.166 148.475L196.491 149.973ZM198.57 147.078C199.043 145.987 199.277 144.827 199.277 143.608H197.277C197.277 144.565 197.095 145.453 196.735 146.282L198.57 147.078ZM199.277 143.608C199.277 142.072 198.851 140.725 197.934 139.648L196.412 140.944C196.966 141.595 197.277 142.456 197.277 143.608H199.277ZM197.959 139.678C197.152 138.651 196.088 137.813 194.798 137.15L193.884 138.93C194.961 139.483 195.785 140.149 196.386 140.914L197.959 139.678ZM194.816 137.16C193.56 136.481 192.132 135.912 190.541 135.448L189.981 137.368C191.461 137.8 192.754 138.319 193.865 138.92L194.816 137.16ZM190.565 135.455C189.061 134.975 187.509 134.479 185.91 133.968L185.3 135.872C186.9 136.384 188.452 136.881 189.957 137.361L190.565 135.455ZM185.915 133.969C184.372 133.466 182.845 132.899 181.333 132.269L180.564 134.115C182.124 134.765 183.701 135.35 185.294 135.871L185.915 133.969ZM181.357 132.279C179.932 131.642 178.667 130.858 177.559 129.929L176.275 131.463C177.534 132.518 178.958 133.398 180.541 134.105L181.357 132.279ZM177.559 129.929C176.483 129.028 175.605 127.919 174.927 126.593L173.146 127.503C173.94 129.057 174.983 130.38 176.275 131.463L177.559 129.929ZM174.939 126.617C174.314 125.311 173.981 123.69 173.981 121.72H171.981C171.981 123.91 172.351 125.841 173.135 127.479L174.939 126.617ZM173.981 121.72C173.981 120.007 174.334 118.371 175.044 116.805L173.222 115.979C172.395 117.805 171.981 119.721 171.981 121.72H173.981ZM175.047 116.798C175.753 115.208 176.784 113.822 178.149 112.635L176.837 111.125C175.258 112.498 174.048 114.12 173.219 115.986L175.047 116.798ZM178.158 112.627C179.521 111.412 181.212 110.433 183.254 109.701L182.58 107.819C180.333 108.623 178.409 109.724 176.827 111.133L178.158 112.627ZM183.254 109.701C185.27 108.979 187.6 108.608 190.261 108.608V106.608C187.417 106.608 184.852 107.005 182.58 107.819L183.254 109.701ZM190.261 108.608C193.354 108.608 196.087 109.103 198.477 110.071L199.228 108.217C196.562 107.137 193.568 106.608 190.261 106.608V108.608ZM198.491 110.076C200.939 111.025 203.034 112.334 204.789 113.998L206.165 112.546C204.208 110.69 201.886 109.247 199.214 108.212L198.491 110.076ZM204.625 112.748L202.705 115.868L204.408 116.916L206.328 113.796L204.625 112.748ZM249.312 127.384V128.384H250.312V127.384H249.312ZM248.448 121.96L247.498 122.271L247.501 122.282L247.505 122.293L248.448 121.96ZM246 117.688L245.245 118.344L245.254 118.354L245.264 118.365L246 117.688ZM242.112 114.904L241.711 115.82L241.719 115.824L241.727 115.827L242.112 114.904ZM227.136 117.496L227.843 118.203L227.136 117.496ZM222.72 127.384L221.729 127.249L221.574 128.384H222.72V127.384ZM256.224 150.184L256.995 150.82L257.502 150.206L257.017 149.574L256.224 150.184ZM252.432 153.544L252.965 154.39L252.972 154.386L252.978 154.382L252.432 153.544ZM247.68 155.848L247.343 154.907L247.337 154.909L247.68 155.848ZM242.496 157.192L242.337 156.205L242.329 156.206L242.32 156.208L242.496 157.192ZM227.856 155.992L227.477 156.918L227.49 156.923L227.856 155.992ZM220.512 151L219.779 151.68L219.784 151.686L219.789 151.691L220.512 151ZM215.52 122.2L214.579 121.862L214.576 121.871L215.52 122.2ZM220.032 114.568L220.771 115.241L220.776 115.236L220.032 114.568ZM227.184 109.48L227.58 110.398L227.589 110.394L227.184 109.48ZM244.752 109.096L244.379 110.024L244.386 110.027L244.393 110.029L244.752 109.096ZM251.184 113.32L250.465 114.015L250.471 114.021L250.477 114.027L251.184 113.32ZM255.456 120.136L254.52 120.488L254.522 120.492L255.456 120.136ZM222.432 132.712V131.712H221.4L221.432 132.743L222.432 132.712ZM223.68 140.728L222.729 141.036L222.733 141.048L223.68 140.728ZM226.848 146.44L226.095 147.099L226.102 147.106L226.848 146.44ZM231.648 149.848L231.266 150.772L231.272 150.775L231.279 150.778L231.648 149.848ZM243.408 150.232L243.706 151.187L243.718 151.183L243.408 150.232ZM247.44 148.6L246.983 147.711L247.44 148.6ZM250.224 147.016L250.77 147.854L250.779 147.848L250.224 147.016ZM253.824 147.064L253.007 147.641L253.019 147.657L253.031 147.674L253.824 147.064ZM250.312 127.384C250.312 125.303 250.01 123.38 249.391 121.627L247.505 122.293C248.038 123.804 248.312 125.497 248.312 127.384H250.312ZM249.398 121.649C248.814 119.862 247.929 118.31 246.736 117.011L245.264 118.365C246.247 119.434 246.994 120.73 247.498 122.271L249.398 121.649ZM246.755 117.032C245.594 115.696 244.17 114.678 242.497 113.981L241.727 115.827C243.126 116.41 244.294 117.248 245.245 118.344L246.755 117.032ZM242.513 113.988C240.831 113.252 238.948 112.896 236.88 112.896V114.896C238.716 114.896 240.321 115.212 241.711 115.82L242.513 113.988ZM236.88 112.896C232.577 112.896 229.054 114.164 226.429 116.789L227.843 118.203C230.018 116.028 232.991 114.896 236.88 114.896V112.896ZM226.429 116.789C223.869 119.349 222.327 122.868 221.729 127.249L223.711 127.519C224.265 123.452 225.667 120.379 227.843 118.203L226.429 116.789ZM222.72 128.384H249.312V126.384H222.72V128.384ZM255.453 149.548C254.465 150.745 253.278 151.798 251.886 152.706L252.978 154.382C254.53 153.37 255.871 152.183 256.995 150.82L255.453 149.548ZM251.899 152.698C250.49 153.586 248.972 154.322 247.343 154.907L248.017 156.789C249.78 156.158 251.43 155.358 252.965 154.39L251.899 152.698ZM247.337 154.909C245.734 155.494 244.068 155.927 242.337 156.205L242.655 158.179C244.508 157.881 246.298 157.418 248.023 156.787L247.337 154.909ZM242.32 156.208C240.584 156.518 238.867 156.672 237.168 156.672V158.672C238.989 158.672 240.824 158.506 242.672 158.176L242.32 156.208ZM237.168 156.672C233.921 156.672 230.942 156.131 228.222 155.061L227.49 156.923C230.466 158.093 233.695 158.672 237.168 158.672V156.672ZM228.235 155.066C225.547 153.967 223.217 152.382 221.235 150.309L219.789 151.691C221.967 153.97 224.533 155.713 227.477 156.918L228.235 155.066ZM221.245 150.32C219.301 148.224 217.767 145.626 216.654 142.504L214.77 143.176C215.961 146.518 217.627 149.36 219.779 151.68L221.245 150.32ZM216.654 142.504C215.548 139.401 214.984 135.806 214.984 131.704H212.984C212.984 135.986 213.572 139.815 214.77 143.176L216.654 142.504ZM214.984 131.704C214.984 128.414 215.48 125.358 216.464 122.529L214.576 121.871C213.512 124.93 212.984 128.21 212.984 131.704H214.984ZM216.461 122.538C217.476 119.708 218.915 117.28 220.771 115.241L219.293 113.895C217.245 116.144 215.676 118.804 214.579 121.862L216.461 122.538ZM220.776 115.236C222.627 113.173 224.89 111.56 227.58 110.398L226.788 108.562C223.846 109.832 221.341 111.611 219.288 113.9L220.776 115.236ZM227.589 110.394C230.261 109.21 233.288 108.608 236.688 108.608V106.608C233.048 106.608 229.739 107.254 226.779 108.566L227.589 110.394ZM236.688 108.608C239.484 108.608 242.044 109.084 244.379 110.024L245.125 108.168C242.532 107.124 239.716 106.608 236.688 106.608V108.608ZM244.393 110.029C246.758 110.939 248.778 112.267 250.465 114.015L251.903 112.625C250.006 110.661 247.738 109.173 245.111 108.163L244.393 110.029ZM250.477 114.027C252.188 115.738 253.54 117.885 254.52 120.488L256.392 119.784C255.324 116.947 253.828 114.55 251.891 112.613L250.477 114.027ZM254.522 120.492C255.494 123.046 255.992 125.994 255.992 129.352H257.992C257.992 125.798 257.466 122.602 256.391 119.78L254.522 120.492ZM255.992 129.352C255.992 129.994 255.957 130.496 255.897 130.873C255.833 131.268 255.753 131.445 255.719 131.499L257.401 132.581C257.655 132.187 257.791 131.692 257.871 131.191C257.955 130.672 257.992 130.054 257.992 129.352H255.992ZM255.719 131.499C255.695 131.536 255.57 131.712 254.928 131.712V133.712C255.886 133.712 256.849 133.44 257.401 132.581L255.719 131.499ZM254.928 131.712H222.432V133.712H254.928V131.712ZM221.432 132.743C221.531 135.884 221.957 138.653 222.729 141.036L224.631 140.42C223.931 138.259 223.525 135.684 223.432 132.681L221.432 132.743ZM222.733 141.048C223.535 143.423 224.651 145.448 226.095 147.099L227.601 145.781C226.357 144.36 225.361 142.577 224.627 140.408L222.733 141.048ZM226.102 147.106C227.546 148.722 229.27 149.946 231.266 150.772L232.03 148.924C230.314 148.214 228.838 147.166 227.594 145.774L226.102 147.106ZM231.279 150.778C233.269 151.567 235.477 151.952 237.888 151.952V149.952C235.691 149.952 233.739 149.601 232.017 148.918L231.279 150.778ZM237.888 151.952C240.102 151.952 242.048 151.705 243.706 151.186L243.11 149.278C241.696 149.719 239.962 149.952 237.888 149.952V151.952ZM243.718 151.183C245.322 150.659 246.718 150.096 247.897 149.489L246.983 147.711C245.922 148.256 244.63 148.781 243.098 149.281L243.718 151.183ZM247.897 149.489C249.036 148.904 249.996 148.358 250.77 147.854L249.678 146.178C248.98 146.634 248.084 147.144 246.983 147.711L247.897 149.489ZM250.779 147.848C251.484 147.378 251.94 147.248 252.192 147.248V145.248C251.356 145.248 250.5 145.63 249.669 146.184L250.779 147.848ZM252.192 147.248C252.593 147.248 252.823 147.38 253.007 147.641L254.641 146.487C254.057 145.66 253.199 145.248 252.192 145.248V147.248ZM253.031 147.674L255.431 150.794L257.017 149.574L254.617 146.454L253.031 147.674ZM273.16 154.552L272.437 155.243L272.442 155.248L273.16 154.552ZM270.088 115.528H271.088V114.528H270.088V115.528ZM262.936 115.096L262.263 115.836L262.282 115.853L262.303 115.87L262.936 115.096ZM262.408 110.248L262.282 109.256L261.408 109.367V110.248H262.408ZM270.376 109.24L270.501 110.232L271.267 110.135L271.367 109.37L270.376 109.24ZM272.344 94.216L271.363 94.0199L271.357 94.0528L271.352 94.0861L272.344 94.216ZM272.968 93.064L273.637 93.8073L273.64 93.8039L272.968 93.064ZM278.632 92.584H279.632V91.584H278.632V92.584ZM278.632 109.336H277.632V110.336H278.632V109.336ZM292.696 109.336H293.696V108.336H292.696V109.336ZM292.696 115.528V116.528H293.696V115.528H292.696ZM278.632 115.528V114.528H277.632V115.528H278.632ZM280.12 149.272L280.827 148.565L280.12 149.272ZM286.264 150.424L286.594 151.368L286.607 151.363L286.62 151.358L286.264 150.424ZM287.992 149.608L287.477 148.751L287.992 149.608ZM289.192 148.84L289.765 149.659L289.773 149.654L289.78 149.649L289.192 148.84ZM291.304 149.272L292.157 148.75L292.15 148.739L292.143 148.729L291.304 149.272ZM293.8 153.352L294.483 154.083L295.078 153.526L294.653 152.83L293.8 153.352ZM288.472 156.616L288.818 157.554L288.831 157.549L288.472 156.616ZM282.04 156.768C278.389 156.768 275.719 155.754 273.878 153.856L272.442 155.248C274.76 157.638 278.01 158.768 282.04 158.768V156.768ZM273.883 153.861C272.069 151.962 271.088 149.157 271.088 145.288H269.088C269.088 149.483 270.155 152.854 272.437 155.243L273.883 153.861ZM271.088 145.288V115.528H269.088V145.288H271.088ZM270.088 114.528H264.232V116.528H270.088V114.528ZM264.232 114.528C263.92 114.528 263.72 114.445 263.569 114.322L262.303 115.87C262.856 116.323 263.52 116.528 264.232 116.528V114.528ZM263.608 114.356C263.53 114.285 263.408 114.116 263.408 113.656H261.408C261.408 114.476 261.638 115.267 262.263 115.836L263.608 114.356ZM263.408 113.656V110.248H261.408V113.656H263.408ZM262.533 111.24L270.501 110.232L270.25 108.248L262.282 109.256L262.533 111.24ZM271.367 109.37L273.335 94.3459L271.352 94.0861L269.384 109.11L271.367 109.37ZM273.324 94.4121C273.384 94.1131 273.498 93.9319 273.637 93.8073L272.299 92.3207C271.797 92.7721 271.495 93.3589 271.363 94.0199L273.324 94.4121ZM273.64 93.8039C273.782 93.6753 273.978 93.584 274.312 93.584V91.584C273.557 91.584 272.858 91.8127 272.295 92.3241L273.64 93.8039ZM274.312 93.584H278.632V91.584H274.312V93.584ZM277.632 92.584V109.336H279.632V92.584H277.632ZM278.632 110.336H292.696V108.336H278.632V110.336ZM291.696 109.336V115.528H293.696V109.336H291.696ZM292.696 114.528H278.632V116.528H292.696V114.528ZM277.632 115.528V144.712H279.632V115.528H277.632ZM277.632 144.712C277.632 146.903 278.162 148.728 279.413 149.979L280.827 148.565C280.094 147.832 279.632 146.617 279.632 144.712H277.632ZM279.413 149.979C280.615 151.181 282.161 151.76 283.96 151.76V149.76C282.623 149.76 281.608 149.347 280.827 148.565L279.413 149.979ZM283.96 151.76C284.934 151.76 285.82 151.639 286.594 151.368L285.933 149.48C285.428 149.657 284.777 149.76 283.96 149.76V151.76ZM286.62 151.358C287.332 151.087 287.964 150.791 288.506 150.465L287.477 148.751C287.06 149.001 286.539 149.249 285.908 149.49L286.62 151.358ZM288.506 150.465C288.999 150.17 289.42 149.901 289.765 149.659L288.618 148.021C288.324 148.227 287.945 148.47 287.477 148.751L288.506 150.465ZM289.78 149.649C289.912 149.552 290.009 149.5 290.072 149.474C290.135 149.447 290.141 149.456 290.104 149.456V147.456C289.534 147.456 289.019 147.729 288.604 148.031L289.78 149.649ZM290.104 149.456C290.111 149.456 290.129 149.454 290.177 149.487C290.236 149.527 290.337 149.619 290.464 149.815L292.143 148.729C291.696 148.037 291.027 147.456 290.104 147.456V149.456ZM290.451 149.794L292.947 153.874L294.653 152.83L292.157 148.75L290.451 149.794ZM293.117 152.621C291.748 153.901 290.086 154.924 288.113 155.683L288.831 157.549C291.018 156.708 292.907 155.555 294.483 154.083L293.117 152.621ZM288.125 155.678C286.156 156.405 284.129 156.768 282.04 156.768V158.768C284.366 158.768 286.628 158.363 288.818 157.554L288.125 155.678Z" fill="#263C29"/>
</svg>
