<svg width="441" height="240" viewBox="0 0 441 240" fill="none" xmlns="http://www.w3.org/2000/svg">
<path d="M65.968 99.7698C65.68 100.25 65.36 100.618 65.008 100.874C64.688 101.098 64.288 101.21 63.808 101.21C63.264 101.21 62.624 100.938 61.888 100.394C61.152 99.8498 60.224 99.2578 59.104 98.6178C58.016 97.9458 56.688 97.3378 55.12 96.7938C53.584 96.2498 51.712 95.9778 49.504 95.9778C47.424 95.9778 45.584 96.2658 43.984 96.8418C42.416 97.3858 41.088 98.1378 40 99.0978C38.944 100.058 38.144 101.194 37.6 102.506C37.056 103.786 36.784 105.178 36.784 106.682C36.784 108.602 37.248 110.202 38.176 111.482C39.136 112.73 40.384 113.802 41.92 114.698C43.488 115.594 45.248 116.378 47.2 117.05C49.184 117.69 51.2 118.362 53.248 119.066C55.328 119.77 57.344 120.57 59.296 121.466C61.28 122.33 63.04 123.434 64.576 124.778C66.144 126.122 67.392 127.77 68.32 129.722C69.28 131.674 69.76 134.074 69.76 136.922C69.76 139.93 69.248 142.762 68.224 145.418C67.2 148.042 65.696 150.33 63.712 152.282C61.76 154.234 59.344 155.77 56.464 156.89C53.616 158.01 50.368 158.57 46.72 158.57C42.24 158.57 38.176 157.77 34.528 156.17C30.88 154.538 27.76 152.346 25.168 149.594L27.856 145.178C28.112 144.826 28.416 144.538 28.768 144.314C29.152 144.058 29.568 143.93 30.016 143.93C30.432 143.93 30.896 144.106 31.408 144.458C31.952 144.778 32.56 145.194 33.232 145.706C33.904 146.218 34.672 146.778 35.536 147.386C36.4 147.994 37.376 148.554 38.464 149.066C39.584 149.578 40.848 150.01 42.256 150.362C43.664 150.682 45.248 150.842 47.008 150.842C49.216 150.842 51.184 150.538 52.912 149.93C54.64 149.322 56.096 148.474 57.28 147.386C58.496 146.266 59.424 144.938 60.064 143.402C60.704 141.866 61.024 140.154 61.024 138.266C61.024 136.186 60.544 134.49 59.584 133.178C58.656 131.834 57.424 130.714 55.888 129.818C54.352 128.922 52.592 128.17 50.608 127.562C48.624 126.922 46.608 126.282 44.56 125.642C42.512 124.97 40.496 124.202 38.512 123.338C36.528 122.474 34.768 121.354 33.232 119.978C31.696 118.602 30.448 116.89 29.488 114.842C28.56 112.762 28.096 110.202 28.096 107.162C28.096 104.73 28.56 102.378 29.488 100.106C30.448 97.8338 31.824 95.8178 33.616 94.0578C35.44 92.2978 37.664 90.8898 40.288 89.8338C42.944 88.7778 45.984 88.2498 49.408 88.2498C53.248 88.2498 56.736 88.8578 59.872 90.0738C63.04 91.2898 65.824 93.0498 68.224 95.3538L65.968 99.7698ZM101.108 108.41C104.66 108.41 107.86 109.002 110.708 110.186C113.556 111.37 115.988 113.05 118.004 115.226C120.02 117.402 121.556 120.042 122.612 123.146C123.7 126.218 124.244 129.658 124.244 133.466C124.244 137.306 123.7 140.762 122.612 143.834C121.556 146.906 120.02 149.53 118.004 151.706C115.988 153.882 113.556 155.562 110.708 156.746C107.86 157.898 104.66 158.474 101.108 158.474C97.5238 158.474 94.2918 157.898 91.4118 156.746C88.5638 155.562 86.1318 153.882 84.1158 151.706C82.0998 149.53 80.5478 146.906 79.4598 143.834C78.4038 140.762 77.8758 137.306 77.8758 133.466C77.8758 129.658 78.4038 126.218 79.4598 123.146C80.5478 120.042 82.0998 117.402 84.1158 115.226C86.1318 113.05 88.5638 111.37 91.4118 110.186C94.2918 109.002 97.5238 108.41 101.108 108.41ZM101.108 151.802C105.908 151.802 109.492 150.202 111.86 147.002C114.228 143.77 115.412 139.274 115.412 133.514C115.412 127.722 114.228 123.21 111.86 119.978C109.492 116.746 105.908 115.13 101.108 115.13C98.6758 115.13 96.5478 115.546 94.7238 116.378C92.9318 117.21 91.4278 118.41 90.2118 119.978C89.0278 121.546 88.1318 123.482 87.5238 125.786C86.9478 128.058 86.6598 130.634 86.6598 133.514C86.6598 139.274 87.8438 143.77 90.2118 147.002C92.6118 150.202 96.2438 151.802 101.108 151.802ZM176.865 116.33V145.514C176.865 147.562 177.361 149.082 178.353 150.074C179.345 151.066 180.609 151.562 182.145 151.562C183.073 151.562 183.857 151.45 184.497 151.226C185.169 150.97 185.745 150.698 186.225 150.41C186.705 150.122 187.105 149.866 187.425 149.642C187.745 149.386 188.033 149.258 188.289 149.258C188.577 149.258 188.801 149.322 188.961 149.45C189.153 149.578 189.345 149.786 189.537 150.074L192.033 154.154C190.561 155.53 188.785 156.618 186.705 157.418C184.625 158.186 182.465 158.57 180.225 158.57C176.417 158.57 173.473 157.498 171.393 155.354C169.345 153.21 168.321 150.122 168.321 146.09V116.33H145.809V157.802H137.217V116.474L131.841 115.85C131.169 115.69 130.609 115.45 130.161 115.13C129.745 114.778 129.537 114.282 129.537 113.642V110.138H137.217V105.434C137.217 102.65 137.601 100.186 138.369 98.0418C139.169 95.8658 140.289 94.0418 141.729 92.5698C143.201 91.0658 144.961 89.9298 147.009 89.1618C149.057 88.3938 151.361 88.0098 153.921 88.0098C156.097 88.0098 158.097 88.3298 159.921 88.9698L159.729 93.2418C159.665 94.0098 159.233 94.4258 158.433 94.4898C157.665 94.5538 156.625 94.5858 155.313 94.5858C153.841 94.5858 152.497 94.7778 151.281 95.1618C150.097 95.5458 149.073 96.1698 148.209 97.0338C147.345 97.8978 146.673 99.0338 146.193 100.442C145.745 101.85 145.521 103.594 145.521 105.674V110.138H168.609L170.529 95.0178C170.657 94.5378 170.881 94.1538 171.201 93.8658C171.553 93.5458 172.001 93.3858 172.545 93.3858H176.865V110.138H190.881V116.33H176.865ZM266.824 109.178L251.08 157.802H244.312C243.48 157.802 242.904 157.258 242.584 156.17L231.832 123.194C231.576 122.458 231.368 121.722 231.208 120.986C231.048 120.218 230.888 119.466 230.728 118.73C230.568 119.466 230.408 120.218 230.248 120.986C230.088 121.722 229.88 122.474 229.624 123.242L218.68 156.17C218.392 157.258 217.752 157.802 216.76 157.802H210.328L194.584 109.178H201.304C201.976 109.178 202.536 109.354 202.984 109.706C203.464 110.058 203.784 110.474 203.944 110.954L213.256 142.25C213.8 144.554 214.232 146.73 214.552 148.778C214.84 147.722 215.128 146.65 215.416 145.562C215.736 144.474 216.072 143.37 216.424 142.25L226.696 110.762C226.856 110.282 227.128 109.882 227.512 109.562C227.928 109.242 228.424 109.082 229 109.082H232.744C233.384 109.082 233.912 109.242 234.328 109.562C234.744 109.882 235.032 110.282 235.192 110.762L245.224 142.25C245.576 143.37 245.896 144.474 246.184 145.562C246.472 146.65 246.744 147.722 247 148.778C247.16 147.722 247.352 146.666 247.576 145.61C247.832 144.522 248.104 143.402 248.392 142.25L257.896 110.954C258.056 110.442 258.36 110.026 258.808 109.706C259.256 109.354 259.784 109.178 260.392 109.178H266.824ZM300.933 135.914C296.997 136.042 293.637 136.362 290.853 136.874C288.101 137.354 285.845 137.994 284.085 138.794C282.357 139.594 281.093 140.538 280.293 141.626C279.525 142.714 279.141 143.93 279.141 145.274C279.141 146.554 279.349 147.658 279.765 148.586C280.181 149.514 280.741 150.282 281.445 150.89C282.181 151.466 283.029 151.898 283.989 152.186C284.981 152.442 286.037 152.57 287.157 152.57C288.661 152.57 290.037 152.426 291.285 152.138C292.533 151.818 293.701 151.37 294.789 150.794C295.909 150.218 296.965 149.53 297.957 148.73C298.981 147.93 299.973 147.018 300.933 145.994V135.914ZM273.333 116.042C276.021 113.45 278.917 111.514 282.021 110.234C285.125 108.954 288.565 108.314 292.341 108.314C295.061 108.314 297.477 108.762 299.589 109.658C301.701 110.554 303.477 111.802 304.917 113.402C306.357 115.002 307.445 116.938 308.181 119.21C308.917 121.482 309.285 123.978 309.285 126.698V157.802H305.493C304.661 157.802 304.021 157.674 303.573 157.418C303.125 157.13 302.773 156.586 302.517 155.786L301.557 151.178C300.277 152.362 299.029 153.418 297.812 154.346C296.597 155.242 295.317 156.01 293.973 156.65C292.629 157.258 291.189 157.722 289.653 158.042C288.149 158.394 286.469 158.57 284.613 158.57C282.725 158.57 280.949 158.314 279.285 157.802C277.621 157.258 276.165 156.458 274.917 155.402C273.701 154.346 272.725 153.018 271.989 151.418C271.285 149.786 270.933 147.866 270.933 145.658C270.933 143.738 271.461 141.898 272.517 140.138C273.573 138.346 275.285 136.762 277.653 135.386C280.021 134.01 283.109 132.89 286.917 132.026C290.725 131.13 295.397 130.618 300.933 130.49V126.698C300.933 122.922 300.117 120.074 298.485 118.154C296.853 116.202 294.469 115.226 291.333 115.226C289.221 115.226 287.445 115.498 286.005 116.042C284.597 116.554 283.365 117.146 282.309 117.818C281.285 118.458 280.389 119.05 279.621 119.594C278.885 120.106 278.149 120.362 277.413 120.362C276.837 120.362 276.341 120.218 275.925 119.93C275.509 119.61 275.157 119.226 274.868 118.778L273.333 116.042ZM330.411 118.922C331.947 115.594 333.835 113.002 336.075 111.146C338.315 109.258 341.051 108.314 344.283 108.314C345.307 108.314 346.283 108.426 347.211 108.65C348.171 108.874 349.019 109.226 349.755 109.706L349.131 116.09C348.939 116.89 348.459 117.29 347.691 117.29C347.243 117.29 346.587 117.194 345.723 117.002C344.859 116.81 343.883 116.714 342.795 116.714C341.259 116.714 339.883 116.938 338.667 117.386C337.483 117.834 336.411 118.506 335.451 119.402C334.523 120.266 333.675 121.354 332.907 122.666C332.171 123.946 331.499 125.418 330.891 127.082V157.802H322.299V109.178H327.195C328.123 109.178 328.763 109.354 329.115 109.706C329.467 110.058 329.707 110.666 329.835 111.53L330.411 118.922ZM387.843 128.186C387.843 126.202 387.555 124.394 386.979 122.762C386.435 121.098 385.619 119.674 384.531 118.49C383.475 117.274 382.179 116.346 380.643 115.706C379.107 115.034 377.363 114.698 375.411 114.698C371.315 114.698 368.067 115.898 365.667 118.298C363.299 120.666 361.827 123.962 361.251 128.186H387.843ZM394.755 150.986C393.699 152.266 392.435 153.386 390.963 154.346C389.491 155.274 387.907 156.042 386.211 156.65C384.547 157.258 382.819 157.706 381.027 157.994C379.235 158.314 377.459 158.474 375.699 158.474C372.339 158.474 369.235 157.914 366.387 156.794C363.571 155.642 361.123 153.978 359.043 151.802C356.995 149.594 355.395 146.874 354.243 143.642C353.091 140.41 352.515 136.698 352.515 132.506C352.515 129.114 353.027 125.946 354.051 123.002C355.107 120.058 356.611 117.514 358.563 115.37C360.515 113.194 362.899 111.498 365.715 110.282C368.531 109.034 371.699 108.41 375.219 108.41C378.131 108.41 380.819 108.906 383.283 109.898C385.779 110.858 387.923 112.266 389.715 114.122C391.539 115.946 392.963 118.218 393.987 120.938C395.011 123.626 395.523 126.698 395.523 130.154C395.523 131.498 395.379 132.394 395.091 132.842C394.803 133.29 394.259 133.514 393.459 133.514H360.963C361.059 136.586 361.475 139.258 362.211 141.53C362.979 143.802 364.035 145.706 365.379 147.242C366.723 148.746 368.323 149.882 370.179 150.65C372.035 151.386 374.115 151.754 376.419 151.754C378.563 151.754 380.403 151.514 381.939 151.034C383.507 150.522 384.851 149.978 385.971 149.402C387.091 148.826 388.019 148.298 388.755 147.818C389.523 147.306 390.179 147.05 390.723 147.05C391.427 147.05 391.971 147.322 392.355 147.866L394.755 150.986ZM434.338 117.194C433.954 117.898 433.362 118.25 432.562 118.25C432.082 118.25 431.538 118.074 430.93 117.722C430.322 117.37 429.57 116.986 428.674 116.57C427.81 116.122 426.77 115.722 425.554 115.37C424.338 114.986 422.898 114.794 421.234 114.794C419.794 114.794 418.498 114.986 417.346 115.37C416.194 115.722 415.202 116.218 414.37 116.858C413.57 117.498 412.946 118.25 412.498 119.114C412.082 119.946 411.874 120.858 411.874 121.85C411.874 123.098 412.226 124.138 412.93 124.97C413.666 125.802 414.626 126.522 415.81 127.13C416.994 127.738 418.338 128.282 419.842 128.762C421.346 129.21 422.882 129.706 424.45 130.25C426.05 130.762 427.602 131.338 429.106 131.978C430.61 132.618 431.954 133.418 433.138 134.378C434.322 135.338 435.266 136.522 435.97 137.93C436.706 139.306 437.074 140.97 437.074 142.922C437.074 145.162 436.674 147.242 435.874 149.162C435.074 151.05 433.89 152.698 432.322 154.106C430.754 155.482 428.834 156.57 426.562 157.37C424.29 158.17 421.666 158.57 418.69 158.57C415.298 158.57 412.226 158.026 409.474 156.938C406.722 155.818 404.386 154.394 402.466 152.666L404.482 149.402C404.738 148.986 405.042 148.666 405.394 148.442C405.746 148.218 406.194 148.106 406.738 148.106C407.314 148.106 407.922 148.33 408.562 148.778C409.202 149.226 409.97 149.722 410.866 150.266C411.794 150.81 412.914 151.306 414.226 151.754C415.538 152.202 417.17 152.426 419.122 152.426C420.786 152.426 422.242 152.218 423.49 151.802C424.738 151.354 425.778 150.762 426.61 150.026C427.442 149.29 428.05 148.442 428.434 147.482C428.85 146.522 429.058 145.498 429.058 144.41C429.058 143.066 428.69 141.962 427.954 141.098C427.25 140.202 426.306 139.45 425.122 138.842C423.938 138.202 422.578 137.658 421.042 137.21C419.538 136.73 417.986 136.234 416.386 135.722C414.818 135.21 413.266 134.634 411.73 133.994C410.226 133.322 408.882 132.49 407.698 131.498C406.514 130.506 405.554 129.29 404.818 127.85C404.114 126.378 403.762 124.602 403.762 122.522C403.762 120.666 404.146 118.89 404.914 117.194C405.682 115.466 406.802 113.962 408.274 112.682C409.746 111.37 411.554 110.33 413.698 109.562C415.842 108.794 418.29 108.41 421.042 108.41C424.242 108.41 427.106 108.922 429.634 109.946C432.194 110.938 434.402 112.314 436.258 114.074L434.338 117.194Z" fill="#263C29"/>
<circle cx="119.5" cy="120.302" r="119.5" fill="#CDC945"/>
<path d="M65.968 99.7698L66.8255 100.284L66.843 100.255L66.8585 100.225L65.968 99.7698ZM65.008 100.874L65.5815 101.693L65.5889 101.688L65.5962 101.682L65.008 100.874ZM61.888 100.394L62.4824 99.5896H62.4824L61.888 100.394ZM59.104 98.6178L58.5785 99.4686L58.593 99.4775L58.6079 99.486L59.104 98.6178ZM55.12 96.7938L54.7861 97.7364L54.7922 97.7385L55.12 96.7938ZM43.984 96.8418L44.3118 97.7866L44.3227 97.7826L43.984 96.8418ZM40 99.0978L39.3384 98.3479L39.3328 98.3528L39.3273 98.3578L40 99.0978ZM37.6 102.506L38.5204 102.897L38.5237 102.889L37.6 102.506ZM38.176 111.482L37.3664 112.069L37.3747 112.08L37.3834 112.091L38.176 111.482ZM41.92 114.698L41.4161 115.562L41.4239 115.566L41.92 114.698ZM47.2 117.05L46.8745 117.995L46.8837 117.998L46.893 118.001L47.2 117.05ZM53.248 119.066L52.9229 120.011L52.9274 120.013L53.248 119.066ZM59.296 121.466L58.8788 122.375L58.8877 122.379L58.8967 122.383L59.296 121.466ZM64.576 124.778L63.9175 125.53L63.9252 125.537L64.576 124.778ZM68.32 129.722L67.4168 130.151L67.4227 130.163L68.32 129.722ZM68.224 145.418L69.1556 145.781L69.1571 145.777L68.224 145.418ZM63.712 152.282L63.0106 151.569L63.0049 151.575L63.712 152.282ZM56.464 156.89L56.1016 155.958L56.098 155.959L56.464 156.89ZM34.528 156.17L34.1196 157.083L34.1263 157.086L34.528 156.17ZM25.168 149.594L24.3138 149.074L23.9176 149.725L24.44 150.279L25.168 149.594ZM27.856 145.178L27.0473 144.59L27.0231 144.623L27.0018 144.658L27.856 145.178ZM28.768 144.314L29.3049 145.157L29.3138 145.152L29.3227 145.146L28.768 144.314ZM31.408 144.458L30.8415 145.282L30.8706 145.302L30.901 145.32L31.408 144.458ZM33.232 145.706L32.626 146.501L33.232 145.706ZM35.536 147.386L34.9605 148.204L34.9605 148.204L35.536 147.386ZM38.464 149.066L38.0382 149.971L38.0482 149.975L38.464 149.066ZM42.256 150.362L42.0135 151.332L42.0239 151.335L42.0344 151.337L42.256 150.362ZM52.912 149.93L53.2439 150.873H53.2439L52.912 149.93ZM57.28 147.386L57.9566 148.122L57.9575 148.121L57.28 147.386ZM59.584 133.178L58.7611 133.746L58.7689 133.757L58.777 133.768L59.584 133.178ZM50.608 127.562L50.301 128.513L50.308 128.516L50.315 128.518L50.608 127.562ZM44.56 125.642L44.2482 126.592L44.255 126.594L44.2617 126.596L44.56 125.642ZM33.232 119.978L33.8992 119.233L33.232 119.978ZM29.488 114.842L28.5748 115.249L28.5786 115.258L28.5825 115.266L29.488 114.842ZM29.488 100.106L28.5668 99.7165L28.5622 99.7276L29.488 100.106ZM33.616 94.0578L32.9216 93.3381L32.9153 93.3443L33.616 94.0578ZM40.288 89.8338L39.9185 88.9045L39.9147 88.9061L40.288 89.8338ZM59.872 90.0738L59.5105 91.0061L59.5137 91.0073L59.872 90.0738ZM68.224 95.3538L69.1145 95.8087L69.4526 95.147L68.9165 94.6324L68.224 95.3538ZM65.1105 99.2553C64.8727 99.6517 64.6369 99.9071 64.4198 100.065L65.5962 101.682C66.0831 101.328 66.4873 100.848 66.8255 100.284L65.1105 99.2553ZM64.4345 100.055C64.3178 100.136 64.1304 100.21 63.808 100.21V102.21C64.4456 102.21 65.0582 102.059 65.5815 101.693L64.4345 100.055ZM63.808 100.21C63.5803 100.21 63.1526 100.085 62.4824 99.5896L61.2936 101.198C62.0954 101.791 62.9477 102.21 63.808 102.21V100.21ZM62.4824 99.5896C61.7051 99.0151 60.7416 98.4017 59.6001 97.7495L58.6079 99.486C59.7064 100.114 60.5989 100.684 61.2936 101.198L62.4824 99.5896ZM59.6295 97.767C58.464 97.0471 57.0657 96.4103 55.4478 95.849L54.7922 97.7385C56.3103 98.2652 57.568 98.8444 58.5785 99.4686L59.6295 97.767ZM55.4538 95.8511C53.7801 95.2583 51.7881 94.9778 49.504 94.9778V96.9778C51.6359 96.9778 53.3879 97.2412 54.7862 97.7364L55.4538 95.8511ZM49.504 94.9778C47.3334 94.9778 45.3751 95.2781 43.6453 95.9009L44.3227 97.7826C45.7929 97.2534 47.5146 96.9778 49.504 96.9778V94.9778ZM43.6562 95.897C41.9829 96.4776 40.5369 97.2904 39.3384 98.3479L40.6616 99.8476C41.6391 98.9851 42.8491 98.294 44.3118 97.7865L43.6562 95.897ZM39.3273 98.3578C38.1629 99.4164 37.2769 100.674 36.6763 102.123L38.5237 102.889C39.0111 101.713 39.7251 100.699 40.6727 99.8377L39.3273 98.3578ZM36.6797 102.115C36.0789 103.528 35.784 105.054 35.784 106.682H37.784C37.784 105.301 38.0331 104.043 38.5203 102.897L36.6797 102.115ZM35.784 106.682C35.784 108.766 36.2901 110.584 37.3664 112.069L38.9856 110.895C38.2059 109.819 37.784 108.437 37.784 106.682H35.784ZM37.3834 112.091C38.4318 113.454 39.7827 114.609 41.4161 115.562L42.4239 113.834C40.9853 112.995 39.8402 112.005 38.9686 110.872L37.3834 112.091ZM41.4239 115.566C43.0533 116.497 44.8715 117.306 46.8745 117.995L47.5255 116.104C45.6245 115.45 43.9227 114.69 42.4161 113.83L41.4239 115.566ZM46.893 118.001C48.8707 118.639 50.8807 119.309 52.9229 120.011L53.5731 118.12C51.5193 117.414 49.4973 116.74 47.507 116.098L46.893 118.001ZM52.9274 120.013C54.9753 120.706 56.959 121.493 58.8788 122.375L59.7132 120.557C57.729 119.646 55.6807 118.833 53.5686 118.119L52.9274 120.013ZM58.8967 122.383C60.7921 123.208 62.4635 124.258 63.9175 125.53L65.2345 124.025C63.6165 122.609 61.7679 121.452 59.6953 120.549L58.8967 122.383ZM63.9252 125.537C65.382 126.786 66.5461 128.32 67.4169 130.151L69.2231 129.292C68.2379 127.22 66.906 125.458 65.2268 124.019L63.9252 125.537ZM67.4227 130.163C68.2976 131.942 68.76 134.181 68.76 136.922H70.76C70.76 133.966 70.2624 131.405 69.2174 129.28L67.4227 130.163ZM68.76 136.922C68.76 139.814 68.2682 142.523 67.2909 145.058L69.1571 145.777C70.2278 143 70.76 140.046 70.76 136.922H68.76ZM67.2924 145.054C66.3191 147.548 64.8929 149.717 63.0107 151.569L64.4133 152.995C66.4991 150.942 68.081 148.535 69.1556 145.781L67.2924 145.054ZM63.0049 151.575C61.162 153.418 58.8678 154.882 56.1016 155.958L56.8265 157.822C59.8202 156.658 62.358 155.05 64.4191 152.989L63.0049 151.575ZM56.098 155.959C53.3866 157.025 50.2663 157.57 46.72 157.57V159.57C50.4697 159.57 53.8454 158.994 56.83 157.82L56.098 155.959ZM46.72 157.57C42.361 157.57 38.4361 156.792 34.9297 155.254L34.1263 157.086C37.9159 158.748 42.119 159.57 46.72 159.57V157.57ZM34.9364 155.257C31.4019 153.676 28.3924 151.559 25.896 148.908L24.44 150.279C27.1276 153.133 30.3581 155.4 34.1196 157.083L34.9364 155.257ZM26.0222 150.114L28.7102 145.698L27.0018 144.658L24.3138 149.074L26.0222 150.114ZM28.6647 145.766C28.8502 145.511 29.0633 145.311 29.3049 145.157L28.2311 143.47C27.7687 143.764 27.3738 144.141 27.0473 144.59L28.6647 145.766ZM29.3227 145.146C29.5477 144.996 29.7716 144.93 30.016 144.93V142.93C29.3644 142.93 28.7563 143.12 28.2133 143.482L29.3227 145.146ZM30.016 144.93C30.1525 144.93 30.4186 144.991 30.8415 145.282L31.9745 143.634C31.3734 143.22 30.7115 142.93 30.016 142.93V144.93ZM30.901 145.32C31.4014 145.614 31.9758 146.006 32.626 146.501L33.838 144.91C33.1442 144.382 32.5026 143.941 31.915 143.596L30.901 145.32ZM32.626 146.501C33.3101 147.022 34.0886 147.59 34.9605 148.204L36.1115 146.568C35.2554 145.966 34.4979 145.413 33.838 144.91L32.626 146.501ZM34.9605 148.204C35.8777 148.849 36.9049 149.437 38.0382 149.971L38.8898 148.161C37.8471 147.67 36.9223 147.138 36.1115 146.568L34.9605 148.204ZM38.0482 149.975C39.2328 150.517 40.5562 150.968 42.0135 151.332L42.4985 149.392C41.1398 149.052 39.9352 148.639 38.8798 148.156L38.0482 149.975ZM42.0344 151.337C43.5289 151.677 45.189 151.842 47.008 151.842V149.842C45.307 149.842 43.7991 149.687 42.4776 149.387L42.0344 151.337ZM47.008 151.842C49.3065 151.842 51.3899 151.525 53.2439 150.873L52.5801 148.986C50.9781 149.55 49.1255 149.842 47.008 149.842V151.842ZM53.2439 150.873C55.0819 150.226 56.66 149.314 57.9566 148.122L56.6034 146.649C55.532 147.634 54.1981 148.417 52.5801 148.986L53.2439 150.873ZM57.9575 148.121C59.2804 146.903 60.2919 145.455 60.9871 143.786L59.1409 143.017C58.5561 144.421 57.7116 145.629 56.6025 146.65L57.9575 148.121ZM60.9871 143.786C61.6842 142.113 62.024 140.268 62.024 138.266H60.024C60.024 140.039 59.7238 141.618 59.1409 143.017L60.9871 143.786ZM62.024 138.266C62.024 136.033 61.5075 134.113 60.391 132.587L58.777 133.768C59.5805 134.866 60.024 136.339 60.024 138.266H62.024ZM60.4069 132.61C59.3883 131.134 58.0432 129.917 56.3919 128.954L55.3841 130.682C56.8048 131.51 57.9237 132.533 58.7611 133.746L60.4069 132.61ZM56.3919 128.954C54.7794 128.013 52.9467 127.233 50.901 126.606L50.315 128.518C52.2373 129.107 53.9246 129.83 55.3841 130.682L56.3919 128.954ZM50.915 126.61C48.928 125.969 46.9091 125.328 44.8583 124.687L44.2617 126.596C46.3069 127.235 48.32 127.874 50.301 128.513L50.915 126.61ZM44.8718 124.692C42.8536 124.029 40.8668 123.273 38.9113 122.421L38.1127 124.255C40.1252 125.131 42.1704 125.91 44.2482 126.592L44.8718 124.692ZM38.9113 122.421C37.0203 121.597 35.3518 120.534 33.8992 119.233L32.5648 120.723C34.1842 122.173 36.0357 123.35 38.1127 124.255L38.9113 122.421ZM33.8992 119.233C32.4727 117.955 31.302 116.355 30.3935 114.417L28.5825 115.266C29.594 117.424 30.9193 119.249 32.5648 120.723L33.8992 119.233ZM30.4012 114.434C29.5462 112.518 29.096 110.106 29.096 107.162H27.096C27.096 110.298 27.5738 113.006 28.5748 115.249L30.4012 114.434ZM29.096 107.162C29.096 104.861 29.5343 102.637 30.4138 100.484L28.5622 99.7276C27.5857 102.119 27.096 104.599 27.096 107.162H29.096ZM30.4091 100.495C31.3168 98.3468 32.6171 96.4405 34.3167 94.7712L32.9153 93.3443C31.0309 95.195 29.5792 97.3207 28.5669 99.7165L30.4091 100.495ZM34.3104 94.7774C36.0316 93.1165 38.1429 91.775 40.6613 90.7615L39.9147 88.9061C37.1851 90.0046 34.8484 91.479 32.9216 93.3381L34.3104 94.7774ZM40.6575 90.763C43.1751 89.762 46.0861 89.2498 49.408 89.2498V87.2498C45.8819 87.2498 42.7129 87.7935 39.9185 88.9045L40.6575 90.763ZM49.408 89.2498C53.1417 89.2498 56.5049 89.8407 59.5105 91.0061L60.2335 89.1414C56.9671 87.8748 53.3543 87.2498 49.408 87.2498V89.2498ZM59.5137 91.0073C62.5598 92.1766 65.2296 93.8653 67.5315 96.0751L68.9165 94.6324C66.4184 92.2342 63.5202 90.4029 60.2303 89.1402L59.5137 91.0073ZM67.3335 94.8988L65.0775 99.3148L66.8585 100.225L69.1145 95.8087L67.3335 94.8988ZM110.708 110.186L110.324 111.109L110.708 110.186ZM118.004 115.226L117.27 115.905L118.004 115.226ZM122.612 123.146L121.665 123.468L121.669 123.48L122.612 123.146ZM122.612 143.834L121.669 143.5L121.666 143.509L122.612 143.834ZM118.004 151.706L117.27 151.026V151.026L118.004 151.706ZM110.708 156.746L111.083 157.673L111.092 157.669L110.708 156.746ZM91.4118 156.746L91.0278 157.669L91.0404 157.674L91.4118 156.746ZM84.1157 151.706L84.8493 151.026V151.026L84.1157 151.706ZM79.4598 143.834L78.514 144.159L78.5171 144.168L79.4598 143.834ZM79.4598 123.146L78.516 122.815L78.5141 122.821L79.4598 123.146ZM84.1157 115.226L84.8493 115.905L84.1157 115.226ZM91.4118 110.186L91.0315 109.261L91.0279 109.262L91.4118 110.186ZM111.86 147.002L112.664 147.597L112.666 147.593L111.86 147.002ZM94.7238 116.378L94.3087 115.468L94.3026 115.471L94.7238 116.378ZM90.2118 119.978L89.4215 119.365L89.4137 119.375L90.2118 119.978ZM87.5238 125.786L86.5568 125.531L86.5544 125.54L87.5238 125.786ZM90.2118 147.002L89.405 147.593L89.4118 147.602L90.2118 147.002ZM101.108 109.41C104.548 109.41 107.615 109.983 110.324 111.109L111.092 109.262C108.105 108.021 104.772 107.41 101.108 107.41V109.41ZM110.324 111.109C113.045 112.24 115.356 113.839 117.27 115.905L118.737 114.546C116.62 112.26 114.067 110.499 111.092 109.262L110.324 111.109ZM117.27 115.905C119.181 117.968 120.649 120.483 121.665 123.468L123.558 122.824C122.462 119.601 120.858 116.835 118.737 114.546L117.27 115.905ZM121.669 123.48C122.713 126.428 123.244 129.753 123.244 133.466H125.244C125.244 129.563 124.686 126.007 123.554 122.812L121.669 123.48ZM123.244 133.466C123.244 137.212 122.713 140.552 121.669 143.5L123.554 144.168C124.686 140.971 125.244 137.4 125.244 133.466H123.244ZM121.666 143.509C120.651 146.462 119.183 148.962 117.27 151.026L118.737 152.385C120.857 150.098 122.461 147.35 123.557 144.159L121.666 143.509ZM117.27 151.026C115.356 153.092 113.045 154.691 110.324 155.822L111.092 157.669C114.067 156.432 116.62 154.671 118.737 152.385L117.27 151.026ZM110.333 155.819C107.621 156.916 104.551 157.474 101.108 157.474V159.474C104.768 159.474 108.098 158.88 111.083 157.673L110.333 155.819ZM101.108 157.474C97.6314 157.474 94.5281 156.915 91.7831 155.817L91.0404 157.674C94.0554 158.88 97.4161 159.474 101.108 159.474V157.474ZM91.7956 155.822C89.0749 154.691 86.7637 153.092 84.8493 151.026L83.3822 152.385C85.4998 154.671 88.0526 156.432 91.0279 157.669L91.7956 155.822ZM84.8493 151.026C82.9346 148.959 81.4495 146.456 80.4024 143.5L78.5171 144.168C79.646 147.355 81.2649 150.1 83.3822 152.385L84.8493 151.026ZM80.4054 143.509C79.3913 140.558 78.8758 137.215 78.8758 133.466H76.8758C76.8758 137.397 77.4162 140.965 78.5141 144.159L80.4054 143.509ZM78.8758 133.466C78.8758 129.75 79.391 126.422 80.4054 123.471L78.5141 122.821C77.4165 126.014 76.8758 129.566 76.8758 133.466H78.8758ZM80.4035 123.477C81.451 120.488 82.9362 117.97 84.8493 115.905L83.3822 114.546C81.2633 116.833 79.6445 119.596 78.516 122.815L80.4035 123.477ZM84.8493 115.905C86.7637 113.839 89.0749 112.24 91.7956 111.109L91.0279 109.262C88.0526 110.499 85.4998 112.26 83.3822 114.546L84.8493 115.905ZM91.792 111.111C94.5345 109.983 97.6347 109.41 101.108 109.41V107.41C97.4128 107.41 94.049 108.02 91.0315 109.261L91.792 111.111ZM101.108 152.802C106.151 152.802 110.067 151.105 112.664 147.597L111.056 146.407C108.916 149.298 105.664 150.802 101.108 150.802V152.802ZM112.666 147.593C115.204 144.129 116.412 139.397 116.412 133.514H114.412C114.412 139.151 113.251 143.411 111.053 146.411L112.666 147.593ZM116.412 133.514C116.412 127.6 115.205 122.851 112.666 119.387L111.053 120.569C113.251 123.568 114.412 127.843 114.412 133.514H116.412ZM112.666 119.387C110.072 115.845 106.155 114.13 101.108 114.13V116.13C105.66 116.13 108.912 117.646 111.053 120.569L112.666 119.387ZM101.108 114.13C98.5625 114.13 96.2878 114.565 94.3087 115.468L95.1388 117.288C96.8078 116.526 98.789 116.13 101.108 116.13V114.13ZM94.3026 115.471C92.3652 116.37 90.7349 117.671 89.4215 119.365L91.002 120.591C92.1206 119.148 93.4983 118.049 95.1449 117.285L94.3026 115.471ZM89.4137 119.375C88.1366 121.066 87.1911 123.127 86.5569 125.531L88.4907 126.041C89.0724 123.837 89.9189 122.025 91.0098 120.58L89.4137 119.375ZM86.5544 125.54C85.954 127.908 85.6598 130.569 85.6598 133.514H87.6598C87.6598 130.699 87.9415 128.207 88.4931 126.032L86.5544 125.54ZM85.6598 133.514C85.6598 139.397 86.8672 144.129 89.4051 147.593L91.0184 146.411C88.8203 143.411 87.6598 139.151 87.6598 133.514H85.6598ZM89.4118 147.602C92.042 151.109 96.0051 152.802 101.108 152.802V150.802C96.4824 150.802 93.1815 149.295 91.0117 146.402L89.4118 147.602ZM176.865 116.33V115.33H175.865V116.33H176.865ZM178.353 150.074L179.06 149.367L178.353 150.074ZM184.497 151.226L184.828 152.17L184.84 152.165L184.853 152.16L184.497 151.226ZM186.225 150.41L185.711 149.552L186.225 150.41ZM187.425 149.642L187.999 150.461L188.025 150.443L188.05 150.423L187.425 149.642ZM188.961 149.45L188.337 150.231L188.37 150.258L188.407 150.282L188.961 149.45ZM189.537 150.074L190.39 149.552L190.38 149.535L190.369 149.519L189.537 150.074ZM192.033 154.154L192.716 154.884L193.312 154.327L192.886 153.632L192.033 154.154ZM186.705 157.418L187.052 158.356L187.064 158.351L186.705 157.418ZM171.393 155.354L170.67 156.045L170.676 156.05L171.393 155.354ZM168.321 116.33H169.321V115.33H168.321V116.33ZM145.809 116.33V115.33H144.809V116.33H145.809ZM145.809 157.802V158.802H146.809V157.802H145.809ZM137.217 157.802H136.217V158.802H137.217V157.802ZM137.217 116.474H138.217V115.583L137.333 115.48L137.217 116.474ZM131.841 115.85L131.61 116.823L131.667 116.836L131.726 116.843L131.841 115.85ZM130.161 115.13L129.515 115.893L129.547 115.92L129.58 115.943L130.161 115.13ZM129.537 110.138V109.138H128.537V110.138H129.537ZM137.217 110.138V111.138H138.217V110.138H137.217ZM138.369 98.0418L137.431 97.6967L137.428 97.7045L138.369 98.0418ZM141.729 92.5698L141.015 91.8703L141.014 91.8705L141.729 92.5698ZM159.921 88.9698L160.92 89.0147L160.954 88.2722L160.252 88.0262L159.921 88.9698ZM159.729 93.2418L160.726 93.3248L160.727 93.3058L160.728 93.2867L159.729 93.2418ZM158.433 94.4898L158.354 93.4929L158.35 93.4932L158.433 94.4898ZM151.281 95.1618L150.98 94.2081L150.973 94.2105L151.281 95.1618ZM148.209 97.0338L148.916 97.7409L148.209 97.0338ZM146.193 100.442L145.247 100.119L145.243 100.129L145.24 100.139L146.193 100.442ZM145.521 110.138H144.521V111.138H145.521V110.138ZM168.609 110.138V111.138H169.49L169.601 110.264L168.609 110.138ZM170.529 95.0178L169.563 94.7601L169.546 94.8251L169.537 94.8918L170.529 95.0178ZM171.201 93.8658L171.87 94.6091L171.874 94.6057L171.201 93.8658ZM176.865 93.3858H177.865V92.3858H176.865V93.3858ZM176.865 110.138H175.865V111.138H176.865V110.138ZM190.881 110.138H191.881V109.138H190.881V110.138ZM190.881 116.33V117.33H191.881V116.33H190.881ZM175.865 116.33V145.514H177.865V116.33H175.865ZM175.865 145.514C175.865 147.705 176.395 149.53 177.646 150.781L179.06 149.367C178.327 148.634 177.865 147.418 177.865 145.514H175.865ZM177.646 150.781C178.844 151.979 180.372 152.562 182.145 152.562V150.562C180.847 150.562 179.846 150.152 179.06 149.367L177.646 150.781ZM182.145 152.562C183.147 152.562 184.05 152.442 184.828 152.17L184.167 150.282C183.664 150.458 182.999 150.562 182.145 150.562V152.562ZM184.853 152.16C185.566 151.889 186.197 151.593 186.74 151.267L185.711 149.552C185.293 149.803 184.773 150.051 184.141 150.291L184.853 152.16ZM186.74 151.267C187.232 150.972 187.653 150.703 187.999 150.461L186.852 148.823C186.557 149.029 186.178 149.272 185.711 149.552L186.74 151.267ZM188.05 150.423C188.162 150.333 188.241 150.288 188.287 150.268C188.332 150.248 188.33 150.258 188.289 150.258V148.258C187.705 148.258 187.198 148.543 186.801 148.861L188.05 150.423ZM188.289 150.258C188.361 150.258 188.394 150.266 188.399 150.267C188.4 150.268 188.394 150.266 188.382 150.26C188.37 150.254 188.354 150.245 188.337 150.231L189.586 148.669C189.189 148.351 188.714 148.258 188.289 148.258V150.258ZM188.407 150.282C188.448 150.309 188.553 150.401 188.705 150.628L190.369 149.519C190.137 149.171 189.859 148.846 189.516 148.618L188.407 150.282ZM188.684 150.596L191.18 154.676L192.886 153.632L190.39 149.552L188.684 150.596ZM191.35 153.423C189.982 154.703 188.319 155.726 186.346 156.484L187.064 158.351C189.251 157.51 191.141 156.357 192.716 154.884L191.35 153.423ZM186.359 156.48C184.391 157.206 182.348 157.57 180.225 157.57V159.57C182.582 159.57 184.86 159.165 187.052 158.356L186.359 156.48ZM180.225 157.57C176.609 157.57 173.954 156.557 172.111 154.657L170.676 156.05C172.992 158.438 176.225 159.57 180.225 159.57V157.57ZM172.116 154.663C170.302 152.764 169.321 149.959 169.321 146.09H167.321C167.321 150.285 168.388 153.656 170.67 156.044L172.116 154.663ZM169.321 146.09V116.33H167.321V146.09H169.321ZM168.321 115.33H145.809V117.33H168.321V115.33ZM144.809 116.33V157.802H146.809V116.33H144.809ZM145.809 156.802H137.217V158.802H145.809V156.802ZM138.217 157.802V116.474H136.217V157.802H138.217ZM137.333 115.48L131.957 114.856L131.726 116.843L137.102 117.467L137.333 115.48ZM132.073 114.877C131.496 114.74 131.062 114.544 130.742 114.316L129.58 115.943C130.156 116.355 130.843 116.64 131.61 116.823L132.073 114.877ZM130.807 114.366C130.656 114.238 130.537 114.044 130.537 113.642H128.537C128.537 114.519 128.835 115.317 129.515 115.893L130.807 114.366ZM130.537 113.642V110.138H128.537V113.642H130.537ZM129.537 111.138H137.217V109.138H129.537V111.138ZM138.217 110.138V105.434H136.217V110.138H138.217ZM138.217 105.434C138.217 102.74 138.589 100.394 139.311 98.379L137.428 97.7045C136.614 99.9778 136.217 102.56 136.217 105.434H138.217ZM139.308 98.3868C140.065 96.3267 141.115 94.6281 142.444 93.269L141.014 91.8705C139.464 93.4554 138.273 95.4049 137.431 97.6967L139.308 98.3868ZM142.444 93.2692C143.809 91.874 145.444 90.8168 147.36 90.0981L146.658 88.2254C144.479 89.0427 142.593 90.2575 141.015 91.8703L142.444 93.2692ZM147.36 90.0981C149.279 89.3787 151.461 89.0098 153.921 89.0098V87.0098C151.261 87.0098 148.836 87.4088 146.658 88.2254L147.36 90.0981ZM153.921 89.0098C155.999 89.0098 157.885 89.3151 159.59 89.9134L160.252 88.0262C158.309 87.3444 156.196 87.0098 153.921 87.0098V89.0098ZM158.922 88.9249L158.73 93.1969L160.728 93.2867L160.92 89.0147L158.922 88.9249ZM158.733 93.1587C158.724 93.2666 158.704 93.3311 158.69 93.3654C158.677 93.3966 158.667 93.4065 158.664 93.4094C158.663 93.41 158.601 93.4731 158.354 93.4929L158.513 95.4866C159.065 95.4424 159.62 95.2655 160.051 94.8501C160.487 94.43 160.68 93.8801 160.726 93.3248L158.733 93.1587ZM158.35 93.4932C157.622 93.5539 156.614 93.5858 155.313 93.5858V95.5858C156.637 95.5858 157.708 95.5536 158.516 95.4863L158.35 93.4932ZM155.313 93.5858C153.755 93.5858 152.307 93.7891 150.98 94.2082L151.582 96.1153C152.687 95.7664 153.928 95.5858 155.313 95.5858V93.5858ZM150.973 94.2105C149.641 94.6423 148.48 95.3488 147.502 96.3266L148.916 97.7409C149.666 96.9907 150.553 96.4492 151.59 96.113L150.973 94.2105ZM147.502 96.3266C146.509 97.3198 145.766 98.5973 145.247 100.119L147.14 100.764C147.581 99.4702 148.181 98.4757 148.916 97.7409L147.502 96.3266ZM145.24 100.139C144.751 101.676 144.521 103.529 144.521 105.674H146.521C146.521 103.658 146.739 102.024 147.146 100.745L145.24 100.139ZM144.521 105.674V110.138H146.521V105.674H144.521ZM145.521 111.138H168.609V109.138H145.521V111.138ZM169.601 110.264L171.521 95.1437L169.537 94.8918L167.617 110.012L169.601 110.264ZM171.495 95.2754C171.581 94.9532 171.715 94.7484 171.87 94.6091L170.532 93.1225C170.047 93.5591 169.733 94.1224 169.563 94.7601L171.495 95.2754ZM171.874 94.6057C172.015 94.4771 172.212 94.3858 172.545 94.3858V92.3858C171.791 92.3858 171.091 92.6144 170.529 93.1258L171.874 94.6057ZM172.545 94.3858H176.865V92.3858H172.545V94.3858ZM175.865 93.3858V110.138H177.865V93.3858H175.865ZM176.865 111.138H190.881V109.138H176.865V111.138ZM189.881 110.138V116.33H191.881V110.138H189.881ZM190.881 115.33H176.865V117.33H190.881V115.33ZM266.824 109.178L267.775 109.486L268.199 108.178H266.824V109.178ZM251.08 157.802V158.802H251.807L252.031 158.11L251.08 157.802ZM242.584 156.17L243.543 155.888L243.539 155.874L243.535 155.86L242.584 156.17ZM231.832 123.194L232.783 122.884L232.78 122.874L232.777 122.865L231.832 123.194ZM231.208 120.986L230.229 121.19L230.231 121.198L231.208 120.986ZM230.728 118.73L231.705 118.517H229.751L230.728 118.73ZM230.248 120.986L231.225 121.198L231.227 121.19L230.248 120.986ZM229.624 123.242L228.675 122.926L228.675 122.926L229.624 123.242ZM218.68 156.17L217.731 155.854L217.721 155.884L217.713 155.914L218.68 156.17ZM210.328 157.802L209.377 158.11L209.601 158.802H210.328V157.802ZM194.584 109.178V108.178H193.209L193.633 109.486L194.584 109.178ZM202.984 109.706L202.366 110.492L202.379 110.502L202.393 110.512L202.984 109.706ZM203.944 110.954L204.902 110.669L204.898 110.653L204.893 110.638L203.944 110.954ZM213.256 142.25L214.229 142.02L214.223 141.992L214.214 141.965L213.256 142.25ZM214.552 148.778L213.564 148.932L215.517 149.041L214.552 148.778ZM215.416 145.562L214.457 145.28L214.453 145.293L214.449 145.306L215.416 145.562ZM216.424 142.25L215.473 141.94L215.47 141.95L216.424 142.25ZM226.696 110.762L225.747 110.446L225.745 110.452L226.696 110.762ZM227.512 109.562L226.902 108.769L226.887 108.781L226.872 108.794L227.512 109.562ZM234.328 109.562L233.718 110.354V110.354L234.328 109.562ZM235.192 110.762L236.145 110.458L236.141 110.446L235.192 110.762ZM245.224 142.25L246.178 141.95L246.177 141.946L245.224 142.25ZM246.184 145.562L245.217 145.818L246.184 145.562ZM247 148.778L246.028 149.013L247.989 148.928L247 148.778ZM247.576 145.61L246.603 145.381L246.6 145.391L246.598 145.402L247.576 145.61ZM248.392 142.25L247.435 141.959L247.428 141.983L247.422 142.007L248.392 142.25ZM257.896 110.954L256.941 110.655L256.939 110.663L257.896 110.954ZM258.808 109.706L259.389 110.519L259.408 110.506L259.426 110.492L258.808 109.706ZM265.873 108.87L250.129 157.494L252.031 158.11L267.775 109.486L265.873 108.87ZM251.08 156.802H244.312V158.802H251.08V156.802ZM244.312 156.802C244.137 156.802 244.035 156.754 243.943 156.667C243.827 156.558 243.674 156.331 243.543 155.888L241.625 156.452C241.814 157.097 242.109 157.686 242.569 158.121C243.053 158.578 243.655 158.802 244.312 158.802V156.802ZM243.535 155.86L232.783 122.884L230.881 123.504L241.633 156.48L243.535 155.86ZM232.777 122.865C232.533 122.166 232.336 121.469 232.185 120.773L230.231 121.198C230.4 121.975 230.619 122.75 230.887 123.522L232.777 122.865ZM232.187 120.782C232.026 120.011 231.866 119.256 231.705 118.517L229.751 118.942C229.91 119.675 230.07 120.424 230.229 121.19L232.187 120.782ZM229.751 118.517C229.59 119.256 229.43 120.011 229.269 120.782L231.227 121.19C231.386 120.424 231.546 119.675 231.705 118.942L229.751 118.517ZM229.271 120.773C229.119 121.472 228.921 122.189 228.675 122.926L230.573 123.558C230.839 122.758 231.057 121.972 231.225 121.198L229.271 120.773ZM228.675 122.926L217.731 155.854L219.629 156.485L230.573 123.557L228.675 122.926ZM217.713 155.914C217.604 156.326 217.456 156.53 217.336 156.632C217.229 156.723 217.064 156.802 216.76 156.802V158.802C217.448 158.802 218.099 158.608 218.632 158.156C219.152 157.713 219.468 157.101 219.647 156.426L217.713 155.914ZM216.76 156.802H210.328V158.802H216.76V156.802ZM211.279 157.494L195.535 108.87L193.633 109.486L209.377 158.11L211.279 157.494ZM194.584 110.178H201.304V108.178H194.584V110.178ZM201.304 110.178C201.794 110.178 202.125 110.302 202.366 110.492L203.602 108.919C202.947 108.405 202.158 108.178 201.304 108.178V110.178ZM202.393 110.512C202.736 110.764 202.912 111.019 202.995 111.27L204.893 110.638C204.656 109.928 204.192 109.352 203.575 108.899L202.393 110.512ZM202.986 111.239L212.298 142.535L214.214 141.965L204.902 110.669L202.986 111.239ZM212.283 142.48C212.822 144.762 213.248 146.913 213.564 148.932L215.54 148.623C215.216 146.547 214.778 144.345 214.229 142.02L212.283 142.48ZM215.517 149.041C215.805 147.982 216.094 146.908 216.383 145.818L214.449 145.306C214.162 146.392 213.875 147.461 213.587 148.515L215.517 149.041ZM216.375 145.844C216.694 144.762 217.028 143.664 217.378 142.55L215.47 141.95C215.116 143.076 214.778 144.185 214.457 145.28L216.375 145.844ZM217.375 142.56L227.647 111.072L225.745 110.452L215.473 141.94L217.375 142.56ZM227.645 111.078C227.747 110.772 227.913 110.529 228.152 110.33L226.872 108.794C226.343 109.234 225.965 109.791 225.747 110.446L227.645 111.078ZM228.122 110.354C228.346 110.182 228.622 110.082 229 110.082V108.082C228.226 108.082 227.51 108.301 226.902 108.769L228.122 110.354ZM229 110.082H232.744V108.082H229V110.082ZM232.744 110.082C233.213 110.082 233.513 110.196 233.718 110.354L234.938 108.769C234.311 108.287 233.555 108.082 232.744 108.082V110.082ZM233.718 110.354C233.983 110.558 234.149 110.794 234.243 111.078L236.141 110.446C235.915 109.769 235.505 109.206 234.938 108.769L233.718 110.354ZM234.239 111.065L244.271 142.553L246.177 141.946L236.145 110.458L234.239 111.065ZM244.27 142.55C244.618 143.656 244.933 144.745 245.217 145.818L247.151 145.306C246.859 144.203 246.534 143.084 246.178 141.95L244.27 142.55ZM245.217 145.818C245.504 146.899 245.774 147.964 246.028 149.013L247.972 148.542C247.714 147.479 247.44 146.4 247.151 145.306L245.217 145.818ZM247.989 148.928C248.146 147.891 248.334 146.854 248.554 145.817L246.598 145.402C246.37 146.477 246.174 147.552 246.011 148.628L247.989 148.928ZM248.549 145.839C248.804 144.756 249.075 143.64 249.362 142.492L247.422 142.007C247.133 143.163 246.86 144.288 246.603 145.381L248.549 145.839ZM249.349 142.54L258.853 111.244L256.939 110.663L247.435 141.959L249.349 142.54ZM258.85 111.252C258.944 110.954 259.113 110.716 259.389 110.519L258.227 108.892C257.607 109.335 257.168 109.93 256.942 110.655L258.85 111.252ZM259.426 110.492C259.685 110.288 259.992 110.178 260.392 110.178V108.178C259.576 108.178 258.827 108.419 258.19 108.919L259.426 110.492ZM260.392 110.178H266.824V108.178H260.392V110.178ZM300.932 135.914H301.932V134.881L300.9 134.914L300.932 135.914ZM290.853 136.874L291.024 137.859L291.033 137.857L290.853 136.874ZM284.085 138.794L283.671 137.883L283.664 137.886L284.085 138.794ZM280.293 141.626L279.487 141.033L279.481 141.041L279.476 141.049L280.293 141.626ZM279.764 148.586L278.852 148.995L279.764 148.586ZM281.444 150.89L280.791 151.647L280.809 151.662L280.828 151.677L281.444 150.89ZM283.988 152.186L283.701 153.144L283.72 153.149L283.739 153.154L283.988 152.186ZM291.285 152.138L291.509 153.112L291.521 153.109L291.533 153.106L291.285 152.138ZM294.789 150.794L294.331 149.904L294.321 149.91L294.789 150.794ZM297.957 148.73L297.341 147.942L297.335 147.946L297.329 147.951L297.957 148.73ZM300.932 145.994L301.662 146.678L301.932 146.389V145.994H300.932ZM273.333 116.042L272.638 115.322L272.082 115.858L272.461 116.531L273.333 116.042ZM282.021 110.234L281.639 109.309L282.021 110.234ZM299.589 109.658L299.979 108.737L299.589 109.658ZM304.917 113.402L305.66 112.733V112.733L304.917 113.402ZM308.181 119.21L307.229 119.518L308.181 119.21ZM309.285 157.802V158.802H310.285V157.802H309.285ZM303.573 157.418L303.032 158.259L303.054 158.273L303.076 158.286L303.573 157.418ZM302.517 155.786L301.538 155.99L301.548 156.041L301.564 156.091L302.517 155.786ZM301.556 151.178L302.535 150.974L302.175 149.243L300.877 150.444L301.556 151.178ZM297.812 154.346L298.406 155.151L298.412 155.146L298.419 155.141L297.812 154.346ZM293.973 156.65L294.385 157.561L294.394 157.557L294.402 157.553L293.973 156.65ZM289.652 158.042L289.449 157.063L289.437 157.065L289.425 157.068L289.652 158.042ZM279.285 157.802L278.974 158.752L278.982 158.755L278.99 158.758L279.285 157.802ZM274.917 155.402L274.261 156.157L274.271 156.165L274.917 155.402ZM271.988 151.418L271.07 151.814L271.075 151.825L271.08 151.836L271.988 151.418ZM272.516 140.138L273.374 140.652L273.378 140.645L272.516 140.138ZM277.652 135.386L278.155 136.25L277.652 135.386ZM286.917 132.026L287.138 133.001L287.146 132.999L286.917 132.026ZM300.932 130.49L300.956 131.489L301.932 131.467V130.49H300.932ZM298.484 118.154L297.717 118.795L297.723 118.801L298.484 118.154ZM286.004 116.042L286.346 116.982L286.358 116.977L286.004 116.042ZM282.309 117.818L282.839 118.666L282.845 118.661L282.309 117.818ZM279.621 119.594L280.192 120.415L280.199 120.41L279.621 119.594ZM275.924 119.93L275.315 120.722L275.335 120.738L275.355 120.752L275.924 119.93ZM274.868 118.778L273.997 119.267L274.011 119.293L274.027 119.319L274.868 118.778ZM300.9 134.914C296.932 135.043 293.519 135.367 290.672 135.89L291.033 137.857C293.754 137.357 297.061 137.04 300.965 136.913L300.9 134.914ZM290.681 135.889C287.879 136.377 285.534 137.037 283.671 137.883L284.498 139.704C286.155 138.951 288.322 138.33 291.024 137.859L290.681 135.889ZM283.664 137.886C281.843 138.73 280.419 139.765 279.487 141.033L281.098 142.218C281.766 141.31 282.87 140.458 284.505 139.701L283.664 137.886ZM279.476 141.049C278.587 142.307 278.141 143.725 278.141 145.274H280.141C280.141 144.134 280.462 143.12 281.109 142.202L279.476 141.049ZM278.141 145.274C278.141 146.659 278.365 147.909 278.852 148.995L280.677 148.177C280.332 147.406 280.141 146.448 280.141 145.274H278.141ZM278.852 148.995C279.322 150.044 279.966 150.934 280.791 151.647L282.098 150.133C281.515 149.629 281.039 148.984 280.677 148.177L278.852 148.995ZM280.828 151.677C281.669 152.335 282.631 152.822 283.701 153.144L284.276 151.228C283.426 150.973 282.692 150.596 282.061 150.102L280.828 151.677ZM283.739 153.154C284.819 153.433 285.96 153.57 287.156 153.57V151.57C286.113 151.57 285.142 151.451 284.238 151.217L283.739 153.154ZM287.156 153.57C288.723 153.57 290.176 153.42 291.509 153.112L291.06 151.163C289.897 151.432 288.598 151.57 287.156 151.57V153.57ZM291.533 153.106C292.854 152.768 294.096 152.292 295.256 151.678L294.321 149.91C293.305 150.447 292.211 150.868 291.036 151.169L291.533 153.106ZM295.246 151.683C296.427 151.076 297.54 150.35 298.584 149.508L297.329 147.951C296.389 148.709 295.39 149.36 294.331 149.904L295.246 151.683ZM298.572 149.518C299.64 148.684 300.67 147.736 301.662 146.678L300.203 145.31C299.275 146.299 298.321 147.176 297.341 147.942L298.572 149.518ZM301.932 145.994V135.914H299.932V145.994H301.932ZM274.027 116.762C276.634 114.247 279.426 112.385 282.402 111.158L281.639 109.309C278.407 110.642 275.407 112.652 272.638 115.322L274.027 116.762ZM282.402 111.158C285.371 109.934 288.679 109.314 292.341 109.314V107.314C288.45 107.314 284.878 107.974 281.639 109.309L282.402 111.158ZM292.341 109.314C294.951 109.314 297.23 109.744 299.198 110.578L299.979 108.737C297.723 107.78 295.17 107.314 292.341 107.314V109.314ZM299.198 110.578C301.184 111.421 302.837 112.586 304.173 114.071L305.66 112.733C304.116 111.017 302.217 109.686 299.979 108.737L299.198 110.578ZM304.173 114.071C305.509 115.555 306.532 117.365 307.229 119.518L309.132 118.902C308.357 116.511 307.204 114.448 305.66 112.733L304.173 114.071ZM307.229 119.518C307.929 121.678 308.285 124.068 308.285 126.698H310.285C310.285 123.887 309.904 121.286 309.132 118.902L307.229 119.518ZM308.285 126.698V157.802H310.285V126.698H308.285ZM309.285 156.802H305.492V158.802H309.285V156.802ZM305.492 156.802C304.739 156.802 304.3 156.682 304.069 156.55L303.076 158.286C303.741 158.666 304.582 158.802 305.492 158.802V156.802ZM304.113 156.577C303.945 156.469 303.693 156.18 303.469 155.481L301.564 156.091C301.852 156.991 302.304 157.791 303.032 158.259L304.113 156.577ZM303.495 155.582L302.535 150.974L300.578 151.382L301.538 155.99L303.495 155.582ZM300.877 150.444C299.617 151.609 298.394 152.644 297.206 153.551L298.419 155.141C299.663 154.191 300.936 153.114 302.236 151.912L300.877 150.444ZM297.219 153.541C296.054 154.4 294.828 155.135 293.543 155.747L294.402 157.553C295.805 156.885 297.139 156.084 298.406 155.151L297.219 153.541ZM293.56 155.739C292.287 156.315 290.917 156.757 289.449 157.063L289.856 159.021C291.46 158.687 292.97 158.201 294.385 157.561L293.56 155.739ZM289.425 157.068C288.009 157.399 286.407 157.57 284.612 157.57V159.57C286.53 159.57 288.289 159.388 289.88 159.015L289.425 157.068ZM284.612 157.57C282.816 157.57 281.14 157.326 279.579 156.846L278.99 158.758C280.757 159.301 282.633 159.57 284.612 159.57V157.57ZM279.595 156.851C278.045 156.345 276.705 155.605 275.562 154.638L274.271 156.165C275.624 157.31 277.196 158.171 278.974 158.752L279.595 156.851ZM275.572 154.647C274.473 153.692 273.579 152.483 272.897 151L271.08 151.836C271.87 153.553 272.928 154.999 274.261 156.157L275.572 154.647ZM272.907 151.022C272.268 149.541 271.932 147.762 271.932 145.658H269.932C269.932 147.97 270.301 150.03 271.07 151.814L272.907 151.022ZM271.932 145.658C271.932 143.932 272.405 142.268 273.374 140.652L271.659 139.623C270.516 141.528 269.932 143.544 269.932 145.658H271.932ZM273.378 140.645C274.324 139.041 275.89 137.567 278.155 136.25L277.15 134.521C274.679 135.957 272.821 137.651 271.655 139.63L273.378 140.645ZM278.155 136.25C280.407 134.942 283.39 133.851 287.138 133.001L286.695 131.051C282.827 131.928 279.634 133.078 277.15 134.521L278.155 136.25ZM287.146 132.999C290.865 132.124 295.463 131.616 300.956 131.489L300.909 129.49C295.33 129.619 290.584 130.135 286.687 131.052L287.146 132.999ZM301.932 130.49V126.698H299.932V130.49H301.932ZM301.932 126.698C301.932 122.799 301.093 119.678 299.246 117.506L297.723 118.801C299.14 120.469 299.932 123.045 299.932 126.698H301.932ZM299.252 117.512C297.386 115.281 294.689 114.226 291.332 114.226V116.226C294.248 116.226 296.319 117.122 297.717 118.795L299.252 117.512ZM291.332 114.226C289.142 114.226 287.237 114.507 285.651 115.106L286.358 116.977C287.652 116.489 289.299 116.226 291.332 116.226V114.226ZM285.663 115.102C284.199 115.634 282.9 116.256 281.772 116.974L282.845 118.661C283.829 118.035 284.994 117.473 286.346 116.982L285.663 115.102ZM281.779 116.97C280.742 117.617 279.83 118.22 279.042 118.778L280.199 120.41C280.947 119.879 281.827 119.298 282.839 118.666L281.779 116.97ZM279.049 118.773C278.444 119.194 277.903 119.362 277.413 119.362V121.362C278.394 121.362 279.325 121.017 280.192 120.415L279.049 118.773ZM277.413 119.362C277.011 119.362 276.72 119.264 276.494 119.108L275.355 120.752C275.961 121.171 276.662 121.362 277.413 121.362V119.362ZM276.534 119.137C276.211 118.888 275.936 118.59 275.71 118.237L274.027 119.319C274.377 119.862 274.806 120.331 275.315 120.722L276.534 119.137ZM275.74 118.288L274.204 115.552L272.461 116.531L273.997 119.267L275.74 118.288ZM330.411 118.922L329.414 118.999L329.712 122.823L331.319 119.341L330.411 118.922ZM336.075 111.146L336.713 111.916L336.72 111.91L336.075 111.146ZM347.211 108.65L346.977 109.622L346.984 109.624L347.211 108.65ZM349.755 109.706L350.751 109.803L350.81 109.199L350.302 108.868L349.755 109.706ZM349.131 116.09L350.104 116.323L350.12 116.256L350.126 116.187L349.131 116.09ZM345.723 117.002L345.506 117.978L345.723 117.002ZM338.667 117.386L338.322 116.447L338.313 116.45L338.667 117.386ZM335.451 119.402L336.133 120.134L336.134 120.133L335.451 119.402ZM332.907 122.666L332.044 122.161L332.04 122.167L332.907 122.666ZM330.891 127.082L329.952 126.739L329.891 126.905V127.082H330.891ZM330.891 157.802V158.802H331.891V157.802H330.891ZM322.299 157.802H321.299V158.802H322.299V157.802ZM322.299 109.178V108.178H321.299V109.178H322.299ZM329.115 109.706L329.822 108.999V108.999L329.115 109.706ZM329.835 111.53L330.832 111.452L330.83 111.418L330.824 111.383L329.835 111.53ZM331.319 119.341C332.808 116.114 334.614 113.655 336.713 111.916L335.437 110.376C333.056 112.349 331.086 115.073 329.503 118.503L331.319 119.341ZM336.72 111.91C338.76 110.19 341.261 109.314 344.283 109.314V107.314C340.841 107.314 337.87 108.325 335.431 110.381L336.72 111.91ZM344.283 109.314C345.234 109.314 346.131 109.418 346.977 109.622L347.446 107.678C346.436 107.434 345.381 107.314 344.283 107.314V109.314ZM346.984 109.624C347.844 109.824 348.582 110.134 349.209 110.543L350.302 108.868C349.457 108.317 348.498 107.923 347.438 107.676L346.984 109.624ZM348.76 109.608L348.136 115.992L350.126 116.187L350.751 109.803L348.76 109.608ZM348.159 115.856C348.097 116.113 348.016 116.197 347.987 116.222C347.965 116.24 347.897 116.29 347.691 116.29V118.29C348.254 118.29 348.809 118.14 349.267 117.758C349.718 117.382 349.973 116.866 350.104 116.323L348.159 115.856ZM347.691 116.29C347.357 116.29 346.788 116.214 345.94 116.026L345.506 117.978C346.387 118.174 347.13 118.29 347.691 118.29V116.29ZM345.94 116.026C344.991 115.815 343.94 115.714 342.795 115.714V117.714C343.826 117.714 344.728 117.805 345.506 117.978L345.94 116.026ZM342.795 115.714C341.163 115.714 339.667 115.952 338.322 116.447L339.013 118.324C340.1 117.924 341.356 117.714 342.795 117.714V115.714ZM338.313 116.45C337.003 116.946 335.82 117.689 334.769 118.671L336.134 120.133C337.002 119.322 337.963 118.721 339.021 118.321L338.313 116.45ZM334.77 118.67C333.758 119.612 332.852 120.781 332.044 122.161L333.77 123.171C334.499 121.927 335.288 120.92 336.133 120.134L334.77 118.67ZM332.04 122.167C331.271 123.506 330.576 125.031 329.952 126.739L331.831 127.425C332.423 125.804 333.072 124.386 333.774 123.164L332.04 122.167ZM329.891 127.082V157.802H331.891V127.082H329.891ZM330.891 156.802H322.299V158.802H330.891V156.802ZM323.299 157.802V109.178H321.299V157.802H323.299ZM322.299 110.178H327.195V108.178H322.299V110.178ZM327.195 110.178C328.064 110.178 328.351 110.356 328.408 110.413L329.822 108.999C329.175 108.352 328.183 108.178 327.195 108.178V110.178ZM328.408 110.413C328.531 110.536 328.728 110.882 328.846 111.676L330.824 111.383C330.686 110.449 330.403 109.58 329.822 108.999L328.408 110.413ZM328.838 111.607L329.414 118.999L331.408 118.844L330.832 111.452L328.838 111.607ZM387.843 128.186V129.186H388.843V128.186H387.843ZM386.979 122.762L386.029 123.072L386.032 123.084L386.036 123.095L386.979 122.762ZM384.531 118.49L383.776 119.145L383.785 119.156L383.795 119.166L384.531 118.49ZM380.643 115.706L380.242 116.622L380.251 116.625L380.259 116.629L380.643 115.706ZM365.667 118.298L366.374 119.005L365.667 118.298ZM361.251 128.186L360.26 128.051L360.106 129.186H361.251V128.186ZM394.755 150.986L395.527 151.622L396.034 151.008L395.548 150.376L394.755 150.986ZM390.963 154.346L391.497 155.192L391.503 155.188L391.51 155.183L390.963 154.346ZM386.211 156.65L385.874 155.708L385.868 155.71L386.211 156.65ZM381.027 157.994L380.869 157.006L380.86 157.008L380.851 157.009L381.027 157.994ZM366.387 156.794L366.009 157.719L366.021 157.724L366.387 156.794ZM359.043 151.802L358.31 152.482L358.315 152.487L358.32 152.493L359.043 151.802ZM354.051 123.002L353.11 122.664L353.107 122.673L354.051 123.002ZM358.563 115.37L359.303 116.043L359.308 116.038L358.563 115.37ZM365.715 110.282L366.112 111.2L366.12 111.196L365.715 110.282ZM383.283 109.898L382.91 110.825L382.917 110.828L382.924 110.831L383.283 109.898ZM389.715 114.122L388.996 114.816L389.002 114.823L389.008 114.829L389.715 114.122ZM393.987 120.938L393.051 121.29L393.053 121.294L393.987 120.938ZM360.963 133.514V132.514H359.932L359.964 133.545L360.963 133.514ZM362.211 141.53L361.26 141.838L361.264 141.85L362.211 141.53ZM365.379 147.242L364.627 147.9L364.634 147.908L365.379 147.242ZM370.179 150.65L369.797 151.574L369.804 151.577L369.811 151.579L370.179 150.65ZM381.939 151.034L382.238 151.988L382.25 151.984L381.939 151.034ZM385.971 149.402L385.514 148.512L385.971 149.402ZM388.755 147.818L389.302 148.655L389.31 148.65L388.755 147.818ZM392.355 147.866L391.538 148.442L391.55 148.459L391.563 148.475L392.355 147.866ZM388.843 128.186C388.843 126.105 388.541 124.182 387.922 122.429L386.036 123.095C386.569 124.605 386.843 126.299 386.843 128.186H388.843ZM387.93 122.451C387.345 120.663 386.461 119.111 385.268 117.813L383.795 119.166C384.778 120.236 385.525 121.532 386.029 123.072L387.93 122.451ZM385.286 117.834C384.126 116.498 382.701 115.48 381.028 114.783L380.259 116.629C381.657 117.212 382.825 118.05 383.776 119.145L385.286 117.834ZM381.044 114.79C379.363 114.054 377.479 113.698 375.411 113.698V115.698C377.248 115.698 378.852 116.014 380.242 116.622L381.044 114.79ZM375.411 113.698C371.109 113.698 367.585 114.965 364.96 117.591L366.374 119.005C368.549 116.83 371.522 115.698 375.411 115.698V113.698ZM364.96 117.591C362.4 120.151 360.858 123.67 360.26 128.051L362.242 128.321C362.797 124.254 364.199 121.181 366.374 119.005L364.96 117.591ZM361.251 129.186H387.843V127.186H361.251V129.186ZM393.984 150.349C392.996 151.547 391.809 152.6 390.417 153.508L391.51 155.183C393.061 154.171 394.402 152.985 395.527 151.622L393.984 150.349ZM390.43 153.5C389.022 154.388 387.504 155.124 385.874 155.708L386.549 157.591C388.311 156.959 389.961 156.16 391.497 155.192L390.43 153.5ZM385.868 155.71C384.265 156.296 382.599 156.728 380.869 157.006L381.186 158.981C383.039 158.683 384.829 158.219 386.554 157.589L385.868 155.71ZM380.851 157.009C379.116 157.319 377.398 157.474 375.699 157.474V159.474C377.52 159.474 379.355 159.308 381.203 158.978L380.851 157.009ZM375.699 157.474C372.452 157.474 369.474 156.933 366.753 155.863L366.021 157.724C368.997 158.895 372.226 159.474 375.699 159.474V157.474ZM366.766 155.868C364.078 154.769 361.748 153.184 359.766 151.111L358.32 152.493C360.498 154.771 363.064 156.515 366.009 157.719L366.766 155.868ZM359.776 151.122C357.833 149.026 356.298 146.428 355.185 143.306L353.301 143.978C354.493 147.32 356.158 150.161 358.31 152.482L359.776 151.122ZM355.185 143.306C354.079 140.203 353.515 136.608 353.515 132.506H351.515C351.515 136.788 352.103 140.617 353.301 143.978L355.185 143.306ZM353.515 132.506C353.515 129.216 354.012 126.16 354.996 123.33L353.107 122.673C352.043 125.732 351.515 129.012 351.515 132.506H353.515ZM354.993 123.339C356.008 120.51 357.446 118.082 359.303 116.043L357.824 114.697C355.776 116.945 354.207 119.606 353.11 122.664L354.993 123.339ZM359.308 116.038C361.158 113.974 363.422 112.361 366.112 111.2L365.319 109.364C362.377 110.634 359.872 112.413 357.819 114.702L359.308 116.038ZM366.12 111.196C368.792 110.012 371.819 109.41 375.219 109.41V107.41C371.58 107.41 368.271 108.055 365.31 109.368L366.12 111.196ZM375.219 109.41C378.016 109.41 380.575 109.886 382.91 110.825L383.657 108.97C381.063 107.926 378.247 107.41 375.219 107.41V109.41ZM382.924 110.831C385.289 111.741 387.309 113.069 388.996 114.816L390.435 113.427C388.538 111.462 386.269 109.975 383.642 108.964L382.924 110.831ZM389.008 114.829C390.719 116.54 392.071 118.686 393.051 121.29L394.923 120.585C393.855 117.749 392.359 115.351 390.422 113.415L389.008 114.829ZM393.053 121.294C394.026 123.848 394.523 126.796 394.523 130.154H396.523C396.523 126.6 395.997 123.404 394.922 120.582L393.053 121.294ZM394.523 130.154C394.523 130.795 394.489 131.298 394.428 131.675C394.365 132.07 394.285 132.247 394.25 132.301L395.932 133.383C396.186 132.988 396.322 132.494 396.403 131.992C396.486 131.474 396.523 130.856 396.523 130.154H394.523ZM394.25 132.301C394.227 132.338 394.101 132.514 393.459 132.514V134.514C394.418 134.514 395.38 134.242 395.932 133.383L394.25 132.301ZM393.459 132.514H360.963V134.514H393.459V132.514ZM359.964 133.545C360.062 136.686 360.488 139.455 361.26 141.838L363.163 141.222C362.463 139.061 362.057 136.486 361.963 133.483L359.964 133.545ZM361.264 141.85C362.067 144.225 363.182 146.25 364.627 147.9L366.132 146.583C364.888 145.162 363.892 143.379 363.159 141.21L361.264 141.85ZM364.634 147.908C366.077 149.524 367.801 150.748 369.797 151.574L370.562 149.726C368.845 149.015 367.369 147.968 366.125 146.575L364.634 147.908ZM369.811 151.579C371.801 152.368 374.008 152.754 376.419 152.754V150.754C374.222 150.754 372.27 150.403 370.548 149.72L369.811 151.579ZM376.419 152.754C378.633 152.754 380.579 152.507 382.238 151.988L381.641 150.079C380.228 150.521 378.493 150.754 376.419 150.754V152.754ZM382.25 151.984C383.854 151.461 385.249 150.897 386.429 150.291L385.514 148.512C384.453 149.058 383.161 149.583 381.629 150.083L382.25 151.984ZM386.429 150.291C387.567 149.705 388.527 149.16 389.302 148.655L388.209 146.98C387.511 147.435 386.615 147.946 385.514 148.512L386.429 150.291ZM389.31 148.65C390.016 148.179 390.471 148.05 390.723 148.05V146.05C389.887 146.05 389.031 146.432 388.201 146.986L389.31 148.65ZM390.723 148.05C391.124 148.05 391.354 148.181 391.538 148.442L393.172 147.289C392.589 146.462 391.73 146.05 390.723 146.05V148.05ZM391.563 148.475L393.963 151.595L395.548 150.376L393.148 147.256L391.563 148.475ZM434.338 117.194L433.486 116.67L433.473 116.692L433.46 116.715L434.338 117.194ZM428.674 116.57L428.214 117.458L428.233 117.468L428.253 117.477L428.674 116.57ZM425.554 115.37L425.253 116.323L425.264 116.327L425.276 116.33L425.554 115.37ZM417.346 115.37L417.638 116.326L417.65 116.322L417.662 116.318L417.346 115.37ZM414.37 116.858L413.76 116.065L413.753 116.071L413.745 116.077L414.37 116.858ZM412.498 119.114L411.61 118.653L411.607 118.66L411.604 118.667L412.498 119.114ZM412.93 124.97L412.167 125.616L412.174 125.624L412.181 125.632L412.93 124.97ZM415.81 127.13L416.267 126.24L415.81 127.13ZM419.842 128.762L419.538 129.714L419.547 129.717L419.557 129.72L419.842 128.762ZM424.45 130.25L424.122 131.195L424.134 131.198L424.145 131.202L424.45 130.25ZM429.106 131.978L429.498 131.058L429.106 131.978ZM433.138 134.378L433.768 133.601L433.138 134.378ZM435.97 137.93L435.076 138.377L435.082 138.389L435.088 138.401L435.97 137.93ZM435.874 149.162L436.795 149.552L436.797 149.546L435.874 149.162ZM432.322 154.106L432.982 154.857L432.99 154.85L432.322 154.106ZM426.562 157.37L426.23 156.427L426.562 157.37ZM409.474 156.938L409.097 157.864L409.106 157.868L409.474 156.938ZM402.466 152.666L401.615 152.14L401.176 152.851L401.797 153.409L402.466 152.666ZM404.482 149.402L405.333 149.927L405.334 149.926L404.482 149.402ZM405.394 148.442L404.857 147.598L405.394 148.442ZM408.562 148.778L407.989 149.597L408.562 148.778ZM410.866 150.266L410.347 151.121L410.354 151.125L410.36 151.128L410.866 150.266ZM414.226 151.754L413.903 152.7V152.7L414.226 151.754ZM423.49 151.802L423.806 152.75L423.817 152.747L423.828 152.743L423.49 151.802ZM426.61 150.026L427.273 150.775L426.61 150.026ZM428.434 147.482L427.516 147.084L427.511 147.097L427.506 147.11L428.434 147.482ZM427.954 141.098L427.168 141.716L427.18 141.731L427.193 141.746L427.954 141.098ZM425.122 138.842L424.646 139.721L424.656 139.726L424.665 139.731L425.122 138.842ZM421.042 137.21L420.738 138.162L420.75 138.166L420.762 138.17L421.042 137.21ZM416.386 135.722L416.076 136.672L416.081 136.674L416.386 135.722ZM411.73 133.994L411.322 134.907L411.334 134.912L411.345 134.917L411.73 133.994ZM404.818 127.85L403.916 128.281L403.922 128.293L403.928 128.305L404.818 127.85ZM404.914 117.194L405.825 117.606L405.828 117.6L404.914 117.194ZM408.274 112.682L408.93 113.436L408.939 113.428L408.274 112.682ZM413.698 109.562L414.035 110.503L413.698 109.562ZM429.634 109.946L429.259 110.873L429.266 110.875L429.273 110.878L429.634 109.946ZM436.258 114.074L437.11 114.598L437.535 113.907L436.946 113.348L436.258 114.074ZM433.46 116.715C433.34 116.936 433.213 117.056 433.095 117.126C432.977 117.196 432.812 117.25 432.562 117.25V119.25C433.112 119.25 433.643 119.127 434.117 118.845C434.591 118.563 434.952 118.156 435.216 117.673L433.46 116.715ZM432.562 117.25C432.321 117.25 431.953 117.158 431.431 116.856L430.429 118.587C431.123 118.989 431.843 119.25 432.562 119.25V117.25ZM431.431 116.856C430.789 116.485 430.008 116.087 429.095 115.663L428.253 117.477C429.132 117.885 429.855 118.255 430.429 118.587L431.431 116.856ZM429.134 115.682C428.198 115.196 427.093 114.774 425.832 114.409L425.276 116.33C426.447 116.669 427.422 117.047 428.214 117.458L429.134 115.682ZM425.855 114.416C424.517 113.994 422.971 113.794 421.234 113.794V115.794C422.825 115.794 424.159 115.978 425.253 116.323L425.855 114.416ZM421.234 113.794C419.706 113.794 418.301 113.997 417.03 114.421L417.662 116.318C418.695 115.974 419.882 115.794 421.234 115.794V113.794ZM417.054 114.413C415.804 114.795 414.7 115.342 413.76 116.065L414.98 117.65C415.704 117.094 416.584 116.648 417.638 116.326L417.054 114.413ZM413.745 116.077C412.842 116.799 412.126 117.659 411.61 118.653L413.386 119.574C413.766 118.841 414.298 118.196 414.995 117.639L413.745 116.077ZM411.604 118.667C411.114 119.647 410.874 120.713 410.874 121.85H412.874C412.874 121.002 413.05 120.245 413.392 119.561L411.604 118.667ZM410.874 121.85C410.874 123.298 411.288 124.577 412.167 125.616L413.693 124.324C413.164 123.698 412.874 122.898 412.874 121.85H410.874ZM412.181 125.632C413.014 126.574 414.08 127.365 415.353 128.019L416.267 126.24C415.172 125.678 414.318 125.03 413.679 124.307L412.181 125.632ZM415.353 128.019C416.594 128.657 417.991 129.221 419.538 129.714L420.146 127.809C418.685 127.343 417.394 126.819 416.267 126.24L415.353 128.019ZM419.557 129.72C421.046 130.164 422.567 130.655 424.122 131.195L424.778 129.305C423.197 128.756 421.646 128.256 420.127 127.803L419.557 129.72ZM424.145 131.202C425.717 131.705 427.24 132.27 428.714 132.898L429.498 131.058C427.964 130.405 426.383 129.818 424.755 129.297L424.145 131.202ZM428.714 132.898C430.139 133.504 431.402 134.257 432.508 135.155L433.768 133.601C432.506 132.578 431.081 131.731 429.498 131.058L428.714 132.898ZM432.508 135.155C433.578 136.022 434.433 137.092 435.076 138.377L436.864 137.483C436.099 135.951 435.066 134.654 433.768 133.601L432.508 135.155ZM435.088 138.401C435.73 139.6 436.074 141.094 436.074 142.922H438.074C438.074 140.846 437.682 139.011 436.852 137.458L435.088 138.401ZM436.074 142.922C436.074 145.04 435.696 146.988 434.951 148.777L436.797 149.546C437.652 147.495 438.074 145.284 438.074 142.922H436.074ZM434.953 148.772C434.212 150.521 433.116 152.049 431.654 153.362L432.99 154.85C434.664 153.347 435.936 151.579 436.795 149.552L434.953 148.772ZM431.662 153.354C430.204 154.634 428.4 155.662 426.23 156.427L426.894 158.313C429.268 157.477 431.304 156.33 432.982 154.857L431.662 153.354ZM426.23 156.427C424.086 157.181 421.579 157.57 418.69 157.57V159.57C421.753 159.57 424.494 159.158 426.894 158.313L426.23 156.427ZM418.69 157.57C415.406 157.57 412.461 157.043 409.842 156.008L409.106 157.868C411.991 159.008 415.19 159.57 418.69 159.57V157.57ZM409.851 156.012C407.19 154.929 404.957 153.562 403.135 151.922L401.797 153.409C403.815 155.225 406.254 156.707 409.097 157.864L409.851 156.012ZM403.317 153.191L405.333 149.927L403.631 148.876L401.615 152.14L403.317 153.191ZM405.334 149.926C405.524 149.617 405.727 149.415 405.931 149.285L404.857 147.598C404.357 147.916 403.952 148.355 403.63 148.878L405.334 149.926ZM405.931 149.285C406.08 149.19 406.327 149.106 406.738 149.106V147.106C406.061 147.106 405.412 147.245 404.857 147.598L405.931 149.285ZM406.738 149.106C407.047 149.106 407.458 149.226 407.989 149.597L409.135 147.959C408.386 147.434 407.581 147.106 406.738 147.106V149.106ZM407.989 149.597C408.651 150.061 409.438 150.569 410.347 151.121L411.385 149.411C410.502 148.875 409.753 148.391 409.135 147.959L407.989 149.597ZM410.36 151.128C411.36 151.714 412.545 152.236 413.903 152.7L414.549 150.807C413.283 150.375 412.228 149.905 411.372 149.403L410.36 151.128ZM413.903 152.7C415.352 153.195 417.101 153.426 419.122 153.426V151.426C417.239 151.426 415.724 151.209 414.549 150.807L413.903 152.7ZM419.122 153.426C420.866 153.426 422.433 153.208 423.806 152.75L423.174 150.853C422.051 151.227 420.706 151.426 419.122 151.426V153.426ZM423.828 152.743C425.173 152.26 426.329 151.609 427.273 150.775L425.947 149.277C425.227 149.914 424.303 150.447 423.152 150.861L423.828 152.743ZM427.273 150.775C428.213 149.943 428.916 148.969 429.362 147.853L427.506 147.11C427.184 147.915 426.671 148.636 425.947 149.277L427.273 150.775ZM429.352 147.879C429.824 146.789 430.058 145.629 430.058 144.41H428.058C428.058 145.367 427.876 146.255 427.516 147.084L429.352 147.879ZM430.058 144.41C430.058 142.874 429.633 141.526 428.715 140.449L427.193 141.746C427.747 142.397 428.058 143.257 428.058 144.41H430.058ZM428.74 140.48C427.934 139.453 426.87 138.615 425.579 137.952L424.665 139.731C425.742 140.285 426.566 140.95 427.168 141.716L428.74 140.48ZM425.598 137.962C424.341 137.283 422.914 136.714 421.322 136.25L420.762 138.17C422.242 138.602 423.535 139.121 424.646 139.721L425.598 137.962ZM421.346 136.257C419.842 135.777 418.291 135.281 416.691 134.769L416.081 136.674C417.681 137.186 419.234 137.682 420.738 138.162L421.346 136.257ZM416.696 134.771C415.154 134.267 413.626 133.701 412.115 133.071L411.345 134.917C412.906 135.567 414.482 136.152 416.076 136.672L416.696 134.771ZM412.138 133.081C410.713 132.444 409.449 131.66 408.34 130.731L407.056 132.264C408.315 133.32 409.739 134.2 411.322 134.907L412.138 133.081ZM408.34 130.731C407.264 129.829 406.386 128.721 405.708 127.395L403.928 128.305C404.722 129.859 405.764 131.182 407.056 132.264L408.34 130.731ZM405.72 127.418C405.096 126.113 404.762 124.492 404.762 122.522H402.762C402.762 124.711 403.132 126.643 403.916 128.281L405.72 127.418ZM404.762 122.522C404.762 120.808 405.115 119.173 405.825 117.606L404.003 116.781C403.177 118.606 402.762 120.523 402.762 122.522H404.762ZM405.828 117.6C406.535 116.01 407.565 114.624 408.93 113.436L407.618 111.927C406.039 113.3 404.829 114.922 404 116.788L405.828 117.6ZM408.939 113.428C410.302 112.214 411.994 111.235 414.035 110.503L413.361 108.62C411.114 109.425 409.19 110.526 407.609 111.935L408.939 113.428ZM414.035 110.503C416.051 109.781 418.382 109.41 421.042 109.41V107.41C418.198 107.41 415.633 107.806 413.361 108.62L414.035 110.503ZM421.042 109.41C424.135 109.41 426.869 109.905 429.259 110.873L430.009 109.019C427.343 107.939 424.349 107.41 421.042 107.41V109.41ZM429.273 110.878C431.72 111.827 433.815 113.135 435.57 114.799L436.946 113.348C434.989 111.492 432.668 110.049 429.995 109.013L429.273 110.878ZM435.406 113.55L433.486 116.67L435.19 117.718L437.11 114.598L435.406 113.55Z" fill="#263C29"/>
</svg>
