<svg xmlns="http://www.w3.org/2000/svg" viewBox="0 0 1366 102.92"><defs><style>.cls-1{fill:#82942f;}.cls-2{opacity:0.62;}.cls-3{fill:#4f5839;}.cls-4{opacity:0.41;}.cls-5{fill:#858233;}.cls-6{fill:#acbf40;}.cls-7{fill:#fff;}.cls-8{fill:#cdc945;}</style></defs><title>Asset 13</title><g id="Layer_2" data-name="Layer 2"><g id="Layer_2-2" data-name="Layer 2"><path class="cls-1" d="M996.69,102.92H0V14c13.48-.29,99.7-.5,176.83-.62.78,0,1.55,0,2.32,0,40.11-.07,77.51-.11,100.64-.13h21.92q49,0,96.57,1.36,8.83.25,17.6.55c60.33,2,118.68,5.65,174.38,10.69l8.16.74q23.11,2.16,45.58,4.64h0c3.3.36,6.58.73,9.86,1.11a0,0,0,0,1,0,0q33.77,3.86,65.94,8.4h.09q12.73,1.81,25.19,3.73,26.74,4.09,52.2,8.66l7,1.27C849.52,62.69,891.42,72,929.44,82.35q3.08.82,6.11,1.67,12.24,3.38,23.92,6.89Q978.88,96.74,996.69,102.92Z"/><g class="cls-2"><path class="cls-3" d="M528.21,97.08a21.42,21.42,0,0,0,.9,5.84h2.31a20.91,20.91,0,0,1-.9-4.44c-1.57-16.71,19.84-19.33,31.86-22.19a394.59,394.59,0,0,1,43.31-7.65C663,61.58,721,64.4,778.44,57.91c8.56-1,17.24-2.09,25.9-3.49l-7-1.27c-26.82,4.15-54,5.71-81.05,6.79-56.76,2.25-115,1.9-169.93,18.27C536.92,81,528,86,528.21,97.08Z"/><path class="cls-3" d="M281.26,102.92h2.28a31.27,31.27,0,0,1,2.33-17.34c7.27-16.5,24.69-24,41.34-27.38q1.65-.33,3.27-.6c20.87-3.55,42.26-4.92,63.3-7.19L522.52,36.52c24.91-2.69,51.1-4.08,75.9-9.91l-8.16-.74c-8.6,1.64-17.32,2.83-26,3.85-25,2.93-50.09,5.45-75.14,8.15L353.5,52.51c-8.76.95-17.88,1.71-26.74,3.43-9.4,1.83-18.49,4.73-26.53,10.07C287.84,74.25,279.3,87.74,281.26,102.92Z"/><path class="cls-3" d="M776.9,102.92H779c0-.15-.06-.29-.08-.43-.66-4.51,1.62-6.81,5-9.11a61.51,61.51,0,0,1,11.5-6c32.13-13,68.88-2.55,102.18-1.79A299.26,299.26,0,0,0,935.55,84l-6.11-1.67a301.61,301.61,0,0,1-30.8,1c-17.94-.35-35.69-2.9-53.58-3.92-15.8-.91-32.15-.63-47.26,4.68-6.4,2.25-14,5.36-18.76,10.35A8.33,8.33,0,0,0,776.9,102.92Z"/></g><g class="cls-4"><path class="cls-3" d="M481.85,100.67c-1.19.78-2.38,1.53-3.59,2.25h-4.55a95.37,95.37,0,0,0,8.41-5.13c1.87-1.26,3.72-2.56,5.53-3.9,2.43-1.79,5.37-6.11-.26-7.71a11,11,0,0,0-2.56,0c-5.47,0-10.94.12-16.4.32a458.54,458.54,0,0,0-58.23,5.88q-13.8,2.3-27.44,5.43c-5.55,1.27-12.29,2.36-17.78,5.14h-4.24c8.56-6,20.9-7.3,30.85-9.37q17.63-3.66,35.5-5.93,18.18-2.32,36.52-3.2,10.13-.48,20.26-.51c2.89,0,7.25-.45,9.42,2.08C498.25,91.79,485.19,98.48,481.85,100.67Z"/><path class="cls-3" d="M244.77,59.6c5.39,3.52,12.83,1.33,18.67,3.9,4,1.77,7.16,5.62,5.48,10.19-1.92,5.19-8.5,7.13-13.24,8.5-17.25,5-35.43,4.81-53.21,4.19-19.46-.67-38.91-1.49-58.37-2.24L113.76,83c-6.47-.25-13.46-.24-19.38-3.24-3.65-1.85-8.75-6.16-6.69-10.78,2.18-4.9,11.44-7,16-8.32,16.2-4.78,33.27-4.71,49.87-7.09,8.21-1.17,17.65-2.6,25.06-6.56,1.43-.76,4.82-2.74,4.92-4.6l-2.39-4-2-.18a17.14,17.14,0,0,0-3-.25q-7.37-.63-14.77-1.08-29.56-1.77-59.21-.68C72.91,37.24,30.53,37.53,11.58,64a47.54,47.54,0,0,0-5,8.9C2.42,82.62,3.27,92.5,12.42,98.73a46.52,46.52,0,0,0,7.78,4.19H15c-1.08-.57-2.14-1.19-3.16-1.85-13-8.41-11.77-23-4.23-35,.24-.39.49-.77.75-1.15,19-28.61,59.16-29.56,89.91-30.9q30.58-1.32,61.19.42,7.89.45,15.76,1.1c2.77.23,6.87-.16,9.28,1.51,3.64,2.54,1,7.23-1.49,9.57-5,4.81-14.2,6.33-20.75,7.67a227.36,227.36,0,0,1-24.12,3.17c-9,.85-18,1.62-26.77,3.51a86.1,86.1,0,0,0-12.52,3.6,41.39,41.39,0,0,0-6.8,3c-3.73,2.29-2,6.14.72,8.38,6.75,5.58,17.67,4.57,25.85,4.88L150,82.12c20,.77,39.92,1.8,59.89,2.23a199.23,199.23,0,0,0,29.41-1.13A106.2,106.2,0,0,0,255.08,80c4.08-1.17,10.56-2.82,11.65-7.57,3.16-13.69-29.14-2.81-27.23-19,.64-5.46,6.55-9.13,11.1-11.1,8.1-3.5,17.11-5.59,25.62-7.86a548.85,548.85,0,0,1,55.58-11.6c22.06-3.51,44.25-6,66.48-8.22q8.83.25,17.6.55c-34.31,3.22-68.56,6.71-102.44,13.14A476.65,476.65,0,0,0,259.2,41.74c-4,1.27-8.15,2.44-11.72,4.78C243.06,49.41,238.72,55.64,244.77,59.6Z"/><path class="cls-3" d="M293.79,13.28c-13.87,2.32-27.76,4.5-41.73,6.13-11.19,1.31-22.43,2.28-33.69,2.67-9.74.35-20.14.95-29.81-.57-4.8-.75-10.64-3-11.73-8.09.78,0,1.55,0,2.32,0,1.23,4.1,6.68,5.47,10.5,6,9.39,1.22,19.28.78,28.72.44,20-.7,39.81-3.18,59.53-6.24l1.89-.3Z"/><path class="cls-3" d="M745.11,44.49a1.18,1.18,0,0,1-1.2.55c-30.48-4.9-61.16-.14-91.53,3.2-15,1.65-30,3-45.13,2.58a125.88,125.88,0,0,1-19.59-1.62c-4.25-.79-8.24-2.37-10.22-6.42a1.13,1.13,0,0,1,.67-1.65q32.8-5.91,65.89-9.88h0c3.3.36,6.58.73,9.86,1.11q-37,4.13-73.63,10.67c3.89,5.08,13.09,4.75,18.76,5.15,6.72.47,13.47.55,20.2.36,14.19-.39,28.31-2,42.4-3.6,19.34-2.23,38.8-4.54,58.23-4.18h.09Q732.65,42.57,745.11,44.49Z"/></g><path class="cls-3" d="M579.95,102.92s-16-.36-17-19S586.45,78,586.45,78s6.44-16.85,12-10.1,4,11.95,4,11.95,3.5-7.51,8.5-1.85a10.78,10.78,0,0,1,2,11.64s2.58-9.65,4.5-9.79c12.25-.86,7.38,23,7.38,23Z"/><path class="cls-5" d="M616.2,102.19s-13-7.37-10-17.56,14.5-8.44,14.5-8.44,5.25-8.25,11-2.75,2.75,10,2.75,10,2.75-8.81,6.25-5.41,3.75,6.6,3.75,6.6,3.25-1.44,3.5-4.44,6.5-2.83,7.25-1.16-.5-2.34,2.5-5.84,9.5-4,11-1.64a3.49,3.49,0,0,1,0,4.14s1.75-5.5,5.25-3,1.51,17.82,1.51,17.82Z"/><path class="cls-6" d="M1366,14v88.88H598.42q17.79-6.16,37.22-12Q647.33,87.4,659.56,84q3-.84,6.11-1.67c38-10.3,79.92-19.66,125.09-27.93l7-1.27c60.94-10.93,127.71-19.89,198.89-26.54l8.16-.74c90.2-8.16,187.34-12.6,288.55-12.6Q1330.07,13.27,1366,14Z"/><path class="cls-1" d="M1066.9,97.08a21.42,21.42,0,0,1-.9,5.84h-2.31a20.91,20.91,0,0,0,.9-4.44c1.57-16.71-19.84-19.33-31.86-22.19a394.59,394.59,0,0,0-43.31-7.65c-57.34-7.06-115.36-4.24-172.76-10.73-8.56-1-17.24-2.09-25.9-3.49l7-1.27c26.82,4.15,54,5.71,81.05,6.79,56.76,2.25,115,1.9,169.93,18.27C1058.19,81,1067.09,86,1066.9,97.08Z"/><path class="cls-1" d="M1313.85,102.92h-2.28a31.27,31.27,0,0,0-2.33-17.34c-7.27-16.5-24.69-24-41.34-27.38q-1.65-.33-3.27-.6c-20.87-3.55-42.26-4.92-63.3-7.19L1072.59,36.52c-24.91-2.69-51.1-4.08-75.9-9.91l8.16-.74c8.6,1.64,17.32,2.83,26,3.85,25,2.93,50.09,5.45,75.14,8.15l135.61,14.64c8.76.95,17.88,1.71,26.74,3.43,9.4,1.83,18.49,4.73,26.53,10.07C1307.27,74.25,1315.81,87.74,1313.85,102.92Z"/><path class="cls-1" d="M818.21,102.92h-2.15c0-.15.06-.29.08-.43.66-4.51-1.62-6.81-5-9.11a61.51,61.51,0,0,0-11.5-6c-32.13-13-68.88-2.55-102.18-1.79A299.26,299.26,0,0,1,659.56,84l6.11-1.67a301.61,301.61,0,0,0,30.8,1c17.94-.35,35.69-2.9,53.58-3.92,15.8-.91,32.15-.63,47.26,4.68,6.4,2.25,14,5.36,18.76,10.35A8.33,8.33,0,0,1,818.21,102.92Z"/><path class="cls-7" d="M793.62,102.92H598.42q17.79-6.16,37.22-12a111.23,111.23,0,0,0,18,.39C727.62,88.19,828.95,88.32,793.62,102.92Z"/><path class="cls-7" d="M1040.95,102.19c-.48.24-.94.49-1.39.73H838.69c-20.49-3.86-29.13-5.07-10.41-13.53,26.28-11.89,38-8.77-3.33-17.32S959.44,69,928.83,81.69,1082.95,80.86,1040.95,102.19Z"/><path class="cls-7" d="M1366,22.92v80H1124c6.34-14.43-6.27-27.31-43.39-28.31-50.72-1.36-184.21-18.07-147.27-26.91s107.62-15.45,99-8.15-33.33,7.78,11.34,10.87,160,5.11,120.66,18.11-19.82,19.92,21.43,16.12c37.49-3.45,77.11-18.24,82.19-26.45a2.66,2.66,0,0,0,.45-2.25h0c-2.57-7.41-186.71-24.86-151.65-26.6s174.94-2.19,178.93-5.34C1297.8,22.3,1333.66,22.44,1366,22.92Z"/><ellipse class="cls-8" cx="891.45" cy="83.93" rx="46.5" ry="10.57"/><ellipse class="cls-8" cx="912.57" cy="72.07" rx="28.12" ry="7.59"/><ellipse class="cls-8" cx="953.64" cy="89.38" rx="20.31" ry="5.45"/><ellipse class="cls-8" cx="1096.39" cy="78.03" rx="20.31" ry="5.45"/><ellipse class="cls-8" cx="1157.77" cy="29.34" rx="12.68" ry="1.98"/><ellipse class="cls-8" cx="1006.84" cy="50.42" rx="10.15" ry="2.73"/><path class="cls-6" d="M931.78,40s-15.83-1.33-11-7.83,7.44-4.67,8.05-4.17-1.38-7.33,3.78-9.5,6.83,7.35,6.83,7.35,5.83-4.32,6.83,0S943.95,34,943.95,34Z"/><path class="cls-8" d="M1095,81.69s-15.83-1.33-11-7.83,7.44-4.67,8.05-4.17-1.38-7.33,3.78-9.5,6.83,7.35,6.83,7.35,5.83-4.32,6.83,0-2.33,8.15-2.33,8.15Z"/><path class="cls-6" d="M1040.12,25.87s-6.33-1.51-2.83-6.68,10.33-2.33,10.33-2.33.5-5.33,5.67-5.5,4.5,6.85,4.5,6.85-4.5-5.35,1.17-9.18,13.67,1.33,11.67,3.33,3-7,7.83-2.17,0,10,0,10l-5.83,5.72Z"/><path class="cls-1" d="M642.91,39.14s-6.33-1.51-2.83-6.68,10.33-2.33,10.33-2.33.5-5.33,5.67-5.5,4.5,6.85,4.5,6.85-4.5-5.35,1.17-9.18,13.67,1.33,11.67,3.33,3-7,7.83-2.17,0,10,0,10l-5.83,5.72Z"/><path class="cls-8" d="M861.78,79.89s-6.33-1.51-2.83-6.68,10.33-2.33,10.33-2.33.5-5.33,5.67-5.5,4.5,6.85,4.5,6.85-4.5-5.35,1.17-9.18,13.67,1.33,11.67,3.33,3-7,7.83-2.17,0,10,0,10l-5.83,5.72Z"/><path class="cls-6" d="M722.28,78s-30.67,4.58-27.67-6,13.73-7.59,13.73-7.59-7.73-6.29-2.73-9,11.67,2.57,11.67,2.57.33-2,5-4.95,6.33,4.95,6.33,4.95,3.33-4.57,7.67-2.57,2.79,7,2.79,7,2.21-3.52,5.55-4.43,4.67,7.66,4.67,7.66Z"/><path class="cls-1" d="M281.42,25.55s-30.67,4.58-27.67-6S267.48,12,267.48,12s-7.73-6.29-2.73-9,11.67,2.57,11.67,2.57.33-2,5-4.95,6.33,4.95,6.33,4.95S291.08,1,295.42,3s2.79,7,2.79,7,2.21-3.52,5.55-4.43,4.67,7.66,4.67,7.66Z"/><path class="cls-1" d="M465.67,29S435,33.62,438,23.07s13.73-7.59,13.73-7.59S444,9.19,449,6.52,460.67,9.1,460.67,9.1s.33-2,5-4.95S472,9.1,472,9.1s3.33-4.57,7.67-2.57,2.79,7,2.79,7S484.67,10,488,9.1s4.67,7.66,4.67,7.66Z"/><path class="cls-8" d="M974.39,90.31s-30.67,4.58-27.67-6,13.73-7.59,13.73-7.59-7.73-6.29-2.73-9,11.67,2.57,11.67,2.57.33-2,5-4.95,6.33,4.95,6.33,4.95,3.33-4.57,7.67-2.57,2.79,7,2.79,7,2.21-3.52,5.55-4.43,4.67,7.66,4.67,7.66Z"/><path class="cls-7" d="M257.62,100.86a19.17,19.17,0,0,0-4.94,2.06H0V67.56c2.83-.94,5.64-1.81,8.39-2.6,1.07-.32,2.13-.62,3.19-.91a267.92,267.92,0,0,1,33.91-7.1s53.13-13.36,44-6.06S72.95,92.6,116.95,93.4s101.26,7.87,134.33,2.12,36-32.16,14.34-39,19.33-15.33,72.66-23,110.58-3.33,89.29,1.67-161.9,15-144.62,22.9S273.28,96.52,257.62,100.86Z"/><path class="cls-7" d="M568.28,48.19c-24.66,11.33-65.82,12.08-40.08,16.2s32.42,8.47,5.08,11.13-31,7.9-21.66,10.62,18.66,11.6,5.66,10.16-24-3.23-20.66-5.34S511.95,80.55,491.28,78s-59.66,4.53-71.66,5.84-81.34,3.65-72,12.65a41.06,41.06,0,0,0,9.37,6.4H314.51a12,12,0,0,0-2.89-3.73c-11-10.33-14.67-25.33,11.33-30s117-10.69,97-2.85S349.28,72.88,375.62,78s98-.33,85.33-5.09-34.69-15.08,1.49-18.08S592.95,36.86,568.28,48.19Z"/><path class="cls-7" d="M204.28,53.42s-66.67,8.78-58,15.11,83,11.85,89,1.56S255,53.3,204.28,53.42Z"/><path class="cls-1" d="M332.5,46.79s-8.95.1-9.74-7.87S335.83,36,335.83,36s3.4-7.31,6.57-4.51,2.4,5,2.4,5,1.87-3.27,4.73-.93,1.26,4.95,1.26,4.95,1.33-4.17,2.4-4.26c6.84-.56,4.4,9.73,4.4,9.73Z"/><path class="cls-1" d="M351.25,95.94s-13-7.37-10-17.56,14.5-8.44,14.5-8.44,5.25-8.25,11-2.75,2.75,10,2.75,10,2.75-8.81,6.25-5.41,3.75,6.6,3.75,6.6,3.25-1.44,3.5-4.44,6.5-2.83,7.25-1.16-.5-2.34,2.5-5.84,9.5-4,11-1.64a3.49,3.49,0,0,1,0,4.14s1.75-5.5,5.25-3,1.51,17.82,1.51,17.82Z"/><ellipse class="cls-6" cx="161.17" cy="20.94" rx="15.66" ry="3.06"/><ellipse class="cls-6" cx="210.5" cy="44.02" rx="15.66" ry="3.06"/><ellipse class="cls-6" cx="221.06" cy="36.59" rx="26.22" ry="4.37"/><ellipse class="cls-6" cx="477.39" cy="30.9" rx="26.22" ry="4.37"/><ellipse class="cls-6" cx="446.39" cy="95.94" rx="26.22" ry="4.37"/><ellipse class="cls-6" cx="572.34" cy="58.77" rx="26.22" ry="4.37"/></g></g></svg>