<svg width="237" height="1080" viewBox="0 0 237 1080" fill="none" xmlns="http://www.w3.org/2000/svg">
<mask id="mask0" mask-type="alpha" maskUnits="userSpaceOnUse" x="0" y="0" width="237" height="1080">
<rect x="0.75" width="236.25" height="1080" fill="white"/>
</mask>
<g mask="url(#mask0)">
<path d="M177.963 954.663C177.963 954.663 151.875 911.663 144.588 930.838C137.3 950.013 162.913 960 162.913 960C162.913 960 131.288 945.838 125.125 958.75C118.963 971.663 143.088 991.25 143.088 991.25C143.088 991.25 123.088 954.688 105.588 938.2C88.0878 921.713 72.2503 948.713 77.2503 954.8C82.2503 960.888 73.9128 958.388 61.4128 968.388C48.9128 978.388 52.2503 1013.96 58.0753 1021.59C63.9003 1029.21 42.2378 1001.71 32.2378 1010.89C22.2378 1020.06 32.2378 1044.9 32.2378 1044.9C32.2378 1044.9 8.12527 1031.89 5.62527 1049.28C3.12527 1066.66 17.3003 1082.5 17.3003 1082.5H236.938L177.963 954.663Z" fill="#858233"/>
<path d="M147.176 1043.24C147.176 1043.24 86.588 938.113 84.063 879.413C81.538 820.713 89.063 806.675 89.063 806.675L92.9755 808.613C92.9755 808.613 80.4755 836.663 87.6755 890.888C94.8755 945.563 138.838 1017.8 138.838 1017.8L147.176 1043.24Z" fill="#031625"/>
<path d="M154.713 1073.33C154.713 1073.33 78.4627 1031.34 79.7127 985.9C80.9627 940.462 144.263 1031.28 151.125 1050.25C157.988 1069.23 154.713 1073.33 154.713 1073.33Z" fill="#4F5839"/>
<path d="M94.1751 998.75C117.65 1011.13 129.938 1035.74 146.675 1055.09C147.825 1056.41 149.713 1054.43 148.563 1053.1C131.588 1033.54 119.175 1008.85 95.4376 996.338C95.1255 996.227 94.7837 996.232 94.4753 996.353C94.1668 996.474 93.9124 996.702 93.7588 996.996C93.6052 997.289 93.5627 997.628 93.6392 997.951C93.7157 998.273 93.906 998.557 94.1751 998.75V998.75Z" fill="#263C29"/>
<path d="M97.7377 937.725C97.7377 937.725 72.0002 903.613 67.8377 920C63.6752 936.388 97.7377 937.725 97.7377 937.725Z" fill="#4F5839"/>
<path d="M92.0002 912.138C92.0002 912.138 93.4627 877.325 102.813 887.838C112.163 898.35 92.0002 912.138 92.0002 912.138Z" fill="#ACBF40"/>
<path d="M84.0626 879.413C84.0626 879.413 77.2626 849.325 70.7501 860C64.2376 870.675 84.0626 879.413 84.0626 879.413Z" fill="#ACBF40"/>
<path d="M85.9751 827.875C85.9751 827.875 89.7251 777.875 103.738 797.963C117.75 818.05 85.9751 827.875 85.9751 827.875Z" fill="#CDC945"/>
<path d="M108.25 960C108.25 960 100.75 911.663 110.75 926.25C120.75 940.838 108.25 960 108.25 960Z" fill="#82942F"/>
<path d="M87.6877 890.9C87.6877 890.9 70.1627 873.75 68.6252 879.5C67.0877 885.25 87.6877 890.9 87.6877 890.9Z" fill="#82942F"/>
<path d="M85.2127 848.063C85.2127 848.063 72.2752 840.138 74.5002 827.5C76.7252 814.863 85.2127 848.063 85.2127 848.063Z" fill="#4F5839"/>
<path d="M160.125 1021.54C160.125 1021.54 106.25 1026.19 96.2502 1000.9C86.2502 975.612 111.875 979.037 118.125 978.887C124.375 978.737 98.8627 981.862 99.3752 967.487C99.8877 953.112 127.45 961.862 138.125 963.737C148.8 965.612 118.125 959 135.625 948.238C153.125 937.475 177.663 944.25 170.288 952.112C162.913 959.975 183.45 951.65 177.663 944.25C171.875 936.85 156.413 933 167.663 925.888C178.913 918.775 192.663 921.225 192.663 921.225L160.125 1021.54Z" fill="#CDC945"/>
<path d="M55.6253 1082.5C55.6253 1082.5 52.2878 1057.5 63.1253 1055.84C73.9628 1054.18 82.3002 1065 82.3002 1065C82.3002 1065 78.1377 1043.14 89.8002 1038.65C101.463 1034.16 108.138 1040.41 108.138 1040.41C108.138 1040.41 121.3 1031.56 125.138 1037.03L128.975 1042.49C128.975 1042.49 127.238 1043.41 137.313 1033.81C147.388 1024.21 162.925 1049.26 162.925 1049.26L174.625 1082.5H55.6253Z" fill="#4F5839"/>
<path d="M190 720.437C189.175 719.987 163.45 683.213 159.738 690.713C156.025 698.213 182.488 722.575 182.488 722.575L190 720.437Z" fill="#5D6528"/>
<path d="M73.3502 586.25L73.4252 586.325C73.6127 586.513 73.8127 586.675 74.0002 586.838C75.5425 587.899 77.2254 588.741 79.0002 589.338C83.5252 591.013 87.6002 592.613 91.1002 594.125C102.463 599.125 107.825 603.15 102.738 606.013C96.0627 609.763 111.35 620.6 132.875 616.425C154.4 612.25 184.938 605.275 172.788 600.638C160.638 596 162.263 598.438 178.788 596.013C192.313 594.025 218.963 562.013 213.988 550.288C212.888 547.688 210.238 546.088 205.588 546.013C179.813 545.6 158.713 546.7 167.175 552.4C173.65 556.75 120.988 550.875 92.3127 560.175C66.9002 568.425 117.738 567.8 102.313 572.325C89.3627 576.25 67.9502 580.713 73.3502 586.25Z" fill="#858233"/>
<path d="M177.313 561.425C174.813 561.325 136.3 569.313 133.563 573.925C130.825 578.538 132.975 585.763 130.163 592.675C127.35 599.588 155.088 593.925 150.438 595.8C145.788 597.675 132.35 603.613 145.438 603.925C158.525 604.238 194.4 598.213 198.825 591.538C203.25 584.863 201.063 562.363 177.313 561.425Z" fill="#263C29"/>
<path d="M73.3504 586.25L73.4254 586.325C73.6129 586.513 73.8129 586.675 74.0004 586.838C80.0129 592.025 86.0004 593.95 91.1254 594.125C101.125 594.5 107.8 588.15 104.738 586.275C100.05 583.413 109.738 580.388 119.738 579.813C129.738 579.238 125.363 572.575 118.175 570.075C110.988 567.575 130.675 567.575 143.525 564.138C156.375 560.7 149.113 561.95 139.775 559.45C130.438 556.95 201.1 555.4 205.65 554.763C208.666 553.718 211.501 552.208 214.05 550.288C212.95 547.688 210.3 546.088 205.65 546.013C179.875 545.6 158.775 546.7 167.238 552.4C173.713 556.75 121.05 550.875 92.3754 560.175C66.9629 568.425 117.8 567.8 102.375 572.325C89.3629 576.25 67.9504 580.713 73.3504 586.25Z" fill="#CDC945"/>
<path d="M207.475 648.625L214.775 672.738H214.713C212.475 667.038 204.825 656.225 204.825 656.225C204.55 655.912 203.05 654.225 200.888 651.525C200.15 650.6 199.325 649.562 198.388 648.412C193.088 641.487 185.738 630.838 181.288 619.9C173.725 601.3 185.038 593.988 198.525 607.038C212.013 620.088 207.475 648.625 207.475 648.625Z" fill="#82942F"/>
<path d="M189.363 617.287C200.525 626.812 206.513 641.35 209.163 656.113C209.3 656.875 208.275 657.2 208.125 656.425C205.5 641.85 199.663 627.562 188.638 618.15C188.572 618.106 188.516 618.05 188.474 617.983C188.431 617.917 188.403 617.842 188.392 617.764C188.38 617.686 188.385 617.606 188.406 617.53C188.427 617.454 188.464 617.384 188.515 617.323C188.565 617.262 188.627 617.212 188.698 617.177C188.769 617.142 188.846 617.122 188.925 617.119C189.003 617.116 189.082 617.129 189.155 617.158C189.229 617.187 189.295 617.231 189.35 617.287H189.363Z" fill="#5D6528"/>
<path d="M190.425 715L196.25 735.875C194.463 730.937 188.363 721.575 188.363 721.575C188.138 721.312 186.95 719.837 185.225 717.5C184.638 716.7 183.975 715.8 183.275 714.812C177.696 707.161 173.07 698.859 169.5 690.087C163.463 673.987 172.5 667.65 183.25 678.95C194 690.25 190.425 715 190.425 715Z" fill="#82942F"/>
<path d="M175.975 687.913C184.888 696.163 189.65 708.75 191.775 721.525C191.888 722.187 191.063 722.475 190.95 721.8C188.863 709.187 184.2 696.8 175.4 688.662C174.938 688.237 175.513 687.488 175.975 687.913Z" fill="#5D6528"/>
<path d="M70.75 38.3379C62.7125 42.3504 67.1625 46.8504 78.25 50.4254C88.0832 53.3063 98.1862 55.1703 108.4 55.9879C119.417 57.0568 130.499 57.2824 141.55 56.6629C144.538 56.4879 147.8 56.3504 151.2 56.2379C162.65 55.8754 176.375 55.8129 190.763 55.7379H198.925C203.713 55.7379 208.55 55.6629 213.363 55.6004C221.338 55.5004 229.275 55.3504 236.9 55.0754V-1.2496H0.75C14.9125 26.6629 89.0875 29.1629 70.75 38.3379Z" fill="#CDC945"/>
<path d="M114.088 64.1625C122.56 70.2991 131.548 75.6901 140.95 80.275C157.2 88.0625 160.95 86.1375 151.588 90.8375C138.25 97.5 236.938 109.163 236.938 109.163V33.125C236.938 33.125 220.163 33.5875 198.738 35.1L195.275 35.3625C192.875 35.5375 190.425 35.725 187.95 35.9375C179.725 36.625 171.15 37.4625 162.8 38.4375C161.35 38.6125 159.9 38.7875 158.475 38.9875C155.25 39.4042 152.092 39.8542 149 40.3375C141.023 41.5228 133.125 43.1925 125.35 45.3375C115.45 48.2 108.913 51.7125 108.438 56C108.15 58.45 109.875 61.1625 114.088 64.1625Z" fill="#CDC945"/>
<path opacity="0.55" d="M13.875 -1.25C13.875 -1.25 55.75 23.75 69.5 22.5C83.25 21.25 63.875 17.5 55.75 13.4C47.625 9.3 58.25 10.625 84.5 10.625C110.75 10.625 55.75 -1.25 55.75 -1.25H13.875Z" fill="#82942F"/>
<path d="M63.25 63.125C84.05 72.3375 117.3 78.125 140.95 80.275C160.663 82.05 173.7 81.1875 167.312 77.5C164.794 75.9137 162.033 74.7523 159.137 74.0625C160.037 74.1375 165.512 74.45 176.9 71.1125C180.012 70.2 183.575 69 187.613 67.45C190.845 66.2131 194.167 65.2227 197.55 64.4875C207.077 62.4926 216.881 62.1922 226.513 63.6C230.017 64.0753 233.493 64.743 236.925 65.6V27.125C230.675 26.9875 222.688 26.9125 213.55 26.9125C209.65 26.9125 205.537 26.9125 201.287 26.9125C192.112 26.9875 182.262 27.125 172.275 27.35C166.362 27.5 160.387 27.6625 154.5 27.8625L150.062 28.025L147.05 28.15C143.825 28.275 140.638 28.4125 137.513 28.5625L135.562 28.6625C97.5625 30.55 69.025 34.1625 87 40.35C106.35 47.0125 93.25 48.65 78.25 50.35C61.875 52.3125 43.25 54.2875 63.25 63.125Z" fill="#858233"/>
<path d="M217.688 442.5C212.988 443.175 156.75 440.825 160.625 450.2C164.5 459.575 175.05 453.75 133.525 455.1C92.0001 456.45 52.0001 472.063 79.5001 482.063C107 492.063 120.75 499.713 110.75 501.513C100.75 503.313 92.0001 510.875 103.875 515.525C115.75 520.175 203.188 510.85 181.025 504.575C158.863 498.3 165.775 498 192.925 495.825C220.075 493.65 239.638 463.513 225.825 461.863C212.013 460.213 217.188 448.925 223.625 447.088C230.063 445.25 232.125 440.425 217.688 442.5Z" fill="#858233"/>
<path d="M205.75 465.275C205.75 465.275 153.5 470.15 141.738 476.463C129.975 482.775 123.25 484.862 125.125 491.525C127 498.187 135.538 501.787 124.813 506.862C114.088 511.937 113.325 517.312 122.838 516.787C132.35 516.262 179.688 510.075 164.088 506.862C148.488 503.65 139.888 496.937 160.95 493.187C182.013 489.437 208.388 487.775 208.388 487.775L205.75 465.275Z" fill="#263C29"/>
<path d="M106.8 456.25C109.775 456.088 112.638 456.025 115.338 456.075C112.838 455.15 111.463 454.05 111.388 452.813C111.188 449.063 122.888 445.313 139.288 443.325C144.363 439.65 159.85 436.338 178.313 435.313C201.1 434.063 219.775 436.75 220.025 441.35C220.225 445.1 208.525 448.85 192.125 450.838C188.375 453.588 178.638 456.15 166.238 457.688C166.292 457.828 166.326 457.975 166.338 458.125C166.5 461.063 157.825 464.013 145.9 465.4C146.046 465.644 146.136 465.917 146.163 466.2C146.338 469.375 137.825 472.45 127.138 473.025C117.138 473.588 108.763 471.775 107.6 468.938H107.5C92.0125 469.8 79.3 467.688 79.1 464.163C78.9 460.638 91.3125 457.075 106.8 456.25Z" fill="#CDC945"/>
<path d="M130.125 594.063C130.125 594.063 131.45 592.388 133.513 590.313C137.15 586.638 143.075 581.688 148.238 582.2C156.363 583.025 153.863 582.638 161.363 582.2C168.863 581.763 184.875 621.713 184.875 621.713L204.425 594.1C204.425 594.1 188.825 574.338 178.413 557.238C176.475 554.05 174.663 550.988 173.263 548.088C164.075 529.9 145.763 530.738 148.263 518.238C150.763 505.738 144.1 474.9 144.1 474.9L137.3 479.425L134.1 481.563C134.1 481.563 131.6 500.575 134.1 506.9C136.6 513.225 138.25 530.3 140.75 539.663C143.25 549.025 155.75 568.525 155.75 568.525L132.975 572.425C132.975 572.425 133.8 572.963 132.2 578.013C130.6 583.063 130.125 594.063 130.125 594.063Z" fill="#EDEDED"/>
<path opacity="0.36" d="M133.525 590.275C137.163 586.6 143.088 581.65 148.25 582.163C156.375 582.988 153.875 582.6 161.375 582.163C168.875 581.725 184.888 621.675 184.888 621.675L204.438 594.063C204.438 594.063 188.838 574.3 178.425 557.2C179.475 564.4 179.788 569.588 178.25 568.525C173.875 565.488 165.125 553.712 172 568.662C178.875 583.612 192.238 595.487 179.313 587.412C166.388 579.337 167 570 158.875 572.425C150.75 574.85 140.063 580.688 133.525 590.275Z" fill="#7F7F7F"/>
<path d="M99.4377 733.963C99.4377 737.45 109.525 740.363 122.913 741C124.738 741.088 126.663 741.138 128.538 741.138C140.013 741.138 149.938 739.5 154.663 737.113C156.75 737.2 158.9 737.25 161.075 737.25C176.163 737.25 189.425 735.138 197.088 731.925C201.488 730.088 204.038 727.9 204.038 725.538C204.038 721.788 197.688 718.5 187.788 716.363C188.415 715.676 188.783 714.792 188.825 713.863C188.825 707.388 169.575 702.138 145.863 702.138C122.15 702.138 102.875 707.388 102.875 713.863C102.875 715.45 104.038 716.963 106.138 718.338C108.357 719.697 110.75 720.752 113.25 721.475V721.475C113.66 721.758 114.001 722.13 114.247 722.563C114.494 722.996 114.64 723.478 114.675 723.975C114.675 725.688 112.663 727.288 109.188 728.613C107.349 728.994 105.543 729.521 103.788 730.188C101.05 731.25 99.4377 732.5 99.4377 733.963Z" fill="#858233"/>
<path d="M122.913 741C124.738 741.088 126.663 741.137 128.538 741.137C140.013 741.137 149.938 739.5 154.663 737.113C156.75 737.2 158.9 737.25 161.075 737.25C176.163 737.25 189.425 735.137 197.088 731.925C198.1 731.162 198.088 730.438 196.75 729.8C186.05 724.7 175.838 726.575 180.213 724.288C184.588 722 189.85 715.725 173.563 717.2C172.488 717.3 148.488 718.45 147.088 721.625C145.688 724.8 144.588 725.375 144.588 727.312C144.588 729.25 151.675 732.613 140 733.863C129.938 734.938 120.175 738.025 122.913 741Z" fill="#263C29"/>
<path d="M144.588 727.312C144.588 727.312 150.838 734.7 151.738 737.4C152.725 740.037 166.013 747.212 173.55 749.9L174.45 750.212C180.025 752.05 190.788 773.962 195.7 784.6C197.3 788.05 198.288 790.3 198.288 790.3L198.163 784.688L197.388 750.212L187.638 737.375L184.638 736.787L183.388 736.562C178.6 735.625 170.888 734.062 166.4 732.937C159.525 731.2 147.025 721.6 147.025 721.6L144.588 727.312Z" fill="#EDEDED"/>
<path opacity="0.26" d="M151.738 737.4C152.763 740.15 167.113 747.8 174.45 750.2C181.788 752.6 198.25 790.325 198.25 790.325L197.35 750.238L187.6 737.4L183.388 736.588C183.43 736.74 183.42 736.902 183.362 737.048C183.303 737.195 183.198 737.318 183.063 737.4C181.188 738.45 179.525 738.45 181.813 744.488C184.1 750.525 190.363 754.7 178.275 748.863C166.188 743.025 160.35 736.65 161.4 740.788C162.45 744.925 151.738 737.4 151.738 737.4Z" fill="#7F7F7F"/>
<path opacity="0.26" d="M202.85 391.475L203.75 391.787C209.325 393.625 220.088 415.537 225 426.175C225.828 426.294 226.666 426.323 227.5 426.262L226.725 391.787L217 378.95L214 378.362C215.6 383.55 218.363 393.15 216.813 392.812C214.7 392.35 214.763 397.975 215.125 399.525C215.488 401.075 213.875 403.012 210.95 397.525C210.166 395.954 209.024 394.589 207.618 393.539C206.211 392.488 204.579 391.781 202.85 391.475V391.475Z" fill="#7F7F7F"/>
<path d="M118.775 43.325C120.917 44.1334 123.109 44.8015 125.338 45.325C130.675 46.65 137.613 47.825 145.425 48.9875C147.3 49.2625 149.238 49.525 151.213 49.775L153.213 50.025L158.6 50.6875H158.713C161.713 51.0375 164.763 51.375 167.838 51.6875C170.55 51.975 173.288 52.2375 176.013 52.5C180.95 52.975 185.875 53.4125 190.675 53.8125L200.85 54.625C205.275 54.9625 209.488 55.2625 213.35 55.525C227.238 56.4875 236.888 56.9875 236.888 56.9875V-1.25H84.5002C84.5002 -1.25 113.55 5.275 129.85 13.575C135.15 16.2625 139.1 19.1375 140.263 22.0375C140.346 22.2315 140.413 22.4322 140.463 22.6375C141.013 24.65 140.188 26.65 137.513 28.6125L137.4 28.6875C134.9 30.4875 130.925 32.225 125.05 33.8875L124.513 34.0375C112 37.5 111.825 40.5875 118.775 43.325Z" fill="#263C29"/>
<path d="M236.938 109.163V71.15C236.938 71.15 88.138 70 236.938 109.163Z" fill="#263C29"/>
<path d="M187.625 35.95C198.844 35.95 207.938 33.6387 207.938 30.7875C207.938 27.9363 198.844 25.625 187.625 25.625C176.407 25.625 167.313 27.9363 167.313 30.7875C167.313 33.6387 176.407 35.95 187.625 35.95Z" fill="#858233"/>
<path d="M125.125 23.7625C136.344 23.7625 145.438 21.4512 145.438 18.6C145.438 15.7488 136.344 13.4375 125.125 13.4375C113.907 13.4375 104.813 15.7488 104.813 18.6C104.813 21.4512 113.907 23.7625 125.125 23.7625Z" fill="#CDC945"/>
<path d="M170.8 60.0125C182.019 60.0125 191.113 57.7012 191.113 54.85C191.113 51.9988 182.019 49.6875 170.8 49.6875C159.582 49.6875 150.488 51.9988 150.488 54.85C150.488 57.7012 159.582 60.0125 170.8 60.0125Z" fill="#858233"/>
<path d="M114.425 43.45C125.643 43.45 134.738 41.1387 134.738 38.2875C134.738 35.4363 125.643 33.125 114.425 33.125C103.207 33.125 94.1125 35.4363 94.1125 38.2875C94.1125 41.1387 103.207 43.45 114.425 43.45Z" fill="#858233"/>
<path opacity="0.55" d="M176.9 71.1125C176.825 71.2625 177.338 71.2875 178.563 71.1125C185.4 70.3125 211.663 66.025 226.525 63.6125L236.938 61.8875V46.6C236.938 46.6 208.9 51.4625 200.888 54.65C200.19 54.88 199.538 55.2312 198.963 55.6875C198.4 56.2625 199.038 56.725 201.375 57.0125C215.75 58.75 227.625 54.375 215.75 58.75C211.563 60.2875 204.5 62.425 197.563 64.4875L187.625 67.5C181.575 69.2625 177.063 70.7 176.9 71.1125Z" fill="#82942F"/>
<path d="M176.888 76.7375C176.888 76.7375 218.25 113.338 220.75 126.663C223.25 139.988 226.588 169.163 226.588 176.663C226.588 184.163 215.75 269.163 213.25 280C210.75 290.838 221.588 326.663 219.088 334.163C216.588 341.663 219.5 455 212 466.25C204.5 477.5 213.25 493.75 213.25 498.75C213.25 503.75 200.75 583.75 203.875 595C207 606.25 198 793.888 186.75 809.8C175.5 825.713 190.5 868.838 192.375 889.463C194.25 910.088 169.338 987.5 155.05 1010C140.763 1032.5 125.125 1082.5 125.125 1082.5H236.938V95.8375C236.938 95.8375 228.663 92.8125 224.913 90.1625C221.163 87.5125 210.125 89.6875 205.438 85C200.75 80.3125 202.938 80.9375 199.5 78.4375C197.483 76.9919 195.707 75.237 194.238 73.2375C191.571 73.2255 188.908 73.4304 186.275 73.85C183.023 74.3557 179.862 75.3282 176.888 76.7375V76.7375Z" fill="#EDEDED"/>
<g opacity="0.32">
<path opacity="0.32" d="M222.413 136.95C222.588 138.15 222.763 139.4 222.938 140.7C224.823 140.677 226.706 140.827 228.563 141.15C230.925 141.55 231.925 137.925 229.563 137.525C227.204 137.099 224.809 136.906 222.413 136.95V136.95Z" fill="#7F7F7F"/>
<path opacity="0.32" d="M236.588 128.125H236.938V124.375H236.588C236.09 124.375 235.613 124.573 235.262 124.924C234.91 125.276 234.713 125.753 234.713 126.25C234.713 126.747 234.91 127.224 235.262 127.576C235.613 127.927 236.09 128.125 236.588 128.125Z" fill="#7F7F7F"/>
<path opacity="0.32" d="M231.625 166.488C233.297 165.627 235.087 165.02 236.938 164.688V160.938C234.422 161.325 231.986 162.118 229.725 163.288C227.575 164.338 229.5 167.575 231.625 166.488Z" fill="#7F7F7F"/>
<path opacity="0.32" d="M224.225 199.913C226.51 199.467 228.837 199.279 231.163 199.35C233.588 199.425 233.575 195.675 231.163 195.6C228.992 195.534 226.819 195.676 224.675 196.025C224.5 197.288 224.375 198.575 224.225 199.913Z" fill="#7F7F7F"/>
<path opacity="0.32" d="M225.425 189.313C226.469 189.173 227.528 189.203 228.563 189.4C230.925 189.85 231.925 186.238 229.563 185.775C228.328 185.535 227.068 185.451 225.813 185.525C225.704 186.7 225.575 187.963 225.425 189.313Z" fill="#7F7F7F"/>
<path opacity="0.32" d="M227.338 217.925C230.364 216.373 233.597 215.262 236.938 214.625V210.875C232.938 211.586 229.067 212.888 225.45 214.738C223.25 215.788 225.188 219.013 227.338 217.925Z" fill="#7F7F7F"/>
<path opacity="0.32" d="M218.25 246.725C224.075 243.488 230.413 241.075 236.913 242.163V238.413C230.663 237.575 224.613 239.325 218.85 242.163C218.675 243.75 218.475 245.238 218.25 246.725Z" fill="#7F7F7F"/>
<path opacity="0.32" d="M224.5 262.925C223.779 262.714 223.004 262.786 222.334 263.124C221.663 263.463 221.146 264.044 220.888 264.75C220.635 265.177 220.224 265.486 219.745 265.613C219.265 265.739 218.755 265.672 218.325 265.425C217.906 265.166 217.602 264.755 217.477 264.278C217.351 263.802 217.413 263.295 217.65 262.862C218.325 261.435 219.484 260.295 220.923 259.644C222.361 258.994 223.983 258.876 225.5 259.312C227.775 260 226.788 263.612 224.5 262.925Z" fill="#7F7F7F"/>
<path opacity="0.32" d="M230.9 286.513C232.7 290.125 228.538 295.675 225.175 296.863C221.3 298.225 217.475 294.825 216.275 291.3C215.972 290.5 215.992 289.613 216.33 288.827C216.668 288.042 217.299 287.418 218.088 287.087C220.188 286.162 222.075 287.387 223.625 288.725C225.463 290.3 222.8 292.938 220.975 291.375C220.638 291.088 219.4 289.462 220.125 290.7C220.467 291.311 220.887 291.874 221.375 292.375C222.775 293.775 224.125 293.625 225.463 292.175C226.525 291.013 228.113 289.087 226.988 287.562C226.188 286.487 223.875 285.125 222.625 285.875C222.39 286.018 222.125 286.106 221.85 286.131C221.576 286.155 221.299 286.117 221.042 286.018C220.784 285.919 220.553 285.762 220.366 285.559C220.179 285.357 220.041 285.114 219.963 284.85C218.288 284.85 216.613 284.712 214.963 284.525C212.588 284.262 212.563 280.512 214.963 280.775C218.15 281.131 221.362 281.211 224.563 281.012C224.781 280.988 225.001 281.009 225.211 281.073C225.42 281.137 225.615 281.243 225.782 281.384C225.949 281.526 226.086 281.7 226.184 281.896C226.281 282.092 226.338 282.306 226.35 282.525C228.285 283.283 229.895 284.693 230.9 286.513V286.513Z" fill="#7F7F7F"/>
<path opacity="0.32" d="M215.35 303.888C215.575 305.138 215.8 306.388 216.038 307.638C216.604 307.618 217.171 307.669 217.725 307.787C220.088 308.287 221.088 304.675 218.725 304.175C217.619 303.919 216.483 303.822 215.35 303.888Z" fill="#7F7F7F"/>
<path opacity="0.32" d="M224.5 319.537C228.082 318.142 231.907 317.474 235.75 317.575C235.975 317.597 236.201 317.572 236.416 317.504C236.631 317.435 236.83 317.323 237 317.175V314.287C236.661 313.974 236.212 313.808 235.75 313.825C231.577 313.712 227.422 314.426 223.525 315.925C221.275 316.787 222.25 320.412 224.5 319.537Z" fill="#7F7F7F"/>
<path opacity="0.32" d="M219.275 327.5C219.408 328.745 219.466 329.998 219.45 331.25C221.394 330.949 223.367 330.89 225.325 331.075C227.738 331.288 227.713 327.538 225.325 327.325C223.308 327.152 221.278 327.21 219.275 327.5Z" fill="#7F7F7F"/>
<path opacity="0.32" d="M220.888 355.262C225.131 353.994 229.216 352.245 233.063 350.05C233.406 349.836 233.671 349.517 233.819 349.14C233.967 348.764 233.991 348.35 233.886 347.959C233.781 347.568 233.553 347.222 233.236 346.97C232.919 346.719 232.529 346.576 232.125 346.563L219.088 346.413C218.774 346.405 218.465 346.479 218.188 346.625C218.188 347.662 218.188 348.737 218.1 349.875C218.393 350.068 218.737 350.169 219.088 350.163H223.988C222.638 350.675 221.288 351.162 219.9 351.587C217.588 352.337 218.575 355.95 220.888 355.262Z" fill="#7F7F7F"/>
<path opacity="0.32" d="M217.813 368.25C218.031 368.492 218.308 368.673 218.617 368.776C218.926 368.879 219.256 368.9 219.575 368.838C222.163 368.381 224.7 367.673 227.15 366.725C227.538 366.607 227.877 366.368 228.119 366.043C228.36 365.718 228.49 365.324 228.49 364.919C228.49 364.514 228.36 364.12 228.119 363.794C227.877 363.469 227.538 363.23 227.15 363.113L222 361.575L224.5 361.25C226.863 360.938 226.888 357.188 224.5 357.5L217.925 358.338C217.925 360.225 217.863 362.2 217.838 364.238C218.588 364.45 219.338 364.688 220.088 364.913C219.575 365.013 219.075 365.125 218.563 365.213C218.297 365.254 218.044 365.356 217.825 365.513C217.636 365.686 217.484 365.897 217.38 366.132C217.275 366.367 217.221 366.621 217.22 366.879C217.219 367.136 217.271 367.39 217.373 367.626C217.475 367.862 217.625 368.075 217.813 368.25V368.25Z" fill="#7F7F7F"/>
<path opacity="0.32" d="M217.6 386.913L224.575 384.688C226.863 383.963 225.825 380.338 223.575 381.075L217.65 382.963C217.638 384.275 217.613 385.588 217.6 386.913Z" fill="#7F7F7F"/>
<path opacity="0.32" d="M232.075 391.763L236.938 390.95V387.2L231.075 388.175C228.7 388.538 229.713 392.15 232.075 391.763Z" fill="#7F7F7F"/>
<path opacity="0.32" d="M233.313 378.05C233.569 378.456 233.968 378.75 234.431 378.875C234.894 379 235.387 378.947 235.813 378.725C236.151 378.556 236.507 378.426 236.875 378.338V374.513C235.847 374.682 234.852 375.011 233.925 375.488C233.509 375.751 233.212 376.166 233.098 376.644C232.983 377.123 233.061 377.627 233.313 378.05V378.05Z" fill="#7F7F7F"/>
<path opacity="0.32" d="M227.088 409.325C230.307 408.447 233.697 408.404 236.938 409.2V405.35C233.342 404.627 229.627 404.751 226.088 405.712C225.622 405.856 225.23 406.176 224.996 406.604C224.762 407.032 224.704 407.534 224.834 408.004C224.964 408.474 225.273 408.875 225.693 409.122C226.114 409.368 226.614 409.441 227.088 409.325V409.325Z" fill="#7F7F7F"/>
<path opacity="0.32" d="M217 419.263C217.149 419.316 217.305 419.35 217.463 419.362C221.083 419.649 224.716 418.999 228.013 417.475C230.213 416.488 228.3 413.263 226.113 414.238C223.394 415.426 220.416 415.899 217.463 415.612C217.346 415.6 217.229 415.6 217.113 415.612L217 419.263Z" fill="#7F7F7F"/>
<path opacity="0.32" d="M216.763 424.825C220.313 424.687 223.863 424.7 227.413 424.825C229.838 424.912 229.825 421.162 227.413 421.075C223.9 420.937 220.413 420.925 216.9 421.075C216.85 422.337 216.813 423.587 216.763 424.825Z" fill="#7F7F7F"/>
<path opacity="0.32" d="M215.275 450C218.545 449.077 221.892 448.449 225.275 448.125C227.662 447.913 227.687 444.162 225.275 444.375C222.003 444.671 218.759 445.227 215.575 446.037C215.512 447.375 215.4 448.75 215.275 450Z" fill="#7F7F7F"/>
<path opacity="0.32" d="M214.425 457.2C214.531 457.438 214.684 457.652 214.875 457.83C215.066 458.007 215.29 458.145 215.535 458.233C215.781 458.322 216.041 458.36 216.301 458.346C216.561 458.332 216.816 458.265 217.05 458.15L226.25 453.65C228.425 452.588 226.525 449.35 224.363 450.413L215.15 454.913C214.987 454.992 214.836 455.093 214.7 455.213C214.613 455.9 214.5 456.563 214.425 457.2Z" fill="#7F7F7F"/>
<path opacity="0.32" d="M209.225 481.25C212.75 485.088 218.438 486.938 222.288 482.288C223.434 480.738 224.394 479.06 225.15 477.288C225.888 475.788 227.05 474.05 226.825 472.288C226.76 471.631 226.494 471.011 226.065 470.511C225.636 470.01 225.064 469.653 224.425 469.488C223.125 469.298 221.799 469.567 220.675 470.25C220.75 470.038 220.813 469.825 220.863 469.625C221.099 468.55 220.992 467.428 220.557 466.416C220.122 465.405 219.381 464.555 218.438 463.988C216.871 463.091 215.047 462.752 213.263 463.025C213.01 464.161 212.589 465.252 212.013 466.263C211.838 466.525 211.663 466.8 211.513 467.075H211.75C213.238 466.775 216.125 466.063 217.088 467.788C217.625 468.738 216.863 469.813 216.3 470.563C216.05 470.888 215.775 471.2 215.488 471.513C215.205 471.291 214.868 471.15 214.512 471.103C214.156 471.057 213.794 471.108 213.464 471.249C213.134 471.391 212.848 471.62 212.637 471.91C212.426 472.2 212.296 472.542 212.263 472.9C212.075 475.4 214.988 476.513 216.925 475.263C217.564 474.832 218.144 474.319 218.65 473.738C218.868 473.993 219.154 474.182 219.475 474.281C219.796 474.381 220.139 474.387 220.463 474.3C221.114 473.99 221.792 473.739 222.488 473.55C223.175 473.663 222.288 474.725 221.963 475.388C221.385 476.848 220.647 478.24 219.763 479.538C216.125 483.938 210.85 478.913 209.913 474.888C209.831 474.471 209.594 474.1 209.25 473.85C208.913 476.305 208.905 478.793 209.225 481.25Z" fill="#7F7F7F"/>
<path opacity="0.32" d="M213.25 498.75C213.25 499.088 213.188 499.775 213.088 500.763C216.897 502.097 220.872 502.901 224.9 503.15C227.313 503.363 227.288 499.613 224.9 499.4C222.513 499.188 216.738 498.588 212.963 496.725C213.133 497.387 213.23 498.066 213.25 498.75V498.75Z" fill="#7F7F7F"/>
<path opacity="0.32" d="M211.225 515.175C212.955 515.927 214.724 516.587 216.525 517.15C218.838 517.875 219.813 514.25 217.525 513.538C215.55 512.909 213.62 512.145 211.75 511.25C211.588 512.5 211.413 513.75 211.225 515.175Z" fill="#7F7F7F"/>
<path opacity="0.32" d="M230.35 528.05C232.534 528.339 234.742 528.398 236.938 528.225V524.475C234.743 524.664 232.533 524.61 230.35 524.313C227.95 523.988 227.988 527.738 230.35 528.05Z" fill="#7F7F7F"/>
<path opacity="0.32" d="M223.675 545.263C228.25 544.966 232.738 543.874 236.938 542.038V537.9C232.801 539.974 228.292 541.202 223.675 541.513C221.275 541.675 221.263 545.425 223.675 545.263Z" fill="#7F7F7F"/>
<path opacity="0.32" d="M206.388 552.813C210.49 554.116 214.787 554.696 219.088 554.525C221.5 554.425 221.5 550.675 219.088 550.775C214.929 550.955 210.773 550.37 206.825 549.05C206.688 550.313 206.538 551.563 206.388 552.813Z" fill="#7F7F7F"/>
<path opacity="0.32" d="M218.663 568.938C225.508 568.27 231.936 565.346 236.938 560.625V555.075C234.718 557.892 231.958 560.238 228.82 561.975C225.682 563.711 222.229 564.803 218.663 565.188C216.288 565.438 216.263 569.2 218.663 568.938Z" fill="#7F7F7F"/>
<path opacity="0.32" d="M203.75 579.663C208.114 583.341 213.385 585.78 219.013 586.725C221.375 587.125 222.388 583.5 220.013 583.1C213.967 582.136 208.393 579.252 204.113 574.875C203.963 576.538 203.85 578.138 203.75 579.663Z" fill="#7F7F7F"/>
<path opacity="0.32" d="M222.413 598.238C227.351 598.126 232.246 597.284 236.938 595.738V591.775C232.275 593.455 227.368 594.359 222.413 594.45C220 594.538 220 598.288 222.413 598.238Z" fill="#7F7F7F"/>
<path opacity="0.32" d="M204.438 602.675C204.438 603.925 204.438 605.175 204.438 606.625C209.809 608.764 215.544 609.838 221.325 609.787C221.823 609.787 222.299 609.59 222.651 609.238C223.003 608.887 223.2 608.41 223.2 607.912C223.2 607.415 223.003 606.938 222.651 606.587C222.299 606.235 221.823 606.037 221.325 606.037C217.197 606.081 213.085 605.508 209.125 604.338C207.9 603.938 206.188 603.4 204.438 602.675Z" fill="#7F7F7F"/>
<path opacity="0.32" d="M204.125 630.2C209.713 630.963 215.288 631.75 220.863 632.525C223.225 632.863 224.238 629.25 221.863 628.913L204.963 626.55C204.719 626.506 204.469 626.506 204.225 626.55C204.188 627.763 204.163 628.963 204.125 630.2Z" fill="#7F7F7F"/>
<path opacity="0.32" d="M203.088 657.5C208.603 660.024 214.891 660.271 220.588 658.188C222.838 657.363 221.838 653.738 219.588 654.563C216.937 655.581 214.095 656.004 211.263 655.801C208.431 655.598 205.678 654.774 203.2 653.388C203.25 654.688 203.15 656.05 203.088 657.5Z" fill="#7F7F7F"/>
<path opacity="0.32" d="M201.3 691.15C203.493 689.913 205.816 688.919 208.225 688.187C211.075 687.4 213.825 687.7 216.7 687.4C219.8 687.062 222.125 685.937 223.625 683.137C223.764 682.888 223.846 682.611 223.863 682.326C223.88 682.041 223.833 681.756 223.725 681.492C223.617 681.227 223.45 680.991 223.238 680.8C223.026 680.609 222.774 680.468 222.5 680.387L202.338 672.725C202.263 673.975 202.2 675.325 202.125 676.637L218.575 682.887C215.5 684.4 210.075 683.763 207.238 684.563C205.279 685.148 203.376 685.905 201.55 686.825C201.463 688.263 201.388 689.7 201.3 691.15Z" fill="#7F7F7F"/>
<path opacity="0.32" d="M198.825 726.913C202.735 727.808 206.739 728.228 210.75 728.163C213.163 728.163 213.163 724.413 210.75 724.413C206.834 724.49 202.923 724.07 199.113 723.163C199.013 724.4 198.925 725.663 198.825 726.913Z" fill="#7F7F7F"/>
<path opacity="0.32" d="M232.963 737.912C228.715 739.754 224.13 740.686 219.5 740.65C219.003 740.65 218.526 740.452 218.174 740.101C217.823 739.749 217.625 739.272 217.625 738.775C217.625 738.278 217.823 737.801 218.174 737.449C218.526 737.097 219.003 736.9 219.5 736.9C223.471 736.969 227.413 736.211 231.075 734.675C233.25 733.75 235.175 736.962 232.963 737.912Z" fill="#7F7F7F"/>
<path opacity="0.32" d="M222.463 761.7C218.461 762.983 214.134 762.806 210.25 761.2C208.05 760.288 209 756.663 211.25 757.588C214.485 758.99 218.119 759.167 221.475 758.088C223.775 757.363 224.763 760.975 222.463 761.7Z" fill="#7F7F7F"/>
<path opacity="0.32" d="M229.25 775.463L236.938 771.513V767.3L227.35 772.225C225.2 773.325 227.1 776.563 229.25 775.463Z" fill="#7F7F7F"/>
<path opacity="0.32" d="M192.925 783.938C198.825 786.346 204.817 788.529 210.9 790.487C213.213 791.225 214.188 787.6 211.9 786.875C205.667 784.875 199.525 782.629 193.475 780.137C193.25 781.437 193.113 782.7 192.925 783.938Z" fill="#7F7F7F"/>
<path opacity="0.32" d="M210.163 803.538C219.274 804.716 228.534 803.344 236.913 799.575V799.575V796.538C236.638 796.337 236.314 796.214 235.976 796.181C235.637 796.148 235.296 796.206 234.988 796.35C227.18 799.768 218.581 800.962 210.138 799.8C207.763 799.475 207.8 803.238 210.163 803.538Z" fill="#7F7F7F"/>
<path opacity="0.32" d="M186.725 809.737C191.213 823.75 206.063 826.7 218.938 828.3C221.325 828.6 221.3 824.85 218.938 824.55C207.9 823.188 194.2 820.938 190.313 808.675C190.245 808.426 190.127 808.194 189.965 807.993C189.803 807.793 189.6 807.628 189.371 807.51C189.141 807.393 188.889 807.324 188.632 807.31C188.374 807.295 188.117 807.334 187.875 807.425C187.634 807.479 187.407 807.586 187.212 807.739C187.018 807.891 186.859 808.086 186.749 808.307C186.639 808.529 186.58 808.772 186.575 809.02C186.571 809.267 186.622 809.512 186.725 809.737Z" fill="#7F7F7F"/>
<path opacity="0.32" d="M193.875 838.213C197.325 831.613 206.263 835.463 205.125 842.35C204.713 844.725 201.1 843.713 201.513 841.35C201.1 843.7 194.763 842.162 199.375 845.287C200.568 845.99 201.823 846.58 203.125 847.05C204.488 847.638 205.85 848.463 207.225 848.938C212.113 850.625 214.2 848.213 217.575 845.313C220.738 842.6 221.138 841.413 216.575 839.688C211.113 837.625 199.988 836.85 199.5 829.337C199.35 826.925 203.1 826.937 203.25 829.337C203.525 833.65 216.925 835.588 220.163 837.05C222.475 838.113 225.288 839.788 224.65 842.838C223.888 846.488 218.4 849.563 215.638 851.588C211.1 854.9 209.388 854.225 204.75 851.813C199.588 849.175 189.713 846.163 193.875 838.213Z" fill="#7F7F7F"/>
<path opacity="0.32" d="M188.163 866C188.613 868.15 189.063 870.263 189.488 872.25C194.346 876.026 200.233 878.244 206.375 878.613C208.788 878.763 208.775 875.013 206.375 874.863C199.371 874.435 192.822 871.248 188.163 866V866Z" fill="#7F7F7F"/>
<path opacity="0.32" d="M232.488 885.525C225.673 887.519 218.503 887.984 211.488 886.888C209.113 886.525 210.125 882.913 212.488 883.275C218.848 884.221 225.339 883.756 231.5 881.913C233.813 881.25 234.8 884.85 232.488 885.525Z" fill="#7F7F7F"/>
<path opacity="0.32" d="M199.738 888.5C202.55 890.353 205.515 891.963 208.6 893.313C210.8 894.275 208.9 897.512 206.713 896.55C203.627 895.2 200.662 893.591 197.85 891.738C195.838 890.413 197.713 887.162 199.738 888.5Z" fill="#7F7F7F"/>
<path opacity="0.32" d="M220.75 914.3C226.155 914.876 231.617 914.572 236.925 913.4V909.55C231.629 910.801 226.159 911.139 220.75 910.55C218.363 910.3 218.388 914.05 220.75 914.3Z" fill="#7F7F7F"/>
<path opacity="0.32" d="M207.1 914.35C209.45 913.837 210.463 917.45 208.1 917.963C202.81 919.152 197.309 919.032 192.075 917.613C191.609 917.469 191.218 917.149 190.984 916.721C190.75 916.293 190.692 915.791 190.822 915.321C190.952 914.851 191.26 914.45 191.681 914.204C192.101 913.957 192.602 913.884 193.075 914C197.652 915.26 202.467 915.38 207.1 914.35V914.35Z" fill="#7F7F7F"/>
<path opacity="0.32" d="M182 941.762C190.7 944.19 199.837 944.617 208.725 943.012C211.1 942.6 210.088 938.975 207.725 939.4C199.515 940.842 191.085 940.415 183.063 938.15C182.725 939.35 182.363 940.55 182 941.762Z" fill="#7F7F7F"/>
<path opacity="0.32" d="M177.963 954.663C183.964 956.364 190.153 957.317 196.388 957.5C198.8 957.625 198.788 953.875 196.388 953.75C190.542 953.616 184.733 952.777 179.088 951.25C178.73 952.358 178.355 953.496 177.963 954.663Z" fill="#7F7F7F"/>
<path opacity="0.32" d="M220.75 957.363C226.17 957.199 231.575 956.714 236.938 955.912V952.162C231.578 952.99 226.171 953.474 220.75 953.613C218.338 953.75 218.338 957.5 220.75 957.363Z" fill="#7F7F7F"/>
<path opacity="0.32" d="M170.288 976.55C181.245 982.183 193.432 985.001 205.75 984.75C208.163 984.75 208.163 981 205.75 981C193.886 981.251 182.149 978.509 171.625 973.025C171.175 974.213 170.75 975.388 170.288 976.55Z" fill="#7F7F7F"/>
<path opacity="0.32" d="M217.638 988.662C224.065 989.077 230.514 989.048 236.938 988.575V984.825C230.512 985.263 224.064 985.263 217.638 984.825C215.213 984.75 215.238 988.512 217.638 988.662Z" fill="#7F7F7F"/>
<path opacity="0.32" d="M162.913 994.675C168.554 996.11 174.316 997.022 180.125 997.4C182.538 997.563 182.525 993.813 180.125 993.65C174.829 993.273 169.576 992.437 164.425 991.15C163.925 992.388 163.413 993.55 162.913 994.675Z" fill="#7F7F7F"/>
<path opacity="0.32" d="M175.625 1003.69C173.263 1004.16 172.263 1000.55 174.625 1000.08C180.349 998.917 186.162 998.252 192 998.088C194.413 998.025 194.413 1001.78 192 1001.84C186.499 1001.98 181.021 1002.6 175.625 1003.69V1003.69Z" fill="#7F7F7F"/>
<path opacity="0.32" d="M173.4 1028.15C187.013 1031.58 201.175 1035.06 215.313 1033.4C222.958 1032.41 230.319 1029.85 236.938 1025.9V1021.55C229.341 1026.42 220.65 1029.33 211.65 1030C199.013 1030.75 186.55 1027.63 174.388 1024.58C172 1023.95 171.05 1027.5 173.4 1028.15Z" fill="#7F7F7F"/>
<path opacity="0.32" d="M176.925 1040.51C189.476 1044.42 202.623 1046.07 215.75 1045.38C218.163 1045.25 218.15 1049 215.75 1049.13C202.28 1049.83 188.791 1048.14 175.913 1044.13C173.638 1043.41 174.613 1039.8 176.925 1040.51Z" fill="#7F7F7F"/>
</g>
<path d="M187.9 807.5C187.672 807.555 187.458 807.657 187.272 807.8C187.087 807.943 186.933 808.124 186.822 808.33C186.711 808.537 186.645 808.765 186.628 808.999C186.612 809.232 186.645 809.467 186.725 809.688C187.199 809.005 187.593 808.271 187.9 807.5V807.5Z" fill="#EDEDED"/>
<path opacity="0.41" d="M148.25 1082.5H236.938V95.8375L234.775 93.9625L224.913 90.2125C224.913 90.2125 237.413 104.225 232.863 101.725C228.313 99.225 225.363 92.15 228.25 99.225C231.138 106.3 235.75 139.225 232.863 132.15C229.975 125.075 233.538 137.975 232.975 154.225C232.413 170.475 236.225 228.1 233.063 246.788C229.9 265.475 234.238 279.55 228.938 284.163C223.638 288.775 233.538 296.513 229.225 303.913C224.913 311.313 226.338 309.788 228.488 313.913C230.638 318.038 235.538 359.725 231.338 363.275C227.138 366.825 233.45 444.525 230.85 454.375C228.25 464.225 235.913 465.625 233.35 474.1C230.788 482.575 232.313 495.275 224.938 496.825C217.563 498.375 213.525 505.513 219.863 505.938C226.2 506.363 232.625 490.575 232.775 507.6C232.925 524.625 234.1 551.6 228.588 558.013C223.075 564.425 208.813 568.85 217.713 570.938C226.613 573.025 234.7 570.413 231.7 577.963C228.7 585.513 234.325 593.888 228.588 597.825C222.85 601.763 217.438 607.588 221.4 609.888C225.363 612.188 232.238 609.888 228.588 626.625C224.938 643.363 233.275 679.125 228.688 691.25C224.1 703.375 222 701.663 223.875 713.75C225.75 725.838 213.088 737.913 214.838 742.913C216.588 747.913 227.475 745.413 226.4 751.25C225.325 757.088 203.25 788.663 212.563 796.163C221.875 803.663 226.638 804.575 226.4 817.913C226.163 831.25 229.563 836.538 222.65 846.188C215.738 855.838 197.888 858.338 203.275 863.338C208.663 868.338 222.463 865.413 222.65 870.413C222.838 875.413 214.513 880.763 216.4 887.463C218.288 894.163 228.9 897.925 227.95 906.213C227 914.5 213.675 933.4 214.1 952.1C214.525 970.8 218 977.738 215.838 994.263C213.675 1010.79 208 1049.26 202.3 1029.83C196.6 1010.39 196.263 994.7 188.925 1021.5C181.588 1048.3 175.163 1071.25 174.625 1067.5C174.088 1063.75 160.563 1085 168.25 1064.59C175.938 1044.18 148.25 1082.5 148.25 1082.5Z" fill="#7F7F7F"/>
<path d="M135.213 704.863C136.463 704.863 187.9 703.45 171.463 706.988C155.025 710.525 130.438 713.525 139.388 713.8C148.338 714.075 163.138 713.2 149.175 715.937C135.213 718.675 116.463 723.037 118.963 718.662C121.463 714.287 121.05 713.112 115 713.8C108.95 714.487 107.925 705.15 135.213 704.863Z" fill="#CDC945"/>
<path opacity="0.36" d="M134.087 506.862C136.587 513.2 138.25 530.3 140.75 539.663C143.25 549.025 155.75 568.525 155.75 568.525C166.4 566.7 157.625 554.863 148.25 534.9C140.75 519.038 138.075 490.425 137.287 479.388L134.087 481.525C134.087 481.525 131.587 500.537 134.087 506.862Z" fill="#7F7F7F"/>
<path d="M177.963 490.675C177.963 490.675 176.938 503.55 181.038 506.925C185.138 510.3 185.45 508.525 188.538 516.925C191.625 525.325 208.35 541.687 208.35 541.687L210.487 520.563C210.487 520.563 188.463 503.738 187.863 495.563C187.263 487.388 183.213 483.062 182.863 479.45C182.74 475.594 182.823 471.734 183.113 467.887L172.812 469.313L177.963 490.675Z" fill="#C6C6C6"/>
<path d="M176.888 10.6625C197.938 8.4375 227.313 11.25 216.063 15.6625C204.813 20.075 205.438 25.125 213.563 26.9125C221.688 28.7 236.938 33.1625 236.938 33.1625V-1.25H172.7C173.775 -1.25 208.2 -1.25 189.775 1.5625C171.063 4.375 155.838 12.8875 176.888 10.6625Z" fill="#CDC945"/>
<g opacity="0.6">
<path opacity="0.6" d="M136.375 6.25C139.813 8.75 143.563 9.1375 142.938 10.6625C142.638 11.3875 143.55 14.2 144.725 17.25L145.388 18.9375C145.988 20.4 146.638 21.85 147.125 23.0625L148.25 25.5625C148.695 26.3882 149.25 27.1494 149.9 27.825C149.947 27.8936 150.002 27.9565 150.063 28.0125C152.25 30.5125 154.938 33.5625 150.488 35.875C149.238 36.5125 148.875 38.1375 149 40.325C149.227 42.7924 149.739 45.2253 150.525 47.575C150.75 48.275 150.975 49 151.225 49.7125L153.225 49.9625L158.613 50.625H158.725C161.725 50.975 164.775 51.3125 167.85 51.625C167.388 51.0125 166.938 50.375 166.525 49.725C165.842 48.7116 165.232 47.6505 164.7 46.55C163.964 45.0109 163.539 43.3414 163.45 41.6375V41.6375C163.436 40.5413 163.237 39.4554 162.863 38.425C162.469 37.3905 161.921 36.4213 161.238 35.55C159.313 33.05 156.538 31 154.563 27.85C154.413 27.6125 154.263 27.375 154.138 27.125C154.013 26.875 154.025 26.9375 153.975 26.85C153.438 25.8375 152.9 24.75 152.375 23.65C149.875 18.3 147.8 12.4 148.313 10.6C148.938 8.375 150.55 -1.3125 150.55 -1.3125H136.375C136.375 -1.3125 132.938 3.75 136.375 6.25Z" fill="#EDEDED"/>
</g>
<path d="M167.313 52.775C179.719 52.775 189.775 51.3927 189.775 49.6875C189.775 47.9823 179.719 46.6 167.313 46.6C154.907 46.6 144.85 47.9823 144.85 49.6875C144.85 51.3927 154.907 52.775 167.313 52.775Z" fill="#858233"/>
<path d="M134.738 28.7125C147.143 28.7125 157.2 27.3302 157.2 25.625C157.2 23.9198 147.143 22.5375 134.738 22.5375C122.332 22.5375 112.275 23.9198 112.275 25.625C112.275 27.3302 122.332 28.7125 134.738 28.7125Z" fill="#858233"/>
<path d="M178.563 43.45C189.781 43.45 198.875 41.1387 198.875 38.2875C198.875 35.4363 189.781 33.125 178.563 33.125C167.344 33.125 158.25 35.4363 158.25 38.2875C158.25 41.1387 167.344 43.45 178.563 43.45Z" fill="#858233"/>
<path d="M226.388 1063.34C222.413 1069.2 216.8 1073.06 212.175 1082.5H236.938V814.013C232.225 833.35 227.2 855.163 228.775 853.9C231.588 851.663 234.888 861.588 228.775 866C222.663 870.413 232.625 925 228.775 933.338C224.925 941.675 216.163 1011.94 223.875 994.3C231.588 976.663 230.388 994.163 226.375 1013.34C222.363 1032.51 214.175 1065 220.75 1059.16C227.325 1053.33 231.188 1056.25 226.388 1063.34Z" fill="#7F7F7F"/>
<path d="M200.1 1045.09C192.875 1060.83 188.388 1078.58 186.35 1082.5H198.325C202.875 1058.29 209.613 1024.35 200.1 1045.09Z" fill="#7F7F7F"/>
<path d="M185.313 1082.5C185.042 1079.03 185.042 1075.55 185.313 1072.09C186.563 1044.16 181.813 1070.41 174.6 1082.5H185.313Z" fill="#7F7F7F"/>
<path d="M131.063 566.562C132.613 566.3 147.125 565.312 142.213 568.525C137.3 571.737 134.35 572.987 137.138 574.65C139.925 576.312 144.088 577.037 136.375 579.8C128.663 582.562 139.5 583.712 131.588 586.375C123.675 589.037 119.713 589.762 123.05 586.375C126.388 582.987 135.038 578.075 129.938 576.375C124.838 574.675 125.138 571.512 128.888 570.2C132.638 568.887 121.288 568.225 131.063 566.562Z" fill="#CDC945"/>
<path d="M11.575 1083.41C11.575 1083.41 14.9125 1067.16 26.1625 1070.07C37.4125 1072.99 38.6625 1084.31 43.25 1076.56C47.8375 1068.81 55.3375 1067.67 60.3375 1072C65.3375 1076.32 75.25 1070.17 78.625 1069.5C82 1068.82 88.45 1065.69 90.85 1060.59C93.25 1055.49 101.875 1057.48 109.025 1061.49C116.175 1065.5 111.012 1067.03 116.525 1056.49C122.037 1045.95 125.362 1047.74 130.362 1045.77C135.362 1043.81 131.237 1041.5 132.462 1034.75C133.687 1028 136.612 1023.84 139.525 1015.5C142.437 1007.16 114.525 1009.52 129.937 995.225C145.35 980.925 161.8 995.6 161.8 995.6C161.8 995.6 152.175 1017.78 146.062 1028.61C139.95 1039.45 128.175 1083.42 128.175 1083.42L11.575 1083.41Z" fill="#263C29"/>
</g>
</svg>
