<svg width="237" height="1080" viewBox="0 0 237 1080" fill="none" xmlns="http://www.w3.org/2000/svg">
<mask id="mask0" mask-type="alpha" maskUnits="userSpaceOnUse" x="0" y="0" width="237" height="1080">
<rect width="236.25" height="1080" fill="white"/>
</mask>
<g mask="url(#mask0)">
<path d="M175.687 1082.54H159.037C159.037 1082.54 126.837 1008.64 126.062 994.338C125.287 980.038 106.537 948.288 106.537 948.288L122.25 913.975C122.25 913.975 138.15 883.65 138.587 878.713C139.025 873.775 130.912 836 124.662 821.738C118.412 807.475 102.162 814.413 114.975 787.225C127.787 760.038 135.912 737.225 132.787 728.2C129.662 719.175 105.825 612.538 103.05 595.038C100.275 577.538 111.575 514.288 111.575 514.288L122.25 528.338C122.25 528.338 114.875 575.188 116.537 586.763C118.2 598.338 131.125 638.35 129.662 642.513C129.162 643.925 131.625 656.488 134.962 672.613C140.125 697.613 147.387 731.075 149.025 745.113C149.437 748.713 149.487 751.025 149.025 751.6C146.762 754.488 141.45 768.088 136.737 778.788C135.067 782.87 133.086 786.819 130.812 790.6C125.9 797.788 148.187 839.35 150.687 845.113C151.362 846.675 151.862 850.888 152.225 856.2C153.187 870.4 153.187 892.45 153.187 892.45C153.187 892.45 143.962 924.15 138.575 928.325C133.187 932.5 129.65 957.45 129.65 957.45C129.65 957.45 146.525 994.113 152.362 1003.7C158.2 1013.29 175.687 1082.54 175.687 1082.54Z" fill="#D3D3D3"/>
<path opacity="0.41" d="M170.762 1082.54H159.037C159.037 1082.54 126.837 1008.64 126.062 994.338C125.287 980.038 106.537 948.288 106.537 948.288L122.25 913.975C122.25 913.975 138.15 883.65 138.587 878.713C139.025 873.775 130.912 836 124.662 821.738C118.412 807.475 102.162 814.413 114.975 787.225C127.787 760.038 135.912 737.225 132.787 728.2C129.662 719.175 105.825 612.538 103.05 595.038C100.275 577.538 111.575 514.288 111.575 514.288L122.25 528.338C122.25 528.338 112.25 529.15 114 537.913C115.75 546.675 109.1 596.488 111.575 598.25C114.05 600.013 116.725 605.013 116.575 613.35C116.425 621.688 127.825 663.35 132.825 669.6C133.562 670.548 134.238 671.542 134.85 672.575C140.012 697.575 147.275 731.038 148.912 745.075C145.45 747.163 141.687 751.488 138.475 759.963C133.825 772.238 133.825 776.938 136.637 778.713C134.967 782.795 132.986 786.744 130.712 790.525C125.8 797.713 148.087 839.275 150.587 845.038C151.262 846.6 151.762 850.813 152.125 856.125C149.212 855.038 147.65 854.3 146.637 857.375C144.762 863.213 145.6 872.238 146.637 878.55C147.675 884.863 150.6 883.75 146.637 888.063C142.675 892.375 139.337 898.625 136.425 904.463C133.512 910.3 110.175 941.388 115.587 948.125C121 954.863 124.337 950.625 123.512 957.338C122.687 964.05 128.087 971.088 133.512 984.638C138.937 998.188 134.762 1000.71 143.512 1009.46C152.262 1018.21 145.587 1022.53 151.425 1033.7C156.775 1043.88 157.95 1078.79 170.762 1082.54Z" fill="#7F7F7F"/>
<path d="M146.675 480.525C140.425 498.85 152.5 514.275 153.337 525.525C153.437 526.938 152.087 528.35 149.475 529.738C131.612 539.488 57.7124 548.225 53.3374 546.775C48.3374 545.1 50.4249 488.5 50.4249 488.5C51.4682 485.824 53.2878 483.521 55.6499 481.888C77.8749 464.563 158.65 457.125 161.25 460.1C164.175 463.437 152.925 462.188 146.675 480.525Z" fill="#F3602A"/>
<path opacity="0.46" d="M149.475 529.738C131.612 539.488 57.7124 548.225 53.3374 546.775C48.3374 545.1 50.4249 488.5 50.4249 488.5C51.4682 485.824 53.2878 483.521 55.6499 481.888C54.6749 495.538 52.6499 536.888 63.1499 540.638C75.7374 545.2 77.5249 539.6 93.3624 534.175C109.2 528.75 134.287 533.987 130.025 518.812C125.762 503.637 139.475 492.675 139.475 492.675C139.475 492.675 137.262 514.438 149.475 529.738Z" fill="#A54025"/>
<path d="M79.175 542.163C79.175 542.163 83.5501 543.163 83.9626 540.663C84.3751 538.163 89.5876 507.125 91.8751 507.125C94.1626 507.125 107.5 504.1 107.5 504.1C107.5 504.1 104.375 500.25 103.338 499.2C102.3 498.15 92.7126 493.588 88.7501 495.975C84.7876 498.363 79.175 542.163 79.175 542.163Z" fill="#A54025"/>
<path d="M161.25 460.1C161.25 460.1 175.412 455.1 182.912 474.263C190.412 493.425 195.412 506.763 191.25 509.675C187.087 512.588 149.462 529.675 149.462 529.675C142.939 520.074 139.355 508.78 139.15 497.175C138.75 477.6 161.25 460.1 161.25 460.1Z" fill="#F2CC2C"/>
<path d="M153.337 525.525C153.337 525.525 138.825 501.287 147.925 482.537C157.025 463.787 165.762 462.25 175.675 471.7C185.587 481.15 191.237 509.688 191.237 509.688C191.237 509.688 155.187 529.013 153.337 525.525Z" fill="#A54025"/>
<path d="M116.175 491.7L113.762 503.2L88.7623 501.525C88.7623 501.525 81.6748 535.45 80.4248 540.663C79.4623 544.688 69.6623 539.638 65.2623 537.138C64.0123 536.388 63.1373 535.888 63.1373 535.888L73.7623 489.95L106.162 491.288L116.175 491.7Z" fill="#EDEDED"/>
<path opacity="0.27" d="M116.175 491.7L113.762 503.2L88.7623 501.525C88.7623 501.525 81.6748 535.45 80.4248 540.663C79.4623 544.688 69.6623 539.638 65.2623 537.138C68.1612 536.499 70.7854 534.964 72.7623 532.75C80.0498 524.625 79.0123 499.625 87.3373 499.413C95.6623 499.2 99.4248 499.013 103.587 494.625C104.521 493.573 105.381 492.457 106.162 491.288L116.175 491.7Z" fill="#7F7F7F"/>
<path d="M116.175 511.338C121.594 511.338 125.988 506.944 125.988 501.525C125.988 496.106 121.594 491.713 116.175 491.713C110.756 491.713 106.363 496.106 106.363 501.525C106.363 506.944 110.756 511.338 116.175 511.338Z" fill="#EF9C2E"/>
<path d="M112.425 512.325C117.844 512.325 122.238 507.932 122.238 502.513C122.238 497.093 117.844 492.7 112.425 492.7C107.006 492.7 102.613 497.093 102.613 502.513C102.613 507.932 107.006 512.325 112.425 512.325Z" fill="#F2CC2C"/>
<path d="M191.25 509.688C191.25 509.688 204.075 537.887 199.075 546.937C194.075 555.987 166.325 562.538 153.338 525.525L191.25 509.688Z" fill="#F3602A"/>
<path d="M186.962 547.688C188.902 547.688 190.475 546.115 190.475 544.175C190.475 542.235 188.902 540.663 186.962 540.663C185.023 540.663 183.45 542.235 183.45 544.175C183.45 546.115 185.023 547.688 186.962 547.688Z" fill="#A54025"/>
<path d="M153.337 525.525L174.075 533.163L202.512 516.05L145.012 494.138C144.639 499.389 145.258 504.665 146.837 509.688C148.729 515.075 150.899 520.362 153.337 525.525V525.525Z" fill="#EDEDED"/>
<path d="M202.513 516.05V518.163L175.688 535.45L154.113 527.613L153.338 525.525L174.075 533.163L202.513 516.05Z" fill="#CECECE"/>
<path d="M202.512 516.05C202.512 516.05 162.3 516.7 159.387 514.413C156.475 512.125 145.5 504.413 145.5 504.413L145 494.188L202.512 516.05Z" fill="white"/>
<path d="M160.375 516.513C162.646 516.513 164.488 515.528 164.488 514.313C164.488 513.098 162.646 512.113 160.375 512.113C158.104 512.113 156.263 513.098 156.263 514.313C156.263 515.528 158.104 516.513 160.375 516.513Z" fill="#A54025"/>
<path d="M17.725 362.025C18.55 361.575 44.275 324.8 47.9875 332.3C51.7 339.8 25.2375 364.162 25.2375 364.162L17.725 362.025Z" fill="#5D6528"/>
<path d="M163.662 813.975L163.587 814.05C163.4 814.238 163.2 814.4 163.012 814.563C161.47 815.624 159.787 816.466 158.012 817.063C153.487 818.738 149.412 820.338 145.912 821.85C134.55 826.85 129.187 830.875 134.275 833.738C140.95 837.488 125.662 848.325 104.137 844.15C82.6125 839.975 52.075 833 64.225 828.363C76.375 823.725 74.75 826.163 58.225 823.738C44.7 821.75 18.05 789.738 23.025 778.013C24.125 775.413 26.775 773.813 31.425 773.738C57.2 773.325 78.3 774.425 69.8375 780.125C63.3625 784.475 116.025 778.6 144.7 787.9C170.112 796.15 119.275 795.525 134.7 800.05C147.65 803.938 169.062 808.388 163.662 813.975Z" fill="#858233"/>
<path d="M59.6999 789.1C62.1999 789 100.712 796.988 103.45 801.6C106.187 806.213 104.037 813.438 106.85 820.35C109.662 827.263 81.9249 821.6 86.5749 823.475C91.2249 825.35 104.662 831.288 91.5749 831.6C78.4874 831.913 42.5749 825.888 38.1874 819.213C33.7999 812.538 35.9499 790.038 59.6999 789.1Z" fill="#263C29"/>
<path d="M163.663 813.975L163.588 814.05C163.4 814.238 163.2 814.4 163.013 814.563C157 819.75 151.013 821.675 145.888 821.85C135.888 822.225 129.213 815.875 132.275 814C136.963 811.138 127.275 808.113 117.275 807.538C107.275 806.963 111.65 800.3 118.838 797.8C126.025 795.3 106.338 795.3 93.4877 791.863C80.6377 788.425 87.9002 789.675 97.2377 787.175C106.575 784.675 35.8752 783.175 31.3252 782.538C28.3092 781.493 25.475 779.983 22.9252 778.063C24.0252 775.463 26.6752 773.863 31.3252 773.788C57.1002 773.375 78.2002 774.475 69.7377 780.175C63.2627 784.525 115.925 778.65 144.6 787.95C170.013 796.2 119.175 795.575 134.6 800.1C147.65 803.938 169.063 808.388 163.663 813.975Z" fill="#CDC945"/>
<path d="M29.5375 648.663L22.2375 672.775H22.3001C24.5376 667.075 32.1876 656.263 32.1876 656.263C32.4626 655.95 33.9626 654.263 36.1251 651.563C36.8626 650.638 37.6876 649.6 38.6251 648.45C43.9251 641.525 51.2751 630.875 55.7251 619.938C63.2876 601.338 51.9751 594.025 38.4876 607.075C25 620.125 29.5375 648.663 29.5375 648.663Z" fill="#82942F"/>
<path d="M47.6497 617.325C36.4872 626.85 30.4997 641.388 27.8497 656.15C27.7122 656.913 28.7372 657.238 28.8872 656.463C31.5122 641.888 37.3497 627.6 48.3747 618.188C48.4405 618.144 48.4963 618.087 48.5387 618.021C48.581 617.954 48.6089 617.879 48.6205 617.801C48.6321 617.723 48.6272 617.644 48.6061 617.568C48.5849 617.492 48.5481 617.421 48.4978 617.36C48.4476 617.299 48.3851 617.25 48.3145 617.215C48.2439 617.18 48.1667 617.16 48.0879 617.157C48.0091 617.153 47.9304 617.166 47.8571 617.195C47.7838 617.225 47.7174 617.269 47.6622 617.325H47.6497Z" fill="#5D6528"/>
<path d="M17.2874 356.638L11.4624 377.538C13.2499 372.6 19.3499 363.238 19.3499 363.238C19.5749 362.975 20.7624 361.5 22.4874 359.162C23.0749 358.362 23.7374 357.462 24.4374 356.475C29.9666 348.829 34.546 340.539 38.0749 331.788C44.1124 315.688 35.0749 309.35 24.3249 320.65C13.5749 331.95 17.2874 356.638 17.2874 356.638Z" fill="#82942F"/>
<path d="M31.7502 329.5C22.8377 337.75 18.0752 350.337 15.9502 363.112C15.8377 363.775 16.6627 364.062 16.7752 363.387C18.8627 350.775 23.5252 338.388 32.3252 330.25C32.7877 329.825 32.2127 329.075 31.7502 329.5V329.5Z" fill="#5D6528"/>
<path d="M166.263 38.3753C174.301 42.3878 169.851 46.8878 158.763 50.4628C148.93 53.3437 138.827 55.2076 128.613 56.0253C117.596 57.0941 106.514 57.3198 95.4631 56.7003C92.4756 56.5253 89.2131 56.3878 85.8131 56.2753C74.3631 55.9128 60.6381 55.8503 46.2506 55.7753H38.0881C33.3006 55.7753 28.4631 55.7002 23.6506 55.6377C15.6381 55.4877 7.70056 55.3378 0.0755615 55.0378V-1.21225H236.263C222.101 26.7003 147.926 29.2003 166.263 38.3753Z" fill="#CDC945"/>
<path d="M122.925 64.2C114.453 70.3367 105.465 75.7277 96.0625 80.3125C79.8125 88.1 76.0624 86.175 85.4249 90.875C98.7624 97.5375 0.0749512 109.2 0.0749512 109.2V33.1625C0.0749512 33.1625 16.85 33.625 38.275 35.1375L41.7375 35.4C44.1375 35.575 46.5874 35.7625 49.0624 35.975C57.2874 36.6625 65.8625 37.5 74.2125 38.475C75.6625 38.65 77.1125 38.825 78.5375 39.025C81.7625 39.4417 84.9208 39.8917 88.0124 40.375C95.9899 41.5603 103.888 43.23 111.662 45.375C121.562 48.2375 128.1 51.75 128.575 56.0375C128.825 58.4875 127.137 61.2 122.925 64.2Z" fill="#CDC945"/>
<path opacity="0.55" d="M223.137 -1.2125C223.137 -1.2125 181.262 23.7875 167.512 22.5375C153.762 21.2875 173.137 17.5375 181.262 13.4375C189.387 9.3375 178.762 10.625 152.512 10.625C126.262 10.625 181.262 -1.25 181.262 -1.25L223.137 -1.2125Z" fill="#82942F"/>
<path d="M173.762 63.1625C152.962 72.375 119.712 78.1625 96.0625 80.3125C76.325 82.0875 63.3125 81.2875 69.7 77.5375C72.218 75.9512 74.9799 74.7898 77.875 74.1C76.975 74.175 71.4999 74.4875 60.1124 71.15C56.9999 70.2375 53.4375 69.0375 49.4 67.4875C46.167 66.2506 42.845 65.2602 39.4625 64.525C29.9354 62.5301 20.1313 62.2297 10.5 63.6375C6.99089 64.1124 3.51062 64.7801 0.0749512 65.6375L0.0749512 27.1625C6.32495 27.025 14.3125 26.95 23.45 26.95C27.35 26.95 31.4625 26.95 35.7125 26.95C44.8875 27.025 54.7375 27.1625 64.725 27.3875C70.6375 27.5375 76.6125 27.7 82.5 27.9L86.9374 28.0625L89.95 28.1875C93.175 28.3125 96.3624 28.45 99.4874 28.6L101.45 28.7875C139.45 30.675 167.987 34.2875 150.012 40.475C130.662 47.1375 143.762 48.775 158.762 50.475C175.137 52.35 193.725 54.325 173.762 63.1625Z" fill="#858233"/>
<path d="M19.3251 670.163C24.0251 670.838 80.2626 668.488 76.3876 677.863C72.5126 687.238 61.9626 681.413 103.488 682.763C145.013 684.113 185.013 699.738 157.513 709.738C130.013 719.738 116.263 727.388 126.263 729.188C136.263 730.988 145.013 738.55 133.138 743.2C121.263 747.85 33.8251 738.538 55.9751 732.263C78.1251 725.988 71.2251 725.688 44.0751 723.513C16.9251 721.338 -2.62492 691.175 11.1876 689.525C25.0001 687.875 19.8251 676.588 13.3876 674.75C6.95008 672.913 4.88758 668.1 19.3251 670.163Z" fill="#858233"/>
<path d="M31.3249 692.95C31.3249 692.95 83.5749 697.825 95.3374 704.138C107.1 710.45 113.762 712.538 111.887 719.2C110.012 725.863 101.475 729.463 112.2 734.538C122.925 739.613 123.687 744.988 114.175 744.463C104.662 743.938 57.3249 737.75 72.9249 734.538C88.5249 731.325 97.1249 724.613 76.0624 720.863C54.9999 717.113 28.6249 715.45 28.6249 715.45L31.3249 692.95Z" fill="#263C29"/>
<path d="M130.212 683.888C127.237 683.725 124.375 683.663 121.675 683.713C124.175 682.788 125.55 681.688 125.625 680.45C125.825 676.7 114.125 672.95 97.7248 670.963C92.6498 667.288 77.1623 663.975 58.6998 662.95C35.9123 661.7 17.2373 664.388 16.9873 668.988C16.7873 672.738 28.4873 676.488 44.8873 678.475C48.6373 681.225 58.3748 683.788 70.7748 685.325C70.72 685.465 70.6863 685.613 70.6748 685.763C70.5123 688.7 79.1873 691.65 91.1123 693.038C90.966 693.281 90.8763 693.555 90.8498 693.838C90.6748 697.013 99.1873 700.088 109.875 700.663C119.875 701.225 128.25 699.413 129.412 696.575H129.512C145 697.438 157.712 695.325 157.912 691.8C158.112 688.275 145.7 684.75 130.212 683.888Z" fill="#CDC945"/>
<path d="M106.888 821.738C106.888 821.738 105.563 820.063 103.5 817.988C99.8626 814.313 93.9376 809.363 88.7751 809.875C80.6501 810.7 83.1501 810.313 75.6501 809.875C68.1501 809.438 52.1376 849.388 52.1376 849.388L32.5751 821.738C32.5751 821.738 48.1751 801.975 58.5876 784.875C60.5251 781.688 62.3376 778.625 63.7376 775.725C72.9251 757.538 91.2376 758.375 88.7376 745.875C86.2376 733.375 92.9251 702.538 92.9251 702.538L99.7251 707.063L102.925 709.2C102.925 709.2 105.425 728.213 102.925 734.538C100.425 740.863 98.7626 757.975 96.2626 767.338C93.7626 776.7 81.2626 796.2 81.2626 796.2L104.038 800.038C104.038 800.038 103.213 800.575 104.813 805.625C106.413 810.675 106.888 821.738 106.888 821.738Z" fill="#EDEDED"/>
<path opacity="0.36" d="M103.488 817.95C99.8501 814.275 93.9251 809.325 88.7626 809.838C80.6376 810.663 83.1376 810.275 75.6376 809.838C68.1376 809.4 52.1251 849.35 52.1251 849.35L32.5751 821.738C32.5751 821.738 48.1751 801.975 58.5876 784.875C57.5376 792.075 57.2251 797.263 58.7626 796.2C63.1376 793.163 71.8876 781.388 65.0126 796.338C58.1376 811.288 44.7751 823.163 57.7001 815.038C70.6251 806.913 70.0126 797.65 78.1376 800.038C86.2626 802.425 96.9501 808.363 103.488 817.95Z" fill="#7F7F7F"/>
<path d="M108.288 375.55C108.288 379.038 98.2 381.95 84.8125 382.588C82.9875 382.675 81.0625 382.725 79.1875 382.725C67.7125 382.725 57.7875 381.088 53.0625 378.7C50.975 378.788 48.825 378.838 46.65 378.838C31.5625 378.838 18.3 376.725 10.6375 373.513C6.2375 371.675 3.6875 369.488 3.6875 367.125C3.6875 363.375 10.0375 360.088 19.9375 357.95C19.3099 357.264 18.9427 356.379 18.9 355.45C18.9 348.975 38.15 343.725 61.8625 343.725C85.575 343.725 104.85 348.975 104.85 355.45C104.85 357.038 103.688 358.55 101.588 359.925C99.3504 361.303 96.9367 362.371 94.4125 363.1C94.0029 363.383 93.6622 363.755 93.4155 364.188C93.1689 364.621 93.0226 365.103 92.9875 365.6C92.9875 367.313 95 368.913 98.475 370.238C100.295 370.597 102.083 371.099 103.825 371.738C106.675 372.85 108.288 374.15 108.288 375.55Z" fill="#858233"/>
<path d="M84.8123 382.538C82.9873 382.625 81.0623 382.675 79.1873 382.675C67.7123 382.675 57.7873 381.038 53.0623 378.65C50.9748 378.738 48.8248 378.788 46.6498 378.788C31.5623 378.788 18.2998 376.675 10.6373 373.463C9.62482 372.7 9.63732 371.975 10.9748 371.338C21.6748 366.238 31.8873 368.113 27.5123 365.825C23.1373 363.538 17.8748 357.263 34.1623 358.738C35.2373 358.838 59.2373 359.988 60.6373 363.163C62.0373 366.338 63.1373 366.913 63.1373 368.85C63.1373 370.788 56.0498 374.15 67.7248 375.4C77.7873 376.525 87.5748 379.613 84.8123 382.538Z" fill="#263C29"/>
<path d="M63.1374 368.9C63.1374 368.9 56.8874 376.288 55.9874 378.988C54.9999 381.625 41.7124 388.8 34.1749 391.488L33.2749 391.8C27.6999 393.638 16.9374 415.55 12.0249 426.188C10.4249 429.638 9.43738 431.888 9.43738 431.888L9.56238 426.275L10.3374 391.8L20.0749 378.988L23.0749 378.4L24.3249 378.175C29.1124 377.238 36.8249 375.675 41.3124 374.55C48.1874 372.812 60.6874 363.213 60.6874 363.213L63.1374 368.9Z" fill="#EDEDED"/>
<path opacity="0.26" d="M55.9875 378.988C54.9625 381.738 40.6125 389.387 33.275 391.787C25.9375 394.187 9.41248 431.913 9.41248 431.913L10.3125 391.825L20.075 378.988L24.2875 378.175C24.2457 378.327 24.2549 378.489 24.3136 378.636C24.3722 378.782 24.4772 378.906 24.6125 378.988C26.4875 380.038 28.15 380.037 25.8625 386.075C23.575 392.112 17.3125 396.287 29.4 390.45C41.4875 384.612 47.325 378.238 46.275 382.375C45.225 386.512 55.9875 378.988 55.9875 378.988Z" fill="#7F7F7F"/>
<path opacity="0.26" d="M34.1627 391.512L33.2627 391.825C27.6877 393.662 16.9252 415.575 12.0127 426.212C11.1849 426.331 10.3468 426.361 9.5127 426.3L10.2877 391.825L20.0752 378.987L23.0752 378.4C21.4752 383.587 18.7127 393.187 20.2627 392.85C22.3752 392.387 22.3127 398.012 21.9502 399.562C21.5877 401.112 23.2002 403.05 26.1252 397.562C26.9035 395.999 28.035 394.639 29.43 393.589C30.8251 392.539 32.4454 391.828 34.1627 391.512Z" fill="#7F7F7F"/>
<path d="M118.238 43.3628C116.096 44.1712 113.904 44.8393 111.676 45.3628C106.338 46.6878 99.4006 47.8628 91.5881 49.0253C89.7131 49.3003 87.7756 49.5628 85.8006 49.8128L83.8256 50.0378L78.4381 50.7003H78.3256C75.3256 51.0503 72.2756 51.3878 69.2006 51.7003C66.4881 51.9878 63.7506 52.2503 61.0256 52.5128C56.0881 52.9878 51.1631 53.4253 46.3631 53.8253L36.1881 54.6378C31.7631 54.9753 27.5506 55.2753 23.6881 55.5378C9.72556 56.5503 0.0755615 57.0503 0.0755615 57.0503V-1.21225H152.513C152.513 -1.21225 123.463 5.31275 107.163 13.6128C101.863 16.3003 97.9131 19.1753 96.7506 22.0753C96.6671 22.2693 96.6002 22.47 96.5506 22.6753C96.0006 24.6878 96.8256 26.6878 99.5006 28.6503L99.6131 28.7253C102.113 30.5253 106.088 32.2628 111.963 33.9253L112.501 34.0753C124.976 37.5378 125.188 40.6253 118.238 43.3628Z" fill="#263C29"/>
<path d="M0.0749512 109.2V71.1875C0.0749512 71.1875 148.825 70.0375 0.0749512 109.2Z" fill="#263C29"/>
<path d="M49.3876 35.9875C60.6059 35.9875 69.7001 33.6762 69.7001 30.825C69.7001 27.9738 60.6059 25.6625 49.3876 25.6625C38.1693 25.6625 29.0751 27.9738 29.0751 30.825C29.0751 33.6762 38.1693 35.9875 49.3876 35.9875Z" fill="#858233"/>
<path d="M111.887 23.8C123.106 23.8 132.2 21.4887 132.2 18.6375C132.2 15.7863 123.106 13.475 111.887 13.475C100.669 13.475 91.575 15.7863 91.575 18.6375C91.575 21.4887 100.669 23.8 111.887 23.8Z" fill="#CDC945"/>
<path d="M66.2125 60.05C77.4308 60.05 86.525 57.7387 86.525 54.8875C86.525 52.0363 77.4308 49.725 66.2125 49.725C54.9942 49.725 45.9 52.0363 45.9 54.8875C45.9 57.7387 54.9942 60.05 66.2125 60.05Z" fill="#858233"/>
<path d="M122.588 43.4875C133.806 43.4875 142.9 41.1762 142.9 38.325C142.9 35.4738 133.806 33.1625 122.588 33.1625C111.369 33.1625 102.275 35.4738 102.275 38.325C102.275 41.1762 111.369 43.4875 122.588 43.4875Z" fill="#858233"/>
<path opacity="0.55" d="M60.075 71.15C60.15 71.3 59.6374 71.325 58.4124 71.15C51.5749 70.35 25.3125 66.0625 10.45 63.65L0.0749512 61.9125V46.6375C0.0749512 46.6375 28.1125 51.5 36.125 54.6875C36.8226 54.9175 37.4742 55.2687 38.05 55.725C38.6125 56.3 37.975 56.7625 35.6375 57.05C21.2625 58.7875 9.38745 54.4125 21.2625 58.7875C25.45 60.325 32.5125 62.4625 39.45 64.525L49.3875 67.5375C55.4375 69.3 59.95 70.7375 60.075 71.15Z" fill="#82942F"/>
<path d="M60.075 76.775C60.075 76.775 18.7625 113.375 16.2625 126.7C13.7625 140.025 10.425 169.2 10.425 176.7C10.425 184.2 21.2625 269.2 23.7625 280.038C26.2625 290.875 15.425 326.7 17.925 334.2C20.425 341.7 17.5125 455.038 25.0125 466.288C32.5125 477.538 23.7625 493.788 23.7625 498.788C23.7625 503.788 36.2625 583.788 33.1375 595.038C30.0125 606.288 39.0125 793.925 50.2625 809.838C61.5125 825.75 46.5125 868.875 44.6375 889.5C42.7625 910.125 67.675 987.538 81.9625 1010.04C96.25 1032.54 111.887 1082.54 111.887 1082.54H0.0749512V95.875C0.0749512 95.875 8.34995 92.85 12.1 90.2C15.85 87.55 26.8875 89.725 31.575 85.0375C36.2625 80.35 34.075 80.975 37.5125 78.475C39.5294 77.0294 41.3054 75.2745 42.775 73.275C45.4413 73.263 48.1043 73.4679 50.7374 73.8875C53.9722 74.3978 57.1168 75.3703 60.075 76.775V76.775Z" fill="#EDEDED"/>
<g opacity="0.32">
<path opacity="0.32" d="M14.6 136.988C14.425 138.188 14.25 139.438 14.075 140.738C12.1901 140.714 10.3072 140.865 8.44997 141.188C6.08747 141.588 5.08747 137.962 7.44997 137.562C9.80863 137.136 12.2035 136.944 14.6 136.988V136.988Z" fill="#7F7F7F"/>
<path opacity="0.32" d="M0.425562 128.163H0.0755615V124.413H0.425562C0.922842 124.413 1.39976 124.61 1.75139 124.962C2.10302 125.313 2.30056 125.79 2.30056 126.288C2.30056 126.785 2.10302 127.262 1.75139 127.613C1.39976 127.965 0.922842 128.163 0.425562 128.163V128.163Z" fill="#7F7F7F"/>
<path opacity="0.32" d="M5.38745 166.525C3.71579 165.665 1.92532 165.058 0.0749512 164.725L0.0749512 160.975C2.59062 161.362 5.02658 162.156 7.28745 163.325C9.43745 164.375 7.57495 167.613 5.38745 166.525Z" fill="#7F7F7F"/>
<path opacity="0.32" d="M12.7875 199.95C10.5031 199.505 8.17619 199.316 5.84995 199.388C3.42495 199.463 3.43745 195.713 5.84995 195.638C8.02108 195.571 10.1936 195.713 12.3375 196.063C12.4875 197.325 12.6375 198.613 12.7875 199.95Z" fill="#7F7F7F"/>
<path opacity="0.32" d="M11.5875 189.35C10.5437 189.211 9.48436 189.24 8.44997 189.438C6.08747 189.888 5.08747 186.275 7.44997 185.813C8.68454 185.572 9.94443 185.488 11.2 185.563C11.2833 186.738 11.4125 188 11.5875 189.35Z" fill="#7F7F7F"/>
<path opacity="0.32" d="M9.67495 217.963C6.64861 216.411 3.41589 215.299 0.0749512 214.663L0.0749512 210.913C4.07441 211.623 7.94591 212.925 11.5625 214.775C13.725 215.825 11.825 219.05 9.67495 217.963Z" fill="#7F7F7F"/>
<path opacity="0.32" d="M18.7375 246.763C12.9125 243.525 6.57495 241.113 0.0749512 242.2V238.45C6.32495 237.613 12.375 239.363 18.1375 242.2C18.3375 243.788 18.5375 245.275 18.7375 246.763Z" fill="#7F7F7F"/>
<path opacity="0.32" d="M12.5751 262.962C13.2964 262.752 14.0709 262.823 14.7416 263.162C15.4123 263.501 15.9292 264.082 16.1876 264.787C16.4404 265.214 16.851 265.524 17.3305 265.65C17.81 265.777 18.3199 265.709 18.7501 265.462C19.1694 265.203 19.4731 264.793 19.5987 264.316C19.7243 263.839 19.6622 263.332 19.4251 262.9C18.7508 261.473 17.5908 260.332 16.1527 259.682C14.7146 259.032 13.092 258.914 11.5751 259.35C9.2376 260.037 10.2251 263.65 12.5751 262.962Z" fill="#7F7F7F"/>
<path opacity="0.32" d="M6.11253 286.55C4.31253 290.163 8.47503 295.713 11.8375 296.9C15.7125 298.263 19.5375 294.862 20.7375 291.337C21.0404 290.537 21.0207 289.651 20.6826 288.865C20.3444 288.079 19.7143 287.455 18.925 287.125C16.825 286.2 14.9375 287.425 13.3875 288.763C11.55 290.338 14.2125 292.975 16.0375 291.413C16.375 291.125 17.6125 289.5 16.8875 290.738C16.5459 291.348 16.1257 291.911 15.6375 292.413C14.2375 293.813 12.8875 293.663 11.55 292.213C10.5125 291.038 8.92503 289.125 10.075 287.538C10.875 286.463 13.1875 285.1 14.4375 285.85C14.6729 285.993 14.9381 286.081 15.2127 286.106C15.4872 286.131 15.7638 286.092 16.0211 285.993C16.2783 285.894 16.5094 285.737 16.6965 285.535C16.8836 285.332 17.0216 285.089 17.1 284.825C18.775 284.825 20.45 284.688 22.1 284.5C24.475 284.238 24.5 280.488 22.1 280.75C18.9129 281.106 15.7009 281.186 12.5 280.988C12.2812 280.967 12.0604 280.991 11.8514 281.059C11.6423 281.127 11.4493 281.237 11.2842 281.382C11.1191 281.527 10.9855 281.705 10.8915 281.903C10.7975 282.102 10.7451 282.318 10.7375 282.538C8.77039 283.287 7.13197 284.708 6.11253 286.55V286.55Z" fill="#7F7F7F"/>
<path opacity="0.32" d="M21.6625 303.925C21.4375 305.175 21.2125 306.425 20.975 307.675C20.4085 307.656 19.8418 307.706 19.2875 307.825C16.925 308.325 15.925 304.713 18.2875 304.213C19.3931 303.957 20.5295 303.86 21.6625 303.925Z" fill="#7F7F7F"/>
<path opacity="0.32" d="M12.5 319.575C8.91786 318.179 5.09321 317.512 1.25 317.613C1.02541 317.634 0.798757 317.61 0.583858 317.541C0.368958 317.472 0.170306 317.361 0 317.213V314.325C0.33935 314.012 0.788639 313.846 1.25 313.863C5.4236 313.75 9.57831 314.463 13.475 315.963C15.7375 316.825 14.7625 320.45 12.5 319.575Z" fill="#7F7F7F"/>
<path opacity="0.32" d="M17.7375 327.538C17.6047 328.783 17.5463 330.035 17.5625 331.288C15.6189 330.986 13.6455 330.927 11.6875 331.113C9.27496 331.325 9.29996 327.575 11.6875 327.363C13.7042 327.189 15.7341 327.248 17.7375 327.538V327.538Z" fill="#7F7F7F"/>
<path opacity="0.32" d="M16.1249 355.3C11.8793 354.016 7.79448 352.25 3.94995 350.038C3.60675 349.823 3.3415 349.504 3.19331 349.128C3.04511 348.751 3.02181 348.337 3.12685 347.946C3.23188 347.556 3.45969 347.209 3.77668 346.958C4.09367 346.706 4.48307 346.563 4.88745 346.55L17.9249 346.4C18.2382 346.393 18.548 346.466 18.8249 346.613C18.8249 347.65 18.8249 348.725 18.9124 349.863C18.6198 350.056 18.2756 350.156 17.9249 350.15H13.0249C14.3749 350.663 15.7249 351.15 17.1124 351.575C19.4249 352.375 18.4374 355.988 16.1249 355.3Z" fill="#7F7F7F"/>
<path opacity="0.32" d="M19.2 368.288C18.9818 368.529 18.7049 368.71 18.396 368.813C18.0872 368.916 17.757 368.937 17.4375 368.875C14.85 368.418 12.313 367.711 9.8625 366.763C9.47498 366.645 9.13553 366.406 8.8943 366.081C8.65306 365.755 8.52283 365.361 8.52283 364.956C8.52283 364.551 8.65306 364.157 8.8943 363.832C9.13553 363.507 9.47498 363.268 9.8625 363.15L14.975 361.613L12.475 361.288C10.1125 360.975 10.0875 357.225 12.475 357.538L19.05 358.375C19.05 360.263 19.1125 362.238 19.1375 364.275C18.3875 364.488 17.6375 364.725 16.8875 364.95C17.4 365.05 17.9 365.163 18.4125 365.25C18.6784 365.291 18.9309 365.394 19.15 365.55C19.3422 365.721 19.4969 365.93 19.6044 366.164C19.7119 366.397 19.7698 366.651 19.7745 366.908C19.7792 367.165 19.7306 367.42 19.6317 367.658C19.5328 367.895 19.3858 368.11 19.2 368.288V368.288Z" fill="#7F7F7F"/>
<path opacity="0.32" d="M19.4124 386.95L12.4374 384.725C10.1499 384 11.1874 380.375 13.4374 381.113L19.3624 383C19.3749 384.313 19.3999 385.625 19.4124 386.95Z" fill="#7F7F7F"/>
<path opacity="0.32" d="M4.93745 391.8L0.0749512 390.988V387.238L5.93745 388.213C8.31245 388.575 7.29995 392.188 4.93745 391.8Z" fill="#7F7F7F"/>
<path opacity="0.32" d="M3.70007 378.088C3.44392 378.493 3.04474 378.787 2.58169 378.912C2.11864 379.038 1.62551 378.984 1.20007 378.763C0.861702 378.594 0.505255 378.464 0.137573 378.375V374.55C1.1657 374.719 2.16104 375.048 3.08757 375.525C3.5036 375.788 3.80046 376.203 3.91488 376.682C4.0293 377.16 3.95222 377.665 3.70007 378.088V378.088Z" fill="#7F7F7F"/>
<path opacity="0.32" d="M9.92495 409.362C6.70557 408.485 3.31558 408.442 0.0749512 409.237L0.0749512 405.387C3.67072 404.664 7.38546 404.789 10.925 405.75C11.3909 405.894 11.7824 406.214 12.0164 406.642C12.2504 407.069 12.3086 407.572 12.1785 408.042C12.0484 408.512 11.7403 408.912 11.3195 409.159C10.8988 409.406 10.3986 409.479 9.92495 409.362V409.362Z" fill="#7F7F7F"/>
<path opacity="0.32" d="M20.075 419.3C19.9259 419.354 19.7704 419.387 19.6125 419.4C15.9901 419.696 12.3525 419.055 9.04998 417.537C6.84998 416.55 8.76248 413.325 10.95 414.3C13.6689 415.488 16.6466 415.962 19.6 415.675C19.7163 415.663 19.8336 415.663 19.95 415.675L20.075 419.3Z" fill="#7F7F7F"/>
<path opacity="0.32" d="M20.2501 424.862C16.7001 424.725 13.1501 424.737 9.60008 424.862C7.17508 424.95 7.18758 421.2 9.60008 421.112C13.1126 420.975 16.6001 420.962 20.1126 421.112C20.1626 422.375 20.2001 423.625 20.2501 424.862Z" fill="#7F7F7F"/>
<path opacity="0.32" d="M21.7374 450.038C18.4669 449.114 15.1201 448.487 11.7374 448.163C9.34989 447.95 9.32489 444.2 11.7374 444.413C15.0097 444.709 18.2533 445.264 21.4374 446.075C21.4999 447.412 21.6124 448.788 21.7374 450.038Z" fill="#7F7F7F"/>
<path opacity="0.32" d="M22.575 457.238C22.4689 457.476 22.3159 457.69 22.1251 457.867C21.9343 458.045 21.7097 458.182 21.4646 458.271C21.2195 458.36 20.959 458.398 20.6988 458.384C20.4386 458.369 20.1839 458.303 19.95 458.188L10.75 453.688C8.57502 452.625 10.475 449.388 12.6375 450.45L21.85 454.95C22.0128 455.029 22.1642 455.13 22.3 455.25C22.4 455.938 22.5 456.6 22.575 457.238Z" fill="#7F7F7F"/>
<path opacity="0.32" d="M27.7874 481.288C24.2624 485.125 18.5749 486.975 14.7249 482.325C13.5791 480.776 12.6184 479.098 11.8624 477.325C11.1249 475.825 9.96235 474.088 10.1874 472.325C10.2474 471.666 10.5088 471.042 10.9359 470.536C11.363 470.031 11.9352 469.669 12.5749 469.5C13.8755 469.31 15.2016 469.58 16.3249 470.263C16.2499 470.05 16.1874 469.838 16.1374 469.638C15.9011 468.562 16.008 467.44 16.443 466.429C16.878 465.417 17.6193 464.568 18.5624 464C20.1291 463.104 21.9532 462.764 23.7374 463.038V463.038C23.99 464.173 24.4114 465.264 24.9874 466.275C25.1624 466.538 25.3374 466.813 25.4874 467.088H25.2499C23.7624 466.788 20.8749 466.075 19.9124 467.8C19.3749 468.75 20.1374 469.825 20.6999 470.575C20.9499 470.9 21.2249 471.213 21.5124 471.525C21.795 471.303 22.1322 471.162 22.4883 471.116C22.8445 471.07 23.2066 471.12 23.5365 471.262C23.8664 471.404 24.152 471.632 24.3633 471.923C24.5746 472.213 24.7038 472.555 24.7374 472.913C24.9249 475.413 22.0124 476.525 20.0749 475.275C19.4601 474.851 18.9015 474.352 18.4124 473.788C18.1944 474.043 17.9084 474.232 17.5876 474.331C17.2667 474.431 16.9242 474.437 16.5999 474.35C15.9486 474.04 15.2709 473.789 14.5749 473.6C13.8874 473.713 14.7749 474.775 15.0999 475.438C15.6776 476.898 16.4154 478.29 17.2999 479.588C20.9374 483.988 26.2124 478.963 27.1499 474.938C27.2322 474.521 27.4688 474.15 27.8124 473.9C28.132 476.353 28.1236 478.837 27.7874 481.288V481.288Z" fill="#7F7F7F"/>
<path opacity="0.32" d="M23.7625 498.788C23.7625 499.125 23.825 499.812 23.925 500.8C20.1159 502.135 16.141 502.938 12.1125 503.187C9.70001 503.4 9.72501 499.65 12.1125 499.437C14.5 499.225 20.275 498.625 24.05 496.763C23.8793 497.425 23.7829 498.104 23.7625 498.788V498.788Z" fill="#7F7F7F"/>
<path opacity="0.32" d="M25.7874 515.213C24.0573 515.965 22.2881 516.624 20.4874 517.188C18.1749 517.913 17.1999 514.287 19.4874 513.575C21.463 512.947 23.3926 512.183 25.2624 511.288C25.4249 512.538 25.5999 513.788 25.7874 515.213Z" fill="#7F7F7F"/>
<path opacity="0.32" d="M6.66245 528.088C4.47881 528.376 2.27085 528.435 0.0749512 528.263L0.0749512 524.513C2.27005 524.702 4.47936 524.647 6.66245 524.35C9.06245 524.025 9.02495 527.775 6.66245 528.088Z" fill="#7F7F7F"/>
<path opacity="0.32" d="M13.3375 545.3C8.7629 545.003 4.27499 543.912 0.0749512 542.075L0.0749512 537.938C4.21163 540.011 8.7204 541.24 13.3375 541.55C15.7375 541.713 15.75 545.463 13.3375 545.3Z" fill="#7F7F7F"/>
<path opacity="0.32" d="M30.6251 552.85C26.5233 554.154 22.2257 554.733 17.9251 554.563C15.5126 554.463 15.5126 550.713 17.9251 550.813C22.0837 550.992 26.24 550.408 30.1876 549.087C30.3251 550.35 30.4751 551.6 30.6251 552.85Z" fill="#7F7F7F"/>
<path opacity="0.32" d="M18.35 568.975C11.5051 568.307 5.07641 565.383 0.0749512 560.663L0.0749512 555.113C2.29449 557.93 5.05429 560.276 8.19246 562.012C11.3306 563.749 14.784 564.841 18.35 565.225C20.725 565.475 20.75 569.238 18.35 568.975Z" fill="#7F7F7F"/>
<path opacity="0.32" d="M33.2623 579.7C28.8988 583.378 23.6278 585.817 17.9998 586.763C15.6373 587.163 14.6248 583.538 16.9998 583.138C23.0451 582.173 28.6197 579.289 32.8998 574.913C33.0498 576.575 33.1623 578.175 33.2623 579.7Z" fill="#7F7F7F"/>
<path opacity="0.32" d="M14.6 598.275C9.66137 598.164 4.76654 597.321 0.0749512 595.775L0.0749512 591.813C4.73768 593.493 9.64455 594.396 14.6 594.488C17.0125 594.575 17.0125 598.325 14.6 598.275Z" fill="#7F7F7F"/>
<path opacity="0.32" d="M32.575 602.713C32.575 603.963 32.575 605.212 32.575 606.662C27.2042 608.802 21.4685 609.876 15.6875 609.825C15.1902 609.825 14.7133 609.627 14.3617 609.276C14.01 608.924 13.8125 608.447 13.8125 607.95C13.8125 607.453 14.01 606.976 14.3617 606.624C14.7133 606.273 15.1902 606.075 15.6875 606.075C19.8161 606.118 23.928 605.545 27.8875 604.375C29.1125 603.975 30.825 603.438 32.575 602.713Z" fill="#7F7F7F"/>
<path opacity="0.32" d="M32.8875 630.238C27.3 631 21.725 631.788 16.15 632.563C13.7875 632.9 12.775 629.288 15.15 628.95L32.05 626.588C32.2938 626.543 32.5436 626.543 32.7875 626.588C32.825 627.8 32.85 629 32.8875 630.238Z" fill="#7F7F7F"/>
<path opacity="0.32" d="M33.925 657.538C28.4096 660.062 22.1214 660.309 16.425 658.225C14.175 657.4 15.175 653.775 17.425 654.6C20.0754 655.619 22.9175 656.041 25.7497 655.838C28.5818 655.635 31.3345 654.811 33.8125 653.425C33.825 654.725 33.825 656.088 33.925 657.538Z" fill="#7F7F7F"/>
<path opacity="0.32" d="M35.7127 691.188C33.5313 689.953 31.2218 688.959 28.8252 688.225C25.9752 687.438 23.2252 687.738 20.3502 687.438C17.2502 687.1 14.9252 685.975 13.4252 683.175C13.286 682.926 13.2047 682.648 13.1874 682.363C13.1702 682.078 13.2173 681.793 13.3254 681.529C13.4335 681.265 13.5997 681.028 13.8118 680.837C14.0238 680.646 14.2762 680.505 14.5502 680.425L34.7127 672.763C34.7877 674.013 34.8502 675.363 34.9252 676.675L18.4752 682.925C21.5502 684.438 26.9752 683.8 29.8127 684.6C31.7713 685.186 33.6745 685.943 35.5002 686.863C35.5502 688.3 35.6252 689.738 35.7127 691.188Z" fill="#7F7F7F"/>
<path opacity="0.32" d="M38.1874 726.95C34.2772 727.845 30.2732 728.265 26.2624 728.2C23.8499 728.2 23.8499 724.45 26.2624 724.45C30.1788 724.528 34.0893 724.108 37.8999 723.2C37.9999 724.438 38.0874 725.7 38.1874 726.95Z" fill="#7F7F7F"/>
<path opacity="0.32" d="M4.04967 737.95C8.31641 739.8 12.9243 740.733 17.5747 740.687C18.072 740.687 18.5489 740.49 18.9005 740.138C19.2521 739.787 19.4497 739.31 19.4497 738.812C19.4497 738.315 19.2521 737.838 18.9005 737.487C18.5489 737.135 18.072 736.937 17.5747 736.937C13.6038 737.006 9.66209 736.248 5.99967 734.712C3.74967 733.787 1.83717 737 4.04967 737.95Z" fill="#7F7F7F"/>
<path opacity="0.32" d="M14.5502 761.738C18.552 763.021 22.8792 762.844 26.7627 761.238C28.9627 760.325 28.0127 756.7 25.7627 757.625C22.528 759.027 18.8937 759.205 15.5377 758.125C13.2377 757.4 12.2502 761.013 14.5502 761.738Z" fill="#7F7F7F"/>
<path opacity="0.32" d="M7.76245 775.5L0.0749512 771.55V767.338L9.66245 772.263C11.8125 773.363 9.91245 776.6 7.76245 775.5Z" fill="#7F7F7F"/>
<path opacity="0.32" d="M44.0874 783.975C38.1874 786.383 32.1958 788.567 26.1124 790.525C23.7999 791.263 22.8249 787.638 25.1124 786.913C31.3458 784.913 37.4874 782.667 43.5374 780.175C43.7249 781.475 43.8999 782.738 44.0874 783.975Z" fill="#7F7F7F"/>
<path opacity="0.32" d="M26.85 803.575C17.7302 804.758 8.46112 803.386 0.0749512 799.613H0.0749512V796.575C0.34964 796.374 0.67319 796.251 1.01181 796.218C1.35043 796.185 1.69169 796.244 1.99995 796.388C9.80721 799.805 18.407 800.999 26.85 799.838C29.25 799.513 29.2125 803.275 26.85 803.575Z" fill="#7F7F7F"/>
<path opacity="0.32" d="M50.2874 809.775C45.7749 823.788 30.9249 826.8 18.0499 828.4C15.6624 828.7 15.6874 824.95 18.0499 824.65C29.0874 823.288 42.7874 821.038 46.6749 808.775C46.7421 808.526 46.8606 808.294 47.0228 808.093C47.1851 807.893 47.3874 807.728 47.617 807.611C47.8465 807.493 48.0981 807.424 48.3557 807.41C48.6132 807.395 48.871 807.434 49.1124 807.525C49.3482 807.578 49.5695 807.682 49.7611 807.829C49.9527 807.976 50.1099 808.163 50.2217 808.378C50.3336 808.592 50.3974 808.828 50.4087 809.069C50.4201 809.31 50.3787 809.551 50.2874 809.775Z" fill="#7F7F7F"/>
<path opacity="0.32" d="M43.1375 838.25C39.6875 831.65 30.75 835.5 31.8875 842.388C32.3 844.763 35.9125 843.75 35.5 841.388C35.9125 843.738 42.25 842.2 37.6375 845.325C36.4449 846.028 35.1895 846.618 33.8875 847.088C32.525 847.675 31.1625 848.5 29.7875 848.975C24.9 850.663 22.8125 848.25 19.4375 845.35C16.275 842.638 15.875 841.45 20.4375 839.725C25.9 837.663 37.025 836.888 37.5125 829.375C37.6625 826.963 33.9125 826.975 33.7625 829.375C33.4875 833.688 20.0875 835.625 16.85 837.088C14.5375 838.15 11.725 839.825 12.3625 842.875C13.125 846.525 18.6125 849.6 21.375 851.625C25.9125 854.938 27.625 854.263 32.2625 851.85C37.425 849.213 47.3 846.2 43.1375 838.25Z" fill="#7F7F7F"/>
<path opacity="0.32" d="M48.8249 866.037C48.3749 868.187 47.9249 870.3 47.4999 872.287C42.6414 876.063 36.7545 878.281 30.6124 878.65C28.1999 878.8 28.2124 875.05 30.6124 874.9C37.6169 874.473 44.1662 871.286 48.8249 866.037Z" fill="#7F7F7F"/>
<path opacity="0.32" d="M4.52508 885.563C11.3395 887.557 18.5101 888.022 25.5251 886.925C27.9001 886.563 26.8876 882.95 24.5251 883.313C18.1644 884.259 11.6734 883.794 5.51258 881.95C3.20008 881.288 2.21258 884.888 4.52508 885.563Z" fill="#7F7F7F"/>
<path opacity="0.32" d="M37.2748 888.537C34.4627 890.39 31.4978 892.001 28.4123 893.35C26.2123 894.313 28.1123 897.55 30.2998 896.587C33.3853 895.238 36.3502 893.628 39.1623 891.775C41.1748 890.45 39.2998 887.2 37.2748 888.537Z" fill="#7F7F7F"/>
<path opacity="0.32" d="M16.25 914.338C10.8451 914.914 5.38255 914.61 0.0749512 913.438L0.0749512 909.588C5.37051 910.838 10.8407 911.177 16.25 910.588C18.65 910.338 18.625 914.088 16.25 914.338Z" fill="#7F7F7F"/>
<path opacity="0.32" d="M29.9126 914.388C27.5626 913.875 26.5501 917.488 28.9126 918C34.2031 919.189 39.704 919.069 44.9376 917.65C45.4035 917.506 45.795 917.186 46.029 916.758C46.2631 916.331 46.3212 915.828 46.1911 915.358C46.061 914.888 45.7529 914.488 45.3322 914.241C44.9115 913.994 44.4112 913.921 43.9376 914.038C39.3612 915.297 34.5461 915.417 29.9126 914.388V914.388Z" fill="#7F7F7F"/>
<path opacity="0.32" d="M55.0123 941.8C46.3123 944.227 37.1759 944.654 28.2873 943.05C25.9123 942.638 26.9248 939.013 29.2873 939.438C37.4976 940.88 45.9273 940.452 53.9498 938.188C54.2873 939.388 54.6498 940.588 55.0123 941.8Z" fill="#7F7F7F"/>
<path opacity="0.32" d="M59.0499 954.7C53.0487 956.402 46.86 957.355 40.6249 957.538C38.2124 957.663 38.2249 953.913 40.6249 953.788C46.4712 953.654 52.2799 952.814 57.9249 951.288C58.2832 952.396 58.6582 953.533 59.0499 954.7Z" fill="#7F7F7F"/>
<path opacity="0.32" d="M16.2625 957.4C10.8428 957.236 5.4375 956.752 0.0749512 955.95L0.0749512 952.2C5.43392 953.036 10.8407 953.528 16.2625 953.675C18.675 953.788 18.675 957.538 16.2625 957.4Z" fill="#7F7F7F"/>
<path opacity="0.32" d="M66.725 976.588C55.7861 982.21 43.622 985.028 31.325 984.788C28.9125 984.788 28.9125 981.038 31.325 981.038C43.1894 981.289 54.9259 978.546 65.45 973.062C65.8375 974.25 66.325 975.425 66.725 976.588Z" fill="#7F7F7F"/>
<path opacity="0.32" d="M19.375 988.7C12.9473 989.115 6.49861 989.086 0.0749512 988.612L0.0749512 984.862C6.50084 985.3 12.9491 985.3 19.375 984.862C21.8 984.787 21.775 988.55 19.375 988.7Z" fill="#7F7F7F"/>
<path opacity="0.32" d="M74.1 994.713C68.4583 996.148 62.6965 997.06 56.8875 997.438C54.475 997.6 54.4875 993.85 56.8875 993.688C62.1762 993.343 67.425 992.54 72.575 991.288C73.0875 992.425 73.6 993.588 74.1 994.713Z" fill="#7F7F7F"/>
<path opacity="0.32" d="M61.3875 1003.73C63.75 1004.2 64.75 1000.59 62.3875 1000.11C56.6838 998.958 50.8919 998.293 45.075 998.125C42.6625 998.063 42.6625 1001.81 45.075 1001.88C50.5553 1002.03 56.0126 1002.64 61.3875 1003.73V1003.73Z" fill="#7F7F7F"/>
<path opacity="0.32" d="M63.6125 1028.19C50 1031.61 35.8375 1035.1 21.7 1033.44C14.0543 1032.44 6.694 1029.89 0.0749512 1025.94L0.0749512 1021.59C7.67201 1026.46 16.3625 1029.36 25.3625 1030.04C38 1030.79 50.4625 1027.66 62.625 1024.61C64.9625 1023.99 65.9625 1027.54 63.6125 1028.19Z" fill="#7F7F7F"/>
<path opacity="0.32" d="M60.0748 1040.55C47.5202 1044.46 34.3691 1046.11 21.2373 1045.41C18.8248 1045.29 18.8373 1049.04 21.2373 1049.16C34.7079 1049.87 48.1971 1048.18 61.0748 1044.16C63.3748 1043.45 62.3998 1039.84 60.0748 1040.55Z" fill="#7F7F7F"/>
</g>
<path d="M49.1125 807.538C49.3406 807.592 49.5546 807.694 49.7404 807.837C49.9262 807.98 50.0796 808.161 50.1906 808.368C50.3016 808.574 50.3676 808.802 50.3843 809.036C50.401 809.27 50.368 809.505 50.2875 809.725V809.725C49.8141 809.043 49.4199 808.309 49.1125 807.538V807.538Z" fill="#EDEDED"/>
<path opacity="0.41" d="M88.7624 1082.54H0.0749512V95.875L2.23745 94L12.1 90.25C12.1 90.25 -0.400049 104.263 4.14995 101.762C8.69995 99.2625 11.65 92.1875 8.76245 99.2625C5.87495 106.338 1.26245 139.263 4.14995 132.188C7.03745 125.113 3.47495 138.013 4.03745 154.263C4.59995 170.513 0.787451 228.138 3.94995 246.825C7.11245 265.513 2.77495 279.588 8.07495 284.2C13.375 288.813 3.47495 296.55 7.78745 303.95C12.1 311.35 10.675 309.825 8.52495 313.95C6.37495 318.075 1.47495 359.663 5.67495 363.213C9.87495 366.763 3.56245 444.463 6.16245 454.313C8.76245 464.163 1.09995 465.563 3.66245 474.038C6.22495 482.513 4.69995 495.213 12.075 496.763C19.45 498.313 23.4875 505.45 17.15 505.875C10.8125 506.3 4.41245 490.513 4.26245 507.538C4.11245 524.563 2.93745 551.538 8.44995 557.95C13.9625 564.363 28.225 568.788 19.325 570.875C10.425 572.963 2.33745 570.35 5.33745 577.9C8.33745 585.45 2.71245 593.788 8.44995 597.763C14.1875 601.738 19.6 607.525 15.6375 609.825C11.675 612.125 4.79995 609.825 8.44995 626.563C12.1 643.3 3.76245 679.063 8.34995 691.188C12.9375 703.313 15.075 701.7 13.1375 713.788C11.2 725.875 23.925 737.95 22.175 742.95C20.425 747.95 9.53745 745.45 10.6125 751.288C11.6875 757.125 33.825 788.7 24.45 796.2C15.075 803.7 10.375 804.613 10.6125 817.95C10.85 831.288 7.44995 836.575 14.3625 846.225C21.275 855.875 39.125 858.375 33.7375 863.375C28.35 868.375 14.55 865.45 14.3625 870.45C14.175 875.45 22.5 880.8 20.6125 887.5C18.725 894.2 8.11245 897.963 9.06245 906.25C10.0125 914.538 23.3375 933.438 22.9125 952.138C22.4875 970.838 19.0125 977.775 21.175 994.3C23.3375 1010.83 29.0125 1049.3 34.7125 1029.86C40.4124 1010.43 40.75 994.738 48.0875 1021.54C55.425 1048.34 61.8499 1071.29 62.3874 1067.54C62.9249 1063.79 76.45 1085.04 68.7625 1064.63C61.075 1044.21 88.7624 1082.54 88.7624 1082.54Z" fill="#7F7F7F"/>
<path d="M72.5125 346.45C71.2625 346.45 19.825 345.037 36.2625 348.575C52.7 352.112 77.2875 355.113 68.3375 355.388C59.3875 355.663 44.5875 354.787 58.55 357.525C72.5125 360.262 91.2625 364.625 88.7625 360.25C86.2625 355.875 86.675 354.7 92.725 355.388C98.775 356.075 99.7875 346.738 72.5125 346.45Z" fill="#CDC945"/>
<path opacity="0.36" d="M102.925 734.538C100.425 740.875 98.7625 757.975 96.2625 767.338C93.7625 776.7 81.2625 796.2 81.2625 796.2C70.6125 794.375 79.3875 782.538 88.7625 762.575C96.2625 746.713 98.9375 718.1 99.725 707.063L102.925 709.2C102.925 709.2 105.425 728.213 102.925 734.538Z" fill="#7F7F7F"/>
<path d="M59.05 718.35C59.05 718.35 60.075 731.225 55.975 734.6C51.875 737.975 51.5625 736.2 48.475 744.6C46.5938 749.625 44.1 754.398 41.0499 758.813L39.075 737.713C39.075 737.713 48.5375 731.463 49.075 723.275C49.6125 715.088 53.725 710.775 54.075 707.163C54.1978 703.307 54.1143 699.447 53.825 695.6L64.125 697.025L59.05 718.35Z" fill="#C6C6C6"/>
<path d="M60.0756 10.7002C39.0756 8.47525 9.70056 11.2878 20.9506 15.6628C32.2006 20.0378 31.5756 25.1253 23.4506 26.9128C15.3256 28.7003 0.0755615 33.1628 0.0755615 33.1628V-1.21225H64.3131C63.2381 -1.21225 28.8256 -1.21225 47.2381 1.60025C65.9506 4.41275 81.1756 12.9252 60.0756 10.7002Z" fill="#CDC945"/>
<g opacity="0.6">
<path opacity="0.6" d="M100.638 6.28751C97.2002 8.78751 93.4502 9.17501 94.0752 10.7C94.3752 11.425 93.4627 14.2375 92.2877 17.2875L91.6252 18.975C91.0252 20.4375 90.3752 21.8875 89.8877 23.1L88.7627 25.6C88.3181 26.4257 87.763 27.1869 87.1127 27.8625C87.0659 27.9311 87.0114 27.994 86.9502 28.05C84.7627 30.55 82.0752 33.6 86.5252 35.9125C87.7752 36.55 88.1377 38.175 88.0127 40.3625C87.786 42.8299 87.2742 45.2628 86.4877 47.6125C86.2627 48.3125 86.0377 49.0375 85.7877 49.75L83.8252 50.0375L78.4377 50.7H78.3252C75.3252 51.05 72.2752 51.3875 69.2002 51.7C69.6627 51.0875 70.1127 50.45 70.5252 49.8C71.2085 48.7866 71.8184 47.7256 72.3502 46.625C73.0867 45.086 73.5115 43.4164 73.6002 41.7125V41.7125C73.615 40.6164 73.8136 39.5304 74.1877 38.5C74.5819 37.4655 75.1298 36.4963 75.8127 35.625C77.7377 33.125 80.5127 31.075 82.4877 27.925C82.6377 27.6875 82.7877 27.45 82.9127 27.2C83.0377 26.95 83.0252 27.0125 83.0752 26.925C83.6127 25.9125 84.1502 24.825 84.6752 23.725C87.1752 18.375 89.2502 12.475 88.7377 10.675C88.1377 8.47501 86.5252 -1.21249 86.5252 -1.21249H100.638C100.638 -1.21249 104.075 3.78751 100.638 6.28751Z" fill="#EDEDED"/>
</g>
<path d="M69.6999 52.8125C82.1056 52.8125 92.1624 51.4302 92.1624 49.725C92.1624 48.0198 82.1056 46.6375 69.6999 46.6375C57.2942 46.6375 47.2374 48.0198 47.2374 49.725C47.2374 51.4302 57.2942 52.8125 69.6999 52.8125Z" fill="#858233"/>
<path d="M102.275 28.75C114.681 28.75 124.738 27.3677 124.738 25.6625C124.738 23.9573 114.681 22.575 102.275 22.575C89.8694 22.575 79.8126 23.9573 79.8126 25.6625C79.8126 27.3677 89.8694 28.75 102.275 28.75Z" fill="#858233"/>
<path d="M58.45 43.4875C69.6682 43.4875 78.7625 41.1762 78.7625 38.325C78.7625 35.4738 69.6682 33.1625 58.45 33.1625C47.2317 33.1625 38.1375 35.4738 38.1375 38.325C38.1375 41.1762 47.2317 43.4875 58.45 43.4875Z" fill="#858233"/>
<path d="M10.625 1063.38C14.6 1069.24 20.2125 1073.1 24.8375 1082.54H0.0749512V814.05C4.78745 833.388 9.81245 855.2 8.23745 853.938C5.42495 851.7 2.12495 861.625 8.23745 866.038C14.35 870.45 4.38745 925.038 8.23745 933.375C12.0875 941.713 20.85 1011.98 13.1375 994.338C5.42495 976.7 6.62495 994.2 10.6375 1013.38C14.65 1032.55 22.8625 1065.04 16.2375 1059.2C9.61245 1053.36 5.82495 1056.29 10.625 1063.38Z" fill="#7F7F7F"/>
<path d="M36.9125 1045.13C44.1375 1060.86 48.625 1078.61 50.6625 1082.54H38.6625C34.1375 1058.33 27.4 1024.39 36.9125 1045.13Z" fill="#7F7F7F"/>
<path d="M51.7 1082.54C51.971 1079.07 51.971 1075.59 51.7 1072.13C50.45 1044.2 55.2 1070.45 62.4125 1082.54H51.7Z" fill="#7F7F7F"/>
<path d="M105.95 794.238C104.4 793.975 89.8875 792.988 94.8 796.2C99.7125 799.413 102.662 800.663 99.8749 802.325C97.0874 803.988 92.9249 804.713 100.637 807.475C108.35 810.238 97.5125 811.388 105.425 814.05C113.337 816.713 117.3 817.438 113.962 814.05C110.625 810.663 101.975 805.75 107.075 804.05C112.175 802.35 111.875 799.188 108.125 797.875C104.375 796.563 115.725 795.913 105.95 794.238Z" fill="#CDC945"/>
</g>
</svg>
