<svg width="94" height="95" viewBox="0 0 94 95" fill="none" xmlns="http://www.w3.org/2000/svg">
<path d="M84.7341 94.6016H9.0657C4.04935 94.6016 0 90.5522 0 85.5359V9.86746C0 4.8511 4.04935 0.801758 9.0657 0.801758H84.7341C89.7505 0.801758 93.7998 4.8511 93.7998 9.86746V85.5359C93.7998 90.5522 89.7505 94.6016 84.7341 94.6016Z" fill="#82942F"/>
<path d="M34.4497 55.3168L31.1256 66.2561H23.7521L36.2024 27.6362H45.2681L57.8996 66.2561H50.2844L46.779 55.3168H34.4497V55.3168ZM45.5703 49.9983L42.4879 40.5095C41.7627 38.1524 41.0978 35.5536 40.5539 33.3174H40.433C39.8287 35.5536 39.2847 38.2733 38.5595 40.5095L35.5375 49.9983H45.5703Z" fill="white"/>
<path d="M67.0257 44.0752C67.0257 45.5861 65.8774 46.7949 64.1247 46.7949C62.4325 46.7949 61.2841 45.5861 61.2841 44.0752C61.2237 42.5038 62.372 41.3555 64.1247 41.3555C65.8774 41.3555 66.9653 42.5038 67.0257 44.0752ZM61.405 66.2559V48.9102H66.8444V66.2559H61.405Z" fill="white"/>
</svg>
