<svg width="94" height="95" viewBox="0 0 94 95" fill="none" xmlns="http://www.w3.org/2000/svg">
<path d="M84.7341 94.8261H9.0657C4.04935 94.8261 0 90.7767 0 85.7604V10.0315C0 5.01517 4.04935 0.96582 9.0657 0.96582H84.7341C89.7505 0.96582 93.7998 5.01517 93.7998 10.0315V85.6999C93.7998 90.7767 89.7505 94.8261 84.7341 94.8261Z" fill="#82942F"/>
<path d="M31.0652 38.5581L34.3892 43.8162C35.2958 45.3272 36.1419 46.6568 36.9276 48.1073H37.109C37.8946 46.5359 38.7408 45.1458 39.5265 43.6953L42.6088 38.5581H50.3449L40.977 51.9754L50.5262 66.4805H42.5484L39.1034 60.9202C38.1968 59.4092 37.3507 57.9587 36.565 56.3873H36.4441C35.6584 58.0191 34.8123 59.3488 33.9057 60.9202L30.7025 66.4805H22.8456L32.5761 52.2775L23.2082 38.5581H31.0652V38.5581Z" fill="white"/>
<path d="M70.1081 41.2173V61.2223C70.1081 63.1563 70.1685 65.2112 70.229 66.4199H65.3939L65.1522 63.8816H65.0918C64.0039 65.8156 61.8885 66.843 59.6523 66.843C55.4821 66.843 52.158 63.3376 52.158 57.9586C52.0976 52.0961 55.7843 48.7116 59.9545 48.7116C62.0699 48.7116 63.7621 49.4369 64.5478 50.6456H64.6083V41.2173H70.1081ZM64.7291 56.4477C64.7291 56.1455 64.6687 55.7829 64.6687 55.4807C64.3665 54.0301 63.1577 52.8214 61.4655 52.8214C58.9875 52.8214 57.7183 54.9971 57.7183 57.7773C57.7183 60.7388 59.1688 62.5519 61.405 62.5519C62.9764 62.5519 64.2456 61.464 64.5478 59.9531C64.6687 59.5905 64.6687 59.1674 64.6687 58.6839V56.4477H64.7291Z" fill="white"/>
</svg>
