<svg width="95" height="95" viewBox="0 0 95 95" fill="none" xmlns="http://www.w3.org/2000/svg">
<path d="M85.3516 94.7656H9.6832C4.66684 94.7656 0.617493 90.7163 0.617493 85.6999V10.0315C0.617493 5.01517 4.66684 0.96582 9.6832 0.96582H85.3516C90.368 0.96582 94.4173 5.01517 94.4173 10.0315V85.6999C94.4173 90.7163 90.368 94.7656 85.3516 94.7656Z" fill="#82942F"/>
<path d="M47.2757 36.9267C44.4955 36.9267 41.7153 36.9267 38.8748 36.9267C33.9793 36.8663 30.2926 33.1796 30.2926 28.405C30.2926 23.6304 34.0397 19.8832 38.8748 19.8832C44.4351 19.8228 50.0558 19.8228 55.6161 19.8832C60.4511 19.9437 64.1983 23.6304 64.2587 28.405C64.2587 33.1796 60.5116 36.8663 55.6765 36.9267C52.8359 36.9267 50.0558 36.9267 47.2757 36.9267Z" fill="white"/>
<path d="M47.0943 56.2672C43.5889 56.2672 40.144 56.5694 36.8199 56.2068C32.6497 55.7233 29.7486 51.5531 30.0508 47.262C30.353 43.1522 33.8584 39.6468 37.9682 39.5259C40.9901 39.405 44.012 39.5259 47.1548 39.5259C47.0943 45.0862 47.0943 50.6465 47.0943 56.2672Z" fill="white"/>
<path d="M46.913 58.9866C46.913 62.492 47.3361 65.9974 46.7921 69.4424C46.1273 73.7334 41.8362 76.3927 37.4243 75.8488C33.3749 75.3653 30.1717 71.739 30.1112 67.5083C30.0508 63.2777 33.0727 59.5305 37.3638 59.047C40.567 58.7448 43.7703 58.9866 46.913 58.9866Z" fill="white"/>
<path d="M56.4622 56.5691C51.7481 56.5087 48.0009 52.7011 48.0009 48.0474C48.0613 43.3332 51.9898 39.4652 56.704 39.5256C61.3577 39.586 65.1049 43.4541 65.0444 48.1682C64.984 52.9428 61.2368 56.6296 56.4622 56.5691Z" fill="white"/>
</svg>
