<svg width="95" height="95" viewBox="0 0 95 95" fill="none" xmlns="http://www.w3.org/2000/svg">
<path d="M85.3516 94.6016H9.6832C4.66684 94.6016 0.617493 90.5522 0.617493 85.5359V9.86746C0.617493 4.8511 4.66684 0.801758 9.6832 0.801758H85.3516C90.3679 0.801758 94.4173 4.8511 94.4173 9.86746V85.5359C94.4173 90.5522 90.3679 94.6016 85.3516 94.6016Z" fill="#82942F"/>
<path d="M27.2707 28.1197C29.8091 27.6362 33.3145 27.334 38.0891 27.334C43.2867 27.334 47.0943 28.4219 49.5723 30.4767C51.8689 32.3503 53.3799 35.4327 53.3799 38.9985C53.3799 42.6852 52.2316 45.7071 50.0558 47.762C47.2152 50.5422 42.8032 51.8718 37.7869 51.8718C36.4572 51.8718 35.2485 51.8114 34.3419 51.6301V66.2561H27.2707V28.1197ZM34.2815 46.1302C35.1276 46.372 36.2759 46.4324 37.7264 46.4324C43.045 46.4324 46.2482 43.8336 46.2482 39.3007C46.2482 35.0096 43.2263 32.713 38.3308 32.713C36.3968 32.713 35.0067 32.8943 34.221 33.0756V46.1302H34.2815Z" fill="white"/>
<path d="M57.5501 61.542C58.5776 62.1464 60.6324 62.8716 62.2038 62.8716C63.8357 62.8716 64.5005 62.3277 64.5005 61.4211C64.5005 60.5146 63.9565 60.0915 61.9016 59.4267C58.2754 58.2179 56.8853 56.2839 56.9457 54.229C56.9457 51.0258 59.7259 48.5479 64.0774 48.5479C66.1323 48.5479 67.9454 49.0313 69.0333 49.5148L68.0663 53.262C67.2806 52.8389 65.7697 52.295 64.2587 52.295C62.9291 52.295 62.2038 52.8389 62.2038 53.7455C62.2038 54.5916 62.8687 55.0147 65.0444 55.74C68.3685 56.8883 69.7586 58.5201 69.819 61.119C69.819 64.3222 67.2202 66.7397 62.2643 66.7397C59.9676 66.7397 57.9127 66.2562 56.6435 65.5309L57.5501 61.542Z" fill="white"/>
</svg>
