<svg width="94" height="94" viewBox="0 0 94 94" fill="none" xmlns="http://www.w3.org/2000/svg">
<path d="M84.7341 93.9897H9.0657C4.04935 93.9897 0 89.9404 0 84.924V9.25564C0 4.23929 4.04935 0.189941 9.0657 0.189941H84.7341C89.7505 0.189941 93.7998 4.23929 93.7998 9.25564V84.924C93.7998 89.9404 89.7505 93.9897 84.7341 93.9897Z" fill="#82942F"/>
<path d="M60.6193 69.9354C60.438 69.9354 60.1962 69.9354 60.0149 69.9354C59.7127 69.6332 59.3501 69.331 59.0479 69.0288C54.4546 64.5564 49.8613 60.084 45.2076 55.6116C43.2736 53.738 41.4 51.9249 39.466 50.0513C35.7793 52.8314 32.153 55.5511 28.6476 58.3917C27.318 59.4796 26.2905 59.6609 25.0213 58.6335C24.6587 58.3313 24.2961 57.8478 24.2961 57.4852C24.2356 50.6557 24.2961 43.8262 24.2356 36.9967C24.2356 35.7275 25.2631 35.667 25.9883 35.1835C26.5927 34.7605 27.1366 34.8209 27.741 35.3044C30.4607 37.4197 33.2409 39.5351 36.021 41.6504C37.1694 42.4965 38.3177 43.4031 39.7682 44.491C41.4605 42.6778 42.9714 40.8647 44.7241 39.1724C49.8009 34.2165 54.8777 29.2606 59.9545 24.3047C60.1358 24.3047 60.3776 24.3047 60.5589 24.3047C63.1577 25.3926 65.7565 26.4804 68.4158 27.5079C69.262 27.8101 69.5037 28.2936 69.5037 29.2002C69.5037 41.1669 69.5037 53.1336 69.5037 65.1003C69.5037 66.0069 69.262 66.43 68.4158 66.7322C65.817 67.6992 63.2181 68.8475 60.6193 69.9354ZM58.3831 55.7325C58.3831 49.87 58.3831 44.1888 58.3831 38.3867C54.4546 41.2878 50.7075 44.1284 46.8394 47.0294C50.7075 49.9908 54.5151 52.8314 58.3831 55.7325ZM34.1475 47.0898C32.2134 45.3975 30.3399 43.7053 28.4058 41.9526C28.4058 45.458 28.4058 48.7821 28.4058 52.2875C30.3399 50.5348 32.2134 48.8425 34.1475 47.0898Z" fill="white"/>
</svg>
